<svg width="80" height="80" viewBox="0 0 80 80" fill="none" xmlns="http://www.w3.org/2000/svg">
<g clip-path="url(#clip0)">
<path d="M33.0983 8.24437L35.554 9.58734L36.8968 12.0427C37.2397 12.6697 37.8968 13.0594 38.6115 13.0594C39.3261 13.0594 39.9832 12.6698 40.3261 12.0428L41.6691 9.58734L44.1246 8.24437C44.7516 7.90141 45.1411 7.24438 45.1411 6.52969C45.1411 5.815 44.7516 5.15797 44.1246 4.815L41.6691 3.47203L40.3261 1.01656C39.9832 0.389531 39.3261 0 38.6115 0C37.8968 0 37.2397 0.389531 36.8968 1.01672L35.554 3.47203L33.0985 4.815C32.4715 5.15797 32.0818 5.815 32.0818 6.52969C32.0818 7.24438 32.4713 7.90141 33.0983 8.24437V8.24437ZM36.7793 5.47484C37.1079 5.29531 37.3766 5.02656 37.5565 4.69781L38.6113 2.76906L39.6663 4.69813C39.8461 5.02672 40.1147 5.29531 40.443 5.47469L42.3719 6.52969L40.4433 7.58453C40.1149 7.76406 39.8461 8.03266 39.6663 8.36141L38.6113 10.2903L37.5563 8.36125C37.3765 8.03266 37.1079 7.76406 36.7796 7.58469L34.8507 6.52969L36.7793 5.47484Z" fill="white"/>
<path d="M77.991 32.7709L76.241 31.8137L75.2838 30.0636C75.2838 30.0636 75.2838 30.0636 75.2838 30.0634C74.9957 29.5367 74.4437 29.2097 73.8434 29.2097C73.2431 29.2097 72.6912 29.537 72.4032 30.0636L71.446 31.8137L69.6959 32.7709C69.1691 33.0589 68.842 33.6107 68.8418 34.2111C68.8418 34.8114 69.169 35.3634 69.6957 35.6515L71.446 36.6087L72.403 38.3587C72.6912 38.8854 73.243 39.2126 73.8432 39.2128H73.8434C74.4437 39.2128 74.9955 38.8856 75.2837 38.3589L76.2409 36.6087L77.9912 35.6515C78.5179 35.3634 78.8449 34.8115 78.8449 34.2111C78.8449 33.6107 78.5177 33.0589 77.991 32.7709ZM74.9346 34.6501C74.6588 34.8009 74.433 35.0267 74.2823 35.3026L73.8435 36.1048L73.4046 35.3025C73.2538 35.0267 73.028 34.8011 72.7521 34.65L71.9499 34.2112L72.7523 33.7723C73.0282 33.6214 73.2538 33.3957 73.4048 33.1197L73.8435 32.3175L74.2823 33.1198C74.4332 33.3957 74.6588 33.6214 74.9348 33.7723L75.737 34.2112L74.9346 34.6501Z" fill="white"/>
<path d="M50.272 7.58942C51.217 7.58942 51.9829 6.82332 51.9829 5.87848C51.9829 4.93348 51.2168 4.16754 50.272 4.16754C49.3271 4.16754 48.561 4.93364 48.561 5.87848C48.561 6.82332 49.327 7.58942 50.272 7.58942Z" fill="white"/>
<path d="M23.0217 19.9182C23.9667 19.9182 24.7327 19.1521 24.7327 18.2073C24.7327 17.2624 23.9666 16.4963 23.0217 16.4963C22.0767 16.4963 21.3108 17.2624 21.3108 18.2073C21.3108 19.1521 22.0767 19.9182 23.0217 19.9182Z" fill="white"/>
<path d="M14.6609 16.4964C15.6059 16.4964 16.3718 15.7303 16.3718 14.7855C16.3718 13.8405 15.6057 13.0746 14.6609 13.0746C13.7159 13.0746 12.95 13.8406 12.95 14.7855C12.95 15.7303 13.716 16.4964 14.6609 16.4964Z" fill="white"/>
<path d="M44.0067 47.9291C44.5277 47.4306 44.8541 46.7305 44.8541 45.9544V35.3178L51.7424 32.2764C52.4427 33.4614 53.9555 33.9344 55.195 33.377L72.2164 25.8614C73.0761 25.4819 73.7364 24.7903 74.0758 23.9141C74.4153 23.0378 74.3933 22.0819 74.0136 21.2223L73.418 19.8731C73.1566 19.2806 72.4639 19.0125 71.8717 19.2741C71.2794 19.5356 71.0111 20.228 71.2727 20.8203L71.8683 22.1695C71.9949 22.4561 72.0022 22.7747 71.8889 23.0667C71.7758 23.3587 71.5557 23.5892 71.2691 23.7159L59.9931 28.6947L53.6367 14.2986L64.9127 9.31983C65.5044 9.05843 66.198 9.32749 66.4591 9.9189L69.1083 15.9189C69.3699 16.5114 70.0622 16.7797 70.6546 16.518C71.2469 16.2564 71.5152 15.5641 71.2536 14.9717L68.6044 8.97171C67.821 7.19733 65.7397 6.39124 63.9653 7.17452L46.9442 14.69C46.2756 14.9851 45.7621 15.5231 45.498 16.2045C45.2749 16.7808 45.2549 17.4008 45.4317 17.9828L41.2627 19.8236C40.6702 20.0851 40.402 20.7775 40.6636 21.3698C40.9255 21.9683 41.6317 22.2284 42.2099 21.9689L46.3583 20.1372L50.7747 30.1397L40.1197 34.8442C39.4208 33.6691 38.3581 32.7653 37.0631 32.2636C35.5314 31.6703 33.8606 31.7087 32.3585 32.3723C29.4902 33.6387 28.0711 36.8448 28.9569 39.773L27.0674 40.6073C26.9381 40.6642 26.8245 40.6361 26.7681 40.6142C26.7117 40.5923 26.6086 40.5366 26.5517 40.4076L22.4511 31.1203C22.3942 30.9916 22.4224 30.8776 22.4442 30.8212C22.4661 30.7648 22.5219 30.6619 22.6508 30.6048L37.2705 24.1497C37.863 23.8881 38.1311 23.1958 37.8695 22.6034C37.608 22.0109 36.9156 21.7428 36.3233 22.0044L21.7036 28.4595C21.035 28.7547 20.5214 29.2926 20.2574 29.9741C19.9933 30.6556 20.0105 31.3991 20.3058 32.0676L20.5416 32.6017L15.7728 34.7073C15.3352 33.8837 14.3272 33.5233 13.4608 33.9061L12.9861 34.1156L10.1027 27.5855L10.3449 27.4786C10.9374 27.217 11.2055 26.5247 10.9439 25.9323C10.6825 25.3398 9.99001 25.0717 9.39767 25.3333L1.85454 28.6637C1.26204 28.9253 0.993918 29.6176 1.25548 30.21C1.44907 30.6484 1.87845 30.9094 2.32876 30.9094C2.48689 30.9094 3.00111 30.7211 3.00111 30.7211L5.88439 37.2514L4.72111 37.765C4.05986 38.0569 3.63923 38.7125 3.64954 39.4353C3.65986 40.1581 4.09876 40.8015 4.76814 41.0747L17.5061 46.2716C18.18 46.5481 18.9592 46.3915 19.4747 45.8598C19.9883 45.3315 20.1278 44.5545 19.8302 43.8805L19.4078 42.924L24.1705 40.8212L24.4063 41.3551C24.8575 42.377 25.8619 42.9861 26.9131 42.9861C27.2817 42.9861 27.6561 42.9112 28.0144 42.753L30.0514 41.8536C30.72 42.6869 31.5977 43.3345 32.6206 43.7308C32.726 43.7716 32.8322 43.8084 32.9388 43.8433V45.9545C32.9388 46.7308 33.2652 47.4308 33.7861 47.9292L24.4377 69.8939C24.1841 70.4897 24.4614 71.1784 25.0574 71.432C25.6386 71.6837 26.3417 71.4142 26.5955 70.8123L30.4783 61.6895H37.7236V75.4851C37.7236 76.1328 38.2486 76.6578 38.8963 76.6578C39.5439 76.6578 40.0689 76.1328 40.0689 75.4851V61.6895H47.3142L54.8036 79.2864C55.0574 79.8884 55.7605 80.1578 56.3417 79.9061C56.9377 79.6525 57.2152 78.9637 56.9614 78.368L44.0067 47.9291ZM47.6916 17.3508C47.6347 17.222 47.6628 17.1081 47.6847 17.0517C47.7066 16.9953 47.7624 16.8923 47.8913 16.8353L51.4928 15.2451L57.8492 29.6412L54.2478 31.2314C54.0508 31.3186 53.8194 31.2289 53.7324 31.0317L47.6916 17.3508ZM5.14673 29.7737L7.95751 28.5326L10.841 35.0628L8.03017 36.3039L5.14673 29.7737ZM6.84736 39.39L13.9075 36.2726L17.1375 43.5883L6.84736 39.39ZM18.4608 40.7786L16.7263 36.85L21.4889 34.7472L23.2235 38.6758L18.4608 40.7786ZM33.468 41.5437C32.5206 41.1767 31.773 40.4628 31.3627 39.5334C30.5156 37.615 31.3872 35.365 33.3058 34.5178C33.7978 34.3006 34.3188 34.1917 34.8408 34.1917C35.3052 34.1917 35.7702 34.2778 36.216 34.4506C37.1633 34.8176 37.911 35.5314 38.3213 36.4609C38.7316 37.3903 38.7555 38.4237 38.3885 39.3711C38.0214 40.3184 37.3075 41.0661 36.3781 41.4764C35.4489 41.8869 34.4155 41.9108 33.468 41.5437V41.5437ZM37.7238 59.3441H31.4766L36.0108 48.6905H37.7238V59.3441ZM35.675 46.3453C35.4595 46.3453 35.2841 46.17 35.2841 45.9544V44.1312C35.9795 44.0806 36.6688 43.912 37.3255 43.622C38.828 42.9587 39.982 41.75 40.5753 40.2184C40.9716 39.1956 41.0844 38.1108 40.9191 37.0553L42.5088 36.3534V45.9545C42.5088 46.17 42.3335 46.3455 42.1178 46.3455H35.675V46.3453ZM40.0691 59.3441V48.6905H41.7821L46.3163 59.3441H40.0691Z" fill="white"/>
<path d="M36.5615 38.0402C36.5615 37.0952 35.7954 36.3293 34.8506 36.3293C33.9057 36.3293 33.1396 37.0952 33.1396 38.0402C33.1396 38.9852 33.9057 39.7512 34.8506 39.7512C35.7954 39.7512 36.5615 38.9851 36.5615 38.0402Z" fill="white"/>
<path d="M23.9256 74.0914C23.3297 73.8374 22.6411 74.1152 22.3875 74.7111L20.8313 78.3678C20.5777 78.9636 20.855 79.6523 21.451 79.9059C22.0322 80.1577 22.7353 79.8881 22.9891 79.2863L24.5453 75.6295C24.7989 75.0338 24.5216 74.345 23.9256 74.0914Z" fill="white"/>
</g>
<defs>
<clipPath id="clip0">
<rect width="80" height="80" fill="white"/>
</clipPath>
</defs>
</svg>
