<svg width="80" height="80" viewBox="0 0 80 80" fill="none" xmlns="http://www.w3.org/2000/svg">
<path d="M76.3519 11.2019C75.2683 7.79432 73.7998 5.35444 73.7376 5.2519C73.4968 4.85502 73.001 4.64857 72.552 4.75157C72.4357 4.77812 69.6626 5.4254 66.4637 7.02299C62.1452 9.17906 59.1285 12.0575 57.7387 15.3456C56.5819 18.0839 56.4158 21.4316 57.2365 25.1298C55.4883 23.1775 53.5218 21.4696 51.3781 20.0317C50.7235 18.7385 48.9927 15.5548 46.2868 12.2273C45.3956 11.1319 43.6812 12.5065 44.5817 13.613C46.4049 15.8555 47.7773 18.0611 48.6356 19.5763L38.6275 17.6253L29.1189 4.65544C30.0422 4.66826 30.9687 4.75752 31.8906 4.93834C34.8134 5.51054 37.7006 6.99919 40.4732 9.36217C41.5595 10.2882 42.9703 8.60274 41.8983 7.6895C38.8354 5.07933 35.6104 3.42772 32.3127 2.78181C27.2786 1.7967 21.4074 3.08989 15.3319 6.52311C10.8037 9.08201 7.77561 11.8927 7.64927 12.0108C7.24415 12.3894 7.17961 13.0769 7.51881 13.5191C7.96284 14.4301 9.64558 17.7164 12.4466 21.2544C14.0978 23.3404 15.8391 25.1257 17.6404 26.5929C17.1286 27.0218 16.6306 27.4704 16.1486 27.9423C13.5741 30.4605 11.603 33.4309 10.3089 36.6783C9.16493 39.5476 8.54969 42.6343 8.51536 45.8157C8.4586 51.0182 9.96602 56.0358 12.8756 60.3268C15.7178 64.5181 19.6912 67.7362 24.3659 69.6327C25.6742 70.1624 26.5014 68.1276 25.1922 67.5966C23.4984 66.9095 21.9072 66.0292 20.4397 64.9823C20.6273 63.9413 21.0627 60.195 18.5743 56.3168C18.2259 55.7744 19.2673 53.644 19.889 52.3714C20.5307 51.0599 21.1931 49.704 21.5026 48.4273C21.8313 47.0709 21.4614 45.9325 20.4337 45.1337C19.6793 44.5473 18.6919 44.2438 17.8217 43.976C17.2564 43.802 16.6155 43.6052 16.3866 43.4143C15.9151 43.0193 15.1452 41.5594 14.5263 40.3871C13.8396 39.0866 13.1859 37.8488 12.5185 37.0866C14.0204 33.5197 16.4328 30.3635 19.4541 27.9488C22.2139 29.8288 25.3638 31.1261 28.7119 31.3888C24.8292 34.3973 23.573 38.2393 25.3684 41.9298C27.465 46.2392 31.7803 45.5507 35.5875 44.9442C36.2462 44.8389 36.9278 44.7304 37.5806 44.6489C37.8255 44.6182 37.8992 44.6851 37.9487 44.7285C38.7823 45.4701 38.7575 49.0118 38.7397 51.5982C38.7154 55.1756 38.6925 58.5548 40.0251 60.2898C40.7049 61.1742 41.662 61.6264 42.784 61.6264C43.4565 61.6264 44.1871 61.4644 44.9534 61.1357C48.2671 59.7166 51.7118 55.4457 51.1863 52.0665C50.7271 49.1121 50.4232 47.1602 51.1396 45.5869C51.802 44.1307 53.4032 42.7826 56.5568 41.0623C56.9344 42.7629 57.1249 44.5322 57.1052 46.3472C57.0379 52.5426 54.5614 58.3411 50.1325 62.6738C45.1827 67.516 38.2261 69.9074 31.3445 69.1489C29.9424 68.9969 29.7002 71.1786 31.1042 71.3333C38.6367 72.1628 46.2525 69.5444 51.6688 64.2448C56.5179 59.501 59.2287 53.1537 59.3024 46.3705C59.4004 37.3769 54.7857 29.409 47.7608 24.819C49.2124 23.784 50.2936 22.8891 50.8933 22.3695C53.4545 24.207 55.7264 26.4706 57.6165 29.1078C62.1538 35.4401 63.9533 43.1593 62.6844 50.8452C60.0637 66.7108 45.0248 77.488 29.1564 74.8663C21.4701 73.597 14.7387 69.4112 10.2013 63.0789C5.66349 56.7471 3.86402 49.0269 5.1334 41.3415C5.36137 39.9586 3.19477 39.5956 2.96589 40.9836C1.60038 49.2485 3.53626 57.55 8.41465 64.3593C13.294 71.1676 20.5335 75.6693 28.7984 77.0348C30.5269 77.32 32.2573 77.4609 33.9757 77.4609C40.4714 77.4609 46.7904 75.444 52.175 71.5855C58.9852 66.7062 63.4873 59.4681 64.8519 51.2032C65.8521 45.1469 65.078 39.071 62.6739 33.577C63.7835 33.2497 65.6718 32.6143 67.7399 31.5816C72.0576 29.4255 75.0747 26.5471 76.464 23.259C77.8547 19.9699 77.8158 15.8006 76.3519 11.2019ZM12.5826 41.4125C13.4002 42.9625 14.1733 44.4273 14.9767 45.0993C15.5457 45.575 16.3376 45.8185 17.1758 46.0762C19.3232 46.7363 19.5726 47.0604 19.3667 47.9095C19.114 48.9537 18.5042 50.2007 17.9151 51.4059C16.7803 53.7277 15.7087 55.9195 16.7244 57.5034C18.165 59.7482 18.4118 61.9583 18.387 63.333C11.8428 57.4319 9.1782 48.1114 11.6158 39.64C11.939 40.1939 12.2786 40.8376 12.5826 41.4125ZM65.7404 19.8212L62.618 12.2543C64.1373 10.8334 65.9002 9.76408 67.4017 9.01106C68.6806 8.36928 69.8974 7.88954 70.8733 7.54942L65.7404 19.8212ZM72.8989 8.40132C73.3352 9.33882 73.841 10.5478 74.2731 11.9142C74.7469 13.4138 75.1818 15.2724 75.2683 17.211L67.951 20.2299L72.8989 8.40132ZM59.7625 16.2012C60.0866 15.4349 60.5054 14.7244 60.9893 14.0684L64.5438 22.6813L61.3541 30.3085C60.906 29.3577 60.3782 28.109 59.9305 26.6904C59.0319 23.8499 58.2738 19.7236 59.7625 16.2012ZM66.8015 29.5935C65.5706 30.2115 64.396 30.6793 63.4393 31.0167L66.7493 23.1033L75.1749 19.6266C75.0527 20.5705 74.8197 21.5062 74.4402 22.4034C72.952 25.9259 69.4648 28.2582 66.8015 29.5935ZM27.1834 28.9682C26.7952 28.8922 26.4121 28.7993 26.0344 28.6935L38.1945 19.78L48.2072 21.7314C44.5597 24.6052 35.6832 30.6335 27.1834 28.9682ZM16.0703 22.094C13.4697 19.2911 11.5636 16.2941 10.4691 14.3751L23.211 16.8594L16.0703 22.094ZM18.3207 7.43498L23.6518 14.7066L10.8275 12.2067C12.4421 10.9318 15.1072 9.01793 18.3207 7.43498ZM26.8305 15.3264L20.3673 6.5103C22.3023 5.71516 24.3792 5.0894 26.5082 4.81108L35.4493 17.0059L26.8305 15.3264ZM26.1466 17.4316L35.2593 19.2078L23.5639 27.7803C21.3584 26.7618 19.3735 25.2974 17.6368 23.6696L26.1466 17.4316ZM55.9598 38.887C51.9988 40.9973 50.0593 42.6549 49.1392 44.6768C48.1508 46.848 48.5129 49.1785 49.0142 52.4039C49.3104 54.3059 47.0499 57.8476 44.0882 59.1161C42.9923 59.5853 42.2118 59.5299 41.7673 58.9508C40.8944 57.8146 40.9182 54.3759 40.9369 51.6133C40.963 47.791 40.9859 44.4901 39.4089 43.087C38.8418 42.5825 38.1162 42.3692 37.3101 42.4681C36.6193 42.5542 35.9185 42.6659 35.2414 42.7739C31.2026 43.4175 28.6611 43.6752 27.3446 40.9685C25.2114 36.5845 29.5295 33.3371 31.485 32.1446C31.8833 31.902 32.2527 31.6159 32.596 31.2973C37.3224 30.7324 41.7884 28.7045 45.7682 26.1644C50.5399 29.0153 54.2029 33.5271 55.9598 38.887Z" fill="#00C0FF"/>
</svg>
