<svg id="Layer_1" enable-background="new 0 0 512 512" height="512" viewBox="0 0 512 512" width="512" xmlns="http://www.w3.org/2000/svg"><g><circle cx="462" cy="289.934" fill="#fff" r="40"/><circle cx="50" cy="79.934" fill="#fff" r="40"/><circle cx="96" cy="399.934" fill="#99ebfa" r="20"/><circle cx="426" cy="99.934" fill="#fff2a0" r="30"/><circle cx="426" cy="429.934" fill="#99ebfa" r="30"/><circle cx="396" cy="179.934" fill="#b8ecbc" r="20"/><circle cx="346" cy="399.934" fill="#fff2a0" r="20"/><circle cx="96" cy="219.934" fill="#ecf2f3" r="20"/><circle cx="256" cy="259.934" fill="#e6e6f9" r="100"/><circle cx="256" cy="259.934" fill="#b5b3ee" r="50"/><g fill="#c193dc"><path d="m440.603 361.133c5.08-2.166 7.443-8.041 5.277-13.121s-8.039-7.443-13.121-5.277c-31.064 13.244-66.177 8.095-91.942-12.832 13.813-16.715 22.783-37.568 24.761-60.391 56.186-4.87 100.422-52.151 100.422-109.578 0-5.523-4.478-10-10-10s-10 4.477-10 10c0 46.419-35.325 84.74-80.504 89.499-2.168-22.784-11.314-43.562-25.273-60.17 36.319-43.172 34.177-107.912-6.441-148.531-3.904-3.905-10.234-3.905-14.143 0-3.905 3.905-3.905 10.237 0 14.142 32.834 32.834 34.94 84.932 6.33 120.244-16.715-13.813-37.568-22.783-60.391-24.761-4.87-56.187-52.151-100.423-109.578-100.423-5.523 0-10 4.477-10 10s4.477 10 10 10c46.419 0 84.74 35.325 89.499 80.504-22.783 2.168-43.559 11.313-60.167 25.27-19.789-16.681-44.571-25.774-70.754-25.774-29.382 0-57.005 11.442-77.782 32.218-3.905 3.905-3.905 10.237 0 14.143 3.905 3.904 10.237 3.904 14.143 0 16.999-16.999 39.6-26.36 63.639-26.36 20.86 0 40.632 7.059 56.605 20.03-13.814 16.715-22.784 37.568-24.762 60.391-56.185 4.87-100.421 52.151-100.421 109.578 0 5.523 4.477 10 10 10s10-4.477 10-10c0-46.419 35.325-84.74 80.504-89.499 2.168 22.782 11.313 43.559 25.27 60.166-16.681 19.79-25.774 44.572-25.774 70.754 0 29.382 11.442 57.005 32.218 77.782 1.953 1.952 4.512 2.929 7.071 2.929s5.119-.977 7.071-2.929c3.905-3.905 3.905-10.237 0-14.143-16.999-16.999-26.36-39.6-26.36-63.639 0-20.86 7.059-40.632 20.03-56.605 16.715 13.814 37.568 22.784 60.391 24.762 4.87 56.186 52.151 100.422 109.578 100.422 5.522 0 10-4.477 10-10s-4.478-10-10-10c-46.419 0-84.74-35.325-89.499-80.504 22.786-2.168 43.565-11.316 60.174-25.276 14.542 12.245 31.885 20.474 50.687 23.945 6.695 1.236 13.434 1.85 20.146 1.85 14.756 0 29.377-2.967 43.096-8.816zm-184.603-191.199c49.626 0 90 40.374 90 90s-40.374 90-90 90-90-40.374-90-90 40.374-90 90-90z"/><path d="m502 279.934c-16.542 0-30-13.458-30-30 0-5.523-4.478-10-10-10s-10 4.477-10 10c0 16.542-13.458 30-30 30-5.522 0-10 4.477-10 10s4.478 10 10 10c16.542 0 30 13.458 30 30 0 5.523 4.478 10 10 10s10-4.477 10-10c0-16.542 13.458-30 30-30 5.522 0 10-4.477 10-10s-4.478-10-10-10zm-40 20.035c-2.854-3.8-6.235-7.181-10.035-10.035 3.8-2.854 7.181-6.235 10.035-10.035 2.854 3.8 6.235 7.181 10.035 10.035-3.8 2.854-7.181 6.235-10.035 10.035z"/><path d="m50 129.934c5.523 0 10-4.477 10-10 0-16.542 13.458-30 30-30 5.523 0 10-4.477 10-10s-4.477-10-10-10c-16.542 0-30-13.458-30-30 0-5.523-4.477-10-10-10s-10 4.477-10 10c0 16.542-13.458 30-30 30-5.523 0-10 4.477-10 10s4.477 10 10 10c16.542 0 30 13.458 30 30 0 5.523 4.477 10 10 10zm-10.035-50c3.8-2.854 7.181-6.235 10.035-10.035 2.854 3.8 6.235 7.181 10.035 10.035-3.8 2.854-7.181 6.235-10.035 10.035-2.854-3.8-6.235-7.181-10.035-10.035z"/><path d="m96 369.934c-16.542 0-30 13.458-30 30s13.458 30 30 30 30-13.458 30-30-13.458-30-30-30zm0 40c-5.514 0-10-4.486-10-10s4.486-10 10-10 10 4.486 10 10-4.486 10-10 10z"/><path d="m426 139.934c22.056 0 40-17.944 40-40s-17.944-40-40-40-40 17.944-40 40 17.944 40 40 40zm0-60c11.028 0 20 8.972 20 20s-8.972 20-20 20-20-8.972-20-20 8.972-20 20-20z"/><path d="m426 389.934c-22.056 0-40 17.944-40 40s17.944 40 40 40 40-17.944 40-40-17.944-40-40-40zm0 60c-11.028 0-20-8.972-20-20s8.972-20 20-20 20 8.972 20 20-8.972 20-20 20z"/><path d="m396 209.934c16.542 0 30-13.458 30-30s-13.458-30-30-30-30 13.458-30 30 13.458 30 30 30zm0-40c5.514 0 10 4.486 10 10s-4.486 10-10 10-10-4.486-10-10 4.486-10 10-10z"/><path d="m346 369.934c-16.542 0-30 13.458-30 30s13.458 30 30 30 30-13.458 30-30-13.458-30-30-30zm0 40c-5.514 0-10-4.486-10-10s4.486-10 10-10 10 4.486 10 10-4.486 10-10 10z"/><path d="m126 219.934c0-16.542-13.458-30-30-30s-30 13.458-30 30 13.458 30 30 30 30-13.458 30-30zm-40 0c0-5.514 4.486-10 10-10s10 4.486 10 10-4.486 10-10 10-10-4.486-10-10z"/><path d="m256 319.934c33.084 0 60-26.916 60-60s-26.916-60-60-60-60 26.916-60 60 26.916 60 60 60zm0-100c22.056 0 40 17.944 40 40s-17.944 40-40 40-40-17.944-40-40 17.944-40 40-40z"/></g></g></svg>