<svg id="Layer_1" enable-background="new 0 0 512 512" height="512" viewBox="0 0 512 512" width="512" xmlns="http://www.w3.org/2000/svg"><g><circle cx="270" cy="296" fill="#ccf5fc" r="160"/><circle cx="72" cy="436" fill="#fff" r="40"/><path d="m428.758 316h-88.758c-11.046 0-20 8.954-20 20 0 11.046 8.954 20 20 20h78.358c5.106-12.615 8.657-26.026 10.4-40z" fill="#b8ecbc"/><path d="m164.183 416h105.817c11.046 0 20-8.954 20-20 0-11.046-8.954-20-20-20h-80c-11.046 0-20-8.954-20-20 0-11.046 8.954-20 20-20h30c11.046 0 20-8.954 20-20 0-11.046-8.954-20-20-20h-110c0 47.792 20.961 90.682 54.183 120z" fill="#b8ecbc"/><circle cx="442" cy="472" fill="#ecf2f3" r="30"/><g fill="#fff"><path d="m286.716 233.787h56.569v42.426h-56.569z" transform="matrix(.707 -.707 .707 .707 -88.051 297.426)"/><path d="m416.716 103.787h56.569v42.426h-56.569z" transform="matrix(.707 -.707 .707 .707 41.949 351.274)"/><path d="m351.716 147.574h56.569v84.853h-56.569z" transform="matrix(.707 -.707 .707 .707 -23.051 324.35)"/><circle cx="330" cy="140" r="20"/></g><circle cx="250" cy="50" fill="#fff" r="40"/><path d="m50 180c30 16.569 36.716 31.569 26.36 63.64 32.071-10.356 47.071-3.64 63.64 26.36 16.568-30 31.568-36.716 63.64-26.36-10.356-32.071-3.64-47.071 26.36-63.64-30-16.568-36.716-31.568-26.36-63.64-32.072 10.356-47.072 3.64-63.64-26.36-16.569 30-31.569 36.716-63.64 26.36 10.356 32.072 3.64 47.072-26.36 63.64z" fill="#ffee80"/><circle cx="140" cy="180" fill="#fff7bf" r="30"/><g fill="#33d6f5"><path d="m112 426c-16.542 0-30-13.458-30-30 0-5.523-4.478-10-10-10s-10 4.477-10 10c0 16.542-13.458 30-30 30-5.523 0-10 4.477-10 10s4.477 10 10 10c16.542 0 30 13.458 30 30 0 5.523 4.478 10 10 10s10-4.477 10-10c0-16.542 13.458-30 30-30 5.522 0 10-4.477 10-10s-4.478-10-10-10zm-40 20.035c-2.854-3.8-6.235-7.181-10.035-10.035 3.8-2.854 7.181-6.235 10.035-10.035 2.854 3.8 6.235 7.181 10.035 10.035-3.8 2.854-7.182 6.235-10.035 10.035z"/><path d="m442 432c-22.056 0-40 17.944-40 40s17.944 40 40 40 40-17.944 40-40-17.944-40-40-40zm0 60c-11.028 0-20-8.972-20-20s8.972-20 20-20 20 8.972 20 20-8.972 20-20 20z"/><path d="m487.071 112.929-30-30c-3.906-3.905-10.236-3.905-14.143 0l-40 40c-3.905 3.905-3.905 10.237 0 14.143l7.929 7.929-10.857 10.856-22.929-22.929c-3.906-3.905-10.236-3.905-14.143 0l-3.189 3.189c-1.91-14.713-14.514-26.117-29.739-26.117-12.675 0-23.531 7.905-27.918 19.04-10.528-2.009-21.289-3.04-32.082-3.04-21.077 0-41.492 3.781-60.86 11.23.398-5.066 1.782-10.878 4.016-17.796 1.153-3.572.209-7.49-2.445-10.144-2.655-2.654-6.574-3.599-10.144-2.445-27.18 8.774-37.346 4.52-51.813-21.679-1.761-3.187-5.114-5.166-8.754-5.166s-6.993 1.979-8.754 5.165c-14.469 26.199-24.638 30.453-51.813 21.679-3.568-1.153-7.488-.209-10.144 2.445-2.654 2.654-3.599 6.572-2.445 10.144 8.775 27.175 4.521 37.344-21.679 51.813-3.187 1.76-5.165 5.113-5.165 8.754s1.979 6.994 5.165 8.754c26.199 14.469 30.454 24.638 21.679 51.813-1.153 3.572-.209 7.49 2.445 10.144s6.574 3.598 10.144 2.445c11.491-3.71 19.935-5.078 26.955-3.456-4.24 15.004-6.388 30.545-6.388 46.3 0 93.738 76.262 170 170 170s170-76.262 170-170c0-26.202-5.808-51.293-17.234-74.624l14.305-14.305c3.905-3.905 3.905-10.237 0-14.143l-22.929-22.928 10.858-10.857 7.929 7.929c1.953 1.952 4.511 2.928 7.071 2.928s5.118-.976 7.071-2.929l40-40c3.905-3.905 3.905-10.237 0-14.142zm-157.071 17.071c5.514 0 10 4.486 10 10s-4.486 10-10 10-10-4.486-10-10 4.486-10 10-10zm-229.64 99.089c-3.249 0-6.675.288-10.317.868 1.725-10.848.875-19.776-2.512-27.828-3.411-8.11-9.396-15.22-18.802-22.129 9.406-6.909 15.391-14.019 18.802-22.129 3.387-8.051 4.236-16.979 2.512-27.828 10.848 1.725 19.777.874 27.828-2.512 8.11-3.411 15.22-9.396 22.129-18.801 6.909 9.406 14.019 15.39 22.129 18.801 8.053 3.386 16.977 4.236 27.828 2.512-1.725 10.848-.875 19.776 2.512 27.828 3.411 8.11 9.396 15.22 18.802 22.129-9.406 6.909-15.391 14.019-18.802 22.129-3.387 8.051-4.236 16.979-2.512 27.828-10.849-1.725-19.777-.874-27.828 2.512-8.11 3.411-15.22 9.396-22.129 18.801-6.909-9.406-14.019-15.39-22.129-18.801-5.349-2.25-11.083-3.38-17.511-3.38zm319.64 66.911c0 82.71-67.29 150-150 150s-150-67.29-150-150c0-11.264 1.246-22.399 3.703-33.255 2.458 3.353 4.931 7.358 7.543 12.09 1.761 3.187 5.113 5.165 8.754 5.165s6.993-1.978 8.754-5.165c14.469-26.199 24.639-30.452 51.813-21.679 3.57 1.154 7.488.209 10.144-2.445 2.654-2.654 3.599-6.572 2.445-10.144-8.775-27.175-4.521-37.344 21.679-51.813 3.186-1.76 5.165-5.113 5.165-8.754s-1.979-6.994-5.165-8.754c-9.318-5.146-15.847-9.75-20.015-14.767 17.52-6.951 36.037-10.479 55.18-10.479 10.619 0 21.199 1.128 31.491 3.325 3.542 10.801 13.058 18.913 24.626 20.415l-3.189 3.188c-3.905 3.905-3.905 10.237 0 14.143l22.929 22.929-10.857 10.857-7.929-7.929c-3.906-3.905-10.236-3.905-14.143 0l-40 40c-3.905 3.905-3.905 10.237 0 14.143l30 30c1.954 1.953 4.512 2.929 7.072 2.929s5.118-.976 7.071-2.929l40-40c3.905-3.905 3.905-10.237 0-14.143l-7.929-7.928 10.858-10.857 22.929 22.929c1.953 1.952 4.511 2.928 7.071 2.928s5.118-.976 7.071-2.929l10.642-10.642c8.157 18.779 12.287 38.777 12.287 59.571zm-92.074-53.931c.001.001.002.002.002.003s.002.001.003.002l7.926 7.926-25.857 25.858-15.858-15.858 25.858-25.858zm62.074-16.211-22.926-22.927c-.001-.001-.002-.002-.002-.003s-.002-.001-.003-.002l-22.927-22.926 25.858-25.858 22.926 22.927c.001.001.002.002.002.003s.002.001.003.002l22.926 22.926zm50-80-7.926-7.927c-.001-.001-.002-.002-.002-.003s-.002-.001-.003-.002l-7.927-7.926 25.858-25.858 15.857 15.858z"/><path d="m210 60c16.542 0 30 13.458 30 30 0 5.523 4.477 10 10 10s10-4.477 10-10c0-16.542 13.458-30 30-30 5.523 0 10-4.477 10-10s-4.477-10-10-10c-16.542 0-30-13.458-30-30 0-5.523-4.477-10-10-10s-10 4.477-10 10c0 16.542-13.458 30-30 30-5.523 0-10 4.477-10 10s4.477 10 10 10zm40-20.035c2.854 3.8 6.235 7.181 10.035 10.035-3.8 2.854-7.181 6.235-10.035 10.035-2.854-3.8-6.235-7.181-10.035-10.035 3.8-2.854 7.181-6.235 10.035-10.035z"/><path d="m180 180c0-22.056-17.944-40-40-40s-40 17.944-40 40 17.944 40 40 40 40-17.944 40-40zm-60 0c0-11.028 8.972-20 20-20s20 8.972 20 20-8.972 20-20 20-20-8.972-20-20z"/></g></g></svg>