<svg id="Layer_1" enable-background="new 0 0 512 512" height="512" viewBox="0 0 512 512" width="512" xmlns="http://www.w3.org/2000/svg"><g><g><path d="m270 316h-80l20-40h60l-80-40 40-40h64.893c-29.323-36.575-74.369-60-124.893-60-88.366 0-160 71.634-160 160s71.634 160 160 160c50.524 0 95.571-23.426 124.893-60h-64.893l-20-20z" fill="#ecf2f3"/><g fill="#dae6e6"><path d="m26.093 366c7.185 14.744 16.568 28.22 27.725 40h232.356c3.041-3.211 5.951-6.546 8.72-10h-64.894l-20-20 10-10z"/><path d="m26.092 226h173.908l30-30h64.893c-2.769-3.454-5.679-6.789-8.72-10h-232.355c-11.158 11.78-20.54 25.256-27.726 40z"/><path d="m71.71 326c4.12 11.65 15.23 20 28.29 20s24.17-8.35 28.29-20h131.71l10-10h-80l5-10h-66.71c-4.12-11.65-15.23-20-28.29-20s-24.17 8.35-28.29 20h-61.39c.419 6.79 1.26 13.465 2.5 20z"/><path d="m18.647 244c-2.662 7.749-4.748 15.765-6.202 24h241.555l-48-24z"/></g><g><path d="m294.893 386h-60.751l-10-10 52.929-52.929c2.86-2.86 3.715-7.161 2.168-10.898-1.548-3.736-5.195-6.173-9.239-6.173h-63.82l10-20h53.82c4.638 0 8.667-3.189 9.732-7.703s-1.112-9.168-5.26-11.242l-67.59-33.795 27.26-27.26h60.751c3.846 0 7.351-2.206 9.015-5.673 1.665-3.467 1.193-7.581-1.213-10.582-32.478-40.51-80.843-63.745-132.695-63.745-93.738 0-170 76.262-170 170s76.262 170 170 170c51.852 0 100.217-23.234 132.695-63.745 2.406-3 2.878-7.115 1.213-10.582-1.664-3.467-5.169-5.673-9.015-5.673zm-124.893 60c-82.71 0-150-67.29-150-150s67.29-150 150-150c38.287 0 74.424 14.362 101.994 40h-41.994c-2.652 0-5.196 1.054-7.071 2.929l-40 40c-2.273 2.273-3.315 5.5-2.8 8.673s2.523 5.905 5.398 7.343l42.112 21.055h-17.639c-3.788 0-7.251 2.14-8.944 5.528l-20 40c-1.55 3.1-1.384 6.781.438 9.729s5.04 4.743 8.506 4.743h55.858l-42.929 42.929c-3.905 3.905-3.905 10.237 0 14.143l20 20c1.875 1.875 4.418 2.929 7.071 2.929h41.994c-27.57 25.637-63.707 39.999-101.994 39.999z" fill="#8aa8bd"/></g></g><g><circle cx="356" cy="138" fill="#dae6e6" r="20"/><path d="m415.072 106.928c-3.906-3.905-10.236-3.905-14.143 0l-17.954 17.954c-2.94-6.021-7.836-10.917-13.857-13.857l45.954-45.954c3.905-3.905 3.905-10.237-.001-14.142-3.906-3.905-10.236-3.905-14.143 0l-63.673 63.673c-6.854 5.503-11.255 13.944-11.255 23.398 0 16.542 13.458 30 30 30 9.454 0 17.896-4.401 23.399-11.256l35.673-35.673c3.905-3.905 3.905-10.237 0-14.143zm-59.072 41.477c-5.747 0-10.406-4.659-10.406-10.406s4.659-10.406 10.406-10.406 10.406 4.659 10.406 10.406-4.659 10.406-10.406 10.406z" fill="#8aa8bd"/></g><g><circle cx="330" cy="277.999" fill="#dae6e6" r="20"/><path d="m389.072 246.927c-3.906-3.905-10.236-3.905-14.143 0l-17.954 17.954c-2.94-6.021-7.836-10.917-13.857-13.857l45.954-45.954c3.905-3.905 3.905-10.237-.001-14.142-3.906-3.905-10.236-3.905-14.143 0l-63.673 63.673c-6.854 5.503-11.255 13.944-11.255 23.398 0 16.542 13.458 30 30 30 9.454 0 17.896-4.401 23.399-11.256l35.673-35.673c3.905-3.905 3.905-10.237 0-14.143zm-59.072 41.477c-5.747 0-10.406-4.659-10.406-10.406s4.659-10.406 10.406-10.406 10.406 4.659 10.406 10.406-4.66 10.406-10.406 10.406z" fill="#8aa8bd"/></g><g><circle cx="448" cy="238.405" fill="#dae6e6" r="20"/><path d="m507.072 207.333c-3.906-3.905-10.236-3.905-14.143 0l-17.954 17.954c-2.94-6.021-7.836-10.917-13.857-13.857l45.954-45.954c3.905-3.905 3.905-10.237-.001-14.142-3.906-3.905-10.236-3.905-14.143 0l-63.673 63.673c-6.854 5.503-11.255 13.944-11.255 23.398 0 16.542 13.458 30 30 30 9.454 0 17.896-4.401 23.399-11.256l35.673-35.673c3.905-3.905 3.905-10.237 0-14.143zm-59.072 41.478c-5.747 0-10.406-4.659-10.406-10.406s4.659-10.405 10.406-10.405 10.406 4.659 10.406 10.406-4.659 10.405-10.406 10.405z" fill="#8aa8bd"/></g></g></svg>