<svg id="Layer_1" enable-background="new 0 0 512 512" height="512" viewBox="0 0 512 512" width="512" xmlns="http://www.w3.org/2000/svg"><g><circle cx="316" cy="156" fill="#99ebfa" r="80"/><circle cx="196" cy="50" fill="#ffee80" r="40"/><circle cx="256" cy="342" fill="#d0f2d2" r="160"/><g fill="#b8ecbc"><circle cx="226" cy="326" r="30"/><path d="m412.379 375.945c-7.042-6.186-16.269-9.945-26.379-9.945-22.091 0-40 17.909-40 40 0 19.431 13.857 35.62 32.226 39.239 16.586-19.617 28.532-43.276 34.153-69.294z"/><circle cx="206" cy="236" r="10"/><circle cx="236" cy="456" r="10"/><circle cx="346" cy="286" r="10"/><circle cx="176" cy="276" r="20"/></g><g fill="#5cd0b3"><path d="m196 100c27.57 0 50-22.43 50-50s-22.43-50-50-50-50 22.43-50 50 22.43 50 50 50zm0-80c16.542 0 30 13.458 30 30s-13.458 30-30 30-30-13.458-30-30 13.458-30 30-30z"/><path d="m421.939 378.971c2.651-11.907 4.061-24.277 4.061-36.971 0-12.693-1.409-25.062-4.06-36.968 32.53-33.648 43.719-59.891 33.246-78.032-9.321-16.145-32.835-20.627-69.977-13.396 13.384-15.983 20.791-36.135 20.791-57.604 0-49.626-40.374-90-90-90s-90 40.374-90 90c0 6.198.636 12.333 1.881 18.339-33.126 5.538-63.037 20.681-86.761 42.469-45.468-11.362-73.837-7.94-84.305 10.193-10.474 18.141.715 44.384 33.246 78.032-2.652 11.905-4.061 24.274-4.061 36.967 0 12.694 1.41 25.064 4.061 36.971-32.525 33.648-43.718 59.893-33.247 78.029 6.45 11.171 19.665 16.766 39.472 16.766 12.383 0 27.347-2.19 44.839-6.568 30.277 27.803 70.626 44.802 114.875 44.802s84.598-16.999 114.875-44.802c17.494 4.379 32.455 6.569 44.839 6.568 19.804 0 33.023-5.595 39.472-16.766 10.471-18.136-.722-44.381-33.247-78.029zm-56.918 65.944c-26.423-7.572-56.335-19.483-87.417-34.728 4.463-2.467 8.93-4.988 13.396-7.566 44.125-25.476 83.737-53.717 113.629-80.865.898 6.623 1.371 13.379 1.371 20.244 0 39.806-15.59 76.035-40.979 102.915zm-218.042 0c-25.389-26.88-40.979-63.109-40.979-102.915 0-6.865.473-13.621 1.371-20.243 29.892 27.148 69.505 55.389 113.629 80.865 4.466 2.578 8.933 5.099 13.396 7.566-31.082 15.244-60.994 27.155-87.417 34.727zm84.021-59.614c-47.336-27.33-89.171-57.779-118.703-86.322 18.538-61.809 75.94-106.979 143.703-106.979s125.165 45.17 143.703 106.979c-29.531 28.543-71.366 58.992-118.703 86.322-8.349 4.82-16.696 9.439-25 13.848-8.304-4.408-16.651-9.027-25-13.848zm189.092-154.856c9.342.557 15.653 2.884 17.773 6.555 2.178 3.773.925 10.628-3.53 19.301-3.979 7.747-10.462 16.736-19.006 26.419-6.711-17.979-16.377-34.528-28.412-49.048 13.039-2.638 24.357-3.751 33.175-3.227zm-174.092-74.445h30c5.523 0 10-4.477 10-10s-4.477-10-10-10h-27.073c8.628-28.881 35.424-50 67.073-50 23.733 0 44.731 11.883 57.396 30h-57.396c-5.523 0-10 4.477-10 10s4.477 10 10 10h67.073c1.895 6.341 2.927 13.051 2.927 20h-40c-5.523 0-10 4.477-10 10s4.477 10 10 10h37.131c-3.753 12.717-11.091 24.121-21.39 32.988-29.047-23.138-65.805-36.988-105.741-36.988-2.72 0-5.423.071-8.112.198-1.25-5.28-1.888-10.705-1.888-16.198zm-168.335 100.301c-4.455-8.673-5.709-15.528-3.53-19.301 2.12-3.671 8.431-5.999 17.773-6.555 8.816-.525 20.135.588 33.176 3.227-12.036 14.52-21.702 31.069-28.413 49.048-8.544-9.683-15.027-18.671-19.006-26.419zm14.95 197.293c-9.739-.479-16.302-2.82-18.48-6.594-2.168-3.755-.935-10.569 3.472-19.189 3.974-7.772 10.478-16.802 19.063-26.532 6.711 17.978 16.376 34.527 28.412 49.048-12.692 2.569-23.747 3.696-32.467 3.267zm71.619 6.976c28.244-9.05 59.616-22.344 91.766-38.86 32.149 16.516 63.521 29.81 91.766 38.86-25.384 19.69-57.228 31.43-91.766 31.43s-66.382-11.74-91.766-31.43zm273.631-13.57c-2.179 3.773-8.742 6.115-18.48 6.594-8.716.429-19.773-.698-32.467-3.267 12.035-14.52 21.701-31.069 28.412-49.047 8.585 9.73 15.089 18.76 19.064 26.532 4.406 8.619 5.639 15.433 3.471 19.188z"/></g></g></svg>