<svg id="Layer_1" enable-background="new 0 0 512 512" height="512" viewBox="0 0 512 512" width="512" xmlns="http://www.w3.org/2000/svg"><g><g fill="#e6e6f9"><circle cx="236" cy="196" r="20"/><circle cx="156" cy="268" r="20"/><circle cx="96" cy="482" r="20"/><circle cx="156" cy="376" r="20"/><circle cx="236" cy="30" r="20"/><circle cx="456" cy="70" r="20"/><circle cx="416" cy="256" r="20"/></g><circle cx="416" cy="356" fill="#fff" r="40"/><circle cx="136" cy="96" fill="#fff" r="40"/><circle cx="56" cy="176" fill="#fff2a0" r="20"/><circle cx="246" cy="296" fill="#fff2a0" r="20"/><circle cx="296" cy="366" fill="#99ebfa" r="30"/><g fill="#c193dc"><path d="m456 40c-12.309 0-22.906 7.455-27.526 18.084l-163.646-36.366c-3.604-12.525-15.159-21.718-28.828-21.718-16.542 0-30 13.458-30 30 0 13.036 8.361 24.152 20 28.28v109.44c-11.639 4.128-20 15.243-20 28.28 0 4.604 1.045 8.967 2.906 12.869l-39.153 31.322c-.292.234-.565.483-.824.742-3.917-1.879-8.302-2.933-12.929-2.933-16.542 0-30 13.458-30 30 0 13.036 8.361 24.152 20 28.28v51.44c-11.639 4.128-20 15.243-20 28.28 0 10.469 5.394 19.697 13.544 25.066l-30.932 53.724c-3.837-1.786-8.108-2.79-12.612-2.79-16.542 0-30 13.458-30 30s13.458 30 30 30 30-13.458 30-30c0-4.627-1.054-9.011-2.933-12.928.608-.608 1.15-1.301 1.599-2.082l35.269-61.256c14.688-1.934 26.065-14.527 26.065-29.734 0-13.036-8.361-24.152-20-28.28v-51.44c11.639-4.128 20-15.243 20-28.28 0-4.603-1.045-8.967-2.906-12.869l39.153-31.322c.292-.234.565-.483.824-.742 3.917 1.879 8.302 2.933 12.929 2.933 11.594 0 21.666-6.616 26.658-16.267l124.162 53.213c3.143 13.202 15.029 23.054 29.18 23.054 16.542 0 30-13.458 30-30 0-12.131-7.242-22.596-17.626-27.318l35.548-129.751c12.709-3.485 22.078-15.131 22.078-28.931 0-16.542-13.458-30-30-30zm-360 452c-5.514 0-10-4.486-10-10s4.486-10 10-10 10 4.486 10 10-4.486 10-10 10zm293.342-249.733-124.162-53.212c-2.364-9.932-9.675-17.963-19.179-21.334v-109.441c7.86-2.788 14.222-8.762 17.526-16.364l163.646 36.366c2.441 8.484 8.529 15.432 16.455 19.036l-35.548 129.751c-8.154 2.235-14.927 7.829-18.738 15.198zm-153.342-222.267c5.514 0 10 4.486 10 10s-4.486 10-10 10-10-4.486-10-10 4.486-10 10-10zm-80 366c-5.514 0-10-4.486-10-10s4.486-10 10-10 10 4.486 10 10-4.486 10-10 10zm0-108c-5.514 0-10-4.486-10-10s4.486-10 10-10 10 4.486 10 10-4.486 10-10 10zm80-72c-5.514 0-10-4.486-10-10s4.486-10 10-10c5.503 0 9.98 4.467 9.998 9.966 0 .012.002.024.002.036-.001 5.514-4.487 9.998-10 9.998zm180 60c-5.499 0-9.975-4.463-9.998-9.957 0-.015-.002-.03-.002-.046.002-5.507 4.478-9.987 9.982-9.996.008 0 .015.001.023.001s.016-.001.023-.001c5.5.016 9.971 4.494 9.971 9.999.001 5.514-4.485 10-9.999 10zm40-186c-5.514 0-10-4.486-10-10s4.486-10 10-10 10 4.486 10 10-4.486 10-10 10z"/><path d="m456 346c-16.542 0-30-13.458-30-30 0-5.523-4.478-10-10-10s-10 4.477-10 10c0 16.542-13.458 30-30 30-5.522 0-10 4.477-10 10s4.478 10 10 10c16.542 0 30 13.458 30 30 0 5.523 4.478 10 10 10s10-4.477 10-10c0-16.542 13.458-30 30-30 5.522 0 10-4.477 10-10s-4.478-10-10-10zm-40 20.035c-2.854-3.8-6.235-7.181-10.035-10.035 3.8-2.853 7.181-6.235 10.035-10.035 2.854 3.8 6.235 7.181 10.035 10.035-3.8 2.853-7.181 6.235-10.035 10.035z"/><path d="m96 106c16.542 0 30 13.458 30 30 0 5.523 4.477 10 10 10s10-4.477 10-10c0-16.542 13.458-30 30-30 5.523 0 10-4.477 10-10s-4.477-10-10-10c-16.542 0-30-13.458-30-30 0-5.523-4.477-10-10-10s-10 4.477-10 10c0 16.542-13.458 30-30 30-5.523 0-10 4.477-10 10s4.477 10 10 10zm40-20.035c2.854 3.8 6.235 7.181 10.035 10.035-3.8 2.854-7.181 6.235-10.035 10.035-2.854-3.8-6.235-7.181-10.035-10.035 3.8-2.854 7.181-6.235 10.035-10.035z"/><path d="m86 176c0-16.542-13.458-30-30-30s-30 13.458-30 30 13.458 30 30 30 30-13.458 30-30zm-30 10c-5.514 0-10-4.486-10-10s4.486-10 10-10 10 4.486 10 10-4.486 10-10 10z"/><path d="m276 296c0-16.542-13.458-30-30-30s-30 13.458-30 30 13.458 30 30 30 30-13.458 30-30zm-30 10c-5.514 0-10-4.486-10-10s4.486-10 10-10 10 4.486 10 10-4.486 10-10 10z"/><path d="m296 326c-22.056 0-40 17.944-40 40s17.944 40 40 40 40-17.944 40-40-17.944-40-40-40zm0 60c-11.028 0-20-8.972-20-20s8.972-20 20-20 20 8.972 20 20-8.972 20-20 20z"/></g></g></svg>