<svg id="Layer_1" enable-background="new 0 0 512 512" height="512" viewBox="0 0 512 512" width="512" xmlns="http://www.w3.org/2000/svg"><g><g><g fill="#fff"><circle cx="86" cy="282" r="40"/><circle cx="366" cy="116" r="40"/><circle cx="406" cy="462" r="40"/></g><circle cx="246" cy="382" fill="#e6e6f9" r="60"/><circle cx="286" cy="216" fill="#ffdede" r="40"/><circle cx="216" cy="106" fill="#e6e6f9" r="30"/><circle cx="286" cy="30" fill="#99ebfa" r="20"/><circle cx="216" cy="381" fill="#cecdf3" r="10"/><circle cx="236" cy="361" fill="#cecdf3" r="5"/><g fill="#c193dc"><path d="m76 322c0 5.523 4.478 10 10 10s10-4.477 10-10c0-16.542 13.458-30 30-30 5.523 0 10-4.477 10-10s-4.477-10-10-10c-16.542 0-30-13.458-30-30 0-5.523-4.478-10-10-10s-10 4.477-10 10c0 16.542-13.458 30-30 30-5.522 0-10 4.477-10 10s4.478 10 10 10c16.542 0 30 13.458 30 30zm10-50.035c2.854 3.8 6.235 7.181 10.035 10.035-3.8 2.853-7.181 6.235-10.035 10.035-2.854-3.8-6.235-7.181-10.035-10.035 3.8-2.853 7.181-6.235 10.035-10.035z"/><path d="m326 126c16.542 0 30 13.458 30 30 0 5.523 4.478 10 10 10s10-4.477 10-10c0-16.542 13.458-30 30-30 5.522 0 10-4.477 10-10s-4.478-10-10-10c-16.542 0-30-13.458-30-30 0-5.523-4.478-10-10-10s-10 4.477-10 10c0 16.542-13.458 30-30 30-5.522 0-10 4.477-10 10s4.478 10 10 10zm40-20.035c2.853 3.8 6.235 7.181 10.035 10.035-3.8 2.854-7.181 6.235-10.035 10.035-2.853-3.8-6.235-7.181-10.035-10.035 3.8-2.854 7.182-6.235 10.035-10.035z"/><path d="m446 452c-16.542 0-30-13.458-30-30 0-5.523-4.478-10-10-10s-10 4.477-10 10c0 16.542-13.458 30-30 30-5.522 0-10 4.477-10 10s4.478 10 10 10c16.542 0 30 13.458 30 30 0 5.523 4.478 10 10 10s10-4.477 10-10c0-16.542 13.458-30 30-30 5.522 0 10-4.477 10-10s-4.478-10-10-10zm-40 20.035c-2.853-3.8-6.235-7.181-10.035-10.035 3.8-2.853 7.181-6.235 10.035-10.035 2.853 3.8 6.235 7.181 10.035 10.035-3.8 2.853-7.182 6.235-10.035 10.035z"/><path d="m392.086 375.056c17.614-7.67 31.276-14.815 40.608-21.234 5.349-3.68 19.559-13.456 16.15-26.174-3.334-12.446-19.68-16.739-54.652-14.358-26.736 1.821-61.946 7.436-101.934 16.238-12.344-10.896-28.537-17.528-46.258-17.528-30.799 0-56.997 20.003-66.335 47.693-38.357 12.165-72.374 25.175-96.076 36.76-31.685 15.487-43.777 27.419-40.434 39.899 3.408 12.718 20.602 14.079 27.074 14.591 3.286.26 6.922.39 10.895.39 9.677 0 21.357-.771 34.891-2.305 24.163-2.74 52.837-7.744 83.736-14.549 12.344 10.892 28.533 17.521 46.249 17.521 30.797 0 56.993-20 66.332-47.688 30.147-9.553 57.468-19.552 79.754-29.256zm34.081-41.391c-5.292 4.513-18.414 13.299-50.097 26.47-17.519 7.283-37.929 14.734-60.073 21.976 0-.037.003-.073.003-.11 0-12.783-3.461-24.766-9.47-35.091 69.02-14.553 106.485-15.566 119.637-13.245zm-180.167-1.665c27.57 0 50 22.43 50 50 0 2.233-.162 4.428-.447 6.584-14.348 4.4-29.23 8.676-44.376 12.735-15.142 4.057-30.158 7.79-44.779 11.152-6.512-8.443-10.398-19.009-10.398-30.471 0-27.57 22.43-50 50-50zm-180.199 98.223c10.229-8.591 43.171-26.44 110.202-48.341 0 .039-.003.078-.003.118 0 12.78 3.459 24.759 9.465 35.083-22.805 4.803-44.223 8.564-63.042 11.016-34.028 4.435-49.785 3.386-56.622 2.124zm180.199 1.777c-6.777 0-13.239-1.361-19.138-3.815 9.707-2.367 19.558-4.887 29.491-7.548 9.919-2.658 19.697-5.397 29.274-8.197-9.15 11.883-23.505 19.56-39.627 19.56z"/><path d="m286 166c-27.57 0-50 22.43-50 50s22.43 50 50 50 50-22.43 50-50-22.43-50-50-50zm0 80c-16.542 0-30-13.458-30-30s13.458-30 30-30 30 13.458 30 30-13.458 30-30 30z"/><path d="m216 146c22.056 0 40-17.944 40-40s-17.944-40-40-40-40 17.944-40 40 17.944 40 40 40zm0-60c11.028 0 20 8.972 20 20s-8.972 20-20 20-20-8.972-20-20 8.972-20 20-20z"/><path d="m286 60c16.542 0 30-13.458 30-30s-13.458-30-30-30-30 13.458-30 30 13.458 30 30 30zm0-40c5.514 0 10 4.486 10 10s-4.486 10-10 10-10-4.486-10-10 4.486-10 10-10z"/></g></g><g><circle cx="412" cy="263.992" fill="#ffdede" r="20"/><path d="m471.072 232.92c-3.906-3.905-10.236-3.905-14.143 0l-17.954 17.954c-2.94-6.021-7.836-10.917-13.857-13.857l45.954-45.954c3.905-3.905 3.905-10.237-.001-14.142-3.906-3.905-10.236-3.905-14.143 0l-63.673 63.673c-6.854 5.503-11.255 13.944-11.255 23.398 0 16.542 13.458 30 30 30 9.454 0 17.896-4.401 23.399-11.256l35.673-35.673c3.905-3.905 3.905-10.237 0-14.143zm-59.072 41.478c-5.747 0-10.406-4.659-10.406-10.406s4.659-10.406 10.406-10.406 10.406 4.659 10.406 10.406-4.659 10.406-10.406 10.406z" fill="#c193dc"/></g><g><circle cx="100" cy="138" fill="#ffdede" r="20"/><path d="m40.928 121.071 35.673 35.673c5.503 6.855 13.945 11.256 23.399 11.256 16.542 0 30-13.458 30-30 0-9.454-4.401-17.895-11.255-23.398l-63.673-63.673c-3.907-3.905-10.237-3.905-14.143 0-3.906 3.905-3.906 10.237-.001 14.142l45.954 45.954c-6.021 2.94-10.917 7.836-13.857 13.857l-17.954-17.954c-3.907-3.905-10.237-3.905-14.143 0-3.905 3.906-3.905 10.238 0 14.143zm48.666 16.929c0-5.747 4.659-10.406 10.406-10.406s10.406 4.659 10.406 10.406-4.659 10.406-10.406 10.406-10.406-4.659-10.406-10.406z" fill="#c193dc"/></g></g></svg>