<svg id="Layer_1" enable-background="new 0 0 512 512" height="512" viewBox="0 0 512 512" width="512" xmlns="http://www.w3.org/2000/svg"><g><circle cx="365.999" cy="157" fill="#ffbdbc" r="20"/><circle cx="256" cy="317" fill="#e6e6f9" r="120"/><g fill="#cecdf3"><path d="m166.566 237h178.869c-6.805-7.603-14.565-14.331-23.092-20h-132.686c-8.527 5.669-16.286 12.397-23.091 20z"/><path d="m137.668 337h236.663c1.091-6.505 1.668-13.185 1.668-20h-239.999c0 6.816.577 13.495 1.668 20z"/><path d="m152.058 257c-7.027 12.147-11.98 25.642-14.389 40h236.663c-2.409-14.358-7.362-27.853-14.389-40z"/><path d="m345.434 397c10.332-11.542 18.459-25.095 23.728-40h-226.324c5.269 14.905 13.396 28.458 23.728 40z"/></g><path d="m375.23 303.412c.503 4.461.77 8.993.77 13.588 0 10.481-1.347 20.647-3.872 30.338 26.71 18.474 41.526 33.827 37.944 41.507-3.582 7.681-24.873 6.198-56.203-2.392-29.916-8.202-68.984-22.883-110.548-42.264-41.571-19.385-77.936-39.881-103.449-57.528-26.71-18.474-41.526-33.827-37.944-41.507 3.582-7.681 24.873-6.198 56.202 2.392 8.565-12.047 19.303-22.438 31.635-30.617-73.428-21.595-130.606-22.029-142.216 2.869s25.478 68.421 89.221 110.79c25.959 17.255 56.33 34.318 89.646 49.853 33.318 15.536 65.913 27.835 95.818 36.629 73.428 21.595 130.606 22.029 142.216-2.869 11.611-24.897-25.477-68.42-89.22-110.789z" fill="#fff"/><circle cx="482" cy="297" fill="#e6e6f9" r="20"/><circle cx="40" cy="347" fill="#e6e6f9" r="30"/><path d="m434.77 295.84c-5.17-44.09-26.04-82.89-56.64-111.11-.07-.01-.2-.06-.37-.14 4.58-1.96 8.57-5.02 11.64-8.85l35.67-35.67c3.91-3.9 3.91-10.24 0-14.14-3.9-3.91-10.23-3.91-14.14 0l-17.96 17.95c-2.94-6.02-7.83-10.92-13.85-13.86l45.95-45.95c3.91-3.9 3.91-10.24 0-14.14-1.95-1.95-4.51-2.93-7.07-2.93s-5.12.98-7.07 2.93l-63.68 63.67c-6.57 5.27-10.88 13.25-11.23 22.23-.04-.05-.06-.1-.07-.14-24.17-11.99-51.35-18.69-79.95-18.69-5.52 0-10 4.48-10 10s4.48 10 10 10c81.16 0 149.47 60.69 158.9 141.16.6 5.09 4.92 8.84 9.92 8.84.39 0 .79-.02 1.18-.07 5.48-.64 9.41-5.61 8.77-11.09zm-68.77-149.25c5.75 0 10.4 4.66 10.4 10.41s-4.65 10.41-10.4 10.41-10.41-4.66-10.41-10.41 4.66-10.41 10.41-10.41z" fill="#c193dc"/><path d="m384.555 297.629c-9.382-62.527-63.455-110.629-128.555-110.629-24.253 0-47.437 6.574-67.79 19.073-36.113-10.301-68.402-15.531-93.495-15.138-29.912.481-48.83 8.771-56.228 24.637-10.065 21.584 4.637 50.976 42.516 84.996 13.323 11.965 28.987 24.02 46.444 35.829 9.464 63.201 64.354 110.603 128.553 110.603 24.011 0 47.392-6.596 67.759-19.058 20.273 5.784 39.581 10.036 57.315 12.551 12.279 1.742 23.457 2.606 33.497 2.606 31.178-.001 51.329-8.344 58.942-24.671 7.369-15.801 1.633-35.529-17.048-58.635-15.804-19.548-40.658-41.022-71.91-62.164zm-7.132 65.871c13.549 10.286 19.231 16.771 21.581 20.185-4.131.396-12.763.215-29.357-3.559 2.992-5.372 5.59-10.923 7.776-16.626zm-11.423-46.5c0 20.603-5.673 40.478-16.427 57.83-29.425-8.645-65.559-22.699-102.026-39.704-36.473-17.008-70.471-35.658-96.009-52.644 6.937-20.954 20.333-39.732 38.024-53.16 19.239-14.603 42.213-22.322 66.438-22.322 60.654 0 110 49.346 110 110zm-231.425-46.494c-13.546-10.279-19.229-16.771-21.579-20.189 4.132-.394 12.768-.209 29.397 3.571-2.988 5.352-5.618 10.9-7.818 16.618zm121.425 156.494c-47.853 0-89.593-31.117-104.331-75.074 21.719 13.211 45.49 25.906 70.521 37.579 25.026 11.67 50.025 21.718 74.102 29.862-12.75 5.017-26.394 7.633-40.292 7.633zm199.388-17.024c-4.41 9.457-25.511 17.239-71.505 10.715-44.009-6.242-98.43-23.755-153.24-49.313-54.809-25.558-103.207-55.99-136.276-85.691-34.562-31.04-42.164-52.206-37.754-61.664 6.467-13.867 43.905-19.834 111.412-2.687-4.971 4.586-9.577 9.552-13.775 14.84-36.523-9.304-55.529-7.803-61.384 4.752-6.084 13.048 6.094 29.296 39.487 52.686 27.168 19.029 65.077 40.209 106.743 59.638s82.258 34.855 114.298 43.435c17.718 4.745 31.564 7.129 41.996 7.129 12.754-.001 20.399-3.567 23.746-10.745 5.852-12.549-5.199-28.061-35.761-50.037 1.34-6.597 2.175-13.32 2.479-20.126 56.531 40.704 75.985 73.234 69.534 87.068z" fill="#c193dc"/><path d="m482 267c-16.542 0-30 13.458-30 30s13.458 30 30 30 30-13.458 30-30-13.458-30-30-30zm0 40c-5.514 0-10-4.486-10-10s4.486-10 10-10 10 4.486 10 10-4.486 10-10 10z" fill="#c193dc"/><path d="m40 307c-22.056 0-40 17.944-40 40s17.944 40 40 40 40-17.944 40-40-17.944-40-40-40zm0 60c-11.028 0-20-8.972-20-20s8.972-20 20-20 20 8.972 20 20-8.972 20-20 20z" fill="#c193dc"/><g><circle cx="448" cy="197" fill="#ffbdbc" r="20"/><path d="m507.072 165.928c-3.906-3.905-10.236-3.905-14.143 0l-17.954 17.954c-2.94-6.021-7.836-10.917-13.857-13.857l45.954-45.954c3.905-3.905 3.905-10.237-.001-14.142-3.906-3.905-10.236-3.905-14.143 0l-63.673 63.673c-6.854 5.503-11.255 13.944-11.255 23.398 0 16.542 13.458 30 30 30 9.454 0 17.896-4.401 23.399-11.256l35.673-35.673c3.905-3.905 3.905-10.237 0-14.143zm-59.072 41.477c-5.747 0-10.406-4.659-10.406-10.406s4.659-10.406 10.406-10.406 10.406 4.659 10.406 10.406-4.659 10.406-10.406 10.406z" fill="#c193dc"/></g></g></svg>