<svg id="Layer_1" enable-background="new 0 0 512 512" height="512" viewBox="0 0 512 512" width="512" xmlns="http://www.w3.org/2000/svg"><g><path d="m76 216h360v40h-360z" fill="#fff"/><path d="m396 336h80v140h-80z" fill="#dae6e6"/><path d="m36 336h80v140h-80z" fill="#dae6e6"/><path d="m116 256h280v220h-280z" fill="#ecf2f3"/><path d="m196 376h120v100h-120z" fill="#99ebfa"/><path d="m196 376h120v40h-120z" fill="#fff"/><path d="m116 216c0-77.32 62.68-140 140-140s140 62.68 140 140" fill="#dae6e6"/><g><path d="m341 161 45-45-30-30-45 45" fill="#e6e6f9"/></g><path d="m351 81 40 40 40-40-40-40z" fill="#cecdf3"/><path d="m502 466h-16v-130c0-5.522-4.478-10-10-10h-70v-60h30c5.522 0 10-4.478 10-10v-40c0-5.523-4.478-10-10-10h-30.348c-1.683-25.622-9.82-50.141-23.834-71.675l4.492-4.492c1.462.777 3.075 1.167 4.69 1.167 2.56 0 5.118-.977 7.071-2.929l40-40c3.905-3.905 3.905-10.237 0-14.143l-40-40c-3.906-3.904-10.236-3.904-14.143 0l-40 40c-3.184 3.184-3.77 7.981-1.762 11.761l-4.492 4.492c-21.533-14.013-46.052-22.149-71.674-23.833v-30.348c0-5.522-4.478-10-10-10-104.767 0-190 85.233-190 190v40c0 5.522 4.478 10 10 10h30v60h-70c-5.522 0-10 4.478-10 10v130h-16c-5.523 0-10 4.478-10 10s4.477 10 10 10h492c5.522 0 10-4.478 10-10s-4.478-10-10-10zm-36-120v120h-60v-40h30c5.522 0 10-4.478 10-10s-4.478-10-10-10h-30v-20h30c5.522 0 10-4.478 10-10s-4.478-10-10-10h-30v-20zm-141.268-214.59 31.268-31.267 15.857 15.857-31.268 31.268c-4.246-6.224-9.632-11.611-15.857-15.858zm66.268-76.267 25.857 25.857-25.857 25.857-25.857-25.857zm-85.845 67.559c-4.542-1.103-9.279-1.702-14.155-1.702-5.522 0-10 4.478-10 10 0 5.523 4.478 10 10 10 22.056 0 40 17.944 40 40 0 5.523 4.478 10 10 10s10-4.477 10-10c0-4.876-.599-9.613-1.702-14.155l18.01-18.01c10.525 17.388 16.773 36.858 18.314 57.165h-259.241c5.123-67.028 61.301-120 129.619-120 23.897 0 46.94 6.45 67.165 18.692zm-59.155-76.411v20.05c-74.758 4.946-134.713 64.901-139.659 139.659h-20.038c5.002-85.79 73.907-154.707 159.697-159.709zm-160 179.709h340v20h-340zm300 40v200h-60v-90c0-5.522-4.478-10-10-10h-120c-5.523 0-10 4.478-10 10v90h-60v-200zm-80 140h-100v-20h100zm-100 20h40v40h-40zm60 0h40v40h-40zm-220-80h60v20h-30c-5.522 0-10 4.478-10 10s4.478 10 10 10h30v20h-30c-5.522 0-10 4.478-10 10s4.478 10 10 10h30v40h-60z" fill="#8aa8bd"/><g fill="#dae6e6"><path d="m176 296h40v40h-40z"/><path d="m236 296h40v40h-40z"/><path d="m296 296h40v40h-40z"/></g></g></svg>