<svg id="Layer_1" enable-background="new 0 0 512.003 512.003" height="512" viewBox="0 0 512.003 512.003" width="512" xmlns="http://www.w3.org/2000/svg"><g><g><path d="m167.834 502.001 80-140h-40l-80 140" fill="#fff7bf"/></g><g><path d="m190.694 462.001-22.86 40h-40l22.86-40z" fill="#ffee80"/></g><g><path d="m367.834 502.001-80-140h40l80 140" fill="#fff7bf"/></g><g><path d="m407.834 502.001h-40l-22.86-40h40z" fill="#ffee80"/></g><path d="m247.834 236.001h40v86h-40z" fill="#ffee80"/><path d="m65.361 171.119h110v60h-110z" fill="#fff7bf" transform="matrix(.906 -.423 .423 .906 -73.72 69.71)"/><path d="m164.118 110.405h130v80h-130z" fill="#ffee80" transform="matrix(.906 -.423 .423 .906 -42.098 110.921)"/><path d="m280.532 39.126h160v100h-160z" fill="#fff7bf" transform="matrix(.906 -.423 .423 .906 -3.887 160.718)"/><path d="m394.912 13.766h39.996v99.999h-39.996z" fill="#fff" transform="matrix(.906 -.423 .423 .906 11.916 181.29)"/><circle cx="267.834" cy="196.28" fill="#fff" r="40"/><path d="m207.834 322.001h120v40h-120z" fill="#fff7bf"/><path d="m463.231 96.405-42.262-90.631c-1.121-2.403-3.151-4.264-5.644-5.17-2.491-.908-5.241-.789-7.647.333l-36.194 16.878c-.018.009-.037.014-.056.023-.018.009-.035.019-.054.028l-108.704 50.69c-5.004 2.335-7.17 8.283-4.837 13.288l-108.756 50.714c-5.005 2.335-7.171 8.284-4.837 13.29l-90.631 42.262c-5.005 2.334-7.171 8.284-4.837 13.29l25.356 54.378c1.121 2.403 3.151 4.264 5.644 5.17 1.106.403 2.264.604 3.42.604 1.446 0 2.89-.313 4.227-.937l90.631-42.262c1.121 2.403 3.151 4.264 5.644 5.17 1.106.403 2.264.604 3.42.604 1.446 0 2.89-.313 4.227-.937l28.409-13.247c2.278 8.003 6.498 15.19 12.124 21.021.192.23.391.456.606.671s.439.413.668.604c1.481 1.429 3.042 2.775 4.689 4.014 0 .009-.001.017-.001.026v75.722h-30c-5.523 0-10 4.478-10 10v37.345l-75.803 132.655h-14.197c-5.522 0-10 4.478-10 10s4.478 10 10 10h19.96c.01 0 .021.002.031.002s.02-.002.03-.002h39.939c.01 0 .021.002.031.002s.02-.002.03-.002h19.979c5.523 0 10-4.478 10-10s-4.477-10-10-10h-2.768l68.572-120h28.394l68.572 120h-2.768c-5.522 0-10 4.478-10 10s4.478 10 10 10h19.979c.01 0 .02.002.03.002s.021-.002.031-.002h39.939c.01 0 .02.002.03.002s.021-.002.031-.002h19.96c5.522 0 10-4.478 10-10s-4.478-10-10-10h-14.197l-75.803-132.655v-37.345c0-5.522-4.478-10-10-10h-30v-75.722c0-.009-.001-.017-.001-.026 12.137-9.131 20.001-23.65 20.001-39.974 0-6.816-1.375-13.315-3.855-19.242l144.415-67.342c5.001-2.335 7.167-8.284 4.833-13.29zm-196.945 3.567 24.112 51.709c-6.784-3.446-14.447-5.403-22.564-5.403-24.918 0-45.633 18.323-49.388 42.203l-26.496 12.356s0 0 0-.001c-.001-.002-.003-.005-.004-.007l-25.354-54.371zm-25.52 109.233c-1.878-3.917-2.932-8.3-2.932-12.926 0-16.542 13.458-30 30-30 4.626 0 9.009 1.054 12.926 2.932zm-152.737 29.058-16.904-36.252 81.568-38.036 16.904 36.251zm57.037 253.738 11.428-20h16.965l-11.429 20zm39.822-40h-16.965l45.714-80h16.965zm137.143-80 45.714 80h-16.965l-45.714-80zm51.607 120-11.429-20h16.965l11.428 20zm-55.804-140h-100v-20h100zm-40-40h-20v-66.728c3.232.659 6.576 1.006 10 1.006s6.768-.347 10-1.006zm-10-85.722c-4.625 0-9.009-1.054-12.925-2.931l39.994-39.994c1.878 3.917 2.932 8.3 2.932 12.926-.001 16.541-13.459 29.999-30.001 29.999zm12.355-143.816c-.001-.002-.001-.005-.003-.007l90.633-42.263 33.809 72.505-90.632 42.263zm142.565 21.783-33.809-72.505 18.124-8.451 33.81 72.505z" fill="#ffa96b"/></g></svg>