<svg id="Layer_1" enable-background="new 0 0 512 512" height="512" viewBox="0 0 512 512" width="512" xmlns="http://www.w3.org/2000/svg"><g><path d="m296 76v360c0 22.091-17.909 40-40 40s-40-17.909-40-40v-360z" fill="#fff"/><path d="m296 148.002v49.889c69.009 6.66 120 30.152 120 58.109 0 33.137-71.634 60-160 60s-160-26.863-160-60c0-27.958 50.991-51.449 120-58.109v-49.889c-96.846 9.784-170 54.412-170 107.998 0 60.751 94.02 110 210 110s210-49.249 210-110c0-53.586-73.154-98.214-170-107.998z" fill="#99ebfa"/><path d="m216 216h80v40h-80z" fill="#ffee80"/><circle cx="256" cy="76" fill="#ccf5fc" r="40"/><circle cx="482" cy="356" fill="#ecf2f3" r="20"/><circle cx="126" cy="66" fill="#ecf2f3" r="20"/><circle cx="50" cy="136" fill="#fff" r="40"/><g><circle cx="396" cy="436" fill="#fff" r="40"/></g><g fill="#33d6f5"><path d="m423.299 177.52c-30.32-19.215-71.758-32.767-117.299-38.455v-63.065c0-27.57-22.43-50-50-50s-50 22.43-50 50v63.065c-45.541 5.688-86.979 19.24-117.298 38.455-33.986 21.538-52.702 49.409-52.702 78.48 0 33.284 23.747 64.053 66.868 86.64 28.935 15.157 64.483 25.507 103.132 30.306v63.054c0 27.57 22.43 50 50 50s50-22.43 50-50v-63.055c38.649-4.798 74.198-15.149 103.133-30.306 43.12-22.586 66.867-53.355 66.867-86.639 0-29.071-18.717-56.942-52.701-78.48zm-197.299 48.48h60v20h-60zm60-20h-60v-90.027c8.363 6.292 18.753 10.027 30 10.027s21.638-3.735 30-10.027zm-80 18.831-27.318-11.129c8.662-1.863 17.815-3.415 27.318-4.622zm-58.573-2.267 58.573 23.863v19.146l-58.59 23.87c-.345-.127-.695-.251-1.036-.379-25.281-9.481-40.374-21.841-40.374-33.064 0-9.072 10.153-19.183 27.855-27.74 4.168-2.015 8.719-3.912 13.572-5.696zm58.573 64.604v15.784c-9.518-1.201-18.684-2.748-27.39-4.624zm20-21.168h60v38.929c-9.772.707-19.806 1.071-30 1.071s-20.229-.364-30-1.071zm80 21.169 27.39 11.159c-8.706 1.876-17.872 3.423-27.39 4.624zm59.626 1.895c-.342.128-.692.252-1.036.379l-58.59-23.871v-19.145l58.577-23.865c4.754 1.747 9.217 3.605 13.316 5.575 17.862 8.587 28.107 18.742 28.107 27.863 0 11.223-15.093 23.583-40.374 33.064zm-59.626-64.232v-15.753c9.504 1.208 18.654 2.761 27.317 4.624zm-50-178.832c16.542 0 30 13.458 30 30s-13.458 30-30 30-30-13.458-30-30 13.458-30 30-30zm30 390c0 16.542-13.458 30-30 30s-30-13.458-30-30v-61.09c9.863.718 19.879 1.09 30 1.09s20.137-.373 30-1.09zm113.853-111.077c-38.259 20.04-89.347 31.077-143.853 31.077s-105.594-11.036-143.853-31.077c-36.207-18.965-56.147-43.443-56.147-68.923 0-21.976 15.416-43.848 43.408-61.587 27.342-17.328 64.921-29.697 106.592-35.188v29.692c-31.948 3.821-59.788 11.154-80.849 21.335-32.358 15.643-39.151 33.513-39.151 45.748 0 20.495 18.947 38.888 53.352 51.789 31.315 11.744 72.741 18.211 116.648 18.211 43.906 0 85.333-6.467 116.648-18.211 34.405-12.901 53.352-31.294 53.352-51.789 0-12.285-6.843-30.219-39.443-45.889-21.042-10.114-48.77-17.389-80.557-21.19v-29.696c41.672 5.491 79.251 17.859 106.593 35.186 27.991 17.741 43.407 39.613 43.407 61.589 0 25.48-19.94 49.957-56.147 68.923z"/><path d="m482 326c-16.542 0-30 13.458-30 30s13.458 30 30 30 30-13.458 30-30-13.458-30-30-30zm0 40c-5.514 0-10-4.486-10-10s4.486-10 10-10 10 4.486 10 10-4.486 10-10 10z"/><path d="m126 96c16.542 0 30-13.458 30-30s-13.458-30-30-30-30 13.458-30 30 13.458 30 30 30zm0-40c5.514 0 10 4.486 10 10s-4.486 10-10 10-10-4.486-10-10 4.486-10 10-10z"/><path d="m50 186c5.523 0 10-4.477 10-10 0-16.542 13.458-30 30-30 5.523 0 10-4.477 10-10s-4.477-10-10-10c-16.542 0-30-13.458-30-30 0-5.522-4.477-10-10-10s-10 4.478-10 10c0 16.542-13.458 30-30 30-5.523 0-10 4.477-10 10s4.477 10 10 10c16.542 0 30 13.458 30 30 0 5.523 4.477 10 10 10zm-10.035-50c3.8-2.854 7.181-6.235 10.035-10.035 2.854 3.8 6.235 7.181 10.035 10.035-3.8 2.854-7.181 6.235-10.035 10.035-2.854-3.8-6.235-7.181-10.035-10.035z"/><path d="m436 426c-16.542 0-30-13.458-30-30 0-5.522-4.478-10-10-10s-10 4.478-10 10c0 16.542-13.458 30-30 30-5.522 0-10 4.478-10 10s4.478 10 10 10c16.542 0 30 13.458 30 30 0 5.522 4.478 10 10 10s10-4.478 10-10c0-16.542 13.458-30 30-30 5.522 0 10-4.478 10-10s-4.478-10-10-10zm-40 20.035c-2.854-3.8-6.235-7.181-10.035-10.035 3.8-2.853 7.181-6.235 10.035-10.035 2.854 3.8 6.235 7.181 10.035 10.035-3.8 2.853-7.181 6.235-10.035 10.035z"/></g></g></svg>