<svg id="Layer_1" enable-background="new 0 0 512 512" height="512" viewBox="0 0 512 512" width="512" xmlns="http://www.w3.org/2000/svg"><g><path d="m356 296h80v120h-80z" fill="#e6e6f9"/><path d="m76 296h80v120h-80z" fill="#e6e6f9"/><path d="m236 156h40v40h-40z" fill="#cecdf3"/><path d="m236 316h40v40h-40z" fill="#cecdf3"/><path d="m76 96h80v120h-80z" fill="#e6e6f9"/><path d="m356 96h80v120h-80z" fill="#e6e6f9"/><path d="m196 196h120v120h-120z" fill="#fff"/><path d="m216 76h80v80h-80z" fill="#e6e6f9"/><path d="m216 356h80v80h-80z" fill="#e6e6f9"/><path d="m10 236h46v40h-46z" fill="#ffee80"/><path d="m456 236h46v40h-46z" fill="#ffee80"/><circle cx="226" cy="226" fill="#e6e6f9" r="10"/><circle cx="256" cy="226" fill="#e6e6f9" r="10"/><path d="m502 226h-46c-5.522 0-10 4.477-10 10v10h-40v-20h30c5.522 0 10-4.477 10-10v-120c0-5.522-4.478-10-10-10h-80c-5.522 0-10 4.478-10 10v120c0 5.523 4.478 10 10 10h30v20h-60v-50c0-5.523-4.478-10-10-10h-30v-20h10c5.522 0 10-4.477 10-10v-80c0-5.522-4.478-10-10-10h-80c-5.523 0-10 4.478-10 10v80c0 5.523 4.477 10 10 10h10v20h-30c-5.523 0-10 4.477-10 10v50h-60v-20h30c5.523 0 10-4.477 10-10v-120c0-5.522-4.477-10-10-10h-80c-5.522 0-10 4.478-10 10v120c0 5.523 4.478 10 10 10h30v20h-40v-10c0-5.523-4.478-10-10-10h-46c-5.523 0-10 4.477-10 10v40c0 5.522 4.477 10 10 10h46c5.522 0 10-4.478 10-10v-10h40v20h-30c-5.522 0-10 4.478-10 10v120c0 5.522 4.478 10 10 10h80c5.523 0 10-4.478 10-10v-120c0-5.522-4.477-10-10-10h-30v-20h60v50c0 5.522 4.477 10 10 10h30v20h-10c-5.523 0-10 4.478-10 10v80c0 5.522 4.477 10 10 10h80c5.522 0 10-4.478 10-10v-80c0-5.522-4.478-10-10-10h-10v-20h30c5.522 0 10-4.478 10-10v-50h60v20h-30c-5.522 0-10 4.478-10 10v120c0 5.522 4.478 10 10 10h80c5.522 0 10-4.478 10-10v-120c0-5.522-4.478-10-10-10h-30v-20h40v10c0 5.522 4.478 10 10 10h46c5.522 0 10-4.478 10-10v-40c0-5.523-4.478-10-10-10zm-96-20v-40h20v40zm20-60h-20v-40h20zm-40-40v40h-20v-40zm-20 100v-40h20v40zm-240 0v-40h20v40zm20-60h-20v-40h20zm-40-40v40h-20v-40zm-20 100v-40h20v40zm-40 60h-26v-20h26zm60 40v40h-20v-40zm-20 60h20v40h-20zm40 40v-40h20v40zm20-100v40h-20v-40zm80-220h60v20h-30c-5.523 0-10 4.478-10 10s4.477 10 10 10h30v20h-60zm20 80h20v20h-20zm-20 260v-60h60v20h-30c-5.523 0-10 4.478-10 10s4.477 10 10 10h30v20zm40-80h-20v-20h20zm40-40h-100v-100h100zm80 0v40h-20v-40zm-20 60h20v40h-20zm40 40v-40h20v40zm20-100v40h-20v-40zm66-40h-26v-20h26z" fill="#c193dc"/></g></svg>