<svg id="Layer_1" enable-background="new 0 0 512 512" height="512" viewBox="0 0 512 512" width="512" xmlns="http://www.w3.org/2000/svg"><g><path d="m95.981 10c-22.091 0-40 17.909-40 40v360c0-22.091 17.909-40 40-40h280v-360z" fill="#cecdf3"/><path d="m115.981 10h260v360h-260z" fill="#e6e6f9"/><path d="m155.981 50h180v120h-180z" fill="#fff"/><path d="m335.981 410c0-22.091 17.909-40 40-40h-280c-22.091 0-40 17.909-40 40 0 22.091 17.909 40 40 40h280c-22.091 0-40-17.909-40-40z" fill="#fff"/><g><path d="" style="fill:none;stroke:#c193dc;stroke-width:20;stroke-linecap:round;stroke-linejoin:round;stroke-miterlimit:10"/></g><circle cx="327.962" cy="176" fill="#ffdede" r="80"/><g fill="#ffbdbc"><path d="m405.985 158.352c-4.588-20.367-16.929-37.792-33.779-48.999-9.636 4.991-16.225 15.047-16.225 26.648 0 16.568 13.431 30 30 30 7.687-.001 14.695-2.896 20.004-7.649z"/><circle cx="335.981" cy="186" r="10"/><circle cx="315.981" cy="166" r="5"/><path d="m195.981 410v92l-30-20-30 20v-92"/></g><path d="m454.393 203.206c-8.137-10.246-20.753-21.612-36.624-33.018-1.613-25.184-13.629-47.581-31.788-62.931v-97.257c0-5.523-4.477-10-10-10h-280c-27.57 0-50 22.43-50 50v360c0 27.57 22.43 50 50 50h30v42c0 3.688 2.03 7.076 5.281 8.816 3.251 1.742 7.196 1.549 10.266-.496l24.453-16.302 24.453 16.302c1.673 1.116 3.607 1.68 5.547 1.68 1.618 0 3.24-.392 4.718-1.184 3.251-1.74 5.281-5.129 5.281-8.816v-42h170c5.523 0 10-4.478 10-10s-4.477-10-10-10c-16.542 0-30-13.458-30-30s13.458-30 30-30c5.523 0 10-4.478 10-10v-120.306c6.294 1.495 12.379 2.729 18.174 3.652 8.689 1.385 16.486 2.076 23.38 2.076 19.199 0 31.398-5.36 36.373-16.03 4.72-10.119 1.519-22.293-9.514-36.186zm-56.431-27.206c0 3.396-.256 6.732-.726 10h-31.255c-5.523 0-10 4.477-10 10s4.477 10 10 10h25.213c-3.673 7.711-8.724 14.64-14.821 20.488-19.173-5.557-40.048-13.487-61.09-23.299-11.675-5.444-22.863-11.225-33.355-17.189h14.053c5.523 0 10-4.477 10-10s-4.477-10-10-10h-37.293c1.014-7.059 3.08-13.781 6.042-20h51.251c5.523 0 10-4.477 10-10s-4.477-10-10-10h-36.942c12.63-12.36 29.897-20 48.923-20 38.598 0 70 31.402 70 70zm-71.981-89.975c-19.142.416-36.828 6.838-51.25 17.452-18.977-4.839-35.822-7.198-48.922-6.841-17.709.486-29.078 5.859-33.793 15.971-6.365 13.65 2.338 30.359 19.635 47.393h-45.67v-100h160zm-86.206 71.958c-2.41-1.917-4.736-3.832-6.933-5.739-21.643-18.778-23.689-29.062-22.7-31.184 1.603-3.438 15.722-7.507 47.393-1.028-8.671 10.888-14.878 23.821-17.76 37.951zm115.02 82.661c-8.269 3.445-17.331 5.356-26.833 5.356-31.276 0-57.821-20.62-66.77-48.977 14.422 8.745 29.983 16.991 45.639 24.292 16.241 7.574 32.44 14.076 47.964 19.329zm11.186-146.206c-6.306-2.952-13.005-5.197-20-6.624v-37.814c0-5.522-4.477-10-10-10h-180c-5.523 0-10 4.478-10 10v120c0 5.523 4.477 10 10 10h79.56c.864.633 1.738 1.264 2.619 1.895 3.047 46.888 42.157 84.105 89.802 84.105 13.579 0 26.463-3.029 38.019-8.438v102.438h-240v-340h240zm-270-74.438h10v340h-10c-11.247 0-21.637 3.735-30 10.027v-320.027c0-16.542 13.458-30 30-30zm90 463.315-14.453-9.635c-3.358-2.24-7.735-2.24-11.094 0l-14.453 9.635v-63.315h40zm150.027-43.315h-130.027v-20h90c5.523 0 10-4.478 10-10s-4.477-10-10-10h-200c-5.523 0-10 4.478-10 10s4.477 10 10 10h30v20h-30c-16.542 0-30-13.458-30-30s13.458-30 30-30h240.027c-6.292 8.362-10.027 18.752-10.027 30s3.735 21.638 10.027 30zm109.774-209.06c-.989 2.123-10.183 7.164-38.48 2.655-2.89-.46-5.871-1.015-8.908-1.633 8.67-10.889 14.875-23.822 17.756-37.952 25.28 20.076 31.235 33.493 29.632 36.93z" fill="#c193dc"/></g></svg>