<svg id="Layer_1" enable-background="new 0 0 512 512" height="512" viewBox="0 0 512 512" width="512" xmlns="http://www.w3.org/2000/svg"><g><ellipse cx="256" cy="255.991" fill="#99ebfa" rx="60" ry="40" transform="matrix(.707 -.707 .707 .707 -106.032 255.997)"/><ellipse cx="256" cy="255.991" fill="#ccf5fc" rx="23.531" ry="15.688" transform="matrix(.707 -.707 .707 .707 -106.032 255.997)"/><circle cx="462" cy="415.991" fill="#fff" r="40"/><circle cx="50" cy="95.991" fill="#fff" r="40"/><circle cx="136" cy="355.991" fill="#d0f2d2" r="20"/><circle cx="136.772" cy="213.991" fill="#ffdede" r="20"/><circle cx="356" cy="315.991" fill="#ccf5fc" r="20"/><circle cx="456" cy="235.991" fill="#e6e6f9" r="20"/><circle cx="156" cy="103.991" fill="#ccf5fc" r="20"/><g fill="#33d6f5"><path d="m321.122 154.788c-33.498 11.166-69.181 34.552-100.478 65.848-27.755 27.756-33.967 65.027-14.142 84.854 6.051 6.051 13.729 9.665 22.263 10.993-22.779 14.605-45.607 24.114-65.557 26.893-4.774-10.254-15.172-17.383-27.208-17.383-6.179 0-11.926 1.879-16.704 5.094-13.568-17.273-9.749-50.813 10.024-88.031 2.384.611 4.881.938 7.452.938 16.542 0 30-13.458 30-30 0-6.458-2.058-12.44-5.543-17.341 5.358-6.305 11.043-12.495 16.989-18.44 38.052-38.053 83.52-63.615 118.66-66.713 5.502-.484 9.568-5.337 9.083-10.839-.484-5.502-5.335-9.57-10.839-9.083-40.208 3.543-89.198 30.644-131.046 72.492-6.763 6.764-13.211 13.829-19.259 21.028-2.562-.714-5.258-1.104-8.045-1.104-16.542 0-30 13.458-30 30 0 6.665 2.188 12.828 5.879 17.813-11.909 21.937-19.145 43.415-20.983 62.398-2.168 22.402 3.209 40.846 15.537 53.389-.779 2.668-1.205 5.483-1.205 8.399 0 16.542 13.458 30 30 30 14.022 0 25.824-9.671 29.096-22.692 39.276-5.15 85.939-31.632 126.26-71.953 27.756-27.756 33.968-65.028 14.142-84.853-5.97-5.969-13.635-9.661-22.399-10.968 14.869-9.538 29.865-16.936 44.348-21.763 27.86-9.288 50.79-7.668 62.903 4.447 19.542 19.542 11.165 64.682-20.084 111.396-4.245-2.304-9.105-3.614-14.265-3.614-16.542 0-30 13.458-30 30 0 7.138 2.51 13.698 6.688 18.854-22.865 22.648-48.074 40.78-72.993 52.466-23.58 11.058-45.571 15.532-61.929 12.6-5.441-.98-10.633 2.641-11.608 8.078-.975 5.436 2.642 10.633 8.078 11.607 4.487.805 9.201 1.204 14.119 1.204 17.759 0 38.147-5.213 59.831-15.382 27.392-12.846 54.964-32.73 79.738-57.504.815-.815 1.627-1.638 2.436-2.463 1.828.35 3.712.54 5.641.54 16.542 0 30-13.458 30-30 0-3.856-.74-7.542-2.071-10.931 18.321-26.314 30.387-52.852 34.917-76.927 5.15-27.372.186-49.525-14.354-64.065-17.93-17.93-47.536-21.226-83.372-9.282zm-184.35 49.203c5.514 0 10 4.486 10 10s-4.486 10-10 10-10-4.486-10-10 4.486-10 10-10zm-.772 162c-5.514 0-10-4.486-10-10s4.486-10 10-10 10 4.486 10 10-4.486 10-10 10zm131.961-150.195c2.076-.415 4.79-.799 7.737-.799 5.25 0 11.237 1.218 15.657 5.638 11.499 11.498 5.022 37.404-14.143 56.568-19.163 19.165-45.07 25.642-56.568 14.143-11.499-11.499-5.023-37.404 14.142-56.568 9.953-9.952 21.735-16.693 33.175-18.982zm88.039 110.195c-5.514 0-10-4.486-10-10s4.486-10 10-10 10 4.486 10 10-4.486 10-10 10z"/><path d="m502 405.991c-16.542 0-30-13.458-30-30 0-5.522-4.478-10-10-10s-10 4.478-10 10c0 16.542-13.458 30-30 30-5.522 0-10 4.478-10 10 0 5.523 4.478 10 10 10 16.542 0 30 13.458 30 30 0 5.523 4.478 10 10 10s10-4.477 10-10c0-16.542 13.458-30 30-30 5.522 0 10-4.477 10-10s-4.478-10-10-10zm-40 20.034c-2.854-3.8-6.235-7.181-10.035-10.035 3.8-2.853 7.181-6.235 10.035-10.035 2.854 3.8 6.235 7.181 10.035 10.035-3.8 2.854-7.181 6.236-10.035 10.035z"/><path d="m60 135.991c0-16.542 13.458-30 30-30 5.523 0 10-4.478 10-10s-4.477-10-10-10c-16.542 0-30-13.458-30-30 0-5.522-4.477-10-10-10s-10 4.478-10 10c0 16.542-13.458 30-30 30-5.523 0-10 4.478-10 10s4.477 10 10 10c16.542 0 30 13.458 30 30 0 5.522 4.477 10 10 10s10-4.478 10-10zm-20.035-40c3.8-2.854 7.181-6.235 10.035-10.035 2.854 3.8 6.235 7.181 10.035 10.035-3.8 2.854-7.181 6.235-10.035 10.035-2.854-3.8-6.235-7.182-10.035-10.035z"/><path d="m486 235.991c0-13.106-8.451-24.268-20.186-28.343-1.903-44.814-18.434-83.992-47.955-113.516-29.986-29.985-70.026-46.598-115.793-48.042-42.263-1.316-87.141 11.012-126.92 34.823-5.199-4.32-11.873-6.923-19.145-6.923-16.542 0-30 13.458-30 30 0 4.339.933 8.461 2.598 12.188-2.133 2.005-4.251 4.034-6.313 6.097-42.973 42.973-69.692 97.175-75.237 152.62-5.62 56.196 11.105 106.964 47.094 142.953 31.424 31.424 74.112 48.16 121.847 48.16 6.934 0 13.979-.354 21.106-1.066 55.445-5.545 109.647-32.265 152.62-75.237 35.535-35.536 59.806-78.305 70.454-124.011 14.574-2.036 25.83-14.576 25.83-29.703zm-30 10c-5.514 0-10-4.486-10-10s4.486-10 10-10 10 4.486 10 10c0 5.513-4.486 10-10 10zm-300-152c5.514 0 10 4.486 10 10s-4.486 10-10 10-10-4.486-10-10 4.486-10 10-10zm219.572 281.572c-81.45 81.45-201.355 94.075-267.288 28.144-65.933-65.933-53.308-185.838 28.144-267.289 1.936-1.937 3.924-3.841 5.928-5.723 4.096 2.102 8.732 3.296 13.644 3.296 16.542 0 30-13.458 30-30 0-2.024-.204-4.001-.588-5.914 36.521-21.868 77.537-33.206 116.023-31.996 40.59 1.281 75.958 15.871 102.281 42.194 25.751 25.751 40.245 60.08 42.082 99.505-11.535 4.184-19.798 15.25-19.798 28.211 0 10.897 5.842 20.455 14.557 25.709-9.811 41.374-32.728 81.606-64.985 113.863z"/></g></g></svg>