<svg id="Layer_1" enable-background="new 0 0 512 512" height="512" viewBox="0 0 512 512" width="512" xmlns="http://www.w3.org/2000/svg"><g><g><circle cx="396" cy="176" fill="#fff2a0" r="80"/><circle cx="256" cy="296" fill="#ffdede" r="160"/><g fill="#ffbdbc"><path d="m413.18 326h-182.545c-6.917-11.953-19.832-20-34.635-20s-27.718 8.047-34.635 20h-62.545c2.67 14.072 7.177 27.493 13.272 40h49.272c6.917 11.953 19.832 20 34.635 20s27.718-8.047 34.635-20h169.272c6.097-12.507 10.604-25.927 13.274-40z"/><path d="m96 296h320c0-6.774-.425-13.448-1.242-20h-317.516c-.817 6.552-1.242 13.227-1.242 20z"/><path d="m117.41 216h277.18c-8.711-15.059-19.81-28.56-32.773-40h-211.634c-12.962 11.44-24.061 24.941-32.773 40z"/><path d="m107.642 236c-2.619 6.469-4.837 13.143-6.601 20h309.918c-1.765-6.857-3.982-13.531-6.601-20z"/><path d="m131.107 396c5.775 7.203 12.159 13.896 19.077 20h211.633c6.917-6.104 13.301-12.797 19.077-20z"/></g><circle cx="482" cy="396" fill="#ffdede" r="20"/><circle cx="30" cy="206" fill="#ffdede" r="20"/><g fill="#ff9171"><path d="m486 296c0-16.788-14.701-31.137-43.747-42.814 26.451-15.93 43.747-44.971 43.747-77.186 0-49.626-40.374-90-90-90-34.474 0-65.975 20.02-80.915 50.597-18.412-6.847-38.318-10.597-59.085-10.597-75.995 0-140.498 50.126-162.197 119.049-44.989 12.878-67.803 30.011-67.803 50.951 0 22.204 27.015 39.292 67.828 51.026 21.721 68.885 86.205 118.974 162.172 118.974s140.451-50.09 162.172-118.974c40.813-11.734 67.828-28.822 67.828-51.026zm-20 0c0 4.357-4.513 9.666-12.708 14.95-7.319 4.719-17.426 9.261-29.665 13.375 1.552-9.215 2.373-18.675 2.373-28.325 0-9.651-.821-19.112-2.373-28.328 12.572 4.226 22.9 8.911 30.259 13.765 7.811 5.153 12.114 10.324 12.114 14.563zm-70-190c38.599 0 70 31.402 70 70 0 30.58-20.029 57.478-48.585 66.649-14.109-42.579-44.618-77.753-84.017-97.985 11.755-23.394 36.045-38.664 62.602-38.664zm-140 40c82.71 0 150 67.29 150 150 0 11.903-1.401 23.483-4.033 34.593-39.848 9.954-91.306 15.407-145.967 15.407s-106.119-5.453-145.967-15.407c-2.632-11.109-4.033-22.69-4.033-34.593 0-82.71 67.29-150 150-150zm-210 150c0-4.336 4.476-9.621 12.602-14.881 7.326-4.743 17.473-9.311 29.771-13.445-1.552 9.215-2.373 18.676-2.373 28.326 0 9.648.82 19.107 2.372 28.32-29.133-9.819-42.372-20.901-42.372-28.32zm210 150c-62.598 0-116.354-38.549-138.8-93.15 40.338 8.708 89.695 13.15 138.8 13.15s98.462-4.443 138.8-13.15c-22.447 54.602-76.202 93.15-138.8 93.15z"/><path d="m482 366c-16.542 0-30 13.458-30 30s13.458 30 30 30 30-13.458 30-30-13.458-30-30-30zm0 40c-5.514 0-10-4.486-10-10s4.486-10 10-10 10 4.486 10 10-4.486 10-10 10z"/><path d="m60 206c0-16.542-13.458-30-30-30s-30 13.458-30 30 13.458 30 30 30 30-13.458 30-30zm-40 0c0-5.514 4.486-10 10-10s10 4.486 10 10-4.486 10-10 10-10-4.486-10-10z"/></g></g><g><circle cx="110" cy="138" fill="#ffbdbc" r="20"/><path d="m50.928 121.071 35.673 35.673c5.503 6.855 13.945 11.256 23.399 11.256 16.542 0 30-13.458 30-30 0-9.454-4.401-17.895-11.255-23.398l-63.673-63.673c-3.907-3.905-10.237-3.905-14.143 0-3.906 3.905-3.906 10.237-.001 14.142l45.954 45.954c-6.021 2.94-10.917 7.836-13.857 13.857l-17.954-17.954c-3.907-3.905-10.237-3.905-14.143 0-3.905 3.906-3.905 10.238 0 14.143zm48.666 16.929c0-5.747 4.659-10.406 10.406-10.406s10.406 4.659 10.406 10.406-4.659 10.406-10.406 10.406-10.406-4.659-10.406-10.406z" fill="#ff9171"/></g></g></svg>