<svg id="Layer_1" enable-background="new 0 0 512 512" height="512" viewBox="0 0 512 512" width="512" xmlns="http://www.w3.org/2000/svg"><g><path d="m366 189.117c-41.177 41.178-107.939 41.178-149.117 0s-41.178-107.939 0-149.117z" fill="#fff"/><g><path d="m216 340h80v122h-80z" fill="#ccf5fc"/><path d="m236 220h40v80h-40z" fill="#99ebfa"/><g fill="#fff"><path d="m96 462h320v40h-320z"/><path d="m186 300h140v40h-140z"/></g></g><circle cx="376" cy="30" fill="#ffdede" r="20"/><path d="m416 452h-36.452l-43.548-113.847v-38.153c0-5.522-4.478-10-10-10h-40v-20h10c5.522 0 10-4.478 10-10 0-5.523-4.478-10-10-10h-10v-20.183c1.813.085 3.627.128 5.441.128 29.563 0 59.124-11.252 81.63-33.757 1.875-1.876 2.929-4.419 2.929-7.071s-1.054-5.195-2.929-7.071l-26.916-26.917 18.542-97.347c3.491 1.426 7.305 2.218 11.303 2.218 16.542 0 30-13.458 30-30s-13.458-30-30-30-30 13.458-30 30c0 3.998.792 7.812 2.218 11.303l-97.348 18.542-26.916-26.917c-1.876-1.875-4.419-2.929-7.071-2.929s-5.195 1.054-7.071 2.929c-45.01 45.011-45.01 118.249 0 163.26 5.07 5.069 10.5 9.563 16.205 13.49-.004.108-.017.214-.017.322v40h-10c-5.523 0-10 4.477-10 10 0 5.522 4.477 10 10 10h10v20h-40c-5.523 0-10 4.478-10 10v38.023l-46.868 113.977h-33.132c-5.522 0-10 4.478-10 10v40c0 5.522 4.478 10 10 10h320c5.522 0 10-4.478 10-10v-40c0-5.522-4.478-10-10-10zm-190 0v-102h60v102zm80-102h13.119l39.017 102h-52.136zm-.416-235.441 34.513-34.513-11.044 57.982zm70.416-94.559c5.514 0 10 4.486 10 10s-4.486 10-10 10-10-4.486-10-10 4.486-10 10-10zm-50.045 45.903-34.513 34.513-23.469-23.469zm-108.704-11.393 134.239 134.239c-37.449 30.358-92.712 28.121-127.536-6.703-34.825-34.825-37.06-90.088-6.703-127.536zm28.749 166.166c6.493 2.771 13.19 4.92 20 6.448v22.876h-20zm0 49.324h20v20h-20zm-50 40h120v20h-120zm-3.299 40h13.299v102h-55.242zm213.299 142h-300v-20h29.768c.021 0 .041.003.061.003.013 0 .026-.003.04-.003h236.723c.026 0 .051.003.077.003.021 0 .043-.003.065-.003h33.266z" fill="#33d6f5"/></g></svg>