<svg id="Layer_1" enable-background="new 0 0 512 512" height="512" viewBox="0 0 512 512" width="512" xmlns="http://www.w3.org/2000/svg"><g><g><path d="m96 226h40v50h-40z" fill="#dae6e6"/><path d="m56 146h120v80h-120z" fill="#fff"/><circle cx="116" cy="186" fill="#dae6e6" r="20"/></g><path d="m396 276h-100l60-100h40z" fill="#dae6e6"/><path d="m36 276h440v140h-440z" fill="#ecf2f3"/><circle cx="442" cy="416" fill="#ffbdbc" r="60"/><circle cx="442" cy="416" fill="#fff" r="20"/><path d="m456 175.411c-27.452 27.452-71.96 27.452-99.411 0-27.452-27.452-27.452-71.96 0-99.411z" fill="#fff"/><circle cx="476" cy="56" fill="#ffbdbc" r="20"/><circle cx="96" cy="316" fill="#dae6e6" r="10"/><circle cx="136" cy="316" fill="#dae6e6" r="10"/><circle cx="70" cy="416" fill="#ffbdbc" r="60"/><circle cx="70" cy="416" fill="#fff" r="20"/><g><circle cx="256" cy="416" fill="#ffbdbc" r="60"/><circle cx="256" cy="416" fill="#fff" r="20"/></g><circle cx="246" cy="156" fill="#ecf2f3" r="20"/><g fill="#8aa8bd"><path d="m486 361.611v-85.611c0-5.522-4.477-10-10-10h-70v-60.007c.098 0 .196.007.294.007 21.447 0 41.611-8.352 56.777-23.518 3.905-3.905 3.905-10.237 0-14.143l-11.967-11.967 13.609-72.584c3.487 1.422 7.296 2.212 11.287 2.212 16.542 0 30-13.458 30-30s-13.458-30-30-30-30 13.458-30 30c0 3.991.79 7.799 2.211 11.286l-72.584 13.61-11.967-11.967c-1.875-1.875-4.419-2.929-7.071-2.929s-5.196 1.054-7.071 2.929c-15.166 15.166-23.518 35.33-23.518 56.777 0 18.718 6.365 36.456 18.065 50.75l-53.726 89.544h-34.339v-81.72c11.639-4.128 20-15.244 20-28.28 0-16.542-13.458-30-30-30-4.626 0-9.009 1.054-12.926 2.932-.001-.001-.002-.002-.003-.003l-57.317-57.317c-2.193-19.998-19.181-35.612-39.754-35.612-22.056 0-40 17.944-40 40 0 5.522 4.477 10 10 10s10-4.478 10-10c0-11.028 8.972-20 20-20s20 8.972 20 20-8.972 20-20 20c-5.523 0-10 4.478-10 10s4.477 10 10 10c15.096 0 28.263-8.409 35.071-20.786l47.857 47.857.003.003c-1.878 3.917-2.932 8.3-2.932 12.926 0 13.036 8.361 24.152 20 28.28v81.72h-90v-30h30c5.523 0 10-4.477 10-10v-80c0-5.523-4.477-10-10-10h-119.999c-5.523 0-10 4.477-10 10v80c0 5.523 4.477 10 10 10h30v30h-50c-5.523 0-10 4.478-10 10v85.611c-15.846 12.844-26 32.449-26 54.389 0 38.598 31.402 70 70 70 35.202 0 64.406-26.124 69.274-60h47.451c4.868 33.876 34.072 60 69.274 60s64.406-26.124 69.274-60h47.451c4.868 33.876 34.072 60 69.274 60 38.598 0 70-31.402 70-70 .002-21.94-10.152-41.545-25.998-54.389zm-240-215.611c5.514 0 10 4.486 10 10s-4.486 10-10 10-10-4.486-10-10 4.486-10 10-10zm174.437-20.294 19.777-19.777-6.245 33.309zm55.563-79.706c5.514 0 10 4.486 10 10s-4.486 10-10 10-10-4.486-10-10 4.486-10 10-10zm-49.929 45.786-19.777 19.777-13.531-13.531zm-68.902-1.064 84.109 84.109c-10.144 7.257-22.263 11.169-34.984 11.169-16.105 0-31.246-6.271-42.635-17.66-11.387-11.388-17.659-26.529-17.659-42.634 0-12.721 3.913-24.84 11.169-34.984zm1.761 99.83c8.171 5.995 17.332 10.336 27.07 12.861v62.587h-72.339zm-292.93-34.552h100v60h-100zm40 80h20v30h-20zm-60 50h249.961c.01 0 .02.002.03.002s.02-.002.031-.002h29.978v30c0 5.522 4.477 10 10 10s10-4.478 10-10v-30h20v30c0 5.522 4.477 10 10 10s10-4.478 10-10v-30h20v30c0 5.522 4.477 10 10 10s10-4.478 10-10v-30h40v64.24c-7.489-2.742-15.573-4.24-24-4.24-35.202 0-64.406 26.124-69.274 60h-47.451c-4.868-33.876-34.072-60-69.274-60s-64.406 26.124-69.274 60h-47.451c-4.868-33.876-34.072-60-69.274-60-8.427 0-16.511 1.498-24 4.24v-64.24zm24 180c-27.57 0-50-22.43-50-50s22.43-50 50-50 50 22.43 50 50-22.43 50-50 50zm186 0c-27.57 0-50-22.43-50-50s22.43-50 50-50 50 22.43 50 50-22.43 50-50 50zm186 0c-27.57 0-50-22.43-50-50s22.43-50 50-50 50 22.43 50 50-22.43 50-50 50z"/><path d="m442 386c-16.542 0-30 13.458-30 30s13.458 30 30 30 30-13.458 30-30-13.458-30-30-30zm0 40c-5.514 0-10-4.486-10-10s4.486-10 10-10 10 4.486 10 10-4.486 10-10 10z"/><path d="m70 386c-16.542 0-30 13.458-30 30s13.458 30 30 30 30-13.458 30-30-13.458-30-30-30zm0 40c-5.514 0-10-4.486-10-10s4.486-10 10-10 10 4.486 10 10-4.486 10-10 10z"/><path d="m256 386c-16.542 0-30 13.458-30 30s13.458 30 30 30 30-13.458 30-30-13.458-30-30-30zm0 40c-5.514 0-10-4.486-10-10s4.486-10 10-10 10 4.486 10 10-4.486 10-10 10z"/></g></g></svg>