<svg id="Layer_1" enable-background="new 0 0 512.034 512.034" height="512" viewBox="0 0 512.034 512.034" width="512" xmlns="http://www.w3.org/2000/svg"><g><circle cx="391.921" cy="116.017" fill="#ffdede" r="80"/><circle cx="352" cy="126.017" fill="#ffbdbc" r="20"/><circle cx="382" cy="96.017" fill="#ffbdbc" r="10"/><circle cx="403" cy="137.017" fill="#ffbdbc" r="5"/><circle cx="232" cy="256.017" fill="#d0f2d2" r="160"/><g fill="#b8ecbc"><path d="m172 176.017h-78.59c-7.162 12.381-12.717 25.808-16.369 40h94.959c11.046 0 20-8.954 20-20 0-11.046-8.954-20-20-20z"/><path d="m214 296.017c11.046 0 20-8.954 20-20 0-11.046-8.954-20-20-20h-142c0 13.812 1.75 27.215 5.041 40z"/><path d="m380.358 196.017h-68.358c-11.046 0-20 8.954-20 20 0 11.046 8.954 20 20 20h78.758c-1.743-13.974-5.293-27.385-10.4-40z"/><path d="m222 336.017c-11.046 0-20 8.954-20 20 0 11.046 8.954 20 20 20h115.817c12.963-11.44 24.062-24.941 32.773-40z"/></g><g><circle cx="143.002" cy="416.017" fill="#e6e6f9" r="40"/></g><circle cx="462" cy="336.017" fill="#99ebfa" r="40"/><g><circle cx="50" cy="116.017" fill="#fff" r="40"/></g><g><circle cx="376" cy="436.017" fill="#fff" r="40"/></g><g fill="#5cd0b3"><path d="m401.498 269.132c.322-.981.502-2.026.502-3.115 0-.672-.069-1.327-.195-1.962.125-2.665.195-5.343.195-8.038 0-17.409-2.635-34.212-7.519-50.039 20.207-.567 38.767-7.83 53.542-19.641 7.963 1.274 15.512 1.954 22.448 1.954 19.125-.001 33.6-5.174 39.271-17.334 4.969-10.657 4.276-29.137-27.243-56.658-.196-.171-.4-.324-.605-.477-1.169-48.616-41.08-87.806-89.972-87.806-21.259 0-40.807 7.323-56.218 19.628-41.754-6.694-56.567 4.632-61.603 15.431-4.414 9.467-2.149 20.298 4.869 31.544-14.924-4.296-30.682-6.604-46.969-6.604-93.738 0-170 76.262-170 170 0 45.393 18.197 88.807 50.233 120.632-6.692 5.242-12.025 12.141-15.358 20.084-.436.199-.866.419-1.28.686-28.453 18.292-39.945 33.857-34.16 46.266 3.858 8.274 13.129 10.382 21.847 10.381 6.647 0 12.974-1.225 16.331-1.875 2.354-.456 4.799-1.002 7.306-1.615 9.107 9.505 21.911 15.442 36.084 15.442 25.741 0 46.993-19.553 49.702-44.585 12.819 3.033 26.002 4.585 39.296 4.585 89.324.001 162.779-69.25 169.496-156.884zm-9.576-83.115c-1.703 0-3.41-.083-5.106-.204-3.641-7.998-7.891-15.66-12.678-22.94 15.258 6.928 30.973 12.796 46.089 17.144-8.661 3.845-18.234 6-28.305 6zm99.694-23.513c-1.22 2.613-8.325 6.728-26.408 5.697 6.288-8.806 11.031-18.787 13.828-29.545 11.441 12.205 14.054 20.687 12.58 23.848zm-32.621-66.487h-46.995c-5.522 0-10 4.478-10 10s4.478 10 10 10h49.922c0 6.949-1.032 13.659-2.927 20h-26.995c-5.522 0-10 4.477-10 10 0 5.522 4.478 10 10 10h17.318c-2.21 3.162-4.671 6.134-7.36 8.885-19.232-4.068-40.93-11.537-62.715-21.696-21.806-10.168-41.491-22.001-56.977-34.131.801-8.202 3.005-15.962 6.357-23.058h33.377c5.522 0 10-4.478 10-10s-4.478-10-10-10h-19.139c12.639-12.395 29.96-20 49.061-20 31.649 0 58.445 21.119 67.073 50zm-166.767-26.487c1.498-3.215 9.663-6.62 26.28-5.705-6.245 8.786-10.938 18.765-13.713 29.549-12.375-13.164-13.784-21.236-12.567-23.844zm-180.204 276.487h59.976c5.523 0 10-4.478 10-10s-4.477-10-10-10h-72.639c-11.269-21.356-17.361-45.346-17.361-70 0-43.42 18.552-82.584 48.137-110h101.863c5.523 0 10-4.478 10-10 0-5.523-4.477-10-10-10h-74.77c22.024-12.717 47.562-20 74.77-20 82.71 0 150 67.29 150 150h-110c-5.523 0-10 4.478-10 10s4.477 10 10 10h108.663c-.913 6.821-2.286 13.498-4.087 20h-64.576c-5.522 0-10 4.478-10 10s4.478 10 10 10h57.462c-23.192 52.928-76.075 90-137.462 90-9.09 0-18.117-.828-26.98-2.436 14.459-11.4 24.947-24.396 19.55-35.969-3.747-8.035-13.142-11.405-27.926-10.018-10.57.992-24.051 4.318-38.986 9.618-.478.169-.927.382-1.361.613-4.236-1.17-8.691-1.809-13.295-1.809-3.955 0-7.799.476-11.492 1.348-7.222-6.522-13.736-13.677-19.486-21.347zm3.232 81.394c-1.449-3.516-2.254-7.362-2.254-11.394 0-16.542 13.458-30 30-30 11.845 0 22.106 6.902 26.98 16.894-6.647 3.841-14.22 7.82-22.753 11.8-11.94 5.567-22.687 9.707-31.973 12.7zm71.648-35.302c-2.141-3.917-4.8-7.509-7.869-10.703 11.939-3.293 20.224-4.248 24.9-4.141-2.847 3.562-8.499 8.77-17.031 14.844zm-104.778 41.973c2.003-2.509 5.566-6.157 11.416-10.758.468 3.182 1.241 6.263 2.281 9.222-5.911 1.157-10.543 1.61-13.697 1.536zm60.876 11.935c-4.447 0-8.666-.98-12.466-2.724 8.166-2.976 16.638-6.489 25.145-10.456 3.089-1.441 8.946-4.255 16.009-8.043-3.763 12.273-15.198 21.223-28.688 21.223z"/><path d="m462 286.017c-27.57 0-50 22.43-50 50s22.43 50 50 50 50-22.43 50-50-22.43-50-50-50zm0 80c-16.542 0-30-13.458-30-30s13.458-30 30-30 30 13.458 30 30-13.458 30-30 30z"/><path d="m90 126.017c5.523 0 10-4.478 10-10s-4.477-10-10-10c-16.542 0-30-13.458-30-30 0-5.522-4.477-10-10-10s-10 4.478-10 10c0 16.542-13.458 30-30 30-5.523 0-10 4.478-10 10s4.477 10 10 10c16.542 0 30 13.458 30 30 0 5.522 4.477 10 10 10s10-4.478 10-10c0-16.542 13.458-30 30-30zm-50.035-10c3.799-2.854 7.181-6.235 10.035-10.035 2.854 3.8 6.235 7.181 10.035 10.035-3.8 2.854-7.181 6.235-10.035 10.035-2.854-3.8-6.235-7.182-10.035-10.035z"/><path d="m416 426.017c-16.542 0-30-13.458-30-30 0-5.522-4.478-10-10-10s-10 4.478-10 10c0 16.542-13.458 30-30 30-5.522 0-10 4.478-10 10s4.478 10 10 10c16.542 0 30 13.458 30 30 0 5.522 4.478 10 10 10s10-4.478 10-10c0-16.542 13.458-30 30-30 5.522 0 10-4.478 10-10s-4.478-10-10-10zm-40 20.035c-2.854-3.8-6.235-7.181-10.035-10.035 3.799-2.854 7.181-6.235 10.035-10.035 2.853 3.8 6.235 7.181 10.034 10.035-3.799 2.853-7.181 6.235-10.034 10.035z"/></g></g></svg>