<svg id="Layer_1" enable-background="new 0 0 512 512" height="512" viewBox="0 0 512 512" width="512" xmlns="http://www.w3.org/2000/svg"><g><g><path d="m200.448 432.232 55.552-42.732h-67.5l-22.5-67.5-22.5 67.5h-67.5l55.553 42.732-21.803 69.768 56.25-43.27 56.25 43.27z" fill="#fff7bf"/><path d="m172.793 201.736 43.207-33.236h-52.5l-17.5-52.5-17.5 52.5h-52.5l43.208 33.236-16.958 54.264 43.75-33.654 43.75 33.654z" fill="#fff7bf"/><g fill="#ffa96b"><path d="m256 380.75h-60.318l-20.206-59.944c-1.371-4.068-5.184-6.806-9.476-6.806s-8.105 2.738-9.476 6.806l-20.206 59.944h-60.318c-4.292 0-8.105 2.738-9.476 6.806-1.371 4.066.006 8.555 3.422 11.153l49.95 37.997-19.681 62.28c-1.313 4.156.216 8.683 3.78 11.191 3.563 2.508 8.341 2.42 11.81-.219l50.195-38.182 50.196 38.183c1.786 1.358 3.919 2.041 6.055 2.041 2.012 0 4.026-.605 5.755-1.822 3.564-2.509 5.093-7.035 3.78-11.191l-19.681-62.28 49.95-37.997c3.416-2.599 4.793-7.087 3.422-11.153-1.372-4.069-5.185-6.807-9.477-6.807zm-61.606 44.298c-3.36 2.556-4.753 6.946-3.481 10.973l12.304 38.936-31.163-23.705c-1.789-1.36-3.921-2.041-6.054-2.041s-4.266.681-6.054 2.041l-31.163 23.705 12.304-38.936c1.272-4.026-.121-8.417-3.481-10.973l-31.943-24.299h37.837c4.292 0 8.105-2.738 9.476-6.806l13.024-38.637 13.024 38.638c1.371 4.067 5.184 6.806 9.476 6.806h37.837z"/><path d="m69.903 176.425 37.68 28.984-14.877 47.607c-1.301 4.163.247 8.689 3.825 11.185s8.361 2.383 11.817-.276l37.652-28.964 37.653 28.964c1.794 1.38 3.944 2.074 6.098 2.074 1.997 0 3.999-.598 5.72-1.798 3.578-2.495 5.126-7.021 3.825-11.185l-14.877-47.607 37.68-28.984c3.394-2.61 4.749-7.092 3.37-11.145-1.379-4.054-5.186-6.78-9.467-6.78h-45.292l-15.221-45.662c-1.363-4.085-5.185-6.838-9.489-6.838s-8.126 2.754-9.487 6.838l-15.22 45.662h-45.293c-4.282 0-8.088 2.727-9.467 6.78-1.379 4.054-.024 8.535 3.37 11.145zm58.597 2.075c4.304 0 8.126-2.754 9.487-6.838l8.013-24.039 8.013 24.039c1.361 4.084 5.183 6.838 9.487 6.838h23.099l-19.903 15.311c-3.321 2.555-4.697 6.909-3.448 10.908l7.52 24.063-18.67-14.361c-1.797-1.383-3.947-2.074-6.097-2.074s-4.3.691-6.097 2.074l-18.67 14.361 7.519-24.063c1.25-3.999-.126-8.354-3.448-10.908l-19.903-15.311z"/><path d="m348.929 214.928-130 130c-3.905 3.905-3.905 10.237 0 14.143 1.953 1.952 4.512 2.929 7.071 2.929s5.119-.977 7.071-2.929l130-130c3.905-3.905 3.905-10.237 0-14.143-3.905-3.904-10.237-3.904-14.142 0z"/><path d="m208.929 294.928c-3.905 3.905-3.905 10.237 0 14.143 1.953 1.952 4.512 2.929 7.071 2.929s5.119-.977 7.071-2.929l140-140c3.905-3.905 3.905-10.237 0-14.143-3.905-3.904-10.237-3.904-14.143 0z"/><path d="m186 116c2.559 0 5.119-.977 7.071-2.929l70-70c3.905-3.905 3.905-10.237 0-14.143-3.905-3.904-10.237-3.904-14.143 0l-70 70c-3.905 3.905-3.905 10.237 0 14.143 1.953 1.952 4.513 2.929 7.072 2.929z"/></g></g><g><circle cx="322" cy="344" fill="#ffee80" r="20"/><path d="m383.072 310.928c-3.906-3.905-10.236-3.905-14.143 0l-19.954 19.954c-2.94-6.021-7.836-10.917-13.857-13.857l107.954-107.954c3.905-3.905 3.905-10.237-.001-14.142-3.906-3.905-10.236-3.905-14.143 0l-125.673 125.673c-6.854 5.503-11.255 13.944-11.255 23.398 0 16.542 13.458 30 30 30 9.454 0 17.896-4.401 23.399-11.256l37.673-37.673c3.905-3.905 3.905-10.237 0-14.143zm-61.072 43.477c-5.747 0-10.406-4.659-10.406-10.406s4.659-10.406 10.406-10.406 10.406 4.659 10.406 10.406-4.659 10.406-10.406 10.406z" fill="#ffa96b"/><circle cx="255" cy="124" fill="#ffee80" r="20"/><path d="m317.206 90.999c-3.906-3.905-10.236-3.905-14.143 0l-19.954 19.954c-2.94-6.021-7.836-10.917-13.857-13.857l78.954-78.954c3.905-3.905 3.905-10.237-.001-14.142-3.906-3.905-10.236-3.905-14.143 0l-96.673 96.673c-6.854 5.503-11.255 13.944-11.255 23.398 0 16.542 13.458 30 30 30 9.454 0 17.896-4.401 23.399-11.256l37.673-37.673c3.905-3.905 3.905-10.237 0-14.143zm-61.072 43.477c-5.747 0-10.406-4.659-10.406-10.406s4.659-10.406 10.406-10.406 10.406 4.659 10.406 10.406c-.001 5.748-4.66 10.406-10.406 10.406z" fill="#ffa96b"/></g></g></svg>