<svg id="Layer_1" enable-background="new 0 0 512 512" height="512" viewBox="0 0 512 512" width="512" xmlns="http://www.w3.org/2000/svg"><g><circle cx="327.981" cy="142" fill="#ffdede" r="80"/><g fill="#ffbdbc"><path d="m406.003 124.352c-4.588-20.367-16.929-37.792-33.779-49-9.635 4.991-16.224 15.047-16.224 26.648 0 16.568 13.431 30 30 30 7.687 0 14.695-2.895 20.003-7.648z"/><circle cx="336" cy="152" r="10"/><circle cx="316" cy="132" r="5"/></g><path d="m255.962 362v140h-40v-140" fill="#fff"/><path d="m255.963 422v80h-40v-80" fill="#b8ecbc"/><circle cx="235.962" cy="262" fill="#d0f2d2" r="100"/><circle cx="235.962" cy="262" fill="#fff" r="60"/><circle cx="135.962" cy="176" fill="#99ebfa" r="40"/><circle cx="75.962" cy="276" fill="#dae6e6" r="20"/><g fill="#5cd0b3"><path d="m454.412 169.206c-8.137-10.246-20.753-21.612-36.624-33.018-3.006-46.927-42.134-84.188-89.807-84.188-19.902 0-38.313 6.498-53.231 17.478-18.977-4.839-35.82-7.198-48.922-6.841-17.709.486-29.078 5.859-33.793 15.971-9.097 19.509 12.581 45.263 46.145 69.288.09 1.382.206 2.763.358 4.137-.857-.02-1.715-.033-2.576-.033-18.006 0-35.554 4.375-51.305 12.695-5.139-22.141-25.014-38.695-48.695-38.695-27.57 0-50 22.43-50 50 0 26.251 20.339 47.826 46.084 49.832-4.037 11.561-6.084 23.675-6.084 36.168 0 50.258 33.88 92.751 80 105.841v44.159h-10c-5.523 0-10 4.478-10 10s4.477 10 10 10h10v70c0 5.522 4.477 10 10 10h40c5.523 0 10-4.478 10-10v-70h10c5.523 0 10-4.478 10-10s-4.477-10-10-10h-10v-44.159c46.12-13.09 80-55.583 80-105.841 0-10.773-1.564-21.186-4.464-31.031 14.444-2.169 28.028-7.791 39.755-16.437 7.999 2.038 15.68 3.66 22.921 4.814 8.689 1.385 16.486 2.076 23.38 2.076 19.199 0 31.398-5.36 36.373-16.03 4.719-10.119 1.518-22.293-9.515-36.186zm-56.431-27.206c0 3.374-.243 6.714-.711 10h-31.27c-5.523 0-10 4.477-10 10s4.477 10 10 10h25.247c-3.282 6.911-7.71 13.305-13.202 18.924-.527.54-1.073 1.055-1.615 1.575-19.183-5.558-40.072-13.492-61.128-23.31-11.675-5.444-22.863-11.225-33.355-17.189h14.053c5.523 0 10-4.477 10-10s-4.477-10-10-10h-37.293c1.014-7.059 3.08-13.781 6.042-20h51.251c5.523 0 10-4.478 10-10s-4.477-10-10-10h-36.942c12.63-12.36 29.897-20 48.923-20 38.598 0 70 31.402 70 70zm-187.82-54.94c1.603-3.438 15.722-7.506 47.393-1.027-8.671 10.888-14.877 23.821-17.759 37.951-2.41-1.918-4.736-3.833-6.933-5.739-21.644-18.779-23.691-29.063-22.701-31.185zm-104.199 88.94c0-16.542 13.458-30 30-30s30 13.458 30 30-13.458 30-30 30-30-13.458-30-30zm140 316h-20v-60h20zm0-80h-20v-40.46c3.295.298 6.629.46 10 .46s6.705-.161 10-.46zm-10-60c-49.626 0-90-40.374-90-90 0-13.899 3.079-27.221 9.152-39.594.044-.09.076-.182.117-.273 14.572-6.109 25.649-18.931 29.367-34.575.869-.266 1.718-.646 2.519-1.165 14.541-9.416 31.432-14.393 48.845-14.393 49.626 0 90 40.374 90 90s-40.374 90-90 90zm97.834-140.251c-3.18-6.165-6.925-11.993-11.167-17.414 10.92 4.642 21.723 8.77 32.219 12.32-6.653 2.764-13.736 4.495-21.052 5.094zm112.005-14.809c-.989 2.123-10.184 7.166-38.48 2.655-2.876-.458-5.841-1.01-8.863-1.624 8.88-11.145 14.909-24.109 17.713-37.959 25.278 20.075 31.233 33.491 29.63 36.928z"/><path d="m235.962 192c-38.598 0-70 31.402-70 70s31.402 70 70 70 70-31.402 70-70-31.402-70-70-70zm0 120c-27.57 0-50-22.43-50-50s22.43-50 50-50 50 22.43 50 50-22.43 50-50 50z"/><path d="m75.962 246c-16.542 0-30 13.458-30 30s13.458 30 30 30 30-13.458 30-30-13.458-30-30-30zm0 40c-5.514 0-10-4.486-10-10s4.486-10 10-10 10 4.486 10 10-4.486 10-10 10z"/><path d="m397.962 372c-16.542 0-30-13.458-30-30 0-5.522-4.477-10-10-10s-10 4.478-10 10c0 16.542-13.458 30-30 30-5.523 0-10 4.478-10 10s4.477 10 10 10c16.542 0 30 13.458 30 30 0 5.522 4.477 10 10 10s10-4.478 10-10c0-16.542 13.458-30 30-30 5.523 0 10-4.478 10-10s-4.477-10-10-10zm-40 20.035c-2.854-3.8-6.235-7.181-10.035-10.035 3.8-2.853 7.181-6.235 10.035-10.035 2.854 3.8 6.235 7.181 10.035 10.035-3.8 2.853-7.182 6.235-10.035 10.035z"/><path d="m95.962 60c16.542 0 30 13.458 30 30 0 5.522 4.477 10 10 10s10-4.478 10-10c0-16.542 13.458-30 30-30 5.523 0 10-4.478 10-10s-4.477-10-10-10c-16.542 0-30-13.458-30-30 0-5.523-4.477-10-10-10s-10 4.477-10 10c0 16.542-13.458 30-30 30-5.523 0-10 4.478-10 10s4.477 10 10 10zm40-20.035c2.854 3.8 6.235 7.181 10.035 10.035-3.8 2.854-7.181 6.235-10.035 10.035-2.854-3.8-6.235-7.181-10.035-10.035 3.8-2.854 7.181-6.235 10.035-10.035z"/></g></g></svg>