<svg id="Layer_1" enable-background="new 0 0 511.951 511.951" height="512" viewBox="0 0 511.951 511.951" width="512" xmlns="http://www.w3.org/2000/svg"><g><path d="m406.955 165.237-150.962-149.038c-8.284-8.284-21.716-8.284-30 0-8.284 8.284-8.284 21.716 0 30l50 50c8.284 8.284 8.284 21.716 0 30-8.284 8.284-21.716 8.284-30 0l-90-90c-8.284-8.284-21.716-8.284-30 0-8.284 8.284-8.284 21.716 0 30l189.038 190.962" fill="#ffbdbc"/><circle cx="360.993" cy="211.199" fill="#ffdede" r="65"/><g fill="#ffbdbc"><circle cx="340.993" cy="223.199" r="20"/><circle cx="380.993" cy="241.199" r="10"/><circle cx="329.993" cy="190.199" r="5"/><path d="m410.911 169.577c-6.436-7.71-14.625-13.9-23.954-17.97-9.111 1.867-15.964 9.929-15.964 19.592 0 11.046 8.954 20 20 20s20-8.954 20-20c0-.548-.039-1.085-.082-1.622z"/><path d="m333.168 391.024-210.962-209.038c-8.284-8.284-21.716-8.284-30 0-8.284 8.284-8.284 21.716 0 30l110 110c8.284 8.284 8.284 21.716 0 30-8.284 8.284-21.716 8.284-30 0l-50-50c-8.284-8.284-21.716-8.284-30 0-8.284 8.284-8.284 21.716 0 30l149.038 150.962"/></g><circle cx="287.206" cy="436.986" fill="#ffdede" r="65"/><circle cx="267.206" cy="448.986" fill="#ffbdbc" r="20"/><circle cx="307.206" cy="466.986" fill="#ffbdbc" r="10"/><circle cx="256.206" cy="415.986" fill="#ffbdbc" r="5"/><path d="m337.124 395.364c-6.436-7.71-14.625-13.9-23.954-17.97-9.111 1.867-15.964 9.929-15.964 19.592 0 11.046 8.954 20 20 20s20-8.954 20-20c0-.548-.039-1.086-.082-1.622z" fill="#ffbdbc"/><g fill="#ff9171"><path d="m414.026 158.166c-.012-.012-.025-.023-.037-.035-.003-.003-.006-.006-.009-.01l-150.916-148.994c-12.17-12.17-31.972-12.17-44.143 0-12.17 12.17-12.17 31.973 0 44.143l50 50c4.372 4.372 4.372 11.485 0 15.857-2.117 2.118-4.934 3.284-7.929 3.284s-5.812-1.166-7.929-3.284l-90-90c-5.896-5.896-13.734-9.142-22.071-9.142s-16.176 3.246-22.071 9.142c-12.17 12.17-12.17 31.973-.036 44.106l189.039 190.962c.002.002.004.003.006.006.01.01.019.021.029.03 14.166 14.166 33 21.968 53.033 21.968s38.867-7.802 53.033-21.968c29.243-29.241 29.243-76.822.001-106.065zm-280.962-99.039c-4.372-4.372-4.372-11.485 0-15.857 4.372-4.373 11.486-4.373 15.857 0l90 90c12.171 12.17 31.973 12.17 44.143 0s12.17-31.973 0-44.143l-50-50c-4.372-4.372-4.372-11.485 0-15.857 4.372-4.373 11.486-4.371 15.903.045l114.435 112.977c-20.001-.637-40.21 6.642-55.442 21.874-15.258 15.259-22.537 35.51-21.872 55.543zm266.819 190.962c-10.388 10.389-24.199 16.11-38.891 16.11s-28.503-5.722-38.891-16.11c-21.444-21.443-21.444-56.337 0-77.781 10.724-10.724 24.805-16.084 38.891-16.084 14.083 0 28.17 5.362 38.891 16.084 21.445 21.444 21.445 56.338 0 77.781z"/><path d="m340.218 383.932c-.004-.003-.007-.008-.011-.012l-210.93-209.006c-12.169-12.169-31.972-12.169-44.142 0-5.896 5.896-9.143 13.733-9.143 22.071s3.247 16.176 9.142 22.071l110 110c4.372 4.372 4.372 11.485 0 15.857-4.372 4.373-11.486 4.373-15.858 0l-50.001-50c-12.169-12.169-31.972-12.169-44.142 0-5.896 5.896-9.143 13.733-9.143 22.071s3.247 16.176 9.097 22.025l149.038 150.962c.004.004.009.008.013.012.011.011.021.022.032.034 14.623 14.623 33.824 21.932 53.032 21.932 19.204 0 38.414-7.313 53.033-21.932 14.166-14.166 21.968-33 21.968-53.033s-7.802-38.867-21.968-53.033c-.003-.005-.01-.012-.017-.019zm-240.941-59.017c-2.118-2.118-3.284-4.934-3.284-7.929s1.166-5.811 3.285-7.929c4.371-4.373 11.485-4.373 15.857 0l50 50c12.17 12.168 31.971 12.168 44.143 0 12.17-12.17 12.17-31.973 0-44.143l-110.001-110c-2.118-2.118-3.284-4.934-3.284-7.929s1.166-5.811 3.285-7.929c4.371-4.372 11.485-4.371 15.89.032l174.583 172.992c-20.045-.674-40.31 6.604-55.577 21.872-14.166 14.166-21.967 33-21.967 53.033 0 .794.033 1.583.058 2.373zm226.819 150.961c-21.439 21.442-56.325 21.445-77.772.009l-.026-.025c-10.378-10.386-16.093-24.19-16.093-38.874 0-14.691 5.721-28.503 16.109-38.891 10.723-10.723 24.807-16.083 38.891-16.083 14.082 0 28.163 5.358 38.883 16.076l.012.012c10.385 10.387 16.105 24.196 16.105 38.885.002 14.692-5.72 28.504-16.109 38.891z"/></g></g></svg>