<svg id="Layer_1" enable-background="new 0 0 512 512" height="512" viewBox="0 0 512 512" width="512" xmlns="http://www.w3.org/2000/svg"><g><path d="m376 502h-240v-192c0-22.091 17.909-40 40-40h160c22.091 0 40 17.909 40 40z" fill="#d0f2d2"/><path d="m376 130c0 66.274-53.726 160-120 160s-120-93.726-120-160 53.726-120 120-120 120 53.726 120 120z" fill="#d0f2d2"/><ellipse cx="206" cy="140" fill="#fff" rx="18.97" ry="37.939" transform="matrix(.707 -.707 .707 .707 -38.659 186.669)"/><ellipse cx="306" cy="140" fill="#fff" rx="37.939" ry="18.97" transform="matrix(.707 -.707 .707 .707 -9.37 257.38)"/><g fill="#5cd0b3"><path d="m336 260h-2.138c5.287-5.894 10.382-12.398 15.242-19.497 22.758-33.238 36.896-75.581 36.896-110.503 0-71.683-58.317-130-130-130s-130 58.317-130 130c0 34.922 14.138 77.265 36.895 110.503 4.86 7.099 9.955 13.604 15.242 19.497h-2.137c-27.57 0-50 22.43-50 50v192c0 5.522 4.477 10 10 10h240c5.522 0 10-4.478 10-10v-192c0-27.57-22.43-50-50-50zm-190-130c0-60.654 49.346-110 110-110s110 49.346 110 110c0 31.104-12.798 69.116-33.398 99.203-22.104 32.282-50.024 50.797-76.602 50.797s-54.498-18.515-76.602-50.797c-20.6-30.087-33.398-68.099-33.398-99.203zm220 362h-20v-156c0-5.522-4.478-10-10-10s-10 4.478-10 10v156h-140v-156c0-5.522-4.477-10-10-10s-10 4.478-10 10v156h-20v-182c0-16.542 13.458-30 30-30h23.917c17.707 13.083 36.779 20 56.083 20s38.376-6.917 56.083-20h23.917c16.542 0 30 13.458 30 30z"/><path d="m243.7 213.62c-3.523-4.252-9.825-4.845-14.08-1.32-4.253 3.523-4.844 9.827-1.32 14.08 7.276 8.783 17.113 13.62 27.7 13.62s20.424-4.837 27.7-13.62c3.523-4.253 2.933-10.557-1.32-14.08-4.254-3.526-10.56-2.932-14.08 1.32-3.408 4.114-7.776 6.38-12.3 6.38s-8.892-2.266-12.3-6.38z"/><path d="m296 400h-80c-5.523 0-10 4.478-10 10s4.477 10 10 10h80c5.522 0 10-4.478 10-10s-4.478-10-10-10z"/><path d="m296 440h-80c-5.523 0-10 4.478-10 10s4.477 10 10 10h80c5.522 0 10-4.478 10-10s-4.478-10-10-10z"/></g></g></svg>