<svg id="Layer_1" enable-background="new 0 0 512 512" height="512" viewBox="0 0 512 512" width="512" xmlns="http://www.w3.org/2000/svg"><g><path d="m136 256c40 22.091 48.954 42.091 35.147 84.853 42.762-13.807 62.762-4.853 84.853 35.147 22.091-40 42.091-48.954 84.853-35.147-13.807-42.762-4.853-62.762 35.147-84.853-40-22.091-48.954-42.091-35.147-84.853-42.762 13.807-62.762 4.853-84.853-35.147-22.091 40-42.091 48.954-84.853 35.147 13.807 42.762 4.853 62.762-35.147 84.853z" fill="#ffee80"/><circle cx="256" cy="256" fill="#fff7bf" r="50"/><circle cx="336" cy="416" fill="#ffee80" r="20"/><circle cx="96" cy="176" fill="#ecf2f3" r="20"/><circle cx="456" cy="118" fill="#ecf2f3" r="20"/><circle cx="56" cy="396" fill="#ffee80" r="20"/><g fill="#ffa96b"><path d="m347.467 217.448c-4.325-10.283-3.43-23.615 2.902-43.228 1.153-3.572.21-7.49-2.445-10.144s-6.572-3.599-10.144-2.445c-19.613 6.332-32.945 7.227-43.228 2.902-10.243-4.308-19.433-14.599-29.798-33.368-1.76-3.187-5.113-5.165-8.754-5.165s-6.994 1.979-8.754 5.165c-10.366 18.769-19.556 29.06-29.798 33.368-10.283 4.326-23.615 3.431-43.228-2.902-3.571-1.153-7.489-.21-10.144 2.445-2.654 2.654-3.598 6.572-2.445 10.144 6.333 19.613 7.228 32.945 2.902 43.228-4.308 10.243-14.599 19.433-33.368 29.798-3.187 1.76-5.165 5.113-5.165 8.754s1.979 6.994 5.165 8.754c18.769 10.366 29.06 19.556 33.368 29.798 4.325 10.283 3.43 23.615-2.902 43.228-1.153 3.572-.209 7.49 2.445 10.144 2.655 2.654 6.572 3.598 10.144 2.445 19.613-6.332 32.946-7.228 43.228-2.902 10.243 4.308 19.433 14.599 29.798 33.368 1.76 3.187 5.113 5.165 8.754 5.165s6.994-1.978 8.754-5.165c10.366-18.769 19.556-29.06 29.798-33.368 10.284-4.325 23.616-3.43 43.228 2.902 3.571 1.153 7.489.21 10.144-2.445 2.654-2.654 3.598-6.572 2.445-10.144-6.332-19.613-7.227-32.945-2.902-43.228 4.308-10.243 14.599-19.433 33.368-29.798 3.187-1.76 5.165-5.113 5.165-8.754s-1.979-6.994-5.165-8.754c-18.769-10.366-29.06-19.556-33.368-29.798zm-20.7 109.319c-31.283-6.28-51.921 2.525-70.767 30.07-15.018-21.951-31.168-31.999-52.944-31.999-5.551 0-11.467.653-17.823 1.93 6.281-31.285-2.524-51.921-30.069-70.767 27.545-18.846 36.35-39.482 30.07-70.767 31.285 6.28 51.921-2.525 70.767-30.07 15.018 21.951 31.168 32 52.944 31.999 5.551-.001 11.467-.653 17.823-1.93-6.281 31.285 2.524 51.921 30.069 70.767-27.546 18.846-36.351 39.482-30.07 70.767z"/><path d="m256 196c-33.084 0-60 26.916-60 60s26.916 60 60 60 60-26.916 60-60-26.916-60-60-60zm0 100c-22.056 0-40-17.944-40-40s17.944-40 40-40 40 17.944 40 40-17.944 40-40 40z"/><path d="m481.221 134.214c3.019-4.679 4.779-10.243 4.779-16.214 0-16.542-13.458-30-30-30-2.151 0-4.247.232-6.271.664-48.75-56.422-118.998-88.664-193.729-88.664-68.38 0-132.667 26.629-181.019 74.981s-74.981 112.639-74.981 181.019c0 43.018 10.838 85.402 31.378 122.891-3.385 4.857-5.378 10.753-5.378 17.109 0 16.542 13.458 30 30 30 2.667 0 5.251-.354 7.714-1.01 48.681 55.368 118.411 87.01 192.286 87.01 68.38 0 132.667-26.629 181.019-74.981s74.981-112.639 74.981-181.019c0-42.588-10.631-84.576-30.779-121.786zm-15.221-16.214c0 5.514-4.486 10-10 10s-10-4.486-10-10 4.486-10 10-10 10 4.486 10 10zm-420 278c0-5.514 4.486-10 10-10s10 4.486 10 10-4.486 10-10 10-10-4.486-10-10zm376.877 26.877c-44.574 44.575-103.839 69.123-166.877 69.123-67.312 0-130.889-28.5-175.693-78.449 3.577-4.939 5.693-11.001 5.693-17.551 0-16.542-13.458-30-30-30-2.854 0-5.612.409-8.23 1.157-18.183-34.023-27.77-72.304-27.77-111.157 0-63.038 24.548-122.303 69.123-166.877 44.574-44.575 103.839-69.123 166.877-69.123 67.835 0 131.659 28.827 176.511 79.371-4.071 5.122-6.511 11.594-6.511 18.629 0 16.542 13.458 30 30 30 3.189 0 6.261-.505 9.146-1.431 17.589 33.583 26.854 71.242 26.854 109.431 0 63.038-24.548 122.303-69.123 166.877z"/><path d="m256 66c-61.9 0-119.541 29.964-155.198 80.389-1.564-.253-3.167-.389-4.802-.389-16.542 0-30 13.458-30 30 0 8.456 3.522 16.1 9.169 21.558-6.081 18.824-9.169 38.456-9.169 58.442 0 104.766 85.234 190 190 190 19.986 0 39.618-3.088 58.442-9.169 5.458 5.647 13.102 9.169 21.558 9.169 16.542 0 30-13.458 30-30 0-1.635-.136-3.238-.389-4.802 50.425-35.657 80.389-93.298 80.389-155.198 0-104.766-85.234-190-190-190zm-160 100c5.514 0 10 4.486 10 10s-4.486 10-10 10-10-4.486-10-10 4.486-10 10-10zm240 260c-5.514 0-10-4.486-10-10s4.486-10 10-10 10 4.486 10 10-4.486 10-10 10zm19.882-32.439c-5.297-4.699-12.26-7.561-19.882-7.561-16.542 0-30 13.458-30 30 0 .841.044 1.671.112 2.494-16.169 4.981-32.992 7.506-50.112 7.506-93.738 0-170-76.262-170-170 0-17.12 2.525-33.943 7.506-50.112.823.068 1.654.112 2.494.112 16.542 0 30-13.458 30-30 0-7.622-2.862-14.585-7.561-19.882 31.999-44.023 82.926-70.118 137.561-70.118 93.738 0 170 76.262 170 170 0 54.635-26.095 105.562-70.118 137.561z"/></g></g></svg>