<svg id="Layer_1" enable-background="new 0 0 512 512" height="512" viewBox="0 0 512 512" width="512" xmlns="http://www.w3.org/2000/svg"><g><g><circle cx="196" cy="342" fill="#ccf5fc" r="160"/><g fill="#b8ecbc"><path d="m354.758 362h-88.758c-11.046 0-20 8.954-20 20s8.954 20 20 20h78.358c5.107-12.615 8.657-26.026 10.4-40z"/><path d="m166 242h-94.893c-9.646 12.032-17.589 25.486-23.464 40h118.357c11.046 0 20-8.954 20-20 0-11.045-8.954-20-20-20z"/><path d="m90.184 462h105.816c11.046 0 20-8.954 20-20s-8.954-20-20-20h-80c-11.046 0-20-8.954-20-20s8.954-20 20-20h30c11.046 0 20-8.954 20-20s-8.954-20-20-20h-110c0 47.792 20.961 90.682 54.184 120z"/></g><circle cx="426" cy="426" fill="#dae6e6" r="30"/><circle cx="76" cy="136" fill="#fff2a0" r="40"/><g fill="#33d6f5"><path d="m196 172c-93.738 0-170 76.262-170 170s76.262 170 170 170 170-76.262 170-170-76.262-170-170-170zm0 320c-82.71 0-150-67.29-150-150s67.29-150 150-150 150 67.29 150 150-67.29 150-150 150z"/><path d="m196 132c115.794 0 210 94.206 210 210 0 5.523 4.478 10 10 10s10-4.477 10-10c0-61.435-23.924-119.193-67.365-162.635-43.442-43.44-101.2-67.365-162.635-67.365-5.523 0-10 4.477-10 10s4.477 10 10 10z"/><path d="m426 386c-22.056 0-40 17.944-40 40s17.944 40 40 40 40-17.944 40-40-17.944-40-40-40zm0 60c-11.028 0-20-8.972-20-20s8.972-20 20-20 20 8.972 20 20-8.972 20-20 20z"/><path d="m76 186c27.57 0 50-22.43 50-50s-22.43-50-50-50-50 22.43-50 50 22.43 50 50 50zm0-80c16.542 0 30 13.458 30 30s-13.458 30-30 30-30-13.458-30-30 13.458-30 30-30z"/></g></g><g><circle cx="424" cy="176" fill="#ffbdbc" r="20"/><path d="m483.072 144.928c-3.906-3.905-10.236-3.905-14.143 0l-17.954 17.954c-2.94-6.021-7.836-10.917-13.857-13.857l45.954-45.954c3.905-3.905 3.905-10.237-.001-14.142-3.906-3.905-10.236-3.905-14.143 0l-63.673 63.673c-6.854 5.503-11.255 13.944-11.255 23.398 0 16.542 13.458 30 30 30 9.454 0 17.896-4.401 23.399-11.256l35.673-35.673c3.905-3.905 3.905-10.237 0-14.143zm-59.072 41.477c-5.747 0-10.406-4.659-10.406-10.406s4.659-10.406 10.406-10.406 10.406 4.659 10.406 10.406-4.659 10.406-10.406 10.406z" fill="#33d6f5"/><circle cx="344" cy="90" fill="#ffbdbc" r="20"/><path d="m403.072 58.927c-3.906-3.905-10.236-3.905-14.143 0l-17.954 17.954c-2.94-6.021-7.836-10.917-13.857-13.857l45.954-45.954c3.905-3.905 3.905-10.237-.001-14.142-3.906-3.905-10.236-3.905-14.143 0l-63.673 63.673c-6.854 5.503-11.255 13.944-11.255 23.399 0 16.542 13.458 30 30 30 9.454 0 17.896-4.401 23.399-11.256l35.673-35.673c3.905-3.906 3.905-10.238 0-14.144zm-59.072 41.478c-5.747 0-10.406-4.659-10.406-10.406s4.659-10.405 10.406-10.405 10.406 4.659 10.406 10.406-4.659 10.405-10.406 10.405z" fill="#33d6f5"/></g></g></svg>