<svg id="Layer_1" enable-background="new 0 0 512 512" height="512" viewBox="0 0 512 512" width="512" xmlns="http://www.w3.org/2000/svg"><g><circle cx="146" cy="392" fill="#ffbdbc" r="60"/><circle cx="146" cy="392" fill="#ffdede" r="30"/><circle cx="356" cy="436" fill="#ffbdbc" r="20"/><g fill="#ff9171"><path d="m336 367.871c2.556 0 5.111-.974 7.063-2.921l56-55.871c3.91-3.9 3.917-10.232.017-14.142-3.899-3.91-10.232-3.916-14.142-.016l-56 55.871c-3.91 3.9-3.917 10.232-.017 14.142 1.953 1.958 4.516 2.937 7.079 2.937z"/><path d="m298.942 380.787-82.232 81.924c-18.887 18.887-43.999 29.289-70.71 29.289s-51.823-10.402-70.71-29.29c-18.888-18.886-29.29-43.999-29.29-70.71s10.402-51.823 29.29-70.71l152-152c3.905-3.905 3.905-10.237 0-14.143-3.906-3.904-10.236-3.904-14.143 0l-152 152c-22.665 22.665-35.147 52.8-35.147 84.853s12.482 62.188 35.147 84.853c22.666 22.665 52.8 35.147 84.853 35.147s62.188-12.482 84.839-35.134l82.219-81.911c3.913-3.898 3.925-10.229.026-14.142-3.898-3.912-10.229-3.923-14.142-.026z"/><path d="m393.071 144.929c-3.906-3.905-10.236-3.905-14.143 0l-169 169c-3.905 3.905-3.905 10.237 0 14.143 1.954 1.952 4.512 2.928 7.072 2.928s5.118-.976 7.071-2.929l169-169c3.906-3.905 3.906-10.237 0-14.142z"/><path d="m258.912 194.202c1.954 1.963 4.52 2.946 7.088 2.946 2.551 0 5.103-.97 7.054-2.912l178-177.147c3.915-3.896 3.931-10.228.034-14.142-3.896-3.915-10.227-3.931-14.142-.034l-178 177.147c-3.915 3.895-3.93 10.227-.034 14.142z"/><path d="m243.071 210.076c-3.906-3.905-10.236-3.905-14.143 0l-132.426 132.427c-.003.003-.006.007-.009.01-27.283 27.293-27.28 71.695.009 98.985 13.222 13.221 30.8 20.502 49.498 20.502s36.276-7.281 49.498-20.502l192-192c3.905-3.905 3.905-10.237 0-14.143-3.906-3.904-10.236-3.904-14.142 0l-157.407 157.407c.196-18.178-6.612-36.419-20.451-50.259-13.222-13.221-30.8-20.503-49.498-20.503-.244 0-.485.015-.728.018l97.799-97.799c3.906-3.906 3.906-10.238 0-14.143zm-97.071 131.948c12.803 0 25.609 4.875 35.355 14.621 19.495 19.495 19.495 51.216 0 70.71-19.496 19.496-51.217 19.495-70.711.001-19.495-19.495-19.495-51.216 0-70.711 9.75-9.749 22.55-14.621 35.356-14.621z"/><path d="m415.072 404.928c-3.906-3.905-10.236-3.905-14.143 0l-17.954 17.954c-2.94-6.021-7.836-10.917-13.857-13.857l45.954-45.954c3.905-3.905 3.905-10.237-.001-14.142-3.906-3.905-10.236-3.905-14.143 0l-63.673 63.673c-6.854 5.503-11.255 13.944-11.255 23.398 0 16.542 13.458 30 30 30 9.454 0 17.896-4.401 23.399-11.256l35.673-35.673c3.905-3.905 3.905-10.237 0-14.143zm-59.072 41.477c-5.747 0-10.406-4.659-10.406-10.406s4.659-10.406 10.406-10.406 10.406 4.659 10.406 10.406-4.659 10.406-10.406 10.406z"/></g><g><circle cx="424" cy="202" fill="#ffbdbc" r="20"/><path d="m483.072 170.928c-3.906-3.905-10.236-3.905-14.143 0l-17.954 17.954c-2.94-6.021-7.836-10.917-13.857-13.857l45.954-45.954c3.905-3.905 3.905-10.237-.001-14.142-3.906-3.905-10.236-3.905-14.143 0l-63.673 63.673c-6.854 5.503-11.255 13.944-11.255 23.398 0 16.542 13.458 30 30 30 9.454 0 17.896-4.401 23.399-11.256l35.673-35.673c3.905-3.905 3.905-10.237 0-14.143zm-59.072 41.477c-5.747 0-10.406-4.659-10.406-10.406s4.659-10.406 10.406-10.406 10.406 4.659 10.406 10.406-4.659 10.406-10.406 10.406z" fill="#ff9171"/></g><g><circle cx="244" cy="102" fill="#ffbdbc" r="20"/><path d="m303.072 70.927c-3.906-3.905-10.236-3.905-14.143 0l-17.954 17.954c-2.94-6.021-7.836-10.917-13.857-13.857l45.954-45.954c3.905-3.905 3.905-10.237-.001-14.142-3.906-3.905-10.236-3.905-14.143 0l-63.673 63.673c-6.854 5.503-11.255 13.944-11.255 23.399 0 16.542 13.458 30 30 30 9.454 0 17.896-4.401 23.399-11.256l35.673-35.673c3.905-3.906 3.905-10.238 0-14.144zm-59.072 41.478c-5.747 0-10.406-4.659-10.406-10.406s4.659-10.405 10.406-10.405 10.406 4.659 10.406 10.406-4.659 10.405-10.406 10.405z" fill="#ff9171"/></g></g></svg>