<svg id="Layer_1" enable-background="new 0 0 512 512" height="512" viewBox="0 0 512 512" width="512" xmlns="http://www.w3.org/2000/svg"><g><g><path d="m332.933 352.006c-22.091 0-40.001 17.909-40.001 40.001 0 17.875 11.726 33.007 27.904 38.135 18.99-17.355 33.777-39.229 42.669-63.918-7.337-8.692-18.307-14.218-30.572-14.218z" fill="#dae6e6"/><circle cx="212.931" cy="312.005" fill="#ecf2f3" r="160.003"/><g fill="#dae6e6"><path d="m332.933 352.006c-22.091 0-40.001 17.909-40.001 40.001 0 17.875 11.726 33.007 27.904 38.135 18.99-17.355 33.777-39.229 42.669-63.918-7.337-8.692-18.307-14.218-30.572-14.218z"/><circle cx="162.93" cy="262.005" r="30.001"/><circle cx="152.93" cy="362.006" r="20"/><circle cx="232.931" cy="382.007" r="20"/><circle cx="292.932" cy="302.005" r="10"/><circle cx="222.931" cy="212.004" r="10"/><circle cx="182.93" cy="322.006" r="10"/></g><g fill="#ecf2f3"><path d="m355.327 341.145 36.976-32.789c3.434-3.045 5.77-7.169 6.467-11.706 3.283-21.345-3.704-47.423-17.22-64.266-2.873-3.58-6.957-5.983-11.454-6.904l-48.417-9.908"/><path d="m147.93 442.008 22.101 44.203c2.053 4.105 5.432 7.429 9.633 9.277 19.768 8.695 46.765 8.695 66.533 0 4.201-1.848 7.58-5.171 9.633-9.277l22.101-44.203"/><path d="m216.901 166.713-38.712-30.721c-3.595-2.853-8.062-4.437-12.651-4.336-21.591.474-46.059 11.883-60.3 28.118-3.027 3.45-4.685 7.891-4.81 12.479l-1.35 49.402"/><path d="m68.537 295.388-33.977 35.887c-3.156 3.333-5.123 7.645-5.423 12.225-1.41 21.55 7.823 46.919 22.755 62.521 3.174 3.316 7.452 5.354 12.012 5.879l49.096 5.65"/></g><g fill="#8aa8bd"><path d="m368.078 299.236c4.609-3.043 5.878-9.246 2.835-13.855s-9.247-5.879-13.855-2.836l-17.593 11.616c-4.609 3.043-5.879 9.246-2.836 13.855 1.923 2.913 5.107 4.491 8.355 4.491 1.892 0 3.804-.536 5.5-1.656z"/><path d="m353.087 265.474c5.249 0 9.654-4.092 9.973-9.401.331-5.513-3.87-10.251-9.383-10.581l-21.044-1.263c-5.511-.325-10.251 3.87-10.581 9.383-.331 5.513 3.87 10.251 9.383 10.581l21.044 1.263c.203.012.406.018.608.018z"/><path d="m398.938 315.839c5.227-4.635 8.678-10.91 9.716-17.667 3.704-24.085-4.054-53.038-19.304-72.045-4.28-5.334-10.406-9.042-17.248-10.441l-7.17-1.467 21.141-21.141c3.905-3.905 3.905-10.237 0-14.143-3.905-3.904-10.237-3.904-14.143 0l-26.536 26.536c-14.783-18.337-33.392-33.618-54.246-44.442-23.977-12.446-51.024-19.025-78.216-19.025-3.543 0-7.112.129-10.643.347l-17.882-14.19c-5.473-4.343-12.253-6.665-19.086-6.501-24.362.534-51.528 13.201-67.598 31.522-4.509 5.14-7.097 11.817-7.288 18.8l-.623 22.809c-29.218 30.679-45.796 70.727-46.819 113.036l-15.696 16.573c-4.802 5.073-7.692 11.624-8.139 18.447-1.591 24.317 8.661 52.484 25.509 70.088 4.728 4.94 11.153 8.101 18.093 8.9l22.684 2.611c17.602 19.936 39.821 35.646 64.411 45.476.337.135.678.245 1.019.341l10.21 20.42c3.124 6.248 8.292 11.205 14.551 13.958 11.155 4.907 24.226 7.359 37.295 7.359 13.07 0 26.14-2.453 37.293-7.358 6.26-2.753 11.427-7.711 14.551-13.958l10.186-20.372c28.255-11.079 53.091-29.564 71.898-53.583 19.446-24.837 31.553-54.491 35.025-85.767zm-67.826 88.558c-11.934 15.242-26.618 27.951-43.187 37.534-.031-3.638-2.044-7.129-5.521-8.867-4.94-2.47-10.947-.468-13.416 4.472l-22.101 44.203c-1.042 2.085-2.717 3.716-4.715 4.596-17.216 7.572-41.265 7.572-58.48 0-1.999-.879-3.673-2.511-4.715-4.596l-22.101-44.203c-2.47-4.94-8.475-6.941-13.417-4.472-3.474 1.737-5.486 5.223-5.521 8.857-7.544-4.371-14.709-9.403-21.4-15.017 3.386-1.284 5.956-4.365 6.399-8.211.631-5.486-3.305-10.446-8.791-11.078l-49.096-5.65c-2.315-.266-4.421-1.282-5.931-2.859-13.004-13.587-21.229-36.185-20.001-54.953.143-2.179 1.104-4.311 2.706-6.003l33.976-35.888c3.797-4.011 3.624-10.34-.386-14.137-2.823-2.673-6.793-3.37-10.223-2.154 3.782-21.608 12.254-42.056 24.866-60.021 1.566 3.281 4.865 5.593 8.749 5.699.093.003.185.004.278.004 5.396-.001 9.843-4.299 9.991-9.727l1.35-49.401c.064-2.329.892-4.517 2.331-6.158 12.403-14.139 34.199-24.302 53.002-24.714 2.191-.056 4.389.724 6.214 2.172l38.712 30.721c4.325 3.433 10.615 2.709 14.049-1.617 2.416-3.045 2.765-7.06 1.256-10.369 19.599 1.665 38.367 7.095 55.944 16.219 13.618 7.069 26.149 16.297 37.039 27.172-3.485.984-6.314 3.825-7.089 7.617-1.107 5.411 2.381 10.695 7.792 11.802l48.418 9.908c2.283.467 4.292 1.662 5.658 3.365 11.771 14.67 17.995 37.899 15.136 56.489-.332 2.157-1.475 4.196-3.218 5.743l-36.977 32.789c-4.132 3.664-4.512 9.984-.847 14.117 1.976 2.229 4.724 3.365 7.486 3.365.842 0 1.685-.111 2.508-.324-5.183 19.384-14.226 37.609-26.727 53.575z"/><path d="m197.417 438.846c-1.747-5.239-7.411-8.069-12.649-6.325-5.24 1.747-8.071 7.41-6.325 12.649l6.667 20c1.397 4.19 5.298 6.841 9.485 6.841 1.048 0 2.115-.167 3.163-.516 5.24-1.747 8.071-7.41 6.325-12.649z"/><path d="m241.093 432.521c-5.241-1.747-10.903 1.085-12.649 6.325l-6.667 20c-1.747 5.239 1.085 10.902 6.325 12.649 1.049.35 2.115.516 3.164.516 4.187 0 8.089-2.65 9.485-6.841l6.667-20c1.747-5.239-1.085-10.902-6.325-12.649z"/><path d="m187.523 190.879c4.01-3.797 4.183-10.127.386-14.137l-14.494-15.309c-3.797-4.01-10.126-4.183-14.137-.386-4.01 3.797-4.183 10.126-.386 14.137l14.494 15.309c1.967 2.077 4.612 3.125 7.264 3.125 2.467 0 4.94-.909 6.873-2.739z"/><path d="m142.857 182.662c-.632-5.487-5.592-9.423-11.078-8.792-5.487.631-9.423 5.591-8.792 11.078l2.41 20.944c.587 5.099 4.911 8.858 9.922 8.858.381 0 .767-.022 1.155-.066 5.487-.631 9.423-5.591 8.791-11.078z"/><path d="m88.435 340.809c4.326-3.433 5.05-9.723 1.617-14.049-3.433-4.327-9.724-5.051-14.049-1.617l-16.514 13.105c-4.326 3.433-5.05 9.723-1.617 14.049 1.974 2.488 4.893 3.784 7.839 3.784 2.178 0 4.372-.709 6.21-2.168z"/><path d="m99.325 369.962c-.093 0-.186.001-.278.004l-21.074.576c-5.521.151-9.874 4.749-9.723 10.269.148 5.428 4.595 9.727 9.991 9.727.093 0 .186-.001.278-.004l21.074-.576c5.521-.151 9.874-4.749 9.723-10.269-.148-5.427-4.595-9.727-9.991-9.727z"/><path d="m269 136.002c2.559 0 5.119-.976 7.071-2.929l90.002-90.002c3.905-3.905 3.905-10.237 0-14.143-3.905-3.905-10.237-3.905-14.143 0l-90.002 90.002c-3.905 3.905-3.905 10.237 0 14.143 1.953 1.953 4.513 2.929 7.072 2.929z"/><path d="m321.929 163.075c1.953 1.953 4.512 2.929 7.071 2.929s5.119-.976 7.071-2.929l146.003-146.003c3.905-3.905 3.905-10.237 0-14.143-3.905-3.905-10.237-3.905-14.143 0l-146.003 146.003c-3.903 3.905-3.903 10.237.001 14.143z"/></g></g><g><circle cx="415.001" cy="398.009" fill="#dae6e6" r="20"/><path d="m474.073 366.936c-3.906-3.905-10.236-3.905-14.143 0l-17.954 17.954c-2.94-6.021-7.836-10.917-13.857-13.857l45.954-45.954c3.905-3.905 3.905-10.237-.001-14.142-3.906-3.905-10.236-3.905-14.143 0l-63.673 63.673c-6.854 5.503-11.255 13.944-11.255 23.398 0 16.542 13.458 30 30 30 9.454 0 17.896-4.401 23.399-11.256l35.673-35.673c3.905-3.905 3.905-10.237 0-14.143zm-59.072 41.478c-5.747 0-10.406-4.659-10.406-10.406s4.659-10.406 10.406-10.406 10.406 4.659 10.406 10.406-4.659 10.406-10.406 10.406z" fill="#8aa8bd"/></g><g><circle cx="430.002" cy="163.003" fill="#dae6e6" r="20"/><path d="m489.074 131.931c-3.906-3.905-10.236-3.905-14.143 0l-17.954 17.954c-2.94-6.021-7.836-10.917-13.857-13.857l45.954-45.954c3.905-3.905 3.905-10.237-.001-14.142-3.906-3.905-10.236-3.905-14.143 0l-63.673 63.673c-6.854 5.503-11.255 13.944-11.255 23.398 0 16.542 13.458 30 30 30 9.454 0 17.896-4.401 23.399-11.256l35.673-35.673c3.905-3.905 3.905-10.237 0-14.143zm-59.072 41.477c-5.747 0-10.406-4.659-10.406-10.406s4.659-10.406 10.406-10.406 10.406 4.659 10.406 10.406-4.659 10.406-10.406 10.406z" fill="#8aa8bd"/></g><g><circle cx="68.996" cy="118.364" fill="#dae6e6" r="20"/><path d="m128.068 87.292c-3.906-3.905-10.236-3.905-14.143 0l-17.954 17.954c-2.94-6.021-7.836-10.917-13.857-13.857l45.954-45.954c3.905-3.905 3.905-10.237-.001-14.142-3.906-3.905-10.236-3.905-14.143 0l-63.673 63.673c-6.854 5.503-11.255 13.944-11.255 23.398 0 16.542 13.458 30 30 30 9.454 0 17.896-4.401 23.399-11.256l35.673-35.673c3.905-3.905 3.905-10.237 0-14.143zm-59.072 41.477c-5.747 0-10.406-4.659-10.406-10.406s4.659-10.406 10.406-10.406 10.406 4.659 10.406 10.406-4.659 10.406-10.406 10.406z" fill="#8aa8bd"/></g></g></svg>