<svg id="Layer_1" enable-background="new 0 0 512 512" height="512" viewBox="0 0 512 512" width="512" xmlns="http://www.w3.org/2000/svg"><g><circle cx="256" cy="256" fill="#d0f2d2" r="50"/><circle cx="256" cy="256" fill="#fff" r="20"/><circle cx="376" cy="346" fill="#e6e6f9" r="20"/><circle cx="316" cy="446" fill="#fff2a0" r="20"/><circle cx="156" cy="146" fill="#ffdede" r="20"/><circle cx="396" cy="116" fill="#b8ecbc" r="20"/><path d="m502 246h-36.249c-2.038-42.362-16.964-83.453-42.637-117.175 1.848-3.891 2.886-8.239 2.886-12.825 0-16.542-13.458-30-30-30-4.586 0-8.934 1.038-12.825 2.886-33.722-25.672-74.813-40.599-117.175-42.637v-36.249c0-5.523-4.478-10-10-10-5.523 0-10 4.477-10 10v36.244c-107.854 5.082-194.674 91.902-199.756 199.756h-36.244c-5.523 0-10 4.477-10 10s4.477 10 10 10h36.244c2.374 50.378 22.574 96.169 54.43 131.184l-31.745 31.745c-3.905 3.905-3.905 10.237 0 14.143 1.953 1.951 4.511 2.928 7.071 2.928s5.118-.977 7.071-2.929l31.745-31.745c35.015 31.855 80.807 52.056 131.184 54.43v36.244c0 5.523 4.477 10 10 10 5.522 0 10-4.477 10-10v-36.242c8.503-.401 16.97-1.319 25.319-2.731 5.419 7.83 14.459 12.973 24.681 12.973 16.542 0 30-13.458 30-30 0-.072-.005-.144-.005-.216 70.107-33.27 116.091-102.467 119.759-179.784h36.246c5.522 0 10-4.477 10-10s-4.478-10-10-10zm-96-130c0 5.514-4.486 10-10 10s-10-4.486-10-10 4.486-10 10-10 10 4.486 10 10zm-37.107-12.839c-1.853 3.894-2.893 8.247-2.893 12.839 0 16.542 13.458 30 30 30 4.592 0 8.944-1.04 12.839-2.892 22.357 30.149 34.99 65.407 36.897 102.892h-30.058c-4.975-80.274-69.403-144.703-149.678-149.678v-30.058c37.486 1.907 72.743 14.539 102.893 36.897zm-2.893 242.839c0-5.514 4.486-10 10-10s10 4.486 10 10-4.486 10-10 10-10-4.486-10-10zm16.198-29.353c-2.001-.422-4.073-.647-6.198-.647-16.542 0-30 13.458-30 30 0 5.115 1.289 9.932 3.556 14.151-23.259 20.943-52.407 33.311-83.556 35.495v-30.105c52.69-4.771 94.77-46.851 99.54-99.541h30.087c-1.26 17.589-5.829 34.832-13.429 50.647zm-216.198-170.647c0 5.514-4.486 10-10 10s-10-4.486-10-10 4.486-10 10-10 10 4.486 10 10zm-22.838 27.108c3.894 1.852 8.246 2.892 12.838 2.892 16.542 0 30-13.458 30-30 0-3.578-.632-7.01-1.786-10.194 18.806-11.262 39.872-17.899 61.786-19.446v30.099c-52.69 4.771-94.77 46.851-99.54 99.541h-30.108c1.838-26.522 10.993-51.451 26.81-72.892zm112.838 122.892c-7.407 0-14.346-2.031-20.302-5.555l27.373-27.373c3.905-3.905 3.905-10.237 0-14.143-3.906-3.904-10.236-3.904-14.143 0l-27.373 27.373c-3.524-5.956-5.555-12.894-5.555-20.302 0-22.056 17.944-40 40-40s40 17.944 40 40-17.944 40-40 40zm-10-99.151c-25.084 4.228-44.923 24.066-49.151 49.151h-30.291c4.626-41.652 37.789-74.815 79.441-79.441v30.29zm-49.151 69.151c1.534 9.101 5.123 17.508 10.274 24.734l-21.409 21.409c-10.365-12.949-17.23-28.811-19.155-46.144h30.29zm24.417 38.877c7.227 5.151 15.633 8.74 24.734 10.274v30.291c-17.333-1.925-33.195-8.79-46.144-19.155zm44.734 10.274c25.084-4.228 44.923-24.066 49.151-49.151h30.291c-4.626 41.652-37.789 74.815-79.441 79.441v-30.29zm49.151-69.151c-4.228-25.084-24.066-44.923-49.151-49.151v-30.291c41.652 4.626 74.815 37.789 79.441 79.441h-30.29zm-168.691 20c2.067 22.833 11.138 43.674 25.047 60.351l-21.275 21.275c-19.268-22.212-31.665-50.534-33.871-81.626zm39.189 74.494c16.677 13.909 37.518 22.979 60.351 25.047v30.098c-31.092-2.205-59.414-14.602-81.626-33.87zm179.891-94.494c-4.771-52.69-46.851-94.77-99.54-99.541v-30.098c69.242 4.911 124.728 60.397 129.639 129.639zm-119.54-179.737v30.07c-26.576 1.64-52.119 9.787-74.678 23.889-4.488-2.678-9.727-4.222-15.322-4.222-16.542 0-30 13.458-30 30 0 4.587 1.038 8.935 2.887 12.826-19.209 25.116-30.577 55.623-32.569 87.174h-30.055c5.045-96.824 82.913-174.692 179.737-179.737zm-179.737 199.737h30.059c2.269 36.6 16.894 69.905 39.75 95.786l-21.24 21.24c-28.253-31.367-46.231-72.159-48.569-117.026zm62.711 131.168 21.24-21.24c25.881 22.856 59.185 37.481 95.786 39.75v30.059c-44.867-2.338-85.659-20.316-117.026-48.569zm187.026 58.832c-5.514 0-10-4.486-10-10s4.486-10 10-10 10 4.486 10 10-4.486 10-10 10zm23.118-29.098c-5.507-6.655-13.826-10.902-23.118-10.902-15.739 0-28.676 12.185-29.897 27.616-6.639 1.055-13.356 1.769-20.103 2.12v-30.053c36.804-2.255 71.232-16.933 98.406-42.015 3.569 1.5 7.486 2.332 11.594 2.332 16.542 0 30-13.458 30-30 0-7.129-2.504-13.681-6.672-18.834 9.442-19.009 15.023-39.889 16.358-61.166h30.048c-3.616 68.946-44.425 130.631-106.616 160.902z" fill="#5cd0b3"/></g></svg>