<svg id="Layer_1" enable-background="new 0 0 512 512" height="512" viewBox="0 0 512 512" width="512" xmlns="http://www.w3.org/2000/svg"><g><circle cx="296" cy="342" fill="#ecf2f3" r="160"/><g fill="#dae6e6"><path d="m416 382c-22.091 0-40 17.909-40 40 0 17.875 11.726 33.006 27.904 38.134 18.99-17.355 33.776-39.228 42.668-63.917-7.338-8.692-18.307-14.217-30.572-14.217z"/><circle cx="246" cy="292" r="30"/><circle cx="196" cy="342" r="20"/><circle cx="396" cy="302" r="10"/><circle cx="276" cy="362" r="10"/></g><path d="m376 142h-80v-60h80l-20 30z" fill="#ffbdbc"/><path d="m56 90v80l140-140h-80" fill="#ffbdbc"/><path d="m156 70-60-60h-60v60l60 60" fill="#ecf2f3"/><path d="m96 10-60 60v-60z" fill="#dae6e6"/><circle cx="50" cy="316" fill="#fff" r="40"/><circle cx="462" cy="176" fill="#fff" r="40"/><g fill="#8aa8bd"><path d="m306 172.302v-20.302h70c3.688 0 7.076-2.03 8.816-5.281 1.74-3.252 1.55-7.197-.496-10.266l-16.301-24.453 16.302-24.453c2.046-3.068 2.236-7.014.496-10.266-1.741-3.251-5.129-5.281-8.817-5.281h-70v-10c0-5.523-4.478-10-10-10s-10 4.477-10 10v110.302c-89.101 5.195-160 79.317-160 169.698 0 93.738 76.262 170 170 170s170-76.262 170-170c0-90.381-70.899-164.503-160-169.698zm51.315-80.302-9.635 14.453c-2.239 3.359-2.239 7.735 0 11.094l9.635 14.453h-51.315v-40zm-61.315 400c-82.71 0-150-67.29-150-150 0-79.349 61.936-144.494 140-149.659v20.127c-12.787 1.249-25.11 4.899-35.167 10.97-4.729 2.854-6.248 9-3.395 13.729 2.851 4.727 8.997 6.249 13.728 3.394 18.883-11.396 50.783-11.396 69.666 0 1.616.976 3.397 1.44 5.157 1.44 3.388 0 6.693-1.722 8.571-4.834 2.854-4.729 1.334-10.875-3.395-13.729-10.057-6.07-22.38-9.721-35.167-10.97v-20.127c78.065 5.164 140 70.309 140 149.659.002 82.71-67.288 150-149.998 150z"/><path d="m203.071 37.071c2.859-2.86 3.716-7.161 2.168-10.898-1.548-3.736-5.194-6.173-9.239-6.173h-75.857l-17.072-17.071c-.237-.237-.484-.46-.741-.67-.202-.166-.413-.315-.625-.463-.055-.038-.107-.082-.163-.12-.256-.171-.519-.326-.786-.47-.017-.009-.033-.021-.05-.03-.271-.145-.549-.274-.83-.392-.018-.008-.035-.017-.054-.025-.268-.111-.541-.206-.816-.292-.035-.011-.07-.026-.106-.037-.258-.078-.519-.14-.781-.196-.058-.013-.114-.03-.171-.042-.257-.051-.517-.085-.777-.116-.064-.008-.128-.022-.192-.028-.327-.032-.656-.048-.984-.048h-59.995c-5.522 0-10 4.477-10 10v59.995c0 .328.016.657.048.984.006.063.02.125.027.188.031.262.065.523.117.782.011.054.027.106.039.159.057.266.12.531.199.792.01.034.025.067.036.102.087.277.183.552.294.821.007.017.016.033.023.05.118.283.248.561.394.834.007.013.016.026.023.04.146.271.303.537.477.797.033.05.073.096.107.146.151.217.305.434.475.641.21.257.433.504.67.741l17.071 17.071v75.857c0 4.044 2.437 7.691 6.173 9.239 1.237.513 2.537.762 3.825.762 2.603 0 5.16-1.017 7.073-2.929zm-31.214 2.929-15.857 15.857-15.857-15.857zm-75.857 75.858-45.858-45.858 45.858-45.857 45.857 45.857zm-24.143-95.858-25.857 25.857v-25.857zm-5.857 94.143 15.858 15.857-15.858 15.858z"/><path d="m153.929 172.071c1.953 1.952 4.511 2.929 7.071 2.929s5.118-.977 7.071-2.929c3.905-3.905 3.905-10.237 0-14.143l-25-25c-3.906-3.904-10.236-3.904-14.143 0-3.905 3.905-3.905 10.237 0 14.143z"/><path d="m158.929 102.929c-3.905 3.905-3.905 10.237 0 14.143l45 45c1.953 1.952 4.511 2.928 7.071 2.928s5.118-.976 7.071-2.929c3.905-3.905 3.905-10.237 0-14.143l-45-45c-3.906-3.905-10.236-3.905-14.142.001z"/><path d="m90 306c-16.542 0-30-13.458-30-30 0-5.523-4.478-10-10-10s-10 4.477-10 10c0 16.542-13.458 30-30 30-5.523 0-10 4.477-10 10s4.477 10 10 10c16.542 0 30 13.458 30 30 0 5.523 4.478 10 10 10s10-4.477 10-10c0-16.542 13.458-30 30-30 5.522 0 10-4.477 10-10s-4.478-10-10-10zm-40 20.035c-2.854-3.8-6.235-7.181-10.035-10.035 3.8-2.853 7.181-6.235 10.035-10.035 2.854 3.8 6.235 7.181 10.035 10.035-3.8 2.854-7.181 6.235-10.035 10.035z"/><path d="m502 166c-16.542 0-30-13.458-30-30 0-5.523-4.478-10-10-10s-10 4.477-10 10c0 16.542-13.458 30-30 30-5.522 0-10 4.477-10 10s4.478 10 10 10c16.542 0 30 13.458 30 30 0 5.523 4.478 10 10 10s10-4.477 10-10c0-16.542 13.458-30 30-30 5.522 0 10-4.477 10-10s-4.478-10-10-10zm-40 20.035c-2.853-3.8-6.235-7.181-10.035-10.035 3.8-2.854 7.181-6.235 10.035-10.035 2.854 3.8 6.235 7.181 10.035 10.035-3.8 2.854-7.181 6.235-10.035 10.035z"/></g><g><circle cx="316" cy="442" fill="#dae6e6" r="20"/></g></g></svg>