<svg id="Layer_1" enable-background="new 0 0 512 512" height="512" viewBox="0 0 512 512" width="512" xmlns="http://www.w3.org/2000/svg"><g><circle cx="456" cy="116" fill="#99ebfa" r="20"/><circle cx="256" cy="256" fill="#d0f2d2" r="100"/><g fill="#b8ecbc"><circle cx="226" cy="216" r="20"/><circle cx="196" cy="246" r="10"/><path d="m316 286c12.396 0 23.034 7.519 27.607 18.245-9.132 16.548-22.815 30.23-39.363 39.363-10.725-4.574-18.244-15.212-18.244-27.608 0-16.569 13.431-30 30-30z"/></g><circle cx="36" cy="376" fill="#99ebfa" r="20"/><circle cx="276" cy="76" fill="#e6e6f9" r="20"/><circle cx="376" cy="396" fill="#e6e6f9" r="20"/><circle cx="226" cy="146" fill="#fff2a0" r="30"/><g fill="#5cd0b3"><path d="m480.622 133.109c3.386-4.857 5.378-10.753 5.378-17.109 0-16.542-13.458-30-30-30-2.671 0-5.26.356-7.727 1.014-48.663-55.331-118.537-87.014-192.273-87.014-68.38 0-132.667 26.629-181.019 74.981-48.353 48.352-74.981 112.639-74.981 181.019 0 33.131 6.216 65.28 18.48 95.67-7.552 5.454-12.48 14.324-12.48 24.33 0 16.542 13.458 30 30 30 3.89 0 7.605-.752 11.019-2.106 48.057 67.838 125.603 108.106 208.981 108.106 68.38 0 132.667-26.629 181.019-74.981s74.981-112.639 74.981-181.019c0-43.018-10.838-85.402-31.378-122.891zm-14.622-17.109c0 5.514-4.486 10-10 10s-10-4.486-10-10 4.486-10 10-10 10 4.486 10 10zm-440 260c0-5.514 4.486-10 10-10s10 4.486 10 10-4.486 10-10 10-10-4.486-10-10zm396.877 46.877c-44.574 44.575-103.839 69.123-166.877 69.123-77.548 0-149.623-37.792-193.836-101.348 2.438-4.337 3.836-9.333 3.836-14.652 0-15.935-12.49-29.003-28.194-29.941-11.807-28.555-17.806-58.827-17.806-90.059 0-63.038 24.548-122.303 69.123-166.877 44.574-44.575 103.839-69.123 166.877-69.123 67.185 0 130.903 28.529 175.694 78.447-3.577 4.939-5.694 11.002-5.694 17.553 0 16.542 13.458 30 30 30 2.854 0 5.612-.409 8.229-1.157 18.184 34.022 27.771 72.304 27.771 111.157 0 63.038-24.548 122.303-69.123 166.877z"/><path d="m305.803 72.609c-1.691-14.951-14.408-26.609-29.803-26.609-13.108 0-24.271 8.453-28.345 20.192-47.963 2.065-92.75 21.856-126.696 56.152-35.441 35.806-54.959 83.273-54.959 133.656 0 104.767 85.234 190 190 190 35.373 0 69.623-9.7 99.512-28.115 5.366 5.027 12.571 8.115 20.488 8.115 16.542 0 30-13.458 30-30 0-6.278-1.942-12.11-5.252-16.933 29.231-34.34 45.252-77.741 45.252-123.067 0-43.579-14.353-84.569-41.506-118.542-25.168-31.488-60.046-54.356-98.691-64.849zm-29.803-6.609c5.514 0 10 4.486 10 10s-4.486 10-10 10-10-4.486-10-10 4.486-10 10-10zm100 340c-5.514 0-10-4.486-10-10s4.486-10 10-10 10 4.486 10 10-4.486 10-10 10zm8.538-38.755c-2.708-.806-5.572-1.245-8.538-1.245-16.542 0-30 13.458-30 30 0 1.379.102 2.735.283 4.065-27.029 16.979-58.133 25.935-90.283 25.935-93.738 0-170-76.262-170-170 0-45.08 17.463-87.55 49.173-119.586 30.199-30.51 69.984-48.189 112.617-50.207 4.186 11.532 15.25 19.793 28.21 19.793 10.617 0 19.956-5.548 25.289-13.893 34.282 9.473 65.211 29.85 87.582 57.838 24.29 30.39 37.129 67.063 37.129 106.055 0 41.056-14.69 80.346-41.462 111.245z"/><path d="m317.698 164.977c-15.012-10.208-32.668-16.797-51.709-18.519.001-.153.011-.304.011-.458 0-22.056-17.944-40-40-40s-40 17.944-40 40c0 7.572 2.115 14.659 5.785 20.702-28.452 20.539-45.785 53.928-45.785 89.298 0 2.677.101 5.331.29 7.961-28.579 29.199-38.835 54.753-28.854 72.039 4.762 8.248 15.294 16.64 38.425 16.64 7.801 0 17.036-.954 27.965-3.191 3.413-.698 6.911-1.52 10.467-2.432 17.609 11.975 38.854 18.983 61.707 18.983 60.654 0 110-49.346 110-110 0-2.592-.097-5.161-.274-7.709.027-.115.059-.229.082-.346 2.523-2.582 4.933-5.16 7.208-7.725 29.347-33.095 27.917-53.19 21.548-64.22-9.975-17.279-37.273-21.19-76.866-11.023zm-91.698-38.977c11.028 0 20 8.972 20 20s-8.972 20-20 20-20-8.972-20-20 8.972-20 20-20zm-19.556 54.874c5.787 3.258 12.456 5.126 19.556 5.126 14.726 0 27.61-8.005 34.553-19.885 24.766 1.24 46.923 12.541 62.467 29.885h-27.02c-5.523 0-10 4.477-10 10s4.477 10 10 10h40.606c3.133 6.287 5.554 12.988 7.151 20h-67.757c-5.523 0-10 4.477-10 10s4.477 10 10 10h51.038c-14.97 12.03-32.285 23.814-51.038 34.641-26.666 15.396-53.548 27.293-77.578 34.475-9.551-7.97-17.429-17.879-23.028-29.116h40.606c5.523 0 10-4.477 10-10s-4.477-10-10-10h-47.757c-1.466-6.435-2.243-13.128-2.243-20 0-30.152 15.398-58.546 40.444-75.126zm-71.688 145.126c-3.328-5.763.796-19.115 16.164-37.437 4.932 15.883 13.378 30.231 24.418 42.143-25.247 4.463-37.637.395-40.582-4.706zm121.244 20c-12.522 0-24.454-2.574-35.298-7.215 20.972-7.618 43.263-18.102 65.298-30.824 22.034-12.721 42.264-26.784 59.347-41.136-5.364 44.54-43.385 79.175-89.347 79.175zm121.244-160c2.942 5.096.279 17.84-16.164 37.437-4.933-15.884-13.379-30.233-24.421-42.146 23.618-4.167 37.268-1.035 40.585 4.709z"/></g></g></svg>