<svg id="Layer_1" enable-background="new 0 0 512 512" height="512" viewBox="0 0 512 512" width="512" xmlns="http://www.w3.org/2000/svg"><g><g><circle cx="276.315" cy="381.49" fill="#ffdede" r="120.471"/><g fill="#ffbdbc"><circle cx="226.119" cy="351.373" r="30.118"/><path d="m369.082 458.35c-7.297-10.069-19.145-16.625-32.531-16.625-22.178 0-40.157 17.979-40.157 40.157 0 6.335 1.472 12.324 4.085 17.653 27.394-5.577 51.407-20.452 68.603-41.185z"/><circle cx="276.315" cy="321.255" r="10.039"/><circle cx="336.551" cy="361.412" r="10.039"/><circle cx="256.237" cy="411.608" r="20.078"/></g><g fill="#ffdede"><path d="m236.158 281.098 9.265-36.287c.534-2.671 2.124-5.021 4.418-6.488 15.459-9.895 37.487-9.895 52.947 0 2.294 1.469 3.884 3.818 4.418 6.488l9.265 36.287"/><path d="m373.662 334.428 36.844 6.711c2.702.346 5.156 1.769 6.781 3.955 10.949 14.732 12.486 36.705 3.693 52.817-1.305 2.391-3.538 4.141-6.165 4.86l-35.552 11.774"/><path d="m217.112 471.968-35.038 13.224c-2.495 1.094-5.331 1.139-7.85.102-16.972-6.988-29.607-25.033-30.369-43.371-.113-2.722.9-5.372 2.781-7.342l24.409-28.403"/></g><circle cx="416.627" cy="240.941" fill="#fff" r="40.157"/><circle cx="95.373" cy="321.255" fill="#fff" r="40.157"/><ellipse cx="356.402" cy="147.861" fill="#ffbdbc" rx="20.08" ry="20.08"/><ellipse cx="155.568" cy="220.856" fill="#ffbdbc" rx="20.075" ry="20.075"/><g fill="#ff9171"><path d="m276.315 256c-5.545 0-10.039 4.495-10.039 10.039v15.059c0 5.545 4.495 10.039 10.039 10.039s10.039-4.495 10.039-10.039v-15.059c.001-5.544-4.494-10.039-10.039-10.039z"/><path d="m412.091 331.224-16.611-3.026c-14.384-32.129-41.24-57.188-74.313-69.292l-4.179-16.368c-1.126-5.205-4.316-9.81-8.787-12.671-18.773-12.016-44.997-12.016-63.769-.001-4.473 2.862-7.663 7.468-8.787 12.673l-4.181 16.375c-51.278 18.768-85.657 67.867-85.657 122.577 0 11.387 1.481 22.658 4.375 33.564l-11.017 12.819c-3.616 3.907-5.561 9.162-5.339 14.466.926 22.27 15.966 43.751 36.577 52.237 2.426.999 5.02 1.497 7.617 1.497 2.659 0 5.322-.523 7.805-1.567l15.83-5.974c21.954 15.36 47.666 23.467 74.66 23.467 58.347 0 109.392-38.6 125.418-94.319l16.031-5.309c5.113-1.486 9.485-4.988 12.029-9.651 10.677-19.565 8.848-45.726-4.448-63.616-3.168-4.261-7.985-7.121-13.254-7.881zm.075 61.866c-.17.046-.338.097-.506.153l-35.552 11.774c-5.264 1.743-8.118 7.423-6.375 12.687 1.261 3.807 4.582 6.346 8.314 6.805-17.027 40.374-56.813 67.414-101.732 67.414-18.404 0-36.099-4.458-51.995-12.981 2.613-2.705 3.6-6.766 2.185-10.519-1.958-5.188-7.752-7.803-12.938-5.848l-35.038 13.224c-.165.062-.322.142-.483.212-13.398-5.517-23.559-20.027-24.151-34.495.121-.126.24-.257.354-.391l24.409-28.403c3.614-4.205 3.135-10.544-1.07-14.157-3.038-2.61-7.184-3.074-10.617-1.551-.72-5.122-1.088-10.307-1.088-15.524 0-41.867 23.791-79.846 60.429-98.477.721 3.687 3.48 6.821 7.362 7.812 5.372 1.371 10.838-1.871 12.211-7.243l9.265-36.286c.044-.171.068-.343.102-.517 12.204-7.812 29.919-7.811 42.109.002.034.173.073.344.117.515l9.265 36.286c1.159 4.539 5.241 7.558 9.72 7.558.822 0 1.657-.102 2.491-.314 3.888-.993 6.65-4.133 7.365-7.828 18.529 9.419 34.054 23.919 44.744 41.743-3.629.975-6.562 3.945-7.279 7.889-.994 5.454 2.622 10.682 8.078 11.676l36.845 6.711c.173.032.348.045.523.066 8.643 11.629 9.879 29.301 2.936 42.007z"/><path d="m390.785 363.422-15.022 1.05c-5.531.387-9.701 5.184-9.314 10.715.37 5.293 4.779 9.339 10.004 9.339.235 0 .473-.008.711-.025l15.022-1.05c5.531-.387 9.701-5.184 9.314-10.715s-5.181-9.698-10.715-9.314z"/><path d="m188.321 430.849-12.335 8.638c-4.542 3.18-5.646 9.44-2.466 13.982 1.953 2.789 5.068 4.282 8.232 4.282 1.988 0 3.997-.589 5.749-1.817l12.336-8.638c4.542-3.18 5.646-9.44 2.466-13.982s-9.441-5.646-13.982-2.465z"/><path d="m215.843 230.902c5.545 0 10.039-4.495 10.039-10.039v-190.745c0-5.545-4.495-10.039-10.039-10.039-5.545 0-10.039 4.495-10.039 10.039v190.745c0 5.544 4.494 10.039 10.039 10.039z"/><path d="m276.078 190.745c5.545 0 10.039-4.495 10.039-10.039v-170.667c.001-5.544-4.494-10.039-10.039-10.039s-10.039 4.495-10.039 10.039v170.667c0 5.545 4.495 10.039 10.039 10.039z"/><path d="m456.784 230.902c-16.607 0-30.118-13.511-30.118-30.118 0-5.545-4.495-10.039-10.039-10.039s-10.039 4.495-10.039 10.039c0 16.607-13.511 30.118-30.118 30.118-5.545 0-10.039 4.495-10.039 10.039 0 5.545 4.495 10.039 10.039 10.039 16.607 0 30.118 13.511 30.118 30.118 0 5.545 4.495 10.039 10.039 10.039s10.039-4.495 10.039-10.039c0-16.607 13.511-30.118 30.118-30.118 5.545 0 10.039-4.495 10.039-10.039.001-5.544-4.494-10.039-10.039-10.039zm-40.157 20.114c-2.865-3.815-6.259-7.209-10.074-10.074 3.815-2.865 7.209-6.259 10.074-10.074 2.865 3.815 6.259 7.209 10.074 10.074-3.814 2.864-7.208 6.259-10.074 10.074z"/><path d="m145.569 321.255c0-5.545-4.495-10.039-10.039-10.039-16.607 0-30.118-13.511-30.118-30.118 0-5.545-4.495-10.039-10.039-10.039-5.545 0-10.039 4.495-10.039 10.039 0 16.607-13.511 30.118-30.118 30.118-5.545 0-10.039 4.495-10.039 10.039 0 5.545 4.495 10.039 10.039 10.039 16.607 0 30.118 13.511 30.118 30.118 0 5.545 4.495 10.039 10.039 10.039 5.545 0 10.039-4.495 10.039-10.039 0-16.607 13.511-30.118 30.118-30.118 5.544 0 10.039-4.494 10.039-10.039zm-50.196 10.074c-2.865-3.815-6.259-7.209-10.074-10.074 3.815-2.864 7.209-6.259 10.074-10.074 2.865 3.815 6.259 7.209 10.074 10.074-3.815 2.864-7.209 6.259-10.074 10.074z"/></g></g><g><path d="m175.367 157.238c-5.523.001-9.999 4.477-10.001 10.001v25.391c-6.336-2.179-13.26-2.179-19.597 0v-64.989c0-5.523-4.477-10-10.001-9.999-5.523.001-9.999 4.477-10.001 10.001v90.047c-.955 8.738 1.901 17.818 8.586 24.503 11.697 11.697 30.729 11.697 42.426 0 6.685-6.685 9.542-15.766 8.586-24.505v-50.449c.002-5.523-4.475-10-9.998-10.001zm-12.442 71.099c-4.064 4.064-10.652 4.064-14.716 0s-4.064-10.652 0-14.716 10.652-4.064 14.716 0 4.064 10.653 0 14.716z" fill="#ff9171"/></g><g><path d="m376.191 84.03c-5.523.001-9.999 4.477-10.001 10.001v25.391c-6.336-2.179-13.26-2.179-19.597 0v-64.989c0-5.523-4.477-10-10.001-9.999-5.523.001-9.999 4.477-10.001 10.001v90.047c-.955 8.738 1.901 17.818 8.586 24.503 11.697 11.697 30.729 11.697 42.426 0 6.685-6.685 9.542-15.766 8.586-24.505v-50.449c.003-5.523-4.475-10-9.998-10.001zm-12.441 71.099c-4.064 4.064-10.652 4.064-14.716 0s-4.064-10.652 0-14.716 10.652-4.064 14.716 0 4.064 10.653 0 14.716z" fill="#ff9171"/></g></g></svg>