<svg id="Layer_1" enable-background="new 0 0 512 512" height="512" viewBox="0 0 512 512" width="512" xmlns="http://www.w3.org/2000/svg"><g><g><path d="m166.023 270.999c29.998 16.568 36.714 31.567 26.358 63.636 32.069-10.354 47.068-3.64 63.636 26.358 16.568-29.998 31.567-36.714 63.636-26.358-10.354-32.069-3.64-47.068 26.358-63.636-29.998-16.567-36.714-31.566-26.358-63.636-32.069 10.354-47.068 3.64-63.636-26.358-16.568 29.998-31.567 36.714-63.636 26.358 10.355 32.069 3.64 47.068-26.358 63.636z" fill="#ffee80"/><circle cx="256.017" cy="270.999" fill="#fff7bf" r="29.998"/><circle cx="83.03" cy="301.736" fill="#d0f2d2" r="39.997"/><circle cx="126.026" cy="201.004" fill="#ffdede" r="29.998"/><circle cx="462.003" cy="320.996" fill="#99ebfa" r="39.997"/><circle cx="366.01" cy="370.992" fill="#fff" r="39.997"/><circle cx="56.03" cy="141.008" fill="#fff" r="39.997"/><g fill="#ffa96b"><path d="m326.722 341.705c2.654-2.654 3.599-6.572 2.445-10.143-8.774-27.173-4.521-37.342 21.678-51.81 3.186-1.76 5.165-5.113 5.165-8.753s-1.978-6.993-5.165-8.753c-26.197-14.468-30.452-24.636-21.678-51.81 1.153-3.572.209-7.49-2.445-10.143-2.655-2.655-6.574-3.6-10.142-2.445-27.176 8.773-37.344 4.52-51.811-21.678-1.761-3.187-5.113-5.166-8.753-5.166s-6.994 1.979-8.753 5.166c-14.467 26.196-24.635 30.451-51.81 21.678-3.571-1.153-7.488-.21-10.143 2.445-2.654 2.654-3.598 6.572-2.445 10.143 8.774 27.173 4.52 37.342-21.678 51.81-3.187 1.76-5.165 5.113-5.165 8.753s1.979 6.994 5.165 8.753c26.197 14.468 30.451 24.636 21.678 51.81-1.153 3.572-.209 7.489 2.445 10.143s6.572 3.597 10.143 2.445c27.175-8.773 37.343-4.52 51.81 21.678 1.76 3.187 5.113 5.165 8.753 5.165s6.993-1.978 8.753-5.165c14.468-26.197 24.637-30.451 51.811-21.678 3.569 1.152 7.488.208 10.142-2.445zm-20.751-20.753c-10.847-1.724-19.776-.875-27.826 2.512-8.109 3.411-15.219 9.395-22.128 18.8-6.909-9.405-14.018-15.389-22.128-18.8-5.349-2.25-11.082-3.38-17.51-3.38-3.249 0-6.674.289-10.316.868 1.724-10.847.874-19.775-2.512-27.826-3.411-8.109-9.395-15.219-18.8-22.128 9.405-6.909 15.389-14.018 18.8-22.128 3.386-8.05 4.236-16.979 2.512-27.826 10.846 1.725 19.775.874 27.826-2.512 8.109-3.411 15.219-9.395 22.128-18.8 6.909 9.405 14.018 15.389 22.128 18.8 8.051 3.386 16.978 4.236 27.826 2.512-1.725 10.847-.875 19.775 2.512 27.826 3.411 8.109 9.395 15.219 18.801 22.128-9.405 6.909-15.39 14.018-18.801 22.128-3.387 8.051-4.237 16.978-2.512 27.826z"/><path d="m256.017 231.002c-22.055 0-39.997 17.943-39.997 39.997s17.943 39.997 39.997 39.997 39.997-17.943 39.997-39.997-17.943-39.997-39.997-39.997zm0 59.996c-11.027 0-19.999-8.971-19.999-19.999s8.972-19.999 19.999-19.999 19.999 8.971 19.999 19.999-8.972 19.999-19.999 19.999z"/><path d="m130.435 283.138c-.414-.266-.844-.486-1.28-.684-7.563-18.023-25.387-30.715-46.125-30.715-4.603 0-9.057.638-13.293 1.808-.435-.232-.884-.444-1.362-.613-14.934-5.3-28.414-8.625-38.983-9.617-14.783-1.387-24.177 1.983-27.924 10.017-6.801 14.583 11.883 29.733 18.023 34.712 4.056 3.289 8.66 6.63 13.696 9.96-.092 1.233-.154 2.474-.154 3.73 0 27.568 22.429 49.997 49.997 49.997 14.158 0 26.95-5.925 36.056-15.414 8.196 2.021 16.324 3.361 23.469 3.361 10.285 0 18.538-2.774 22.038-10.278 5.786-12.409-5.707-27.973-34.158-46.264zm-17.407 18.598c0 4.032-.805 7.878-2.254 11.394-9.282-2.992-20.026-7.131-31.97-12.7-8.533-3.979-16.106-7.958-22.752-11.799 4.874-9.991 15.134-16.893 26.978-16.893 16.541 0 29.998 13.457 29.998 29.998zm-90.926-38.749c4.682-.097 12.963.853 24.897 4.143-3.069 3.194-5.727 6.786-7.867 10.701-8.533-6.076-14.184-11.284-17.03-14.844zm60.928 68.747c-13.473 0-24.898-8.929-28.673-21.18 5.137 2.749 10.486 5.432 15.996 8 4.222 1.969 13.722 6.245 25.18 10.438-3.808 1.755-8.041 2.742-12.503 2.742zm47.177-13.472c1.039-2.958 1.813-6.039 2.28-9.22 5.85 4.601 9.412 8.248 11.415 10.757-3.167.07-7.797-.383-13.695-1.537z"/><path d="m86.028 201.004c0 22.055 17.943 39.997 39.997 39.997s39.997-17.943 39.997-39.997-17.943-39.997-39.997-39.997-39.997 17.942-39.997 39.997zm39.998-19.999c11.027 0 19.999 8.971 19.999 19.999s-8.971 19.999-19.999 19.999-19.999-8.971-19.999-19.999 8.971-19.999 19.999-19.999z"/><path d="m462.003 270.999c-27.568 0-49.997 22.429-49.997 49.997s22.428 49.997 49.997 49.997 49.997-22.429 49.997-49.997c0-27.569-22.428-49.997-49.997-49.997zm0 79.995c-16.541 0-29.998-13.457-29.998-29.998s13.457-29.998 29.998-29.998 29.998 13.457 29.998 29.998-13.457 29.998-29.998 29.998z"/><path d="m406.007 360.993c-16.541 0-29.998-13.457-29.998-29.998 0-5.523-4.477-9.999-9.999-9.999s-9.999 4.477-9.999 9.999c0 16.541-13.457 29.998-29.998 29.998-5.522 0-9.999 4.477-9.999 9.999s4.478 9.999 9.999 9.999c16.541 0 29.998 13.457 29.998 29.998 0 5.523 4.478 9.999 9.999 9.999 5.523 0 9.999-4.477 9.999-9.999 0-16.541 13.457-29.998 29.998-29.998 5.523 0 9.999-4.477 9.999-9.999s-4.477-9.999-9.999-9.999zm-39.997 20.033c-2.854-3.8-6.235-7.181-10.034-10.034 3.8-2.853 7.181-6.235 10.034-10.034 2.854 3.8 6.235 7.181 10.034 10.034-3.8 2.853-7.182 6.235-10.034 10.034z"/><path d="m16.033 151.007c16.541 0 29.998 13.457 29.998 29.998 0 5.523 4.477 9.999 9.999 9.999s9.999-4.477 9.999-9.999c0-16.541 13.457-29.998 29.998-29.998 5.523 0 9.999-4.477 9.999-9.999s-4.477-9.999-9.999-9.999c-16.541 0-29.998-13.457-29.998-29.998 0-5.523-4.477-9.999-9.999-9.999s-9.999 4.477-9.999 9.999c0 16.541-13.457 29.998-29.998 29.998-5.523 0-9.999 4.477-9.999 9.999s4.476 9.999 9.999 9.999zm39.997-20.034c2.854 3.8 6.235 7.181 10.034 10.034-3.8 2.854-7.181 6.235-10.034 10.034-2.854-3.8-6.235-7.181-10.034-10.034 3.8-2.853 7.18-6.234 10.034-10.034z"/></g></g><circle cx="398.008" cy="238.999" fill="#ffee80" r="20"/><path d="m457.08 207.927c-3.906-3.905-10.236-3.905-14.143 0l-17.954 17.954c-2.94-6.021-7.836-10.917-13.857-13.857l45.954-45.954c3.905-3.905 3.905-10.237-.001-14.142-3.906-3.905-10.236-3.905-14.143 0l-63.673 63.673c-6.854 5.503-11.255 13.944-11.255 23.398 0 16.542 13.458 30 30 30 9.454 0 17.896-4.401 23.399-11.256l35.673-35.673c3.905-3.905 3.905-10.237 0-14.143zm-59.072 41.478c-5.747 0-10.406-4.659-10.406-10.406s4.659-10.406 10.406-10.406 10.406 4.659 10.406 10.406-4.66 10.406-10.406 10.406z" fill="#ffa96b"/></g></svg>