<svg id="Layer_1" enable-background="new 0 0 512 512" height="512" viewBox="0 0 512 512" width="512" xmlns="http://www.w3.org/2000/svg"><g><circle cx="256" cy="256" fill="#ffbdbc" r="40"/><g fill="#ffdede"><circle cx="256" cy="256" r="15"/><circle cx="118" cy="118" r="30"/><circle cx="306" cy="446" r="20"/><circle cx="436" cy="216" r="20"/></g><g fill="#ff9171"><path d="m442.361 287.295c-9.32-10.356-19.956-20.847-31.702-31.315 4.669-4.154 9.157-8.306 13.447-12.444 3.649 1.582 7.67 2.464 11.894 2.464 16.542 0 30-13.458 30-30 0-5.628-1.561-10.897-4.268-15.403 26.127-37.202 23.28-59.936 15.97-72.597-9.215-15.961-34.292-31.997-101.419-17.746-13.62 2.891-28.014 6.854-42.942 11.787-3.192-15.395-6.957-29.841-11.263-43.082-21.223-65.26-47.647-78.959-66.078-78.959s-44.855 13.699-66.078 78.959c-4.309 13.248-8.075 27.703-11.268 43.107-7.047-2.336-13.962-4.446-20.722-6.331-1.179-21.006-18.637-37.735-39.932-37.735-17.566 0-32.513 11.387-37.875 27.164-22.617 1.669-38.029 9.329-45.827 22.836-9.216 15.961-10.565 45.695 35.341 96.705 9.314 10.35 19.943 20.833 31.679 31.295-11.737 10.462-22.365 20.945-31.679 31.295-45.906 51.01-44.557 80.744-35.341 96.705 6.704 11.612 21.801 23.264 55.382 23.263 12.576 0 27.747-1.635 46.037-5.518 13.62-2.891 28.014-6.854 42.942-11.787 3.192 15.395 6.957 29.841 11.263 43.082 21.223 65.261 47.647 78.96 66.078 78.96 21.461 0 37.376-18.568 47.618-36.103.787.062 1.579.103 2.382.103 16.542 0 30-13.458 30-30 0-9.254-4.214-17.54-10.821-23.048 3.029-10.383 5.75-21.419 8.147-32.998 14.934 4.936 29.332 8.9 42.957 11.792 18.294 3.884 33.459 5.518 46.037 5.518 33.575-.001 48.678-11.652 55.382-23.263 9.216-15.962 10.565-45.696-35.341-96.706zm-6.361-61.295c-5.514 0-10-4.486-10-10s4.486-10 10-10 10 4.486 10 10-4.486 10-10 10zm-55.564-96.182c41.955-8.908 71.844-5.849 79.945 8.182 5.92 10.255.77 28.2-14.112 49.812-3.204-1.172-6.663-1.812-10.269-1.812-16.542 0-30 13.458-30 30 0 5.016 1.244 9.746 3.43 13.905-4.484 4.302-9.193 8.622-14.105 12.944-15.574-12.84-32.704-25.547-51.02-37.832-1.482-22.016-3.923-43.217-7.259-63.134 15.13-5.092 29.684-9.155 43.39-12.065zm-89.436 186.804c-11.672 6.739-23.37 13.078-35 18.992-11.63-5.914-23.328-12.253-35-18.992s-23.011-13.7-33.947-20.815c-.694-13.029-1.053-26.329-1.053-39.807s.359-26.778 1.053-39.807c10.936-7.115 22.275-14.076 33.947-20.815 11.664-6.734 23.354-13.069 34.976-18.979 11.693 5.933 23.408 12.273 35.024 18.979 11.672 6.739 23.011 13.7 33.947 20.815.694 13.029 1.053 26.329 1.053 39.807 0 13.448-.358 26.744-1.055 39.781-10.988 7.163-22.338 14.139-33.945 20.841zm32.172 4.007c-1.315 14.708-3.08 28.967-5.272 42.61-12.901-4.919-26.123-10.514-39.523-16.736 7.54-4.024 15.089-8.212 22.623-12.561 7.501-4.33 14.899-8.776 22.172-13.313zm-89.549 25.875c-13.406 6.224-26.635 11.822-39.542 16.742-2.192-13.638-3.958-27.893-5.271-42.615 7.255 4.518 14.656 8.962 22.19 13.312 7.534 4.349 15.083 8.536 22.623 12.561zm-67.19-64.631c-12.094-8.498-23.556-17.156-34.271-25.873 10.715-8.717 22.177-17.374 34.271-25.873-.285 8.542-.433 17.174-.433 25.873s.148 17.331.433 25.873zm22.377-90.504c1.311-14.706 3.076-28.945 5.264-42.569 12.905 4.926 26.134 10.53 39.498 16.723-7.524 4.016-15.056 8.195-22.572 12.534-7.534 4.35-14.935 8.794-22.19 13.312zm89.555-25.867c13.411-6.226 26.643-11.826 39.554-16.748 2.192 13.638 3.959 27.893 5.271 42.615-7.255-4.518-14.656-8.962-22.19-13.311-7.51-4.337-15.066-8.524-22.635-12.556zm67.202 64.625c12.078 8.488 23.526 17.134 34.23 25.84-10.72 8.713-22.187 17.37-34.232 25.848.285-8.531.435-17.144.435-25.815 0-8.699-.148-17.331-.433-25.873zm-136.626-144.982c13.266-40.792 30.858-65.145 47.059-65.145s33.793 24.353 47.059 65.145c4.333 13.325 8.091 27.961 11.247 43.61-18.927 7.073-38.519 15.565-58.338 25.296-19.736-9.67-39.348-18.17-58.28-25.257 3.156-15.665 6.917-30.314 11.253-43.649zm-90.941 12.855c11.028 0 20 8.972 20 20s-8.972 20-20 20-20-8.972-20-20 8.972-20 20-20zm-33.495 113.326c-28.693-31.884-40.987-59.295-32.887-73.326 4.746-8.22 16.216-11.488 27.072-12.64 3.467 18.551 19.77 32.64 39.31 32.64 15.82 0 29.523-9.233 36.008-22.592 6.822 1.929 13.813 4.104 20.941 6.51-3.333 19.907-5.772 41.096-7.253 63.1-18.326 12.292-35.466 25.006-51.046 37.854-11.976-10.558-22.772-21.131-32.145-31.546zm47.059 170.856c-41.956 8.907-71.845 5.849-79.945-8.182-8.101-14.031 4.193-41.442 32.887-73.326 9.373-10.415 20.169-20.987 32.144-31.545 15.581 12.848 32.72 25.562 51.046 37.854 1.482 22.016 3.923 43.217 7.259 63.134-15.131 5.092-29.685 9.155-43.391 12.065zm174.436 73.818c-5.514 0-10-4.486-10-10s4.486-10 10-10 10 4.486 10 10-4.486 10-10 10zm.367-39.991c-.123-.001-.244-.009-.367-.009-16.542 0-30 13.458-30 30 0 8.501 3.56 16.182 9.262 21.647-9.543 15.763-19.796 24.353-29.262 24.353-16.201 0-33.793-24.353-47.059-65.145-4.333-13.325-8.091-27.961-11.247-43.61 18.917-7.069 38.497-15.555 58.305-25.28 19.803 9.722 39.379 18.207 58.291 25.274-2.318 11.519-4.964 22.481-7.923 32.77zm154.015-42.009c-8.102 14.031-37.987 17.089-79.945 8.182-13.71-2.91-28.268-6.975-43.402-12.069 3.337-19.938 5.777-41.164 7.263-63.163 18.239-12.256 35.417-24.996 51.023-37.848 11.988 10.566 22.794 21.148 32.175 31.572 28.693 31.884 40.986 59.295 32.886 73.326z"/><path d="m256 206c-27.57 0-50 22.43-50 50s22.43 50 50 50 50-22.43 50-50-22.43-50-50-50zm0 80c-16.542 0-30-13.458-30-30s13.458-30 30-30 30 13.458 30 30-13.458 30-30 30z"/></g></g></svg>