<svg id="Layer_1" enable-background="new 0 0 512 512" height="512" viewBox="0 0 512 512" width="512" xmlns="http://www.w3.org/2000/svg"><g><circle cx="256" cy="251.228" fill="#ecf2f3" r="80"/><circle cx="482" cy="181.228" fill="#e6e6f9" r="20"/><circle cx="216" cy="391.228" fill="#d0f2d2" r="20"/><circle cx="30" cy="301.228" fill="#99ebfa" r="20"/><circle cx="356" cy="151.228" fill="#ffee80" r="20"/><g fill="#8aa8bd"><path d="m383.494 139.243c-4.635-10.592-15.212-18.015-27.494-18.015-13.943 0-25.693 9.561-29.043 22.471-19.772 3.775-40.719 9.638-62.36 17.469-.32.116-.629.246-.929.39-2.529-.214-5.085-.33-7.668-.33-30.315 0-57.176 15.068-73.492 38.106-36.489 21.043-67.345 45.286-86.924 68.307-28.082 33.019-26.836 55.264-20.846 68.11 8.467 18.158 31.144 27.807 64.616 27.806 5.278 0 10.831-.24 16.634-.725 27.725-2.316 59.575-9.928 92.463-21.923 2.49.208 5.006.319 7.549.319 30.313 0 57.172-15.065 73.488-38.1 30.356-17.493 56.683-37.012 76.293-56.775 30.103-30.341 41.283-58.627 31.481-79.648-5.317-11.402-19-25.124-53.768-27.462zm-41.292 86.107c-2.534-8.425-6.271-16.333-11.012-23.525 26.644-6.987 37.855-5.967 41.712-5.06-2.016 4.014-9.347 13.236-29.169 27.502-.5.36-1.023.722-1.531 1.083zm-60.846 80.256c-11.829 5.516-23.668 10.492-35.368 14.894-10.179-1.465-19.649-5.131-27.929-10.493 17.427-6.135 36.039-13.758 54.846-22.527 18.815-8.774 36.627-18.136 52.534-27.547-1.277 10.239-4.764 19.797-9.982 28.178-10.88 6.124-22.287 11.986-34.101 17.495zm74.644-164.378c5.514 0 10 4.486 10 10s-4.486 10-10 10-10-4.486-10-10c0-5.515 4.486-10 10-10zm-27.261 22.501c3.007 6.531 8.29 11.801 14.831 14.792-7.991 1.491-16.904 3.669-26.661 6.513-5.801-5.342-12.303-9.933-19.352-13.618 10.683-3.124 21.102-5.696 31.182-7.687zm-72.739 17.499c33.745 0 61.988 24.003 68.557 55.831-17.569 10.967-38.231 22.095-60.105 32.295-21.852 10.19-43.639 18.859-63.319 25.267-9.462-11.939-15.133-27.012-15.133-43.393 0-38.598 31.402-70 70-70zm-75.197 119.391c-.615.161-1.241.332-1.849.486-23.67 6.014-35.449 5.702-39.817 4.666 1.782-3.535 8.202-12.775 30.657-28.68 2.532 8.426 6.269 16.335 11.009 23.528zm-26.48 42.282c-32.655 2.729-55.631-3.104-61.458-15.602-4.898-10.503 1.646-27.525 17.954-46.701 13.679-16.084 33.539-32.949 57.303-48.818-1.385 6.265-2.123 12.771-2.123 19.447 0 1.387.036 2.766.099 4.138-15.085 10.09-27.197 19.812-35.122 28.21-4.204 4.456-17 18.014-10.923 31.044 3.67 7.871 12.091 11.765 25.902 11.765 8.443 0 18.902-1.456 31.522-4.347 5.59-1.281 11.488-2.836 17.611-4.617 5.813 5.353 12.329 9.951 19.393 13.64-21.385 6.257-41.779 10.306-60.158 11.841zm237.259-110.635c-12.984 13.086-29.185 26.101-47.715 38.457 1.392-6.28 2.133-12.802 2.133-19.495 0-1.388-.036-2.767-.099-4.14 5.285-3.536 10.253-7.045 14.816-10.495 27.22-20.583 37.144-36.076 31.229-48.757-3.741-8.024-12.228-10.688-19.595-11.474 5.996-3.914 10.509-9.911 12.508-16.958 18.194 1.635 30.255 7.131 34.276 15.754 5.828 12.496-4.472 33.845-27.553 57.108z"/><path d="m512 181.228c0-13.145-8.502-24.335-20.294-28.38-.992-3.367-2.219-6.655-3.69-9.81-15.25-32.702-54.333-51.249-110.05-52.225-53.154-.927-116.004 14.196-176.906 42.595-76.443 35.646-138.228 86.904-166.881 138.117-1.367-.191-2.76-.297-4.179-.297-16.542 0-30 13.458-30 30 0 12.009 7.095 22.387 17.312 27.176.004 11.084 2.235 21.495 6.673 31.014 10.7 22.945 33.49 39.193 65.906 46.987 14.624 3.516 31.029 5.273 48.744 5.273 16.337 0 33.79-1.5 51.983-4.488 5.317 8.425 14.704 14.038 25.382 14.038 15.569 0 28.402-11.922 29.858-27.116 21.763-6.655 43.63-15.061 65.082-25.064 44.082-20.556 84.026-46.697 115.514-75.596 29.613-27.179 50.576-55.678 60.907-82.713 13.992-2.537 24.639-14.8 24.639-29.511zm-482 110c5.514 0 10 4.486 10 10s-4.486 10-10 10-10-4.486-10-10 4.486-10 10-10zm186 110c-5.514 0-10-4.486-10-10s4.486-10 10-10 10 4.486 10 10-4.486 10-10 10zm86.487-50.307c-20.282 9.458-40.934 17.426-61.479 23.761-5.378-8.101-14.578-13.455-25.009-13.455-15.327 0-27.999 11.557-29.778 26.413-34.837 5.609-66.388 5.394-91.655-.681-18.328-4.407-42.306-14.229-52.455-35.994-2.938-6.299-4.517-13.228-4.756-20.653 12.998-3.288 22.645-15.079 22.645-29.084 0-7.895-3.071-15.083-8.074-20.445 12.253-21.682 31.721-44.203 56.7-65.493 28.322-24.14 63.208-46.186 100.887-63.755 58.203-27.14 117.914-41.603 168.103-40.724 47.66.835 80.431 15.282 92.273 40.68.298.638.572 1.29.843 1.942-10.973 4.463-18.732 15.237-18.732 27.795 0 11.162 6.132 20.913 15.2 26.079-21.331 50.743-84.839 106.369-164.713 143.614zm179.513-159.693c-5.514 0-10-4.486-10-10s4.486-10 10-10 10 4.486 10 10-4.486 10-10 10z"/></g><g fill="#dae6e6"><circle cx="226" cy="251.228" r="20"/><circle cx="256" cy="211.228" r="10"/></g></g></svg>