<svg id="Layer_1" enable-background="new 0 0 512 512" height="512" viewBox="0 0 512 512" width="512" xmlns="http://www.w3.org/2000/svg"><g><path d="m436 370h-280v-220c0-77.32 62.68-140 140-140 77.32 0 140 62.68 140 140z" fill="#fff"/><path d="m156 330h280v40h-280z" fill="#ecf2f3"/><path d="m404.487 61.513-98.487 98.487v60l50 50h80v-120c0-33.566-11.818-64.369-31.513-88.487z" fill="#dae6e6"/><circle cx="276" cy="190" fill="#ecf2f3" r="40"/><circle cx="276" cy="190" fill="#fff" r="10"/><path d="m156 410h-80v-200c0-22.091 17.909-40 40-40 22.091 0 40 17.909 40 40z" fill="#fff"/><path d="m76 350h80v60h-80z" fill="#ecf2f3"/><g fill="#8aa8bd"><path d="m296 0c-82.71 0-150 67.29-150 150v20.027c-8.363-6.292-18.753-10.027-30-10.027-27.57 0-50 22.43-50 50v200c0 5.522 4.477 10 10 10h80c5.523 0 10-4.478 10-10v-30h270c5.523 0 10-4.478 10-10v-220c0-82.71-67.29-150-150-150zm130 260h-65.858l-42.447-42.447c5.242-7.906 8.305-17.377 8.305-27.553s-3.063-19.646-8.305-27.553l85.666-85.666c14.277 20.866 22.639 46.083 22.639 73.219zm-120-70c0 16.542-13.458 30-30 30s-30-13.458-30-30 13.458-30 30-30 30 13.458 30 30zm-140-40c0-71.683 58.318-130 130-130 37.328 0 71.026 15.82 94.758 41.1l-87.205 87.205c-7.906-5.242-17.377-8.305-27.553-8.305-27.57 0-50 22.43-50 50s22.43 50 50 50c10.176 0 19.647-3.063 27.553-8.305l45.376 45.376c1.875 1.875 4.419 2.929 7.071 2.929h70v40h-260v-24h50c5.523 0 10-4.478 10-10s-4.477-10-10-10h-50v-20h50c5.523 0 10-4.477 10-10s-4.477-10-10-10h-50v-26zm60 190v20h-20v-20zm20 0h20v20h-20zm40 0h20v20h-20zm40 0h20v20h-20zm40 0h20v20h-20zm-250-160c16.542 0 30 13.458 30 30v130h-60v-130c0-16.542 13.458-30 30-30zm30 220h-60v-40h60v10zm20-60h20v20h-20zm240 20v-20h20v20z"/><path d="m96 440c-5.523 0-10 4.478-10 10v52c0 5.522 4.477 10 10 10s10-4.478 10-10v-52c0-5.522-4.477-10-10-10z"/><path d="m136 440c-5.523 0-10 4.478-10 10v37c0 5.522 4.477 10 10 10s10-4.478 10-10v-37c0-5.522-4.477-10-10-10z"/></g></g></svg>