<svg id="Layer_1" enable-background="new 0 0 512 512" height="512" viewBox="0 0 512 512" width="512" xmlns="http://www.w3.org/2000/svg"><g><g><path d="m334 452-58-150h-40l-58 150" fill="#fff"/></g><path d="m364 234.368c-19.448 40.035-60.501 67.632-108 67.632-47.644 0-88.804-27.766-108.179-68" fill="#cecdf3"/><path d="m366.593 132c53.89 10.749 89.407 29.13 89.407 50 0 33.137-89.543 60-200 60s-200-26.863-200-60c0-20.946 35.778-39.385 90-50.118" fill="#e6e6f9"/><path d="m376 182c-66.274 26.667-173.726 26.667-240 0 0-66.274 53.726-120 120-120s120 53.726 120 120z" fill="#fff"/><circle cx="306" cy="166" fill="#e6e6f9" r="10"/><circle cx="326" cy="146" fill="#e6e6f9" r="5"/><ellipse cx="256" cy="462" fill="#ecf2f3" rx="80" ry="40"/><circle cx="136" cy="30" fill="#ffbdbc" r="20"/><g fill="#c193dc"><path d="m371.769 241.156c10.092-2.1 19.644-4.487 28.526-7.151 42.984-12.896 65.705-30.879 65.705-52.005 0-14.884-12.348-42.187-94.255-59.154-21.564-42.025-65.352-70.846-115.745-70.846-46.264 0-86.955 24.297-110 60.796v-54.516c11.639-4.128 20-15.243 20-28.28 0-16.542-13.458-30-30-30s-30 13.458-30 30c0 13.036 8.361 24.152 20 28.28v67.786c-69.1 17.026-80 41.941-80 55.934 0 21.126 22.721 39.109 65.705 52.005 8.881 2.665 18.432 5.05 28.524 7.151 6.848 13.382 15.933 25.423 26.829 35.643l-37.142 37.142c-15.654-11.692-37.987-10.439-52.201 3.774-3.905 3.905-3.905 10.237 0 14.143 3.905 3.904 10.237 3.904 14.143 0 7.798-7.798 20.487-7.798 28.284 0 7.798 7.798 7.798 20.485 0 28.283-3.905 3.905-3.905 10.237.001 14.143 1.953 1.952 4.512 2.929 7.071 2.929s5.119-.977 7.071-2.929c12.059-12.06 14.785-29.965 8.194-44.677.201-.172.402-.345.593-.536l39.674-39.674c1.046.714 2.097 1.422 3.166 2.108 11.514 7.384 24.041 12.839 37.137 16.261l-54.376 140.628c-.313.809-.501 1.633-.597 2.457-1.368 3.589-2.076 7.319-2.076 11.149 0 14.67 10.285 27.892 28.96 37.228 16.471 8.237 38.149 12.772 61.04 12.772s44.569-4.535 61.041-12.772c18.675-9.336 28.959-22.558 28.959-37.228 0-3.831-.708-7.561-2.076-11.151-.096-.823-.284-1.647-.597-2.456l-54.376-140.629c13.026-3.404 25.49-8.817 36.953-16.141 1.132-.723 2.247-1.469 3.354-2.225l39.672 39.672c.191.19.391.364.593.536-6.591 14.712-3.866 32.618 8.194 44.677 1.953 1.952 4.512 2.929 7.071 2.929s5.118-.977 7.071-2.929c3.905-3.905 3.905-10.237 0-14.143-7.798-7.798-7.798-20.485 0-28.283 7.797-7.799 20.486-7.799 28.283 0 3.906 3.904 10.236 3.904 14.143 0 3.905-3.905 3.905-10.237 0-14.143-14.213-14.213-36.546-15.467-52.2-3.774l-37.143-37.143c10.893-10.218 19.978-22.259 26.827-35.641zm-115.769-169.156c58.37 0 106.267 45.694 109.792 103.192-62.275 22.502-157.31 22.502-219.584 0 3.525-57.498 51.422-103.192 109.792-103.192zm-120-52c5.514 0 10 4.486 10 10s-4.486 10-10 10-10-4.486-10-10 4.486-10 10-10zm-70 162c0-10.386 20.566-25.543 65.254-36.602-3.414 11.615-5.254 23.897-5.254 36.602 0 4.082 2.48 7.754 6.267 9.277 33.212 13.364 77.154 20.723 123.733 20.723 46.578 0 90.522-7.359 123.732-20.723 3.788-1.523 6.268-5.195 6.268-9.277 0-12.705-1.84-24.987-5.254-36.602 44.695 11.062 65.254 26.235 65.254 36.602 0 6.125-7.206 12.151-11.502 15.198-9.056 6.423-22.87 12.525-39.95 17.65-36.868 11.06-86.072 17.152-138.548 17.152s-101.679-6.092-138.548-17.152c-37.977-11.393-51.452-24.816-51.452-32.848zm190 310c-40.064 0-70-15.839-70-30s29.936-30 70-30 70 15.839 70 30-29.936 30-70 30zm55.823-69.625c-15.707-6.708-35.27-10.375-55.823-10.375-20.554 0-40.117 3.667-55.824 10.375l42.93-111.025c4.268.422 8.569.65 12.894.65 4.324 0 8.625-.227 12.894-.649zm-55.823-130.375c-21.109 0-41.612-5.993-59.292-17.33-11.933-7.653-22.212-17.474-30.349-28.9 27.6 4.074 58.092 6.23 89.641 6.23 31.547 0 62.036-2.156 89.636-6.229-8.175 11.477-18.505 21.336-30.5 29-17.644 11.271-38.092 17.229-59.136 17.229z"/><path d="m181.695 150.656c1.577.912 3.299 1.346 4.998 1.346 3.453 0 6.812-1.791 8.665-4.995 12.492-21.593 35.728-35.007 60.642-35.007 5.522 0 10-4.478 10-10s-4.478-10-10-10c-32.029 0-61.899 17.24-77.954 44.993-2.765 4.78-1.131 10.898 3.649 13.663z"/></g></g></svg>