<svg id="Layer_1" enable-background="new 0 0 512 512" height="512" viewBox="0 0 512 512" width="512" xmlns="http://www.w3.org/2000/svg"><g><circle cx="146" cy="86" fill="#fff2a0" r="30"/><circle cx="256" cy="296" fill="#ccf5fc" r="160"/><path d="m414.758 316h-88.758c-11.046 0-20 8.954-20 20 0 11.046 8.954 20 20 20h78.358c5.107-12.615 8.657-26.026 10.4-40z" fill="#b8ecbc"/><path d="m226 196h-94.893c-9.646 12.032-17.589 25.486-23.464 40h118.357c11.046 0 20-8.954 20-20 0-11.046-8.954-20-20-20z" fill="#b8ecbc"/><path d="m150.184 416h105.816c11.046 0 20-8.954 20-20 0-11.046-8.954-20-20-20h-80c-11.046 0-20-8.954-20-20 0-11.046 8.954-20 20-20h30c11.046 0 20-8.954 20-20 0-11.046-8.954-20-20-20h-110c0 47.792 20.961 90.682 54.184 120z" fill="#b8ecbc"/><circle cx="376" cy="156" fill="#ecf2f3" r="80"/><g fill="#dae6e6"><circle cx="346" cy="146" r="20"/><circle cx="376" cy="116" r="10"/><circle cx="406" cy="196" r="10"/><circle cx="366" cy="186" r="5"/></g><circle cx="42" cy="356" fill="#e6e6f9" r="20"/><circle cx="470" cy="266" fill="#e6e6f9" r="20"/><circle cx="462" cy="416" fill="#fff" r="40"/><circle cx="50" cy="176" fill="#fff" r="40"/><g fill="#33d6f5"><path d="m146 126c22.056 0 40-17.944 40-40s-17.944-40-40-40-40 17.944-40 40 17.944 40 40 40zm0-60c11.028 0 20 8.972 20 20s-8.972 20-20 20-20-8.972-20-20 8.972-20 20-20z"/><path d="m415.429 236.89c29.918-14.643 50.571-45.398 50.571-80.89 0-49.626-40.374-90-90-90-40.377 0-74.628 26.729-85.993 63.421-11.143-2.262-22.55-3.421-34.007-3.421-93.738 0-170 76.262-170 170s76.262 170 170 170 170-76.262 170-170c0-20.385-3.56-40.232-10.571-59.11zm-39.429-150.89c38.598 0 70 31.402 70 70s-31.402 70-70 70-70-31.402-70-70 31.402-70 70-70zm-120 360c-82.71 0-150-67.29-150-150s67.29-150 150-150c10.202 0 20.356 1.037 30.265 3.065-.175 2.289-.265 4.602-.265 6.935 0 49.626 40.374 90 90 90 7.083 0 13.977-.826 20.593-2.38 6.238 16.716 9.407 34.305 9.407 52.38 0 82.71-67.29 150-150 150z"/><path d="m42 326c-16.542 0-30 13.458-30 30s13.458 30 30 30 30-13.458 30-30-13.458-30-30-30zm0 40c-5.514 0-10-4.486-10-10s4.486-10 10-10 10 4.486 10 10-4.486 10-10 10z"/><path d="m440 266c0 16.542 13.458 30 30 30s30-13.458 30-30-13.458-30-30-30-30 13.458-30 30zm30-10c5.514 0 10 4.486 10 10s-4.486 10-10 10-10-4.486-10-10 4.486-10 10-10z"/><path d="m502 406c-16.542 0-30-13.458-30-30 0-5.523-4.478-10-10-10s-10 4.477-10 10c0 16.542-13.458 30-30 30-5.522 0-10 4.477-10 10s4.478 10 10 10c16.542 0 30 13.458 30 30 0 5.523 4.478 10 10 10s10-4.477 10-10c0-16.542 13.458-30 30-30 5.522 0 10-4.477 10-10s-4.478-10-10-10zm-40 20.035c-2.854-3.8-6.235-7.181-10.035-10.035 3.8-2.854 7.181-6.235 10.035-10.035 2.854 3.8 6.235 7.181 10.035 10.035-3.8 2.854-7.181 6.235-10.035 10.035z"/><path d="m40 216c0 5.523 4.477 10 10 10s10-4.477 10-10c0-16.542 13.458-30 30-30 5.523 0 10-4.477 10-10s-4.477-10-10-10c-16.542 0-30-13.458-30-30 0-5.523-4.477-10-10-10s-10 4.477-10 10c0 16.542-13.458 30-30 30-5.523 0-10 4.477-10 10s4.477 10 10 10c16.542 0 30 13.458 30 30zm10-50.035c2.854 3.8 6.235 7.181 10.035 10.035-3.8 2.854-7.181 6.235-10.035 10.035-2.854-3.8-6.235-7.181-10.035-10.035 3.8-2.854 7.181-6.235 10.035-10.035z"/></g></g></svg>