<svg id="Layer_1" enable-background="new 0 0 512 512" height="512" viewBox="0 0 512 512" width="512" xmlns="http://www.w3.org/2000/svg"><g><path d="m345.431 317.147h113.137v169.706h-113.137z" fill="#e6e6f9" transform="matrix(.707 -.707 .707 .707 -166.514 402)"/><path d="m53.431 25.147h113.137v169.706h-113.137z" fill="#e6e6f9" transform="matrix(.707 -.707 .707 .707 -45.563 110)"/><path d="m120.792 186.147h240.416v169.706h-240.416z" fill="#fff" transform="matrix(.707 -.707 .707 .707 -121.039 249.787)"/><path d="m147.716 251.147h56.569v169.706h-56.569z" fill="#cecdf3" transform="matrix(.707 -.707 .707 .707 -186.039 222.863)"/><circle cx="256" cy="256" fill="#e6e6f9" r="30"/><path d="m413.426 183.426c-23.431 23.432-61.421 23.432-84.853 0-23.431-23.431-23.431-61.421 0-84.853z" fill="#fff"/><circle cx="416" cy="96" fill="#ffbdbc" r="20"/><g><path d="m509.071 414.928-120-120c-3.905-3.904-10.237-3.904-14.143 0l-32.928 32.929-11.858-11.857 62.929-62.929c3.905-3.905 3.905-10.237 0-14.143l-28.243-28.243c2.053.18 4.112.281 6.172.281 17.925 0 35.851-6.822 49.497-20.469 1.875-1.876 2.929-4.419 2.929-7.071s-1.054-5.195-2.929-7.071l-35.355-35.355 17.929-17.929c.001-.001.002-.002.003-.003 3.917 1.878 8.3 2.932 12.926 2.932 16.542 0 30-13.458 30-30s-13.458-30-30-30-30 13.458-30 30c0 4.626 1.054 9.009 2.932 12.926-.001.001-.002.002-.003.003l-17.929 17.928-35.355-35.355c-1.875-1.875-4.419-2.929-7.071-2.929s-5.196 1.054-7.071 2.929c-15.214 15.214-21.937 35.747-20.189 55.669l-28.242-28.243c-3.905-3.904-10.237-3.904-14.143 0l-62.929 62.929-11.858-11.857 32.929-32.929c3.905-3.905 3.905-10.237 0-14.143l-120-120c-3.905-3.904-10.237-3.904-14.143 0l-80 80c-3.905 3.905-3.905 10.237 0 14.143l120 120c1.953 1.952 4.512 2.929 7.071 2.929s5.119-.977 7.071-2.929l32.93-32.929 11.857 11.858-92.929 92.929c-3.905 3.905-3.905 10.237 0 14.143l120 120c1.953 1.952 4.512 2.929 7.071 2.929s5.119-.977 7.071-2.929l92.93-92.93 11.857 11.858-32.929 32.929c-3.905 3.905-3.905 10.237 0 14.143l120 120c1.953 1.952 4.512 2.929 7.071 2.929s5.119-.977 7.071-2.929l80-80c3.906-3.906 3.906-10.238.001-14.144zm-93.071-328.928c5.514 0 10 4.486 10 10s-4.486 10-10 10-10-4.486-10-10 4.486-10 10-10zm-86.716 27.425 34.64 34.641.005.005c.002.002.003.003.005.004l34.64 34.641c-19.403 12.832-45.856 10.712-62.929-6.361-17.074-17.073-19.193-43.526-6.361-62.93zm-159.284 42.432-25.858-25.857 25.858-25.858 25.858 25.858zm-105.858-25.857 25.858-25.858 25.857 25.858-25.857 25.857zm40-40 25.858-25.858 25.857 25.858-25.857 25.857zm-14.142-65.858 25.857 25.858-25.857 25.857-25.858-25.857zm-40 40 25.857 25.858-25.857 25.857-25.858-25.857zm80 131.715-25.858-25.857 25.858-25.858 25.857 25.858zm136-55.715 105.858 105.858-62.926 62.926c-.001.001-.002.002-.003.003s-.002.002-.003.003l-52.926 52.925-105.858-105.857 52.927-52.927.002-.002c.001 0 .001-.001.002-.002zm-50 261.715-105.858-105.857 25.858-25.858 105.857 105.858zm140.142 20.143 25.858-25.858 25.857 25.858-25.857 25.857zm40-40 25.858-25.858 25.857 25.858-25.857 25.857zm-14.142-65.858 25.857 25.858-25.857 25.857-25.858-25.857zm-40 40 25.857 25.858-25.857 25.857-25.858-25.857zm80 131.715-25.858-25.857 25.858-25.858 25.857 25.858zm40-40-25.858-25.857 25.858-25.858 25.858 25.858z" fill="#c193dc"/></g><g fill="#e6e6f9"><circle cx="266" cy="176" r="10"/><circle cx="286" cy="196" r="10"/></g></g></svg>