<svg id="Layer_1" enable-background="new 0 0 512 512" height="512" viewBox="0 0 512 512" width="512" xmlns="http://www.w3.org/2000/svg"><g><path d="m236 356h40v86h-40z" fill="#ffbdbc"/><path d="m436 176c0 99.411-80.589 180-180 180s-180-80.589-180-180z" fill="#ffdede"/><path d="m326 176c0 99.411-31.34 180-70 180s-70-80.589-70-180" fill="#ffbdbc"/><path d="m236 56h40v60h-40z" fill="#fff"/><path d="m156 442h200v60h-200z" fill="#ffdede"/><path d="m446 176c0-5.523-4.477-10-10-10h-55.857l-94.143-94.143v-15.857c0-5.522-4.477-10-10-10h-10v-36c0-5.523-4.477-10-10-10s-10 4.477-10 10v36h-10c-5.523 0-10 4.478-10 10v15.857l-94.143 94.143h-55.857c-5.523 0-10 4.477-10 10 0 94.56 69.439 173.197 160 187.624v25.376h-10c-5.523 0-10 4.478-10 10s4.477 10 10 10h10v23h-70c-5.523 0-10 4.478-10 10v60c0 5.522 4.477 10 10 10h200c5.523 0 10-4.478 10-10v-60c0-5.522-4.477-10-10-10h-70v-23h10c5.523 0 10-4.478 10-10s-4.477-10-10-10h-10v-25.376c90.561-14.427 160-93.064 160-187.624zm-249.891 10h119.782c-2.017 94.797-32.467 160-59.891 160-27.425 0-57.874-65.203-59.891-160zm100.627 155.065c6.686-9.078 12.774-20.515 18.081-34.161 12.732-32.739 20.129-75.353 21.076-120.903h89.816c-4.389 75.261-57.966 137.535-128.973 155.064zm-50.736-275.065h20v40h-20zm-20 34.143v15.857c0 5.522 4.477 10 10 10h40c5.523 0 10-4.478 10-10v-15.857l65.857 65.857h-191.714zm-139.71 85.857h89.816c.947 45.55 8.343 88.164 21.076 120.903 5.307 13.646 11.395 25.083 18.081 34.161-71.006-17.529-124.583-79.802-128.973-155.064zm259.71 306h-180v-40h180zm-80-60h-20v-23h20zm0-43h-20v-23.263c3.312.172 6.646.263 10 .263s6.688-.09 10-.263z" fill="#ff9171"/></g></svg>