<svg id="Layer_1" enable-background="new 0 0 512 512" height="512" viewBox="0 0 512 512" width="512" xmlns="http://www.w3.org/2000/svg"><g><path d="m176 256 31.238-20c9.842-78.926 77.17-140 158.762-140h-100c-88.366 0-160 71.634-160 160s71.634 160 160 160h100c-81.592 0-148.92-61.074-158.762-140h-41.238z" fill="#ecf2f3"/><g fill="#dae6e6"><path d="m186 356c0-22.091-17.909-40-40-40-9.293 0-17.839 3.178-24.63 8.494 11.647 24.549 29.357 45.658 51.199 61.397 8.237-7.326 13.431-18 13.431-29.891z"/><circle cx="176" cy="186" r="20"/><circle cx="196" cy="146" r="10"/><circle cx="206" cy="366" r="10"/></g><circle cx="472" cy="266" fill="#ecf2f3" r="30"/><circle cx="58" cy="338" fill="#ecf2f3" r="20"/><circle cx="406" cy="356" fill="#fff" r="40"/><circle cx="326" cy="216" fill="#fff" r="40"/><g><circle cx="50" cy="136" fill="#fff" r="40"/><g fill="#8aa8bd"><path d="m366 406c-75.522 0-139.509-56.42-148.839-131.237-.624-5.006-4.879-8.763-9.923-8.763h-25.058l1.531-3.064 28.918-18.515c2.503-1.603 4.164-4.235 4.531-7.185 9.331-74.816 73.318-131.236 148.84-131.236 5.522 0 10-4.478 10-10s-4.478-10-10-10h-100c-93.738 0-170 76.262-170 170s76.262 170 170 170h100c5.522 0 10-4.478 10-10s-4.478-10-10-10zm-100 0c-82.71 0-150-67.29-150-150s67.29-150 150-150h20.054c-46.04 24.593-79.784 69.811-88.086 124.061l-27.359 17.517c-1.519.973-2.746 2.337-3.553 3.95l-10 20c-1.55 3.1-1.384 6.781.438 9.73 1.822 2.947 5.041 4.742 8.507 4.742h32.64c9.329 52.443 42.527 96.023 87.414 120z"/><path d="m472 226c-22.056 0-40 17.944-40 40s17.944 40 40 40 40-17.944 40-40-17.944-40-40-40zm0 60c-11.028 0-20-8.972-20-20s8.972-20 20-20 20 8.972 20 20-8.972 20-20 20z"/><path d="m58 308c-16.542 0-30 13.458-30 30s13.458 30 30 30 30-13.458 30-30-13.458-30-30-30zm0 40c-5.514 0-10-4.486-10-10s4.486-10 10-10 10 4.486 10 10-4.486 10-10 10z"/><path d="m446 346c-16.542 0-30-13.458-30-30 0-5.522-4.478-10-10-10s-10 4.478-10 10c0 16.542-13.458 30-30 30-5.522 0-10 4.478-10 10s4.478 10 10 10c16.542 0 30 13.458 30 30 0 5.522 4.478 10 10 10s10-4.478 10-10c0-16.542 13.458-30 30-30 5.522 0 10-4.478 10-10s-4.478-10-10-10zm-40 20.035c-2.853-3.8-6.235-7.181-10.035-10.035 3.8-2.853 7.181-6.235 10.035-10.035 2.853 3.8 6.235 7.181 10.035 10.035-3.8 2.853-7.182 6.235-10.035 10.035z"/><path d="m366 206c-16.542 0-30-13.458-30-30 0-5.523-4.478-10-10-10s-10 4.477-10 10c0 16.542-13.458 30-30 30-5.522 0-10 4.477-10 10s4.478 10 10 10c16.542 0 30 13.458 30 30 0 5.522 4.478 10 10 10s10-4.478 10-10c0-16.542 13.458-30 30-30 5.522 0 10-4.477 10-10s-4.478-10-10-10zm-40 20.035c-2.853-3.8-6.235-7.181-10.035-10.035 3.8-2.854 7.181-6.235 10.035-10.035 2.853 3.8 6.235 7.181 10.035 10.035-3.8 2.854-7.182 6.235-10.035 10.035z"/><path d="m100 136c0-5.523-4.478-10-10-10-16.542 0-30-13.458-30-30 0-5.522-4.478-10-10-10s-10 4.478-10 10c0 16.542-13.458 30-30 30-5.523 0-10 4.477-10 10s4.477 10 10 10c16.542 0 30 13.458 30 30 0 5.523 4.478 10 10 10s10-4.477 10-10c0-16.542 13.458-30 30-30 5.522 0 10-4.477 10-10zm-50 10.035c-2.854-3.8-6.235-7.181-10.035-10.035 3.8-2.854 7.181-6.235 10.035-10.035 2.854 3.8 6.235 7.181 10.035 10.035-3.8 2.854-7.181 6.235-10.035 10.035z"/></g></g></g></svg>