<svg id="Layer_1" enable-background="new 0 0 512 512" height="512" viewBox="0 0 512 512" width="512" xmlns="http://www.w3.org/2000/svg"><g><path d="m150 176h-60c-44.183 0-80 35.817-80 80s35.817 80 80 80h60c-44.183 0-80-35.817-80-80s35.817-80 80-80z" fill="#ecf2f3"/><path d="m296 170c-44.183 0-80-35.817-80-80s35.817-80 80-80h-40c-44.183 0-80 35.817-80 80s35.817 80 80 80z" fill="#ecf2f3"/><path d="m336 502c-44.183 0-80-35.817-80-80s35.817-80 80-80h-80c-44.183 0-80 35.817-80 80s35.817 80 80 80z" fill="#ecf2f3"/><circle cx="422" cy="256" fill="#ecf2f3" r="80"/><g fill="#dae6e6"><circle cx="382" cy="256" r="20"/><path d="m488.052 301.13c-5.169-9.036-14.896-15.13-26.052-15.13-16.569 0-30 13.432-30 30 0 6.91 2.342 13.27 6.268 18.341 20.602-4.256 38.3-16.437 49.784-33.211z"/><circle cx="412" cy="226" r="10"/><circle cx="232" cy="386" r="10"/><circle cx="46" cy="226" r="10"/><circle cx="232" cy="466" r="10"/><circle cx="211" cy="405" r="5"/><circle cx="421" cy="297" r="5"/><circle cx="457" cy="221" r="5"/></g><path d="m512 256c0-40.774-27.259-75.297-64.508-86.317-33.921-75.142-109.058-123.683-191.492-123.683-4.933 0-9.876.18-14.8.523 12.834-16.143 32.622-26.523 54.8-26.523 5.523 0 10-4.477 10-10s-4.477-10-10-10h-40c-40.78 0-75.307 27.266-86.322 64.523-46.829 21.13-84.024 58.325-105.155 105.155-37.257 11.015-64.523 45.542-64.523 86.322s27.266 75.307 64.523 86.322c21.131 46.83 58.326 84.025 105.155 105.155 11.015 37.257 45.542 64.523 86.322 64.523h80c5.523 0 10-4.478 10-10s-4.477-10-10-10c-22.588 0-42.699-10.765-55.507-27.422 34.492-4.018 67.421-16.518 95.97-36.544 30.992-21.739 55.48-51.343 70.996-85.707 37.266-11.01 64.541-45.54 64.541-86.327zm-275.895-233.121c-18.465 16.494-30.105 40.473-30.105 67.121s11.64 50.627 30.105 67.121c-28.937-8.594-50.105-35.433-50.105-67.121s21.168-58.527 50.105-67.121zm-216.105 233.121c0-38.598 31.402-70 70-70h3.491c-20.415 16.513-33.491 41.758-33.491 70s13.076 53.487 33.491 70h-3.491c-38.598 0-70-31.402-70-70zm236 236c-38.598 0-70-31.402-70-70s31.402-70 70-70h23.491c-20.415 16.513-33.491 41.758-33.491 70s13.076 53.487 33.491 70zm108.978-80.339c-28.051 19.676-60.777 31.318-94.914 33.819-2.624-7.344-4.064-15.246-4.064-23.48 0-38.598 31.402-70 70-70 5.523 0 10-4.478 10-10s-4.477-10-10-10h-80c-49.626 0-90 40.374-90 90 0 .462.011.922.018 1.383-32.899-17.674-59.726-44.501-77.4-77.401.46.007.92.018 1.382.018h60c5.523 0 10-4.478 10-10s-4.477-10-10-10c-38.598 0-70-31.402-70-70s31.402-70 70-70c5.523 0 10-4.477 10-10s-4.477-10-10-10h-60c-.462 0-.922.011-1.383.018 17.675-32.9 44.501-59.727 77.4-77.401-.006.461-.017.921-.017 1.383 0 49.626 40.374 90 90 90h40c5.523 0 10-4.477 10-10s-4.477-10-10-10c-38.598 0-70-31.402-70-70 0-7.751 1.285-15.202 3.621-22.176 8.687-1.205 17.549-1.824 26.379-1.824 70.141 0 134.442 38.843 167.383 100.018-.46-.007-.921-.018-1.383-.018-49.626 0-90 40.374-90 90s40.374 90 90 90c.454 0 .906-.011 1.358-.017-14.024 26.041-33.97 48.555-58.38 65.678zm57.022-85.661c-38.598 0-70-31.402-70-70s31.402-70 70-70 70 31.402 70 70-31.402 70-70 70z" fill="#8aa8bd"/><circle cx="37" cy="247" fill="#dae6e6" r="5"/><circle cx="57" cy="301" fill="#dae6e6" r="5"/></g></svg>