<svg id="Layer_1" enable-background="new 0 0 512 512" height="512" viewBox="0 0 512 512" width="512" xmlns="http://www.w3.org/2000/svg"><g><path d="m411.564 100.437c-39.053-39.053-140.359-1.063-226.274 84.853-85.915 85.915-123.905 187.222-84.853 226.274s140.359 1.063 226.274-84.853 123.905-187.222 84.853-226.274zm-113.138 197.989c-62.484 62.484-132.132 94.142-155.564 70.711-23.431-23.432 8.227-93.08 70.711-155.564s132.132-94.142 155.564-70.711c23.432 23.432-8.227 93.08-70.711 155.564z" fill="#e6e6f9"/><circle cx="256" cy="256" fill="#ffee80" r="20"/><circle cx="96" cy="186" fill="#ccf5fc" r="30"/><circle cx="424" cy="366" fill="#fff7bf" r="20"/><circle cx="36" cy="116" fill="#ffdede" r="20"/><circle cx="466" cy="276" fill="#cecdf3" r="30"/><circle cx="256" cy="50" fill="#fff" r="40"/><g><circle cx="256" cy="462" fill="#fff" r="40"/><g fill="#c193dc"><path d="m256 226c-16.542 0-30 13.458-30 30s13.458 30 30 30 30-13.458 30-30-13.458-30-30-30zm0 40c-5.514 0-10-4.486-10-10s4.486-10 10-10 10 4.486 10 10-4.486 10-10 10z"/><path d="m433.009 337.384c-5.894-25.044-18.366-52.972-36.296-81.3 42.723-67.387 53.421-131.219 21.922-162.719-31.498-31.495-95.326-20.801-162.71 21.917-69.717-44.141-131.911-52.565-162.56-21.917-13.578 13.579-19.742 33.683-17.976 58.368-11.609 7.009-19.389 19.746-19.389 34.267 0 22.056 17.944 40 40 40 .757 0 1.507-.025 2.254-.067 5.001 9.987 10.687 20.018 17.01 30.019-42.704 67.373-53.392 131.188-21.899 162.683 12.342 12.341 29.645 18.206 50.182 18.206 31.858 0 71.498-14.138 112.453-40.088 40.955 25.951 80.594 40.088 112.454 40.088 20.531 0 37.843-5.867 50.182-18.206 6.556-6.556 11.408-14.631 14.461-24.048 12.107-3.862 20.903-15.215 20.903-28.587 0-13.404-8.838-24.781-20.991-28.616zm-9.009 18.616c5.514 0 10 4.486 10 10s-4.486 10-10 10-10-4.486-10-10 4.486-10 10-10zm-55.671-260.87c15.484 0 27.921 4.136 36.163 12.378 15.721 15.72 16.502 46.694 2.145 84.982-15.536 41.429-46.432 86.585-86.997 127.15-20.404 20.404-41.971 38.359-63.64 53.147-5.952-4.062-11.896-8.367-17.811-12.893 22.389-13.978 45.541-32.628 67.308-54.396 31.047-31.048 55.767-64.913 69.605-95.36 15.205-33.45 15.597-59.854 1.105-74.346-14.491-14.491-40.896-14.1-74.346 1.104-30.447 13.839-64.313 38.559-95.36 69.605-21.771 21.771-40.423 44.926-54.401 67.318-4.521-5.911-8.822-11.857-12.887-17.82 14.787-21.669 32.742-43.235 53.146-63.64 40.565-40.565 85.722-71.461 127.15-86.997 18.216-6.829 34.771-10.232 48.82-10.232zm-213.225 215.008c.107-.234.22-.471.328-.706 7.216 8.252 14.821 16.385 22.786 24.351 8.021 8.022 16.155 15.62 24.347 22.788-.234.107-.469.22-.703.326-24.578 11.173-43.991 13.105-51.928 5.169-7.935-7.936-6.002-27.348 5.17-51.928zm37.256 9.502c-9.543-9.543-18.539-19.322-26.93-29.251 13.431-22.873 32.491-47.022 55.214-69.744 22.715-22.715 46.857-41.771 69.723-55.201 9.993 8.433 19.82 17.465 29.272 26.917 9.445 9.445 18.48 19.271 26.918 29.271-13.43 22.867-32.486 47.009-55.202 69.725-22.719 22.719-46.863 41.777-69.732 55.207-9.935-8.395-19.727-17.388-29.263-26.924zm164.537-117.778c-.11.242-.226.485-.338.727-7.255-8.307-14.876-16.471-22.777-24.372-7.906-7.905-16.069-15.524-24.371-22.776.242-.111.486-.228.728-.338 14.567-6.621 27.319-9.997 36.943-9.997 6.614 0 11.752 1.596 14.984 4.828 7.935 7.936 6.002 27.348-5.169 51.928zm-280.897-15.862c0-11.028 8.972-20 20-20s20 8.972 20 20-8.972 20-20 20-20-8.972-20-20zm41.513 33.695c11.105-7.115 18.487-19.555 18.487-33.695 0-22.056-17.944-40-40-40-.296 0-.587.016-.882.023-.571-20.742 6.185-32.311 12.389-38.515 14.095-14.095 37.012-13.673 53.756-10.837 22.839 3.868 49.105 14.511 76.445 30.888-19.992 14.27-40.068 31.236-59.49 50.659-19.432 19.432-36.405 39.518-50.679 59.518-3.598-6.02-6.944-12.04-10.026-18.041zm74.976 186.942c-38.29 14.357-69.262 13.575-84.982-2.145-15.721-15.72-16.502-46.694-2.145-84.981 5.531-14.747 13.017-29.968 22.183-45.285 4.388 6.16 9.008 12.291 13.844 18.376-1.603 3.117-3.105 6.207-4.494 9.261-15.205 33.45-15.597 59.853-1.104 74.346 7.063 7.064 16.956 10.591 29.116 10.591 12.788 0 28.084-3.901 45.229-11.695 3.053-1.388 6.143-2.89 9.259-4.492 6.115 4.867 12.24 9.486 18.36 13.853-15.309 9.16-30.524 16.642-45.266 22.171zm127.023 0c-14.742-5.528-29.957-13.011-45.268-22.173 20.008-14.277 40.101-31.243 59.539-50.682 19.426-19.427 36.396-39.507 50.668-59.502 13.43 22.425 23.016 44.219 28.161 63.972-10.91 4.494-18.612 15.236-18.612 27.748 0 12.305 7.449 22.897 18.072 27.52-1.952 4.205-4.485 7.878-7.58 10.972-15.72 15.72-46.694 16.503-84.98 2.145z"/><path d="m66 116c0-16.542-13.458-30-30-30s-30 13.458-30 30 13.458 30 30 30 30-13.458 30-30zm-30 10c-5.514 0-10-4.486-10-10s4.486-10 10-10 10 4.486 10 10-4.486 10-10 10z"/><path d="m466 236c-22.056 0-40 17.944-40 40s17.944 40 40 40 40-17.944 40-40-17.944-40-40-40zm0 60c-11.028 0-20-8.972-20-20s8.972-20 20-20 20 8.972 20 20-8.972 20-20 20z"/><path d="m216 60c16.542 0 30 13.458 30 30 0 5.522 4.477 10 10 10 5.522 0 10-4.478 10-10 0-16.542 13.458-30 30-30 5.522 0 10-4.478 10-10s-4.478-10-10-10c-16.542 0-30-13.458-30-30 0-5.523-4.478-10-10-10-5.523 0-10 4.477-10 10 0 16.542-13.458 30-30 30-5.523 0-10 4.478-10 10s4.477 10 10 10zm40-20.035c2.853 3.8 6.235 7.181 10.035 10.035-3.8 2.854-7.181 6.235-10.035 10.035-2.854-3.8-6.235-7.181-10.035-10.035 3.8-2.854 7.181-6.235 10.035-10.035z"/><path d="m296 452c-16.542 0-30-13.458-30-30 0-5.522-4.478-10-10-10-5.523 0-10 4.478-10 10 0 16.542-13.458 30-30 30-5.523 0-10 4.478-10 10s4.477 10 10 10c16.542 0 30 13.458 30 30 0 5.522 4.477 10 10 10 5.522 0 10-4.478 10-10 0-16.542 13.458-30 30-30 5.522 0 10-4.478 10-10s-4.478-10-10-10zm-40 20.035c-2.854-3.8-6.235-7.181-10.035-10.035 3.8-2.853 7.181-6.235 10.035-10.035 2.853 3.8 6.235 7.181 10.035 10.035-3.8 2.853-7.182 6.235-10.035 10.035z"/></g></g></g></svg>