<svg id="Layer_1" enable-background="new 0 0 512 512" height="512" viewBox="0 0 512 512" width="512" xmlns="http://www.w3.org/2000/svg"><g><path d="m336 416h-160l-40-40h240z" fill="#dae6e6"/><path d="m236 10h40v46h-40z" fill="#ecf2f3"/><path d="m216 56h80v40h-80z" fill="#dae6e6"/><path d="m396 376h-280l80-280h120z" fill="#fff7bf"/><path d="m327.43 136h-142.86l11.43-40h120z" fill="#ffee80"/><g fill="#fff"><circle cx="256" cy="236" r="50"/><circle cx="96" cy="376" r="20"/><circle cx="416" cy="376" r="20"/></g><g fill="#ffa96b"><path d="m316 326h-120c-5.523 0-10 4.478-10 10s4.477 10 10 10h120c5.522 0 10-4.478 10-10s-4.478-10-10-10z"/><path d="m456 492h-30v-87.72c11.639-4.128 20-15.244 20-28.28 0-16.542-13.458-30-30-30-6.183 0-11.935 1.881-16.714 5.1l-62.297-218.039c-.005-.016-.009-.032-.014-.048l-11.36-39.761c-1.226-4.292-5.15-7.252-9.615-7.252h-10v-30c0-5.522-4.478-10-10-10h-10v-36c0-5.523-4.478-10-10-10h-40c-5.523 0-10 4.477-10 10v36h-10c-5.523 0-10 4.478-10 10v30h-10c-4.465 0-8.389 2.96-9.615 7.253l-11.36 39.761c-.005.016-.009.032-.014.048l-62.297 218.038c-4.78-3.219-10.531-5.1-16.714-5.1-16.542 0-30 13.458-30 30 0 13.036 8.361 24.152 20 28.28v87.72h-30c-5.522 0-10 4.478-10 10s4.478 10 10 10h80c5.523 0 10-4.478 10-10s-4.477-10-10-10h-30v-87.72c8.509-3.018 15.262-9.77 18.28-18.28h7.578l37.071 37.071c1.876 1.875 4.419 2.929 7.071 2.929h160c2.652 0 5.195-1.054 7.071-2.929l37.072-37.071h7.578c3.018 8.509 9.77 15.262 18.28 18.28v87.72h-30c-5.522 0-10 4.478-10 10s4.478 10 10 10h80c5.522 0 10-4.478 10-10s-4.479-10-10.001-10zm-40-126c5.514 0 10 4.486 10 10s-4.486 10-10 10-10-4.486-10-10 4.486-10 10-10zm-170-346h20v26h-20zm-20 46h60v20h-60zm82.457 40 5.714 20h-116.342l5.714-20zm-116.343 40h127.771l62.857 220h-253.485zm-96.114 240c-5.514 0-10-4.486-10-10s4.486-10 10-10 10 4.486 10 10-4.486 10-10 10zm235.857 20h-151.714l-20-20h191.715z"/></g></g></svg>