<svg id="Layer_1" enable-background="new 0 0 512 512" height="512" viewBox="0 0 512 512" width="512" xmlns="http://www.w3.org/2000/svg"><g><path d="m316 208 120 120v60h-360v-60l120-120" fill="#ffdede"/><path d="m76 346h360v42h-360z" fill="#ffbdbc"/><path d="m316 308v-218l-60-80-60 80v218" fill="#fff"/><path d="m236 96h40v80h-40z" fill="#ffdede"/><path d="m196 256h120v52h-120z" fill="#ffbdbc"/><path d="m176 308h160v100h-160z" fill="#fff"/><path d="m176 368h160v40h-160z" fill="#ffee80"/><g fill="#ff9171"><path d="m443.071 320.929-117.071-117.072v-113.857c0-2.164-.702-4.27-2-6l-60-80c-1.889-2.518-4.853-4-8-4-3.148 0-6.111 1.482-8 4l-60 80c-1.298 1.73-2 3.836-2 6v113.857l-117.071 117.072c-1.875 1.876-2.929 4.419-2.929 7.071v60c0 5.522 4.478 10 10 10h90v10c0 5.522 4.477 10 10 10h160c5.522 0 10-4.478 10-10v-10h90c5.522 0 10-4.478 10-10v-60c0-2.652-1.054-5.195-2.929-7.071zm-17.071 11.214v3.857h-80v-28c0-5.522-4.478-10-10-10h-10v-65.857zm-240-14.143h60v40h-60zm20-52h100v32h-100zm60 52h60v40h-60zm-10-291.333 50 66.666v114.662.01 37.995h-100v-37.995c0-.003 0-.007 0-.01v-114.662zm-70 205.476v65.857h-10c-5.523 0-10 4.478-10 10v28h-80v-3.857zm-100 145.857v-22h80v22zm100 0h60v20h-60zm140 20h-60v-20h60zm20-20v-22h80v22z"/><path d="m216 436c-5.523 0-10 4.478-10 10v56c0 5.522 4.477 10 10 10s10-4.478 10-10v-56c0-5.522-4.477-10-10-10z"/><path d="m296 448c-5.522 0-10 4.478-10 10v44c0 5.522 4.478 10 10 10s10-4.478 10-10v-44c0-5.522-4.478-10-10-10z"/></g></g></svg>