<svg id="Layer_1" enable-background="new 0 0 512 512" height="512" viewBox="0 0 512 512" width="512" xmlns="http://www.w3.org/2000/svg"><g><ellipse cx="256" cy="256" fill="#e6e6f9" rx="200" ry="100"/><ellipse cx="256" cy="236" fill="#cecdf3" rx="160" ry="80"/><ellipse cx="256" cy="216" fill="#b5b3ee" rx="120" ry="60"/><path d="m256 276c-17.76 0-34.62-1.93-49.78-5.39-.15-1.52-.22-3.06-.22-4.61 0-27.61 22.39-50 50-50s50 22.39 50 50c0 1.55-.07 3.09-.22 4.61-15.16 3.46-32.02 5.39-49.78 5.39z" fill="#fff2a0"/><circle cx="336" cy="469" fill="#99ebfa" r="20"/><circle cx="146" cy="116" fill="#99ebfa" r="20"/><circle cx="336" cy="50" fill="#fff" r="40"/><g><circle cx="136" cy="426" fill="#fff" r="40"/><g fill="#c193dc"><path d="m401.894 176.345c-24.457-12.229-53.865-21.024-85.894-25.902v-34.443c0-5.523-4.478-10-10-10s-10 4.477-10 10v31.946c-9.831-.969-19.851-1.582-30-1.825v-136.121c0-5.523-4.478-10-10-10-5.523 0-10 4.477-10 10v136.121c-10.149.243-20.169.856-30 1.825v-91.946c0-5.523-4.477-10-10-10s-10 4.477-10 10v94.444c-32.029 4.878-61.436 13.673-85.894 25.902-41.339 20.669-64.106 48.958-64.106 79.654s22.767 58.985 64.106 79.655c24.457 12.229 53.865 21.024 85.894 25.902v94.443c0 5.523 4.477 10 10 10s10-4.477 10-10v-91.946c9.831.968 19.851 1.582 30 1.825v136.121c0 5.523 4.477 10 10 10 5.522 0 10-4.477 10-10v-136.121c10.149-.243 20.169-.856 30-1.825v51.946c0 5.523 4.478 10 10 10s10-4.477 10-10v-54.444c32.029-4.878 61.436-13.673 85.894-25.902 41.339-20.669 64.106-48.958 64.106-79.654s-22.767-58.985-64.106-79.655zm-105.894-6.779v51.76c-8.266-7.409-18.591-12.555-30-14.478v-40.625c10.381.443 20.449 1.573 30 3.343zm-50 37.283c-11.409 1.923-21.734 7.069-30 14.478v-51.76c9.551-1.771 19.619-2.9 30-3.342zm-70.381-24.331c6.216-3.108 13.063-5.795 20.381-8.061v83.086c-7.318-2.266-14.165-4.953-20.381-8.061-18.823-9.412-29.619-21.615-29.619-33.482s10.796-24.07 29.619-33.482zm80.381 43.482c20.864 0 38.039 16.06 39.835 36.465-12.545 2.315-25.981 3.535-39.835 3.535s-27.29-1.22-39.835-3.535c1.796-20.405 18.971-36.465 39.835-36.465zm60-51.543c7.318 2.266 14.165 4.953 20.381 8.061 18.823 9.412 29.619 21.615 29.619 33.482s-10.796 24.07-29.619 33.482c-6.216 3.108-13.063 5.795-20.381 8.061zm-186.402 24.64c-2.371 5.431-3.598 11.092-3.598 16.903 0 20.012 14.445 38.256 40.675 51.371 24.026 12.013 55.75 18.629 89.325 18.629s65.299-6.616 89.325-18.629c26.23-13.115 40.675-31.359 40.675-51.371 0-5.811-1.227-11.472-3.598-16.903 15.194 11.192 23.598 24.111 23.598 36.903 0 17.131-15.066 34.49-41.335 47.624-28.858 14.429-67.45 22.376-108.665 22.376s-79.807-7.947-108.665-22.376c-26.269-13.134-41.335-30.493-41.335-47.624 0-12.792 8.404-25.711 23.598-36.903zm263.351 118.67c-36.413 18.206-85.05 28.233-136.949 28.233s-100.536-10.027-136.949-28.233c-34.21-17.106-53.051-39.041-53.051-61.767 0-15.893 9.226-31.398 26.469-45.136-4.216 7.95-6.469 16.378-6.469 25.136 0 50.467 74.673 90 170 90s170-39.533 170-90c0-8.758-2.253-17.186-6.469-25.136 17.243 13.738 26.469 29.243 26.469 45.136 0 22.726-18.841 44.661-53.051 61.767z"/><path d="m336 439c-16.542 0-30 13.458-30 30s13.458 30 30 30 30-13.458 30-30-13.458-30-30-30zm0 40c-5.514 0-10-4.486-10-10s4.486-10 10-10 10 4.486 10 10-4.486 10-10 10z"/><path d="m146 146c16.542 0 30-13.458 30-30s-13.458-30-30-30-30 13.458-30 30 13.458 30 30 30zm0-40c5.514 0 10 4.486 10 10s-4.486 10-10 10-10-4.486-10-10 4.486-10 10-10z"/><path d="m296 60c16.542 0 30 13.458 30 30 0 5.523 4.478 10 10 10s10-4.477 10-10c0-16.542 13.458-30 30-30 5.522 0 10-4.477 10-10s-4.478-10-10-10c-16.542 0-30-13.458-30-30 0-5.523-4.478-10-10-10s-10 4.477-10 10c0 16.542-13.458 30-30 30-5.522 0-10 4.477-10 10s4.478 10 10 10zm40-20.035c2.853 3.8 6.235 7.181 10.035 10.035-3.8 2.854-7.181 6.235-10.035 10.035-2.853-3.8-6.235-7.181-10.035-10.035 3.8-2.854 7.182-6.235 10.035-10.035z"/><path d="m176 416c-16.542 0-30-13.458-30-30 0-5.523-4.477-10-10-10s-10 4.477-10 10c0 16.542-13.458 30-30 30-5.522 0-10 4.477-10 10s4.478 10 10 10c16.542 0 30 13.458 30 30 0 5.523 4.477 10 10 10s10-4.477 10-10c0-16.542 13.458-30 30-30 5.523 0 10-4.477 10-10s-4.477-10-10-10zm-40 20.035c-2.854-3.8-6.235-7.181-10.035-10.035 3.8-2.854 7.181-6.235 10.035-10.035 2.854 3.8 6.235 7.181 10.035 10.035-3.8 2.854-7.181 6.235-10.035 10.035z"/></g></g></g></svg>