<svg id="Layer_1" enable-background="new 0 0 511.99 511.99" height="512" viewBox="0 0 511.99 511.99" width="512" xmlns="http://www.w3.org/2000/svg"><g><circle cx="255.99" cy="265.995" fill="#ecf2f3" r="160"/><path d="m375.99 305.995c-22.091 0-40 17.909-40 40 0 17.874 11.726 33.006 27.904 38.133 18.99-17.355 33.776-39.228 42.668-63.917-7.338-8.691-18.308-14.216-30.572-14.216z" fill="#dae6e6"/><circle cx="42.99" cy="225.995" fill="#e6e6f9" r="20"/><circle cx="395.99" cy="445.995" fill="#e6e6f9" r="20"/><circle cx="468.99" cy="305.995" fill="#e6e6f9" r="20"/><circle cx="105.99" cy="75.995" fill="#fff2a0" r="30"/><g fill="#dae6e6"><circle cx="205.99" cy="215.995" r="30"/><circle cx="155.99" cy="265.995" r="20"/><circle cx="275.99" cy="365.995" r="20"/><circle cx="355.99" cy="225.995" r="10"/><circle cx="285.99" cy="155.995" r="10"/><circle cx="235.99" cy="285.995" r="10"/></g><circle cx="461.99" cy="125.995" fill="#fff" r="40"/><g><circle cx="49.99" cy="385.995" fill="#fff" r="40"/><g fill="#8aa8bd"><path d="m255.99 95.995c-93.738 0-170 76.262-170 170s76.262 170 170 170 170-76.262 170-170-76.262-170-170-170zm0 320c-82.71 0-150-67.29-150-150s67.29-150 150-150 150 67.29 150 150-67.29 150-150 150z"/><path d="m42.99 255.995c16.542 0 30-13.458 30-30s-13.458-30-30-30-30 13.458-30 30 13.458 30 30 30zm0-40c5.514 0 10 4.486 10 10s-4.486 10-10 10-10-4.486-10-10 4.485-10 10-10z"/><path d="m395.99 415.995c-16.542 0-30 13.458-30 30s13.458 30 30 30 30-13.458 30-30-13.458-30-30-30zm0 40c-5.514 0-10-4.486-10-10s4.486-10 10-10 10 4.486 10 10-4.486 10-10 10z"/><path d="m468.99 275.995c-16.542 0-30 13.458-30 30s13.458 30 30 30 30-13.458 30-30-13.458-30-30-30zm0 40c-5.514 0-10-4.486-10-10s4.486-10 10-10 10 4.486 10 10-4.486 10-10 10z"/><path d="m105.99 115.995c22.056 0 40-17.944 40-40s-17.944-40-40-40-40 17.944-40 40 17.943 40 40 40zm0-60c11.028 0 20 8.972 20 20s-8.972 20-20 20-20-8.972-20-20 8.972-20 20-20z"/><path d="m501.99 115.995c-16.542 0-30-13.458-30-30 0-5.523-4.477-10-10-10s-10 4.477-10 10c0 16.542-13.458 30-30 30-5.523 0-10 4.477-10 10s4.477 10 10 10c16.542 0 30 13.458 30 30 0 5.523 4.477 10 10 10s10-4.477 10-10c0-16.542 13.458-30 30-30 5.523 0 10-4.477 10-10s-4.478-10-10-10zm-40 20.034c-2.854-3.8-6.235-7.181-10.035-10.035 3.8-2.854 7.181-6.235 10.035-10.035 2.854 3.8 6.235 7.181 10.035 10.035-3.8 2.854-7.182 6.236-10.035 10.035z"/><path d="m89.835 375.075c-.029 0-.058-.003-.087-.003-8.013.202-15.615-2.76-21.411-8.294-5.795-5.534-9.089-12.993-9.274-21.004-.008-.345-.033-.686-.075-1.021-.625-5.002-4.933-8.831-10.067-8.743-.029 0-.058-.003-.087-.003-2.76.064-5.234 1.241-7.001 3.092s-2.829 4.376-2.765 7.137c.186 8.011-2.76 15.615-8.294 21.411-5.534 5.795-12.993 9.089-21.004 9.274-5.521.128-9.894 4.708-9.766 10.229.006.244.03.483.053.723.009.095.009.192.021.286.025.201.067.396.103.593.024.129.04.261.068.389.041.181.097.355.148.532.039.138.072.279.117.415.054.161.121.315.183.472.057.145.107.293.17.434.062.138.135.269.203.404.077.154.15.31.235.46.062.109.134.212.2.319.104.167.204.336.317.496.056.079.119.152.177.229.135.181.27.361.417.532.043.05.092.096.136.146.17.19.344.378.528.554.029.028.06.052.09.08.206.193.418.38.64.555.013.01.026.019.039.029.997.779 2.143 1.372 3.389 1.73.012.003.025.006.037.009.297.084.599.156.907.213.051.009.103.015.155.023.267.045.535.083.808.106.112.01.225.011.337.017.172.009.342.026.516.026.078 0 .157-.001.235-.002 7.994-.2 15.614 2.76 21.411 8.294 5.795 5.534 9.089 12.993 9.274 21.004.087 3.742 2.217 6.956 5.301 8.599 1.402.747 3 1.169 4.692 1.169.078 0 .157-.001.236-.003 2.76-.064 5.234-1.241 7.001-3.092s2.829-4.376 2.765-7.137c-.186-8.011 2.76-15.615 8.294-21.411 5.534-5.795 12.993-9.089 21.004-9.274h.001c5.521-.128 9.894-4.708 9.766-10.229-.129-5.493-4.648-9.813-10.143-9.765zm-49.879 11.153c3.735-2.942 7.039-6.403 9.805-10.27 2.941 3.734 6.4 7.035 10.266 9.801-3.735 2.942-7.039 6.402-9.806 10.268-2.94-3.733-6.399-7.035-10.265-9.799z"/></g></g></g></svg>