<svg id="Layer_1" enable-background="new 0 0 512 512" height="512" viewBox="0 0 512 512" width="512" xmlns="http://www.w3.org/2000/svg"><g><g><circle cx="262.669" cy="288.834" fill="#d0f2d2" r="164.168"/><g fill="#b8ecbc"><path d="m201.106 206.749h-80.637c-7.349 12.704-13.048 26.48-16.795 41.042h97.433c11.334 0 20.521-9.187 20.521-20.521-.001-11.333-9.188-20.521-20.522-20.521z"/><path d="m244.2 329.876c11.334 0 20.521-9.187 20.521-20.521s-9.187-20.521-20.521-20.521h-145.699c0 14.172 1.796 27.924 5.172 41.042z"/><path d="m414.892 227.271h-70.139c-11.334 0-20.521 9.187-20.521 20.521s9.187 20.521 20.521 20.521h80.81c-1.788-14.338-5.431-28.099-10.671-41.042z"/><path d="m252.409 370.918c-11.334 0-20.521 9.187-20.521 20.521s9.187 20.521 20.521 20.521h118.833c13.301-11.738 24.689-25.591 33.627-41.042z"/></g><circle cx="30.782" cy="288.834" fill="#fff2a0" r="20.521"/><circle cx="481.218" cy="227.271" fill="#fff2a0" r="20.521"/><circle cx="77.98" cy="440.689" fill="#dae6e6" r="30.782"/><circle cx="447.359" cy="432.481" fill="#fff" r="41.042"/><circle cx="123.126" cy="79.519" fill="#fff" r="41.042"/><g fill="#5cd0b3"><path d="m61.563 288.834c0-16.973-13.809-30.782-30.782-30.782s-30.781 13.809-30.781 30.782 13.809 30.782 30.782 30.782 30.781-13.809 30.781-30.782zm-30.781 10.26c-5.658 0-10.261-4.603-10.261-10.26s4.603-10.261 10.261-10.261 10.261 4.603 10.261 10.261-4.604 10.26-10.261 10.26z"/><path d="m481.218 196.489c-16.973 0-30.782 13.809-30.782 30.782s13.809 30.782 30.782 30.782 30.782-13.809 30.782-30.782-13.809-30.782-30.782-30.782zm0 41.042c-5.658 0-10.261-4.603-10.261-10.261s4.603-10.261 10.261-10.261 10.261 4.603 10.261 10.261-4.603 10.261-10.261 10.261z"/><path d="m77.98 399.647c-22.631 0-41.042 18.411-41.042 41.042s18.411 41.042 41.042 41.042 41.042-18.411 41.042-41.042c0-22.63-18.411-41.042-41.042-41.042zm0 61.563c-11.315 0-20.521-9.206-20.521-20.521s9.206-20.521 20.521-20.521 20.521 9.206 20.521 20.521c0 11.316-9.206 20.521-20.521 20.521z"/><path d="m488.401 422.22c-16.973 0-30.782-13.809-30.782-30.782 0-5.667-4.595-10.26-10.26-10.26s-10.261 4.594-10.261 10.26c0 16.973-13.809 30.782-30.782 30.782-5.666 0-10.261 4.594-10.261 10.26s4.595 10.261 10.261 10.261c16.973 0 30.782 13.809 30.782 30.782 0 5.667 4.595 10.261 10.261 10.261s10.26-4.594 10.26-10.261c0-16.973 13.809-30.782 30.782-30.782 5.666 0 10.26-4.594 10.26-10.261s-4.594-10.26-10.26-10.26zm-41.042 20.557c-2.928-3.899-6.397-7.368-10.296-10.296 3.899-2.928 7.368-6.397 10.296-10.296 2.928 3.899 6.397 7.368 10.296 10.296-3.899 2.928-7.368 6.397-10.296 10.296z"/><path d="m82.084 89.78c16.973 0 30.782 13.809 30.782 30.782 0 5.667 4.594 10.261 10.261 10.261s10.261-4.594 10.261-10.261c0-16.973 13.809-30.782 30.782-30.782 5.667 0 10.261-4.594 10.261-10.261s-4.594-10.261-10.261-10.261c-16.973 0-30.782-13.809-30.782-30.782 0-5.667-4.594-10.261-10.261-10.261s-10.261 4.594-10.261 10.261c0 16.973-13.809 30.782-30.782 30.782-5.667 0-10.261 4.594-10.261 10.261.001 5.667 4.594 10.261 10.261 10.261zm41.042-20.557c2.928 3.899 6.397 7.368 10.296 10.296-3.899 2.928-7.368 6.397-10.296 10.296-2.928-3.899-6.397-7.368-10.296-10.296 3.899-2.928 7.368-6.397 10.296-10.296z"/><path d="m437.098 299.094c0-.689-.071-1.362-.2-2.013.128-2.734.2-5.482.2-8.247 0-96.18-78.249-174.429-174.429-174.429s-174.429 78.249-174.429 174.429 78.249 174.429 174.429 174.429c91.653 0 167.021-71.055 173.915-160.971.33-1.008.514-2.08.514-3.198zm-174.429 143.647c-50.246 0-94.941-24.205-123.048-61.563h61.485c5.667 0 10.261-4.594 10.261-10.261s-4.594-10.261-10.261-10.261h-74.522c-11.37-21.455-17.823-45.898-17.823-71.824 0-44.552 19.034-84.735 49.391-112.866h104.517c5.666 0 10.261-4.594 10.261-10.261s-4.595-10.261-10.261-10.261h-76.718c22.598-13.048 48.801-20.521 76.718-20.521 84.865 0 153.908 69.043 153.908 153.908h-112.866c-5.666 0-10.261 4.594-10.261 10.26 0 5.667 4.595 10.261 10.261 10.261h111.494c-.937 6.999-2.346 13.85-4.193 20.521h-66.258c-5.666 0-10.261 4.594-10.261 10.261s4.595 10.26 10.261 10.26h58.959c-23.797 54.31-78.057 92.347-141.044 92.347z"/></g></g><circle cx="423.252" cy="126.469" fill="#dae6e6" r="20.687"/><path d="m474.353 94.33c-4.04-4.039-10.588-4.039-14.629 0l-18.57 18.57c-3.041-6.228-8.105-11.292-14.333-14.333l47.532-47.532c4.039-4.039 4.039-10.589-.001-14.628-4.04-4.039-10.588-4.039-14.629 0l-65.86 65.86c-7.089 5.692-11.642 14.423-11.642 24.202 0 17.11 13.92 31.03 31.03 31.03 9.779 0 18.511-4.552 24.203-11.643l36.898-36.898c4.04-4.039 4.04-10.588.001-14.628zm-61.101 42.902c-5.944 0-10.763-4.819-10.763-10.763s4.819-10.763 10.763-10.763 10.763 4.819 10.763 10.763-4.819 10.763-10.763 10.763z" fill="#5cd0b3"/></g></svg>