<?xml version="1.0" encoding="iso-8859-1"?>
<!-- Generator: Adobe Illustrator 19.0.0, SVG Export Plug-In . SVG Version: 6.00 Build 0)  -->
<svg version="1.1" id="Capa_1" xmlns="http://www.w3.org/2000/svg" xmlns:xlink="http://www.w3.org/1999/xlink" x="0px" y="0px"
	 viewBox="0 0 511.998 511.998" style="enable-background:new 0 0 511.998 511.998;" xml:space="preserve">
<g>
	<g>
		<path d="M437.017,74.979C393.978,31.94,336.905,5.596,276.311,0.801c-59.908-4.747-119.739,11.723-168.453,46.366
			c-4.5,3.2-5.555,9.443-2.354,13.944c3.2,4.5,9.443,5.555,13.944,2.354C213.512-3.424,341.121,7.367,422.875,89.121
			c44.575,44.574,69.123,103.839,69.123,166.877s-24.548,122.303-69.123,166.877c-44.575,44.575-103.839,69.123-166.877,69.123
			c-63.038,0-122.303-24.548-166.877-69.123C6.983,340.737-3.54,212.756,64.098,118.564c3.221-4.486,2.196-10.734-2.29-13.956
			c-4.487-3.221-10.734-2.194-13.956,2.29C12.855,155.636-3.871,215.601,0.756,275.749c4.678,60.811,31.038,118.084,74.222,161.269
			c48.353,48.351,112.64,74.98,181.02,74.98c68.38,0,132.667-26.629,181.019-74.979c48.351-48.353,74.98-112.64,74.98-181.02
			S485.369,123.332,437.017,74.979z"/>
	</g>
</g>
<g>
	<g>
		<path d="M89.233,74.904c-3.897-3.918-10.227-3.932-14.142-0.036l-0.19,0.189c-3.915,3.895-3.932,10.227-0.036,14.142
			c1.954,1.965,4.522,2.947,7.089,2.947c2.55,0,5.101-0.97,7.053-2.911l0.19-0.189C93.112,85.151,93.129,78.819,89.233,74.904z"/>
	</g>
</g>
<g>
	<g>
		<path d="M327.723,140.998c-26.795,0-51.906,9.739-71.725,27.626c-19.82-17.887-44.93-27.626-71.725-27.626
			c-59.956,0-108.733,49.917-108.733,111.271c0,35.53,29.842,79.293,88.696,130.075c42.684,36.828,84.647,63.506,86.413,64.623
			c1.633,1.034,3.492,1.551,5.349,1.551c1.857,0,3.715-0.517,5.349-1.551c1.766-1.117,43.729-27.795,86.413-64.623
			c58.854-50.782,88.696-94.545,88.696-130.075C436.456,190.914,387.679,140.998,327.723,140.998z M256.032,426.605
			c-12.628-8.351-45.829-31.015-78.73-59.403c-53.49-46.153-81.762-85.896-81.762-114.933c0-50.328,39.805-91.271,88.733-91.271
			c24.58,0,47.442,10.108,64.376,28.461c1.893,2.052,4.558,3.219,7.35,3.219c2.792,0,5.457-1.167,7.35-3.219
			c16.933-18.354,39.795-28.461,64.375-28.461c48.927,0,88.733,40.944,88.733,91.271
			C416.457,309.783,305.418,394.357,256.032,426.605z"/>
	</g>
</g>
<g>
	<g>
		<g>
			<path d="M280.108,204.63l-0.07,0.076c-3.783,4.024-3.586,10.353,0.438,14.135c1.931,1.816,4.391,2.714,6.847,2.714
				c2.663,0,5.32-1.058,7.287-3.151l0.205-0.221c3.743-4.061,3.485-10.388-0.577-14.13
				C290.177,200.31,283.849,200.568,280.108,204.63z"/>
			<path d="M327.722,183.596c-3.736,0-7.478,0.323-11.122,0.961c-5.44,0.953-9.078,6.135-8.126,11.575
				c0.953,5.439,6.137,9.072,11.575,8.126c2.508-0.439,5.089-0.662,7.673-0.662c25.43,0,46.119,21.835,46.119,48.673
				c0,5.522,4.478,10,10,10c5.523,0,10-4.478,10-10C393.841,214.403,364.18,183.596,327.722,183.596z"/>
		</g>
	</g>
</g>
<g>
	<g>
		<path d="M255.998,49.106c-5.522,0-10,4.478-10,10v26.096c0,5.522,4.478,10,10,10c5.522,0,10-4.477,10-9.999V59.106
			C265.998,53.584,261.52,49.106,255.998,49.106z"/>
	</g>
</g>
<g>
	<g>
		<path d="M165.552,105.475l-18.453-18.453c-3.907-3.904-10.237-3.904-14.143,0c-3.905,3.906-3.905,10.238,0,14.143l18.453,18.453
			c1.953,1.952,4.511,2.929,7.071,2.929s5.118-0.977,7.072-2.929C169.457,115.712,169.457,109.38,165.552,105.475z"/>
	</g>
</g>
<g>
	<g>
		<path d="M379.04,87.022c-3.907-3.904-10.237-3.904-14.143,0l-18.453,18.453c-3.905,3.906-3.905,10.238,0,14.143
			c1.953,1.952,4.511,2.929,7.071,2.929s5.118-0.977,7.072-2.929l18.453-18.453C382.945,97.259,382.945,90.927,379.04,87.022z"/>
	</g>
</g>
<g>
</g>
<g>
</g>
<g>
</g>
<g>
</g>
<g>
</g>
<g>
</g>
<g>
</g>
<g>
</g>
<g>
</g>
<g>
</g>
<g>
</g>
<g>
</g>
<g>
</g>
<g>
</g>
<g>
</g>
</svg>
