<?xml version="1.0" encoding="iso-8859-1"?>
<!-- Generator: Adobe Illustrator 19.0.0, SVG Export Plug-In . SVG Version: 6.00 Build 0)  -->
<svg version="1.1" id="Capa_1" xmlns="http://www.w3.org/2000/svg" xmlns:xlink="http://www.w3.org/1999/xlink" x="0px" y="0px"
	 viewBox="0 0 512 512" style="enable-background:new 0 0 512 512;" xml:space="preserve">
<g>
	<g>
		<path d="M256,120c-19.621,0-38.558,4.091-56.285,12.16c-5.027,2.288-7.247,8.218-4.959,13.244
			c2.288,5.027,8.217,7.246,13.244,4.959C223.108,143.486,239.257,140,256,140c63.962,0,116,52.037,116,116s-52.038,116-116,116
			s-116-52.037-116-116c0-18.676,4.299-36.502,12.778-52.984c2.527-4.911,0.593-10.941-4.318-13.467
			c-4.91-2.528-10.941-0.593-13.467,4.318C125.185,212.935,120,234.42,120,256c0,74.99,61.009,136,136,136s136-61.01,136-136
			S330.991,120,256,120z"/>
	</g>
</g>
<g>
	<g>
		<path d="M505.091,242.676c-2.899-3.991-7.805-10.506-14.711-18.879c-11.402-13.824-29.988-34.762-53.777-56.003
			c-26.429-23.598-53.463-42.44-80.352-56.003C322.322,94.678,288.592,86,256,86c-73.667,0-138.867,44.271-180.591,81.407
			c-23.952,21.32-42.476,42.209-53.799,55.979c-7.034,8.554-11.9,15.086-14.744,19.06C0.808,250.912,0,252.837,0,256
			c0,3.316,0.904,5.06,6.909,13.324c2.899,3.991,7.805,10.506,14.711,18.879c11.402,13.824,29.988,34.762,53.777,56.003
			c26.429,23.598,53.463,42.44,80.352,56.003C189.678,417.322,223.408,426,256,426c50.996,0,103.687-20.691,156.608-61.5
			c4.374-3.372,5.186-9.651,1.813-14.025c-3.371-4.374-9.651-5.186-14.025-1.813C351.055,386.709,302.473,406,256,406
			c-65.793,0-125.393-40.046-163.806-73.64c-36.437-31.867-61.827-64.508-70.338-76.475c8.221-11.759,33.434-44.501,70.63-76.864
			C130.773,145.709,190.22,106,256,106c65.793,0,125.393,40.046,163.806,73.641c36.453,31.88,61.85,64.537,70.35,76.491
			c-5.644,8.092-19.125,25.714-38.587,46.148c-3.809,3.999-3.655,10.328,0.344,14.138c3.999,3.808,10.328,3.654,14.138-0.345
			c14.847-15.588,25.861-29.091,32.486-37.673C512,260.959,512,258.771,512,256C512,252.684,511.096,250.94,505.091,242.676z"/>
	</g>
</g>
<g>
	<g>
		<path d="M330.1,220.863c-1.804-3.798-5.791-6.064-9.98-5.665c-4.187,0.398-7.677,3.373-8.733,7.444
			c-2.055,7.927-9.22,13.462-17.424,13.462c-9.925,0-18-8.075-18-18c0-8.22,5.548-15.389,13.492-17.433
			c4.073-1.048,7.055-4.533,7.461-8.72c0.406-4.185-1.851-8.178-5.647-9.99C280.197,176.679,268.331,174,256,174
			c-45.215,0-82,36.785-82,82c0,45.215,36.785,82,82,82c45.215,0,82-36.785,82-81.999C338,243.724,335.342,231.902,330.1,220.863z
			 M256,318c-34.187,0-62-27.813-62-62s27.813-62,62-62c2.75,0,5.468,0.176,8.15,0.526c-5.168,6.539-8.187,14.772-8.187,23.577
			c0,20.953,17.047,38,38,38c8.776,0,16.991-3.004,23.524-8.15c0.342,2.649,0.513,5.333,0.513,8.047
			C318,290.187,290.187,318,256,318z"/>
	</g>
</g>
<g>
	<g>
		<path d="M256,0c-5.523,0-10,4.478-10,10v54c0,5.522,4.477,10,10,10s10-4.478,10-10V10C266,4.478,261.523,0,256,0z"/>
	</g>
</g>
<g>
	<g>
		<path d="M427.337,29.43c-3.905-3.904-10.237-3.904-14.142,0l-47.382,47.383c-3.906,3.906-3.905,10.238,0,14.143
			c1.953,1.952,4.512,2.929,7.071,2.929c2.559,0,5.119-0.977,7.071-2.929l47.382-47.383
			C431.242,39.667,431.242,33.335,427.337,29.43z"/>
	</g>
</g>
<g>
	<g>
		<path d="M146.186,76.813L98.804,29.43c-3.906-3.903-10.237-3.904-14.142,0c-3.905,3.906-3.905,10.238,0,14.143l47.383,47.383
			c1.953,1.952,4.511,2.929,7.071,2.929c2.559,0,5.118-0.977,7.07-2.929C150.091,87.05,150.091,80.718,146.186,76.813z"/>
	</g>
</g>
<g>
	<g>
		<path d="M256,438c-5.523,0-10,4.478-10,10v54c0,5.522,4.477,10,10,10s10-4.478,10-10v-54C266,442.478,261.523,438,256,438z"/>
	</g>
</g>
<g>
	<g>
		<path d="M146.186,421.043c-3.905-3.904-10.237-3.904-14.142,0l-47.382,47.383c-3.905,3.906-3.905,10.238,0,14.143
			c1.953,1.952,4.512,2.929,7.071,2.929c2.559,0,5.119-0.977,7.071-2.929l47.382-47.383
			C150.092,431.28,150.091,424.948,146.186,421.043z"/>
	</g>
</g>
<g>
	<g>
		<path d="M427.338,468.426l-47.382-47.383c-3.906-3.903-10.237-3.904-14.142,0c-3.905,3.906-3.905,10.238,0,14.143l47.382,47.383
			c1.953,1.952,4.511,2.929,7.071,2.929c2.559,0,5.118-0.977,7.071-2.929C431.243,478.663,431.243,472.331,427.338,468.426z"/>
	</g>
</g>
<g>
	<g>
		<path d="M176.36,157.51c-1.86-1.861-4.44-2.93-7.07-2.93s-5.21,1.07-7.07,2.93c-1.86,1.86-2.93,4.44-2.93,7.07
			s1.07,5.21,2.93,7.069c1.86,1.861,4.44,2.931,7.07,2.931s5.21-1.07,7.07-2.931c1.86-1.859,2.93-4.439,2.93-7.069
			S178.22,159.371,176.36,157.51z"/>
	</g>
</g>
<g>
	<g>
		<path d="M440.83,326.609c-1.86-1.859-4.44-2.92-7.07-2.92s-5.21,1.061-7.07,2.92c-1.86,1.87-2.93,4.44-2.93,7.08
			c0,2.63,1.07,5.2,2.93,7.07c1.86,1.861,4.44,2.93,7.07,2.93s5.21-1.069,7.07-2.93c1.86-1.87,2.93-4.44,2.93-7.07
			C443.76,331.049,442.69,328.469,440.83,326.609z"/>
	</g>
</g>
<g>
</g>
<g>
</g>
<g>
</g>
<g>
</g>
<g>
</g>
<g>
</g>
<g>
</g>
<g>
</g>
<g>
</g>
<g>
</g>
<g>
</g>
<g>
</g>
<g>
</g>
<g>
</g>
<g>
</g>
</svg>
