<svg viewBox="0 0 512 512" xmlns="http://www.w3.org/2000/svg"><path d="m436.949219 74.980469c-48.34375-48.351563-112.621094-74.980469-180.988281-74.980469-59.488282 0-117.433594 20.863281-163.167969 58.75-3.191407 2.644531-3.636719 7.371094-.992188 10.5625s7.371094 3.632812 10.558594.988281c43.050781-35.660156 97.601563-55.300781 153.601563-55.300781 64.359374 0 124.871093 25.066406 170.382812 70.585938 45.511719 45.519531 70.574219 106.039062 70.574219 170.414062s-25.0625 124.894531-70.574219 170.414062c-45.511719 45.515626-106.023438 70.585938-170.382812 70.585938-64.363282 0-124.875-25.066406-170.386719-70.585938-45.511719-45.519531-70.574219-106.039062-70.574219-170.414062 0-61.359375 23.066406-119.8125 64.953125-164.597656 2.828125-3.027344 2.667969-7.773438-.355469-10.601563-3.023437-2.832031-7.769531-2.671875-10.601562.351563-44.492188 47.574218-68.996094 109.667968-68.996094 174.847656 0 68.378906 26.625 132.667969 74.96875 181.019531 48.34375 48.351563 112.621094 74.980469 180.992188 74.980469 68.367187 0 132.644531-26.628906 180.988281-74.980469 48.34375-48.351562 74.96875-112.640625 74.96875-181.019531s-26.625-132.667969-74.96875-181.019531zm0 0"/><path d="m357.0625 289.25c4.144531 0 7.5-3.359375 7.5-7.5v-112.558594c0-12.746094-10.367188-23.117187-23.113281-23.117187h-170.980469c-12.746094 0-23.113281 10.371093-23.113281 23.117187v173.617188c0 12.746094 10.367187 23.117187 23.113281 23.117187h170.980469c12.746093 0 23.113281-10.371093 23.113281-23.117187v-23.113282c0-4.144531-3.355469-7.5-7.5-7.5-4.140625 0-7.5 3.355469-7.5 7.5v23.113282c0 4.476562-3.640625 8.117187-8.113281 8.117187h-170.980469c-4.476562 0-8.113281-3.644531-8.113281-8.117187v-173.617188c0-4.476562 3.640625-8.117187 8.113281-8.117187h170.980469c4.476562 0 8.113281 3.640625 8.113281 8.117187v112.558594c0 4.140625 3.359375 7.5 7.5 7.5zm0 0"/><path d="m207.226562 192.304688c0 5.550781-4.5 10.050781-10.050781 10.050781-5.554687 0-10.054687-4.5-10.054687-10.050781 0-5.550782 4.5-10.050782 10.054687-10.050782 5.550781 0 10.050781 4.5 10.050781 10.050782zm0 0"/><path d="m207.226562 256c0 5.550781-4.5 10.050781-10.050781 10.050781-5.554687 0-10.054687-4.5-10.054687-10.050781s4.5-10.050781 10.054687-10.050781c5.550781 0 10.050781 4.5 10.050781 10.050781zm0 0"/><path d="m207.226562 319.695312c0 5.550782-4.5 10.050782-10.050781 10.050782-5.554687 0-10.054687-4.5-10.054687-10.050782 0-5.550781 4.5-10.050781 10.054687-10.050781 5.550781 0 10.050781 4.5 10.050781 10.050781zm0 0"/><path d="m315.785156 184.804688h-82.261718c-4.140626 0-7.5 3.359374-7.5 7.5 0 4.144531 3.359374 7.5 7.5 7.5h82.261718c4.144532 0 7.5-3.355469 7.5-7.5 0-4.140626-3.355468-7.5-7.5-7.5zm0 0"/><path d="m315.785156 248.5h-82.261718c-4.140626 0-7.5 3.355469-7.5 7.5s3.359374 7.5 7.5 7.5h82.261718c4.144532 0 7.5-3.355469 7.5-7.5s-3.355468-7.5-7.5-7.5zm0 0"/><path d="m315.785156 312.195312h-82.261718c-4.140626 0-7.5 3.355469-7.5 7.5 0 4.140626 3.359374 7.5 7.5 7.5h82.261718c4.144532 0 7.5-3.359374 7.5-7.5 0-4.144531-3.355468-7.5-7.5-7.5zm0 0"/></svg>