<?xml version="1.0" encoding="iso-8859-1"?>
<!-- Generator: Adobe Illustrator 19.0.0, SVG Export Plug-In . SVG Version: 6.00 Build 0)  -->
<svg version="1.1" id="Capa_1" xmlns="http://www.w3.org/2000/svg" xmlns:xlink="http://www.w3.org/1999/xlink" x="0px" y="0px"
	 viewBox="0 0 512 512" style="enable-background:new 0 0 512 512;" xml:space="preserve">
<path style="fill:#D7DBDD;" d="M467.359,504.504H44.641c-12.68,0-22.958-10.279-22.958-22.958V137.684h468.634v343.862
	C490.317,494.225,480.038,504.504,467.359,504.504z"/>
<path style="fill:#BDC4C6;" d="M92.082,504.504H44.641c-12.68,0-22.958-10.279-22.958-22.958V137.684h70.399V504.504z"/>
<path style="fill:#F95428;" d="M490.317,137.684H21.683V76.186c0-12.68,10.279-22.958,22.958-22.958h422.718
	c12.68,0,22.958,10.279,22.958,22.958V137.684z"/>
<path style="fill:#E54728;" d="M92.082,137.684H21.683V76.186c0-12.68,10.279-22.958,22.958-22.958h47.441V137.684z"/>
<path d="M467.359,512H123.4c-4.14,0-7.496-3.356-7.496-7.496s3.356-7.496,7.496-7.496h343.959c8.526,0,15.462-6.936,15.462-15.462
	V255.628c0-4.14,3.356-7.496,7.496-7.496s7.496,3.356,7.496,7.496v225.917C497.813,498.338,484.152,512,467.359,512z"/>
<path d="M254.961,231.901c1.905,0,3.55,0.695,4.94,2.08c1.385,1.389,2.079,3.035,2.079,4.94v18.459c0,1.909-0.649,3.684-1.949,5.329
	c-1.3,1.649-2.559,3.079-3.77,4.29l-37.957,40.036c7.799,1.04,14.859,2.95,21.188,5.72c6.325,2.774,11.74,6.37,16.249,10.79
	c4.505,4.419,7.97,9.663,10.399,15.728c2.426,6.068,3.64,12.828,3.64,20.278c0,9.014-1.779,17.029-5.329,24.048
	c-3.555,7.02-8.494,12.958-14.819,17.808c-6.329,4.854-13.779,8.58-22.358,11.179c-8.58,2.6-17.898,3.899-27.948,3.899
	c-12.134,0-22.663-1.429-31.587-4.289c-8.929-2.86-16.379-6.541-22.358-11.049c-5.979-4.505-10.529-9.619-13.649-15.339
	c-3.12-5.719-4.939-11.35-5.459-16.898c-0.175-2.08,0.475-3.771,1.95-5.07c1.47-1.3,3.16-1.95,5.069-1.95h20.539
	c1.731,0,3.161,0.565,4.29,1.69c1.125,1.129,2.295,2.73,3.51,4.81c1.04,2.08,2.425,4.029,4.159,5.85
	c1.731,1.819,4.03,3.469,6.889,4.939c2.86,1.475,6.455,2.645,10.79,3.51c4.33,0.87,9.619,1.3,15.858,1.3
	c10.57,0,19.109-2.121,25.608-6.37c6.499-4.245,9.749-10.269,9.749-18.068c0-7.8-3.25-13.389-9.749-16.769
	c-6.5-3.379-15.038-5.069-25.608-5.069h-21.578c-1.909,0-3.554-0.691-4.939-2.08c-1.39-1.385-2.08-3.031-2.08-4.94v-18.459
	c0-1.904,0.65-3.68,1.949-5.329c1.3-1.645,2.555-3.075,3.77-4.29l36.397-38.216h-71.753c-1.909,0-3.555-0.69-4.94-2.08
	c-1.389-1.385-2.079-3.03-2.079-4.939v-18.459c0-1.905,0.69-3.551,2.079-4.94c1.385-1.385,3.031-2.08,4.94-2.08H254.961z"/>
<path d="M283.559,290.656c-1.214-1.56-1.69-3.29-1.429-5.2c0.26-1.904,1.169-3.465,2.729-4.679l56.415-44.456
	c1.385-1.04,2.815-2.035,4.29-2.99c1.47-0.951,3.075-1.43,4.809-1.43h20.279c1.904,0,3.55,0.695,4.939,2.08
	c1.385,1.389,2.08,3.035,2.08,4.94v167.945c0,1.909-0.695,3.554-2.08,4.939c-1.389,1.39-3.035,2.08-4.939,2.08h-21.059
	c-1.909,0-3.554-0.69-4.939-2.08c-1.39-1.385-2.08-3.03-2.08-4.939V278.438l-36.917,28.858c-1.56,1.214-3.249,1.69-5.07,1.43
	c-1.819-0.261-3.424-1.17-4.809-2.73L283.559,290.656z"/>
<path style="fill:#727B7C;" d="M116.319,98.959H85.836c-2.76,0-4.997-2.237-4.997-4.998V12.494c0-2.76,2.237-4.998,4.997-4.998
	h30.483c2.76,0,4.998,2.237,4.998,4.998v81.468C121.316,96.721,119.079,98.959,116.319,98.959z"/>
<path style="fill:#576666;" d="M101.077,98.959H85.836c-2.76,0-4.997-2.237-4.997-4.998V12.494c0-2.76,2.237-4.998,4.997-4.998
	h15.242L101.077,98.959L101.077,98.959z"/>
<path style="fill:#727B7C;" d="M219.601,98.959h-30.483c-2.76,0-4.997-2.237-4.997-4.998V12.494c0-2.76,2.237-4.998,4.997-4.998
	h30.483c2.76,0,4.997,2.237,4.997,4.998v81.468C224.598,96.721,222.361,98.959,219.601,98.959z"/>
<path style="fill:#576666;" d="M204.359,98.959h-15.242c-2.76,0-4.997-2.237-4.997-4.998V12.494c0-2.76,2.237-4.998,4.997-4.998
	h15.242V98.959z"/>
<path style="fill:#727B7C;" d="M322.882,98.959h-30.483c-2.76,0-4.997-2.237-4.997-4.998V12.494c0-2.76,2.237-4.998,4.997-4.998
	h30.483c2.76,0,4.997,2.237,4.997,4.998v81.468C327.88,96.721,325.642,98.959,322.882,98.959z"/>
<path style="fill:#576666;" d="M307.641,98.959h-15.242c-2.76,0-4.997-2.237-4.997-4.998V12.494c0-2.76,2.237-4.998,4.997-4.998
	h15.242V98.959z"/>
<path style="fill:#727B7C;" d="M426.164,98.959h-30.483c-2.76,0-4.998-2.237-4.998-4.998V12.494c0-2.76,2.237-4.998,4.998-4.998
	h30.483c2.76,0,4.998,2.237,4.998,4.998v81.468C431.162,96.721,428.924,98.959,426.164,98.959z"/>
<path style="fill:#576666;" d="M410.923,98.959h-15.242c-2.76,0-4.998-2.237-4.998-4.998V12.494c0-2.76,2.237-4.998,4.998-4.998
	h15.242V98.959z"/>
<path d="M467.359,45.731h-28.701V12.494C438.658,5.605,433.053,0,426.164,0h-30.483c-6.889,0-12.494,5.605-12.494,12.494v33.237
	h-47.811V12.494C335.376,5.605,329.772,0,322.883,0H292.4c-6.889,0-12.494,5.605-12.494,12.494v33.237h-47.811V12.494
	C232.094,5.605,226.49,0,219.601,0h-30.483c-6.889,0-12.494,5.605-12.494,12.494v33.237h-47.811V12.494
	C128.813,5.605,123.208,0,116.319,0H85.836c-6.889,0-12.494,5.605-12.494,12.494v33.237H44.641
	c-16.793,0-30.455,13.662-30.455,30.454v61.498v343.862c0,16.793,13.662,30.455,30.455,30.455h25.452
	c4.14,0,7.496-3.356,7.496-7.496s-3.356-7.496-7.496-7.496H44.641c-8.526,0-15.462-6.936-15.462-15.462V145.18H482.82v56.811
	c0,4.14,3.356,7.496,7.496,7.496s7.496-3.356,7.496-7.496v-64.308V76.186C497.813,59.393,484.152,45.731,467.359,45.731z
	 M398.18,14.992h25.485v76.47H398.18V14.992z M294.898,14.992h25.486v76.47h-25.486V14.992z M191.616,14.992h25.486v76.47h-25.486
	V14.992z M88.335,14.992h25.485v76.47H88.335V14.992z M29.179,130.187V76.186c0-8.526,6.937-15.462,15.462-15.462h28.701v33.238
	c0,6.889,5.605,12.494,12.494,12.494h30.483c6.889,0,12.494-5.605,12.494-12.494V60.724h47.811v33.238
	c0,6.889,5.605,12.494,12.494,12.494h30.483c6.889,0,12.494-5.605,12.494-12.494V60.724h47.811v33.238
	c0,6.889,5.605,12.494,12.494,12.494h30.483c6.889,0,12.494-5.605,12.494-12.494V60.724h47.811v33.238
	c0,6.889,5.605,12.494,12.494,12.494h30.483c6.889,0,12.494-5.605,12.494-12.494V60.724h28.701c8.526,0,15.462,6.936,15.462,15.462
	v54.002L29.179,130.187L29.179,130.187z"/>
<g>
</g>
<g>
</g>
<g>
</g>
<g>
</g>
<g>
</g>
<g>
</g>
<g>
</g>
<g>
</g>
<g>
</g>
<g>
</g>
<g>
</g>
<g>
</g>
<g>
</g>
<g>
</g>
<g>
</g>
</svg>
