<svg width="274" height="243" viewBox="0 0 274 243" fill="none" xmlns="http://www.w3.org/2000/svg">
<path d="M125.66 0.03125H32.0859C14.7031 0.03125 0.5625 14.1719 0.5625 31.5547V165.969C0.5625 183.352 14.7031 197.492 32.0859 197.492H84.0742C85.6484 197.492 87.1289 198.105 88.2383 199.219L124.938 235.926C128.918 239.906 134.207 242.098 139.836 242.098C145.461 242.098 150.75 239.906 154.727 235.926L191.43 199.219C192.527 198.121 194.043 197.492 195.59 197.492H241.832C259.215 197.492 273.355 183.352 273.355 165.969V31.5547C273.355 14.1719 259.215 0.03125 241.832 0.03125H164.273C160.129 0.03125 156.773 3.38672 156.773 7.53125C156.773 11.6719 160.129 15.0312 164.273 15.0312H241.832C250.941 15.0312 258.355 22.4414 258.355 31.5547V165.969C258.355 175.078 250.941 182.492 241.832 182.492H195.59C190.012 182.492 184.766 184.668 180.82 188.613L144.121 225.32C142.973 226.465 141.453 227.098 139.836 227.098C138.215 227.098 136.691 226.465 135.547 225.32L98.8477 188.613C94.9023 184.668 89.6562 182.496 84.0742 182.496H32.0859C22.9766 182.496 15.5625 175.082 15.5625 165.969V31.5547C15.5625 22.4414 22.9766 15.0312 32.0859 15.0312H125.66C129.805 15.0312 133.16 11.6719 133.16 7.53125C133.16 3.38672 129.805 0.03125 125.66 0.03125V0.03125Z" fill="black"/>
<path d="M225.871 85.375C225.871 81.2344 222.516 77.875 218.371 77.875H114.562C110.422 77.875 107.062 81.2344 107.062 85.375C107.062 89.5195 110.422 92.875 114.562 92.875H218.371C222.516 92.875 225.871 89.5195 225.871 85.375Z" fill="black"/>
<path d="M114.562 113.059C110.422 113.059 107.062 116.418 107.062 120.559C107.062 124.703 110.422 128.059 114.562 128.059H168.406C172.551 128.059 175.906 124.703 175.906 120.559C175.906 116.418 172.551 113.059 168.406 113.059H114.562Z" fill="black"/>
<path d="M72.1133 67.9766C68.625 65.7422 63.9844 66.7578 61.7539 70.2461L47.2578 92.8672C45.1172 96.2149 43.9844 100.078 43.9844 104.051V117.715C43.9844 125.203 50.0781 131.301 57.5703 131.301H70.2734C77.7656 131.301 83.8594 125.203 83.8594 117.715V106.266C83.8594 98.7734 77.7656 92.6758 70.2734 92.6758H65.1992L74.3867 78.3399C76.6172 74.8477 75.6016 70.2109 72.1133 67.9766V67.9766ZM68.8594 107.676V116.301H58.9844V107.676H68.8594Z" fill="black"/>
</svg>
