<?xml version="1.0" encoding="iso-8859-1"?>
<!-- Generator: Adobe Illustrator 19.0.0, SVG Export Plug-In . SVG Version: 6.00 Build 0)  -->
<svg version="1.1" id="Capa_1" xmlns="http://www.w3.org/2000/svg" xmlns:xlink="http://www.w3.org/1999/xlink" x="0px" y="0px"
	 viewBox="0 0 512 512" style="enable-background:new 0 0 512 512;" xml:space="preserve">
<g>
	<g>
		<path d="M388.356,459.481c-3.033-4.615-9.232-5.898-13.849-2.862C339.303,479.766,298.324,492,256,492
			c-119.103,0-216-96.897-216-216c0-41.441,11.765-81.696,34.023-116.415c2.98-4.649,1.628-10.834-3.021-13.815
			c-4.649-2.981-10.835-1.627-13.816,3.021C32.858,186.737,20,230.725,20,276c0,63.038,24.548,122.303,69.123,166.877
			C133.697,487.452,192.962,512,256,512c46.24,0,91.019-13.372,129.495-38.67C390.109,470.296,391.391,464.096,388.356,459.481z"/>
	</g>
</g>
<g>
	<g>
		<path d="M422.877,109.123c-34.372-34.372-77.483-56.821-124.319-65.304c0.012-0.412,0.026-0.823,0.026-1.235
			C298.584,19.103,279.48,0,256,0c-23.48,0-42.584,19.103-42.584,42.584c0,0.425,0.011,0.85,0.024,1.275
			c-28.165,5.144-55.229,15.371-79.822,30.314c-4.721,2.868-6.222,9.019-3.354,13.739c2.867,4.719,9.018,6.222,13.738,3.353
			C177.666,70.811,216.394,60,256,60c119.103,0,216,96.897,216,216c0,40.202-11.117,79.43-32.15,113.441
			c-2.905,4.697-1.452,10.86,3.245,13.765c1.639,1.014,3.455,1.497,5.25,1.497c3.351,0,6.623-1.684,8.515-4.742
			C479.849,362.786,492,319.921,492,276C492,212.962,467.452,153.697,422.877,109.123z M256,40c-7.547,0-15.063,0.368-22.528,1.08
			C234.249,29.326,244.053,20,256,20c11.941,0,21.742,9.318,22.527,21.064C271.084,40.363,263.57,40,256,40z"/>
	</g>
</g>
<g>
	<g>
		<path d="M263.069,268.93C261.21,267.07,258.63,266,256,266s-5.21,1.07-7.07,2.93S246,273.37,246,276s1.069,5.21,2.93,7.07
			c1.861,1.86,4.44,2.93,7.07,2.93c2.64,0,5.21-1.07,7.069-2.93c1.86-1.86,2.931-4.44,2.931-7.07S264.93,270.79,263.069,268.93z"/>
	</g>
</g>
<g>
	<g>
		<path d="M263.069,125.93c-1.859-1.86-4.43-2.93-7.069-2.93c-2.63,0-5.21,1.07-7.07,2.93S246,130.37,246,133s1.069,5.21,2.93,7.07
			c1.861,1.86,4.44,2.93,7.07,2.93s5.21-1.07,7.069-2.93c1.86-1.86,2.931-4.44,2.931-7.07S264.93,127.79,263.069,125.93z"/>
	</g>
</g>
<g>
	<g>
		<path d="M263.069,411.93C261.21,410.07,258.64,409,256,409c-2.63,0-5.21,1.07-7.07,2.93S246,416.37,246,419s1.069,5.21,2.93,7.07
			c1.861,1.86,4.44,2.93,7.07,2.93s5.21-1.07,7.069-2.93c1.86-1.86,2.931-4.44,2.931-7.07S264.93,413.79,263.069,411.93z"/>
	</g>
</g>
<g>
	<g>
		<path d="M406.069,268.93C404.21,267.07,401.63,266,399,266s-5.21,1.07-7.07,2.93c-1.86,1.86-2.93,4.44-2.93,7.07
			s1.069,5.21,2.93,7.07c1.861,1.86,4.44,2.93,7.07,2.93s5.21-1.07,7.069-2.93c1.86-1.86,2.931-4.44,2.931-7.07
			S407.93,270.79,406.069,268.93z"/>
	</g>
</g>
<g>
	<g>
		<path d="M120.069,268.93C118.21,267.07,115.63,266,113,266s-5.21,1.07-7.07,2.93S103,273.37,103,276s1.069,5.21,2.93,7.07
			c1.861,1.86,4.44,2.93,7.07,2.93s5.21-1.07,7.069-2.93c1.86-1.86,2.931-4.44,2.931-7.07S121.93,270.79,120.069,268.93z"/>
	</g>
</g>
<g>
	<g>
		<path d="M256,86C151.233,86,66,171.234,66,276s85.233,190,190,190s190-85.234,190-190S360.767,86,256,86z M86,276
			c0-93.738,76.262-170,170-170c42.848,0,82.039,15.941,111.969,42.196l-111.64,77.812c-0.11-0.001-0.219-0.008-0.33-0.008
			c-27.57,0-50,22.43-50,50c0,0.108,0.007,0.214,0.008,0.321L128.063,387.82C101.887,357.908,86,318.776,86,276z M226.115,278.54
			c-0.002-0.035-0.005-0.07-0.008-0.105C226.042,277.631,226,276.82,226,276c0-16.542,13.458-30,30-30
			c0.818,0,1.627,0.042,2.429,0.107c0.031,0.003,0.062,0.005,0.093,0.007c14.53,1.216,26.144,12.827,27.364,27.356
			c0.002,0.037,0.005,0.073,0.008,0.11c0.064,0.799,0.106,1.604,0.106,2.42c0,16.542-13.458,30-30,30
			c-0.822,0-1.634-0.042-2.44-0.108c-0.031-0.003-0.063-0.005-0.094-0.007C238.945,304.664,227.34,293.061,226.115,278.54z
			 M230.661,319.078l-58.949,41.21l41.21-58.949C217.237,308.647,223.354,314.763,230.661,319.078z M281.366,232.937l58.406-40.709
			l-40.708,58.406C294.754,243.347,288.652,237.246,281.366,232.937z M256,446c-42.776,0-81.908-15.887-111.819-42.063
			l111.498-77.945c0.108,0.001,0.214,0.008,0.322,0.008c27.57,0,50-22.43,50-50c0-0.11-0.008-0.219-0.008-0.329l77.813-111.64
			C410.059,193.961,426,233.152,426,276C426,369.738,349.738,446,256,446z"/>
	</g>
</g>
<g>
	<g>
		<path d="M103.609,108.79c-1.859-1.87-4.439-2.93-7.069-2.93c-2.641,0-5.221,1.06-7.07,2.93c-1.87,1.86-2.93,4.43-2.93,7.07
			c0,2.63,1.06,5.21,2.93,7.07c1.86,1.86,4.429,2.93,7.07,2.93c2.63,0,5.2-1.07,7.069-2.93c1.86-1.86,2.92-4.44,2.92-7.07
			C106.529,113.22,105.469,110.64,103.609,108.79z"/>
	</g>
</g>
<g>
	<g>
		<path d="M428.75,422.63c-1.86-1.86-4.44-2.92-7.07-2.92s-5.21,1.06-7.07,2.92c-1.859,1.86-2.93,4.44-2.93,7.08
			c0,2.63,1.07,5.21,2.93,7.07s4.44,2.93,7.07,2.93s5.21-1.07,7.07-2.93c1.859-1.86,2.93-4.44,2.93-7.07
			C431.68,427.07,430.61,424.5,428.75,422.63z"/>
	</g>
</g>
<g>
</g>
<g>
</g>
<g>
</g>
<g>
</g>
<g>
</g>
<g>
</g>
<g>
</g>
<g>
</g>
<g>
</g>
<g>
</g>
<g>
</g>
<g>
</g>
<g>
</g>
<g>
</g>
<g>
</g>
</svg>
