<?xml version="1.0" encoding="iso-8859-1"?>
<!-- Generator: Adobe Illustrator 19.0.0, SVG Export Plug-In . SVG Version: 6.00 Build 0)  -->
<svg version="1.1" id="Capa_1" xmlns="http://www.w3.org/2000/svg" xmlns:xlink="http://www.w3.org/1999/xlink" x="0px" y="0px"
	 viewBox="0 0 511.999 511.999" style="enable-background:new 0 0 511.999 511.999;" xml:space="preserve">
<path style="fill:#6CC9F1;" d="M394.357,193.515C376.508,133.33,320.796,89.423,254.819,89.423
	c-80.377,0-145.535,65.158-145.535,145.535c0,0.111,0.004,0.221,0.004,0.332c-2.51-0.201-5.039-0.332-7.6-0.332
	c-51.929,0-94.012,42.096-94.012,94.025c0,50.348,39.324,91.45,89.324,93.906v0.327h292.537
	c63.403,0,114.801-51.502,114.801-114.905C504.337,246.524,455.523,196.043,394.357,193.515z"/>
<g>
	<circle style="fill:#0094E3;" cx="255.31" cy="234.859" r="145.43"/>
	<circle style="fill:#0094E3;" cx="389.52" cy="308.199" r="114.81"/>
</g>
<path style="fill:#D2EFFA;" d="M279,266.216v-77.725c0-14.694-11.714-26.606-26.408-26.606h0.007
	c-14.694,0-26.599,11.912-26.599,26.606v77.725h-26.741c-10.253,0-16.135,11.53-10.033,19.77l54.395,73.373
	c5.002,6.754,15.114,6.7,20.092-0.073l53.984-73.318c6.06-8.245,0.173-19.751-10.059-19.751L279,266.216L279,266.216z"/>
<path d="M477.806,223.326c-20.727-21.546-48.157-34.606-77.727-37.125c-1.995-5.943-4.365-11.784-7.073-17.429
	c-1.83-3.815-6.406-5.425-10.223-3.594c-3.815,1.83-5.425,6.407-3.594,10.223c3.134,6.532,5.765,13.36,7.821,20.292
	c0.931,3.141,3.757,5.343,7.03,5.478c27.66,1.143,53.486,12.785,72.722,32.78c19.29,20.052,29.913,46.359,29.913,74.192
	c0,59.076-48.062,107.073-107.138,107.073H152.842c-4.232,0-7.663,3.268-7.663,7.5s3.431,7.5,7.663,7.5h236.694
	c67.527,0,122.463-54.709,122.463-122.236C512,276.165,499.856,246.248,477.806,223.326z"/>
<path d="M118.826,415.216H98.322c-0.317,0-0.641-0.028-0.97-0.045c-45.996-2.271-82.027-40.126-82.027-86.22
	c0-47.62,38.742-86.345,86.362-86.345c2.123,0,4.409,0.109,6.987,0.315c2.135,0.176,4.239-0.553,5.81-2.002
	c1.572-1.451,2.466-3.49,2.466-5.629l-0.004-0.331c0-76.023,61.849-137.872,137.873-137.872c43.313,0,83.259,19.765,109.597,54.226
	c2.571,3.362,7.378,4.005,10.741,1.435c3.362-2.57,4.005-7.379,1.435-10.742c-29.262-38.286-73.647-60.284-121.774-60.284
	c-81.906,0-149.006,64.495-153.009,145.495c-0.04,0-0.081,0-0.122,0C45.617,227.216,0,272.873,0,328.944
	c0,53.807,41.703,97.909,95.2,101.274c0.569,0.135,1.163-0.001,1.774-0.001h21.851c4.232,0,7.663-3.268,7.663-7.5
	C126.488,418.484,123.058,415.216,118.826,415.216z"/>
<path d="M253,154.222c-18.896,0-34,15.373-34,34.27v69.725h-19.741c-7.655,0-14.55,4.27-17.993,11.107
	c-3.444,6.836-2.753,14.915,1.803,21.066l54.395,73.558c3.84,5.185,9.739,8.269,16.189,8.269c0.012,0,0.025,0,0.038,0
	c6.465,0,12.368-3.112,16.197-8.321l53.984-73.499c4.524-6.154,5.192-14.262,1.743-21.079c-3.449-6.816-10.337-11.101-17.976-11.101
	H287v-69.725C287,169.595,271.896,154.222,253,154.222z M307.638,273.216c2.675,0,3.9,2.036,4.302,2.832
	c0.403,0.795,1.167,2.97-0.417,5.126l-53.984,73.26c-1.255,1.707-2.967,1.782-3.876,1.782c-0.003,0-0.006,0-0.009,0
	c-0.911,0-2.619-0.024-3.875-1.722l-54.395-73.33c-1.595-2.154-0.833-4.37-0.432-5.167c0.402-0.797,1.626-2.781,4.307-2.781h26.925
	c4.232,0,7.816-3.057,7.816-7.29v-77.435c0-10.445,8.555-18.944,19-18.944s19,8.499,19,18.944v77.435c0,4.232,3.164,7.29,7.396,7.29
	L307.638,273.216L307.638,273.216z"/>
<g>
</g>
<g>
</g>
<g>
</g>
<g>
</g>
<g>
</g>
<g>
</g>
<g>
</g>
<g>
</g>
<g>
</g>
<g>
</g>
<g>
</g>
<g>
</g>
<g>
</g>
<g>
</g>
<g>
</g>
</svg>
