<svg id="Capa_1" enable-background="new 0 0 512 512" height="512" viewBox="0 0 512 512" width="512" xmlns="http://www.w3.org/2000/svg"><g><path d="m504.5 476.959h-8.532v-160.838c0-1.712-.585-3.372-1.659-4.705l-232.468-288.581c-1.424-1.767-3.571-2.795-5.841-2.795s-4.417 1.028-5.841 2.795l-232.468 288.581c-1.074 1.333-1.659 2.993-1.659 4.705v160.838h-8.532c-4.142 0-7.5 3.358-7.5 7.5s3.358 7.5 7.5 7.5h184.374c39.496 0 71.629-32.132 71.629-71.627v-.811c49.264-3.839 88.175-45.152 88.175-95.384 0-34.473-15.8-72.804-45.691-110.848-22.297-28.379-44.311-46.506-45.236-47.264-2.763-2.261-6.736-2.261-9.499 0-.926.758-22.939 18.885-45.236 47.264-29.892 38.044-45.691 76.375-45.691 110.848 0 50.234 38.914 91.548 88.18 95.385v.811c0 31.224-25.404 56.627-56.629 56.627h-128.779v-146.882l192.903-239.472 87.119 108.15c2.598 3.225 7.32 3.734 10.546 1.136 3.226-2.599 3.734-7.32 1.136-10.546l-92.96-115.401c-1.424-1.767-3.571-2.795-5.841-2.795s-4.417 1.028-5.841 2.795l-200.403 248.783c-1.074 1.333-1.659 2.993-1.659 4.705v149.527h-17.065v-158.194l224.968-279.27 224.968 279.27v158.193h-17.064v-149.526c0-1.712-.585-3.372-1.659-4.705l-86.619-107.528c-2.598-3.225-7.32-3.735-10.546-1.136s-3.734 7.32-1.136 10.546l84.958 105.467v146.882h-184.886c-4.142 0-7.5 3.358-7.5 7.5s3.358 7.5 7.5 7.5h240.484c4.142 0 7.5-3.358 7.5-7.5s-3.358-7.5-7.5-7.5zm-294.309-244.137 38.312 38.312v34.9l-31.289-31.289c-2.929-2.929-7.678-2.929-10.606 0-2.929 2.929-2.929 7.678 0 10.606l41.895 41.895v34.9l-68.795-68.795c6.092-22.077 17.807-42.845 30.483-60.529zm105.296 21.222-51.984 51.984v-34.9l38.306-38.306c4.779 6.667 9.42 13.773 13.678 21.222zm16.805 39.307-68.79 68.79v-34.9l59.261-59.261c3.861 8.182 7.13 16.675 9.529 25.371zm-68.79 111.102v-21.099l72.341-72.341c.539 4.348.834 8.726.834 13.124 0 41.955-32.195 76.518-73.175 80.316zm29.165-183.702-29.164 29.164v-61.14c7.802 7.526 18.427 18.529 29.164 31.976zm-44.164-31.981v61.151l-29.17-29.17c10.74-13.45 21.367-24.455 29.17-31.981zm-73.18 135.367c0-4.398.295-8.776.834-13.124l72.346 72.346v21.094c-40.983-3.796-73.18-38.359-73.18-80.316z"/></g></svg>