<svg id="Capa_1" enable-background="new 0 0 512 512" height="512" viewBox="0 0 512 512" width="512" xmlns="http://www.w3.org/2000/svg"><g><path d="m475.693 205.259h-36.401c-3.854 0-7.271-2.534-8.5-6.306-2.955-9.063-6.654-17.97-10.997-26.473-1.722-3.372-1.028-7.488 1.727-10.243l25.705-25.704c14.155-14.156 14.155-37.189 0-51.346l-20.414-20.414c-14.156-14.156-37.189-14.158-51.346 0l-25.703 25.705c-2.756 2.754-6.874 3.448-10.245 1.726-8.502-4.342-17.408-8.041-26.472-10.996-3.771-1.229-6.306-4.646-6.306-8.5v-36.401c0-20.02-16.287-36.307-36.305-36.307h-28.871c-20.019 0-36.306 16.287-36.306 36.307v36.401c0 3.854-2.534 7.271-6.306 8.5-9.063 2.955-17.97 6.654-26.473 10.997-3.372 1.723-7.489 1.029-10.243-1.727l-25.704-25.705c-14.156-14.156-37.189-14.156-51.346 0l-20.414 20.415c-14.155 14.156-14.155 37.189 0 51.346l25.705 25.703c2.755 2.756 3.448 6.872 1.726 10.245-4.342 8.502-8.041 17.408-10.996 26.472-1.229 3.771-4.646 6.306-8.5 6.306h-36.401c-20.02-.001-36.307 16.286-36.307 36.304v28.871c0 20.019 16.287 36.306 36.307 36.306h36.401c3.854 0 7.271 2.534 8.5 6.306 2.955 9.063 6.654 17.97 10.997 26.473 1.722 3.372 1.028 7.488-1.727 10.243l-25.705 25.704c-14.155 14.156-14.155 37.189 0 51.346l20.414 20.414c14.154 14.154 37.188 14.156 51.346 0l25.703-25.705c2.756-2.754 6.874-3.447 10.245-1.726 8.496 4.339 17.402 8.038 26.472 10.996 3.771 1.229 6.306 4.646 6.306 8.5v36.401c0 20.02 16.287 36.307 36.306 36.307h28.871c20.019 0 36.306-16.287 36.306-36.307v-36.401c0-3.854 2.534-7.271 6.307-8.501 9.068-2.957 17.975-6.656 26.472-10.996 3.372-1.723 7.489-1.029 10.243 1.727l25.704 25.705c14.156 14.156 37.189 14.156 51.346 0l20.414-20.414c14.155-14.156 14.155-37.189 0-51.346l-25.705-25.703c-2.755-2.756-3.448-6.872-1.726-10.245 4.342-8.502 8.041-17.408 10.996-26.472 1.229-3.771 4.646-6.306 8.5-6.306h36.401c20.02 0 36.307-16.287 36.307-36.306v-28.871c-.001-20.018-16.288-36.305-36.308-36.305zm16.307 65.177c0 8.991-7.315 16.306-16.307 16.306h-36.401c-12.536 0-23.594 8.08-27.516 20.106-2.631 8.071-5.926 16.003-9.792 23.574-5.68 11.119-3.512 24.575 5.395 33.483l25.705 25.704c6.358 6.357 6.358 16.703 0 23.061l-20.414 20.414c-6.357 6.359-16.703 6.357-23.061 0l-25.705-25.705c-8.907-8.906-22.365-11.075-33.481-5.396-7.567 3.865-15.499 7.16-23.575 9.793-12.026 3.922-20.106 14.979-20.106 27.516v36.401c0 8.991-7.314 16.307-16.306 16.307h-28.871c-8.991 0-16.306-7.315-16.306-16.307v-36.401c0-12.536-8.08-23.594-20.105-27.515-8.077-2.634-16.009-5.929-23.575-9.793-11.192-5.718-24.637-3.451-33.483 5.395l-25.704 25.705c-6.357 6.357-16.703 6.357-23.061 0l-20.415-20.414c-6.358-6.357-6.358-16.703 0-23.061l25.705-25.705c8.906-8.907 11.074-22.363 5.396-33.481-3.867-7.572-7.162-15.504-9.793-23.575-3.922-12.026-14.979-20.106-27.516-20.106h-36.401c-8.991 0-16.307-7.314-16.307-16.306v-28.871c0-8.991 7.315-16.306 16.307-16.306h36.401c12.536 0 23.594-8.08 27.516-20.106 2.631-8.071 5.926-16.003 9.792-23.574 5.68-11.119 3.512-24.575-5.395-33.483l-25.705-25.704c-6.358-6.357-6.358-16.703 0-23.061l20.414-20.415c6.357-6.359 16.703-6.357 23.061 0l25.705 25.705c8.907 8.906 22.364 11.074 33.481 5.396 7.572-3.867 15.504-7.162 23.575-9.793 12.026-3.922 20.106-14.979 20.106-27.516v-36.401c0-8.991 7.314-16.307 16.306-16.307h28.871c8.991 0 16.306 7.315 16.306 16.307v36.401c0 12.536 8.08 23.594 20.106 27.516 8.071 2.631 16.003 5.926 23.574 9.792 11.119 5.681 24.575 3.513 33.483-5.395l25.704-25.705c6.357-6.357 16.703-6.357 23.061 0l20.414 20.414c6.358 6.357 6.358 16.703 0 23.061l-25.705 25.705c-8.906 8.907-11.074 22.363-5.396 33.481 3.867 7.572 7.162 15.504 9.793 23.575 3.922 12.026 14.979 20.106 27.516 20.106h36.401c8.991 0 16.307 7.314 16.307 16.306v28.872z"/><path d="m361.959 196.676c-5.023 2.295-7.235 8.228-4.94 13.251 33.526 73.385-20.49 157.073-101.019 157.073-61.206 0-111-49.794-111-111s49.794-111 111-111c21.436 0 42.236 6.118 60.153 17.694 4.64 2.997 10.829 1.666 13.826-2.973s1.666-10.829-2.973-13.826c-21.157-13.669-45.711-20.895-71.006-20.895-72.233 0-131 58.767-131 131s58.767 131 131 131c95.11 0 158.743-98.857 119.21-185.384-2.295-5.024-8.231-7.234-13.251-4.94z"/><path d="m256 176c-44.112 0-80 35.888-80 80s35.888 80 80 80 80-35.888 80-80-35.888-80-80-80zm0 140c-33.084 0-60-26.916-60-60s26.916-60 60-60 60 26.916 60 60-26.916 60-60 60z"/><path d="m347.551 186.882h.025c5.522 0 9.987-4.478 9.987-10s-4.49-10-10.013-10-10 4.478-10 10 4.478 10 10.001 10z"/></g></svg>