<?xml version="1.0"?>
<svg xmlns="http://www.w3.org/2000/svg" xmlns:xlink="http://www.w3.org/1999/xlink" version="1.1" id="Layer_1" x="0px" y="0px" viewBox="0 0 512 512" style="enable-background:new 0 0 512 512;" xml:space="preserve" width="512px" height="512px" class=""><g><polygon style="fill:#CCCCCC;" points="369.908,95.601 450.087,153.838 450.087,95.601 " data-original="#CCCCCC"/><path style="fill:#666666;" d="M369.908,95.601h89.402c3.12,0,5.675-2.553,5.675-5.674V70.453c0-3.121-2.554-5.674-5.675-5.674  H358.955c-3.121,0-5.675,2.552-5.675,5.674v13.073L369.908,95.601z" data-original="#666666"/><path style="fill:#FFEEDC;" d="M256,63.199L61.597,204.396v281.517c0,3.657,2.94,6.623,6.567,6.623h375.67  c3.627,0,6.567-2.965,6.567-6.623V204.396L256,63.199z" data-original="#FFEEDC" class=""/><path style="opacity:0.1;enable-background:new    ;" d="M94.036,485.914V180.835l-32.439,23.561v281.517  c0,3.657,2.94,6.623,6.567,6.623h32.439C96.978,492.536,94.036,489.571,94.036,485.914z" data-original="#000000" class=""/><path style="fill:#FFE529" d="M308.403,286.343H203.597c-2.965,0-5.393,2.428-5.393,5.398v200.795h115.591V291.741  C313.795,288.772,311.369,286.343,308.403,286.343z" data-original="#EA3939" class="active-path" data-old_color="#EA3939"/><path style="opacity:0.1;enable-background:new    ;" d="M236.314,286.343h-32.717c-2.965,0-5.393,2.428-5.393,5.398v200.795h32.718  V291.741C230.922,288.772,233.348,286.343,236.314,286.343z" data-original="#000000" class=""/><path style="fill:#FFF46C" d="M158.4,374.72v-33.641h-58.18v33.641c0,2.873,2.351,5.224,5.224,5.224h47.731  C156.049,379.944,158.4,377.593,158.4,374.72z" data-original="#FFF46C" class=""/><path style="fill:#FFCC4D" d="M158.4,341.079v-49.942c0-2.873-2.351-5.224-5.224-5.224h-47.731c-2.873,0-5.224,2.351-5.224,5.224  v49.942H158.4z" data-original="#FFCC4D" class=""/><path style="opacity:0.1;enable-background:new    ;" d="M121.54,374.72v-83.582c0-2.873,2.351-5.224,5.224-5.224h-21.32  c-2.873,0-5.224,2.351-5.224,5.224v83.582c0,2.873,2.351,5.224,5.224,5.224h21.32C123.891,379.944,121.54,377.593,121.54,374.72z" data-original="#000000" class=""/><path style="fill:#FFCC4D" d="M411.779,341.079v-49.942c0-2.873-2.351-5.224-5.224-5.224h-47.731c-2.873,0-5.224,2.351-5.224,5.224  v49.942H411.779z" data-original="#FFCC4D" class=""/><path style="fill:#FFF46C" d="M411.779,374.72v-33.641h-58.18v33.641c0,2.873,2.351,5.224,5.224,5.224h47.731  C409.428,379.944,411.779,377.593,411.779,374.72z" data-original="#FFF46C" class=""/><path style="opacity:0.1;enable-background:new    ;" d="M375.456,374.72v-83.582c0-2.873,2.351-5.224,5.224-5.224h-21.857  c-2.873,0-5.224,2.351-5.224,5.224v83.582c0,2.873,2.351,5.224,5.224,5.224h21.857C377.807,379.944,375.456,377.593,375.456,374.72z  " data-original="#000000" class=""/><path style="fill:#FFE529" d="M481.159,225.535c-1.068,0-2.115-0.335-2.988-0.971L256,63.199L33.829,224.565  c-2.229,1.618-5.433,1.176-7.105-1.132L8.801,198.705c-1.65-2.276-1.144-5.46,1.128-7.112L239.566,24.804  c4.807-3.495,10.49-5.34,16.433-5.34c5.935,0,11.614,1.844,16.422,5.333L502.07,191.594c2.273,1.652,2.778,4.836,1.13,7.112  l-17.923,24.729C484.13,224.83,482.758,225.53,481.159,225.535C480.093,225.535,482.758,225.53,481.159,225.535z" data-original="#EA3939" class="active-path" data-old_color="#EA3939"/><g style="opacity:0.1;">
	<path d="M40.671,198.705c-1.65-2.276-1.144-5.46,1.13-7.112L271.438,24.804c0.162-0.118,0.333-0.219,0.498-0.333   c-4.704-3.268-10.196-5.007-15.936-5.007c-5.943,0-11.627,1.846-16.433,5.34L9.929,191.593c-2.273,1.652-2.778,4.836-1.128,7.112   l17.923,24.729c1.672,2.307,4.877,2.749,7.105,1.132l16.761-12.173L40.671,198.705z" data-original="#000000" class=""/>
</g><g>
	<path style="fill:#FFFFFF" d="M295.707,230.553c0,2.873-2.351,5.224-5.224,5.224h-68.965c-2.873,0-5.224-2.351-5.224-5.224   v-15.244c0-2.873,2.351-5.224,5.224-5.224h68.965c2.873,0,5.224,2.351,5.224,5.224V230.553z" data-original="#FFFFFF" class="" data-old_color="#FFFFFF"/>
	<path style="fill:#FFFFFF" d="M295.707,180.765c0,2.873-2.351,5.225-5.224,5.225h-68.965c-2.873,0-5.224-2.351-5.224-5.225   v-15.243c0-2.875,2.351-5.226,5.224-5.226h68.965c2.873,0,5.224,2.351,5.224,5.226V180.765z" data-original="#FFFFFF" class="" data-old_color="#FFFFFF"/>
</g><path style="opacity:0.1;enable-background:new    ;" d="M237.191,230.553v-15.244c0-2.873,2.351-5.224,5.224-5.224h-20.899  c-2.873,0-5.224,2.351-5.224,5.224v15.244c0,2.873,2.351,5.224,5.224,5.224h20.899C239.542,235.778,237.191,233.427,237.191,230.553  z" data-original="#000000" class=""/><path style="opacity:0.1;enable-background:new    ;" d="M237.191,180.765v-15.243c0-2.875,2.351-5.226,5.224-5.226h-20.899  c-2.873,0-5.224,2.351-5.224,5.226v15.243c0,2.873,2.351,5.225,5.224,5.225h20.899C239.542,185.989,237.191,183.638,237.191,180.765  z" data-original="#000000" class=""/><path d="M92.383,291.137v83.582c0,7.202,5.86,13.061,13.062,13.061h47.731c7.202,0,13.062-5.859,13.062-13.061v-83.582  c0-7.202-5.859-13.061-13.062-13.061h-47.731C98.243,278.076,92.383,283.936,92.383,291.137z M108.057,372.107v-23.192h42.506  v23.192H108.057z M150.563,293.75v39.493h-42.506V293.75H150.563z" data-original="#000000" class=""/><path d="M358.824,387.781h47.731c7.202,0,13.062-5.859,13.062-13.061V328.1c0-4.329-3.509-7.837-7.838-7.837  c-4.328,0-7.837,3.508-7.837,7.837v5.143h-42.506V293.75h42.506v6.137c0,4.329,3.509,7.837,7.837,7.837  c4.329,0,7.838-3.508,7.838-7.837v-8.749c0-7.202-5.86-13.061-13.062-13.061h-47.731c-7.202,0-13.061,5.859-13.061,13.061v83.582  C345.763,381.922,351.621,387.781,358.824,387.781z M403.942,348.916v23.192h-42.506v-23.192H403.942z" data-original="#000000" class=""/><path d="M288.838,362.846c-4.329,0-7.837,3.508-7.837,7.837v21.192c0,4.329,3.509,7.838,7.837,7.838  c4.328,0,7.837-3.509,7.837-7.838v-21.192C296.674,366.353,293.167,362.846,288.838,362.846z" data-original="#000000" class=""/><path d="M506.676,185.252l-48.752-35.408v-46.404h1.387c7.45,0,13.512-6.061,13.512-13.512V70.453  c0-7.45-6.061-13.512-13.512-13.512h-53.886c-4.328,0-7.837,3.509-7.837,7.838c0,4.328,3.509,7.837,7.837,7.837h51.724v15.149  h-84.694l-11.337-8.235v-6.914h15.05c4.328,0,7.837-3.509,7.837-7.837c0-4.329-3.509-7.838-7.837-7.838h-17.212  c-6.71,0-12.279,4.924-13.321,11.343l-68.609-49.831c-6.154-4.466-13.425-6.827-21.024-6.827c-7.612,0-14.889,2.366-21.039,6.838  L5.322,185.254c-5.761,4.187-7.046,12.285-2.867,18.051l17.922,24.726c4.249,5.866,12.392,6.986,18.058,2.877l15.327-11.132v266.14  c0,7.973,6.462,14.459,14.404,14.459h375.67c7.942,0,14.404-6.487,14.404-14.459V219.774l15.329,11.133  c5.661,4.109,13.808,2.986,18.054-2.876l17.923-24.729C513.724,197.538,512.438,189.441,506.676,185.252z M442.251,103.439v35.02  l-48.217-35.02C394.034,103.439,442.251,103.439,442.251,103.439z M480.547,216.605L260.605,56.857  c-2.747-1.995-6.465-1.995-9.211,0l-122.256,88.798c-3.501,2.544-4.279,7.445-1.736,10.947c2.543,3.501,7.444,4.278,10.946,1.735  L256,72.884l186.566,135.507v276.309H321.632v-34.343c0-4.329-3.509-7.837-7.837-7.837c-4.328,0-7.837,3.508-7.837,7.837v34.343  h-99.916V294.18h99.916v124.828c0,4.329,3.509,7.837,7.837,7.837c4.328,0,7.837-3.508,7.837-7.837V291.741  c0-7.298-5.934-13.235-13.229-13.235H203.597c-7.294,0-13.229,5.937-13.229,13.235v192.957H69.434V208.391l44.881-32.599  c3.502-2.543,4.279-7.444,1.736-10.947c-2.544-3.501-7.444-4.279-10.946-1.735l-73.652,53.495l-14.7-20.281L244.175,31.143  c3.458-2.513,7.546-3.842,11.824-3.842c4.272,0,8.358,1.328,11.817,3.837l227.43,165.186L480.547,216.605z" data-original="#000000" class=""/><path d="M221.517,243.614h68.965c7.202,0,13.061-5.859,13.061-13.061v-15.244c0-7.202-5.859-13.061-13.061-13.061h-68.965  c-7.202,0-13.061,5.859-13.061,13.061v15.244C208.456,237.755,214.315,243.614,221.517,243.614z M224.129,217.921h63.741v10.02  h-63.741L224.129,217.921L224.129,217.921z" data-original="#000000" class=""/><path d="M221.517,193.827h68.965c7.202,0,13.061-5.859,13.061-13.062v-15.243c0-7.204-5.859-13.062-13.061-13.062h-68.965  c-7.202,0-13.061,5.859-13.061,13.062v15.243C208.456,187.968,214.315,193.827,221.517,193.827z M224.129,168.134h63.741v10.018  h-63.741L224.129,168.134L224.129,168.134z" data-original="#000000" class=""/></g> </svg>
