<svg id="Capa_1" enable-background="new 0 0 512 512" height="512" viewBox="0 0 512 512" width="512" xmlns="http://www.w3.org/2000/svg"><g><path d="m437.02 74.981c-48.353-48.352-112.64-74.981-181.02-74.981s-132.667 26.629-181.02 74.981c-48.351 48.352-74.98 112.639-74.98 181.019 0 45.352 12.017 89.913 34.753 128.866 22.06 37.795 53.644 69.529 91.338 91.769 3.595 2.122 8.231.927 10.352-2.669 2.122-3.596.927-8.231-2.669-10.353-73.188-43.184-118.654-122.736-118.654-207.613 0-132.822 108.058-240.88 240.88-240.88s240.88 108.058 240.88 240.88-108.058 240.88-240.88 240.88c-31.131 0-61.424-5.85-90.036-17.388-3.871-1.565-8.276.312-9.839 4.184-1.561 3.872.312 8.277 4.184 9.839 30.418 12.265 62.613 18.485 95.691 18.485 68.38 0 132.667-26.629 181.02-74.981 48.351-48.352 74.98-112.639 74.98-181.019s-26.629-132.667-74.98-181.019z"/><path d="m362.093 303.653c-5.396 2.946-10.651 5.963-15.617 8.966-3.572 2.161-4.717 6.809-2.556 10.381 1.421 2.349 3.918 3.649 6.476 3.649 1.333 0 2.682-.352 3.906-1.092 4.776-2.889 9.835-5.793 15.036-8.633 29.696-16.213 47.292-47.298 45.921-81.126-1.851-45.658-39.074-82.767-84.741-84.483-29.608-1.114-57.321 12.474-74.527 35.979-5.819-7.907-12.961-14.868-21.029-20.445-3.435-2.373-8.144-1.514-10.518 1.92-2.373 3.434-1.514 8.143 1.92 10.517 9.084 6.279 16.752 14.672 22.178 24.275 1.52 2.686 4.378 4.355 7.458 4.354 3.081-.001 5.939-1.669 7.457-4.357 13.53-23.938 39.029-38.152 66.492-37.135 37.832 1.421 68.668 32.163 70.2 69.986 1.139 28.042-13.445 53.807-38.056 67.244z"/><path d="m180.778 166.483c5.144-.281 10.295-.03 15.32.744 4.125.633 7.987-2.194 8.623-6.321.635-4.126-2.195-7.987-6.322-8.622-6.054-.932-12.262-1.233-18.442-.898-45.535 2.478-81.309 38.721-83.21 84.304-.714 17.082 3.458 33.838 12.064 48.455 8.336 14.16 20.416 25.696 34.937 33.361 20.439 10.79 38.583 23.158 53.924 36.757l6.265 5.553c14.715 13.045 28.097 27.683 39.775 43.509l3.772 5.111c1.986 2.693 5.171 4.301 8.517 4.301s6.53-1.608 8.517-4.3l3.772-5.112c11.676-15.825 25.059-30.463 39.774-43.507l4.09-3.625c4.449-3.945 9.195-7.851 14.104-11.609 3.315-2.538 3.944-7.283 1.407-10.599-2.538-3.315-7.282-3.945-10.599-1.407-5.195 3.978-10.223 8.116-14.942 12.299l-4.089 3.625c-15.507 13.746-29.607 29.17-41.912 45.845l-.123.167-.122-.165c-12.304-16.676-26.406-32.101-41.912-45.846l-6.265-5.553c-16.245-14.401-35.388-27.46-56.896-38.814-25.217-13.313-40.143-39.298-38.953-67.816 1.576-37.761 31.208-67.784 68.926-69.837z"/></g></svg>