<svg width="80" height="66" viewBox="0 0 80 66" fill="none" xmlns="http://www.w3.org/2000/svg">
<path d="M66.459 38.1596C65.1079 38.8972 63.7921 39.6526 62.5487 40.4045C61.6543 40.9456 61.3676 42.1094 61.9087 43.0038C62.2645 43.592 62.8897 43.9175 63.5302 43.9175C63.864 43.9175 64.2017 43.8293 64.5082 43.6441C65.7041 42.9207 66.9708 42.1936 68.273 41.4825C75.7086 37.4229 80.1144 29.6396 79.7711 21.1695C79.3076 9.73724 69.9874 0.445583 58.553 0.0159172C51.1395 -0.263015 44.2005 3.13926 39.8923 9.02463C38.4353 7.04482 36.647 5.30186 34.6269 3.90545C33.7668 3.31128 32.5877 3.52636 31.9933 4.38619C31.3991 5.24602 31.6142 6.4251 32.474 7.01952C34.7486 8.59171 36.6685 10.6932 38.0271 13.0977C38.4077 13.7702 39.1233 14.1881 39.8945 14.1879C40.666 14.1876 41.3816 13.77 41.7617 13.0969C45.1494 7.10315 51.5341 3.54414 58.4105 3.79878C67.8832 4.15458 75.6042 11.852 75.9877 21.3224C76.2729 28.3438 72.6213 34.7951 66.459 38.1596Z"/>
<path d="M21.06 3.81361C22.348 3.74325 23.6378 3.80609 24.896 3.9999C25.9288 4.15839 26.8958 3.45054 27.055 2.41719C27.214 1.38409 26.5054 0.417339 25.4721 0.258343C23.9562 0.0249809 22.4018 -0.0503847 20.8544 0.0334954C9.45301 0.653957 0.495626 9.72878 0.0196382 21.1422C-0.159139 25.4194 0.885479 29.6149 3.04032 33.2748C5.12756 36.8203 8.15224 39.7088 11.7881 41.628C16.9058 44.3297 21.4489 47.4265 25.2901 50.8315L26.8587 52.2219C30.5432 55.4882 33.8939 59.1534 36.8179 63.116L37.7624 64.3958C38.2597 65.0701 39.0572 65.4727 39.895 65.4727C40.7328 65.4727 41.53 65.0701 42.0275 64.396L42.972 63.116C45.8955 59.1537 49.2464 55.4885 52.9309 52.2224L53.955 51.3147C55.069 50.327 56.2573 49.349 57.4865 48.408C58.3165 47.7725 58.474 46.5844 57.8388 45.7541C57.2033 44.9241 56.0154 44.7663 55.1849 45.4018C53.8841 46.3979 52.6252 47.434 51.4436 48.4814L50.4198 49.389C46.537 52.8308 43.0065 56.6928 39.9255 60.8681L39.8947 60.9099L39.8642 60.8686C36.7834 56.6931 33.2524 52.8308 29.3699 49.3893L27.8012 47.9989C23.7336 44.393 18.9405 41.1232 13.5551 38.2803C7.24108 34.9469 3.50379 28.4405 3.80175 21.3C4.19636 11.8451 11.6159 4.32765 21.06 3.81361Z"/>
</svg>
