<svg id="Capa_1" enable-background="new 0 0 512 512" height="512" viewBox="0 0 512 512" width="512" xmlns="http://www.w3.org/2000/svg"><path d="m415 504.5h-288c-8.284 0-15-6.716-15-15v-382c0-8.284 6.716-15 15-15h288c8.284 0 15 6.716 15 15v382c0 8.284-6.716 15-15 15z" fill="#d4d4d4"/><path d="m385 462h-288c-8.284 0-15-6.716-15-15v-382c0-8.284 6.716-15 15-15h288c8.284 0 15 6.716 15 15v382c0 8.284-6.716 15-15 15z" fill="#f5f5f5"/><path d="m370 50v412h15c8.284 0 15-6.716 15-15v-382c0-8.284-6.716-15-15-15z" fill="#e6e6e6"/><path d="m188.5 222.5h-52c-2.209 0-4-1.791-4-4v-52c0-2.209 1.791-4 4-4h52c2.209 0 4 1.791 4 4v52c0 2.209-1.791 4-4 4z" fill="#ff3d7a"/><path d="m188.5 319.5h-52c-2.209 0-4-1.791-4-4v-52c0-2.209 1.791-4 4-4h52c2.209 0 4 1.791 4 4v52c0 2.209-1.791 4-4 4z" fill="#80deea"/><path d="m188.5 416.5h-52c-2.209 0-4-1.791-4-4v-52c0-2.209 1.791-4 4-4h52c2.209 0 4 1.791 4 4v52c0 2.209-1.791 4-4 4z" fill="#ffca28"/><path d="m211.324 89.5h-86.36c-3.767 0-6.82-3.053-6.82-6.82v-30.346c0-8.192 6.641-14.834 14.834-14.834h70.333c8.192 0 14.834 6.641 14.834 14.834v30.346c-.001 3.767-3.054 6.82-6.821 6.82z" fill="#4380a0"/><path d="m203.311 37.5h-30c8.192 0 14.833 6.641 14.833 14.833v30.347c0 3.767-3.053 6.82-6.82 6.82h30c3.767 0 6.82-3.053 6.82-6.82v-30.347c0-8.192-6.641-14.833-14.833-14.833z" fill="#3b7191"/><path d="m430 455.186c4.142 0 7.5-3.358 7.5-7.5v-340.186c0-12.407-10.093-22.5-22.5-22.5h-7.5v-20c0-12.407-10.093-22.5-22.5-22.5h-33.132c-4.142 0-7.5 3.358-7.5 7.5s3.358 7.5 7.5 7.5h33.132c4.136 0 7.5 3.364 7.5 7.5v382c0 4.136-3.364 7.5-7.5 7.5h-288c-4.136 0-7.5-3.364-7.5-7.5v-30.5c0-4.142-3.358-7.5-7.5-7.5s-7.5 3.358-7.5 7.5v30.5c0 12.407 10.093 22.5 22.5 22.5h7.5v20c0 12.407 10.093 22.5 22.5 22.5h288c12.407 0 22.5-10.093 22.5-22.5v-9.582c0-4.142-3.358-7.5-7.5-7.5s-7.5 3.358-7.5 7.5v9.582c0 4.136-3.364 7.5-7.5 7.5h-288c-4.136 0-7.5-3.364-7.5-7.5v-20h265.5c12.407 0 22.5-10.093 22.5-22.5v-347h7.5c4.136 0 7.5 3.364 7.5 7.5v340.186c0 4.142 3.358 7.5 7.5 7.5z"/><path d="m82 391.139c4.142 0 7.5-3.358 7.5-7.5v-318.639c0-4.135 3.365-7.5 7.5-7.5h13.645v25.18c0 7.896 6.424 14.32 14.32 14.32h86.36c7.896 0 14.32-6.424 14.32-14.32v-25.18h94.038c4.142 0 7.5-3.358 7.5-7.5s-3.358-7.5-7.5-7.5h-96.325c-3.643-7.397-11.258-12.5-20.046-12.5h-5.667v-9.922c0-11.071-9.007-20.078-20.078-20.078h-18.845c-11.071 0-20.078 9.007-20.078 20.078v9.922h-5.667c-8.788 0-16.403 5.103-20.046 12.5h-15.931c-12.407 0-22.5 10.093-22.5 22.5v318.639c0 4.142 3.358 7.5 7.5 7.5zm71.645-371.061c0-2.8 2.278-5.078 5.078-5.078h18.845c2.8 0 5.078 2.278 5.078 5.078v9.922h-29v-9.922zm-20.667 24.922h70.333c4.044 0 7.333 3.29 7.333 7.333v29.667h-85v-29.667c.001-4.043 3.29-7.333 7.334-7.333z"/><path d="m349.5 167h-120c-4.142 0-7.5 3.358-7.5 7.5s3.358 7.5 7.5 7.5h120c4.142 0 7.5-3.358 7.5-7.5s-3.358-7.5-7.5-7.5z"/><path d="m349.5 199h-120c-4.142 0-7.5 3.358-7.5 7.5s3.358 7.5 7.5 7.5h120c4.142 0 7.5-3.358 7.5-7.5s-3.358-7.5-7.5-7.5z"/><path d="m349.5 264h-120c-4.142 0-7.5 3.358-7.5 7.5s3.358 7.5 7.5 7.5h120c4.142 0 7.5-3.358 7.5-7.5s-3.358-7.5-7.5-7.5z"/><path d="m349.5 296h-120c-4.142 0-7.5 3.358-7.5 7.5s3.358 7.5 7.5 7.5h120c4.142 0 7.5-3.358 7.5-7.5s-3.358-7.5-7.5-7.5z"/><path d="m349.5 361h-120c-4.142 0-7.5 3.358-7.5 7.5s3.358 7.5 7.5 7.5h120c4.142 0 7.5-3.358 7.5-7.5s-3.358-7.5-7.5-7.5z"/><path d="m349.5 393h-120c-4.142 0-7.5 3.358-7.5 7.5s3.358 7.5 7.5 7.5h120c4.142 0 7.5-3.358 7.5-7.5s-3.358-7.5-7.5-7.5z"/><path d="m216.204 156.13c-2.689-3.15-7.423-3.524-10.574-.834l-6.929 5.915c-1.918-3.685-5.767-6.211-10.201-6.211h-52c-6.341 0-11.5 5.159-11.5 11.5v52c0 6.341 5.159 11.5 11.5 11.5h52c6.341 0 11.5-5.159 11.5-11.5v-38.675l15.37-13.12c3.15-2.69 3.524-7.424.834-10.575zm-31.204 58.87h-45v-45h45v2.907l-14.882 12.705-7.106-7.699c-2.809-3.044-7.554-3.233-10.598-.424-3.044 2.81-3.233 7.555-.424 10.598l12 13c1.476 1.599 3.49 2.413 5.514 2.413 1.725 0 3.457-.592 4.867-1.796l10.63-9.075v22.371z"/><path d="m216.204 253.83c-2.689-3.15-7.423-3.524-10.574-.834l-6.691 5.711c-1.822-3.952-5.811-6.707-10.44-6.707h-52c-6.341 0-11.5 5.159-11.5 11.5v52c0 6.341 5.159 11.5 11.5 11.5h52c6.341 0 11.5-5.159 11.5-11.5v-37.976l15.37-13.12c3.151-2.69 3.525-7.424.835-10.574zm-31.204 58.17h-45v-45h45v3.607l-14.882 12.705-7.106-7.699c-2.809-3.044-7.554-3.234-10.598-.424s-3.233 7.555-.424 10.598l12 13c1.476 1.599 3.49 2.413 5.514 2.413 1.725 0 3.457-.592 4.867-1.796l10.63-9.075v21.671z"/><path d="m205.63 351.796-6.159 5.258c-1.468-4.663-5.83-8.054-10.971-8.054h-52c-6.341 0-11.5 5.159-11.5 11.5v52c0 6.341 5.159 11.5 11.5 11.5h52c6.341 0 11.5-5.159 11.5-11.5v-36.175l15.37-13.12c3.15-2.689 3.524-7.423.834-10.574-2.689-3.151-7.423-3.525-10.574-.835zm-20.63 57.204h-45v-45h45v5.407l-14.882 12.705-7.106-7.699c-2.809-3.044-7.554-3.234-10.598-.424s-3.233 7.555-.424 10.598l12 13c1.476 1.599 3.49 2.413 5.514 2.413 1.725 0 3.457-.592 4.867-1.796l10.63-9.075v19.871z"/></svg>