<svg id="Capa_1" enable-background="new 0 0 512.001 512.001" height="512" viewBox="0 0 512.001 512.001" width="512" xmlns="http://www.w3.org/2000/svg"><g><path d="m502.968 280.924c-9.723-12.371-25.154-17.959-39.906-15.626-13.449-15.034-35.886-18.55-53.353-7.99l-2.973 1.725c-13.603-12.317-34.127-14.612-50.246-4.884l-87.696 50.86-29.746-3.717 41.528-29.755c11.048-7.909 17.645-20.75 17.645-34.349 0-2.818-.286-5.658-.852-8.449-4.602-22.553-25.971-37.126-48.644-33.19l-8.97 1.56c-36.596 6.365-70.739 20.16-101.483 41.001-3.429 2.324-4.324 6.988-2 10.417s6.987 4.324 10.417 2c28.973-19.641 61.149-32.641 95.637-38.639l8.969-1.56c14.626-2.543 28.409 6.862 31.375 21.401.366 1.803.551 3.64.551 5.46 0 8.771-4.252 17.053-11.378 22.153l-57.11 40.92c-2.51 1.798-3.661 4.951-2.901 7.943s3.276 5.213 6.339 5.596l153.11 19.13c1.677.211 3.375-.153 4.818-1.029l79.47-48.19c11.779-7.143 27.086-4.356 35.602 6.479 3.813 4.856 5.829 10.683 5.829 16.848 0 6.772-2.499 13.269-7.037 18.294l-72.489 80.29c-6.899 7.64-16.322 12.565-26.531 13.867l-215.113 27.387-6.425-11.169-81.058-140.912 34.653-26.62c3.285-2.523 3.902-7.232 1.379-10.517-2.522-3.284-7.232-3.902-10.517-1.379l-39.588 30.411-70.813 45.265c-3.375 2.158-4.459 6.586-2.461 10.059l93.25 162.108c1.022 1.777 2.727 3.058 4.718 3.545.588.144 1.187.215 1.783.215 1.419 0 2.823-.403 4.04-1.181l69.662-44.528 218.387-27.806c13.765-1.755 26.467-8.395 35.768-18.694l72.489-80.289c7.032-7.786 10.904-17.854 10.904-28.347 0-9.421-3.208-18.694-9.033-26.114zm-138.892-13.834c.042-.024.083-.048.124-.073 8.943-5.419 19.998-5.092 28.507.153l-75.638 43.871-23.675-2.958zm6.476 50.633-28.885-3.609 75.629-43.866c.043-.025.086-.05.129-.076 9.451-5.737 21.169-5.074 29.847 1.028zm-267.219 172.108-85.762-149.092 58.417-37.34 80.937 140.696 4.829 8.394z"/><path d="m116.353 422.389c-12.57 0-22.797 10.227-22.797 22.797s10.227 22.797 22.797 22.797 22.797-10.227 22.797-22.797-10.227-22.797-22.797-22.797zm0 30.594c-4.299 0-7.797-3.498-7.797-7.797s3.498-7.797 7.797-7.797 7.797 3.498 7.797 7.797-3.498 7.797-7.797 7.797z"/><path d="m230.678 122.151c3.209 3.125 4.671 7.624 3.911 12.04l-3.81 22.228c-1.856 10.809 2.501 21.528 11.372 27.973 5.013 3.642 10.876 5.492 16.782 5.492 4.545 0 9.115-1.097 13.336-3.316l19.982-10.497c3.954-2.086 8.676-2.088 12.642.006l19.967 10.489c9.704 5.103 21.241 4.271 30.109-2.168 8.873-6.443 13.234-17.163 11.384-27.977l-3.811-22.236c-.759-4.41.701-8.911 3.902-12.035l16.164-15.743c7.852-7.658 10.623-18.893 7.232-29.321-3.39-10.424-12.234-17.877-23.078-19.451l-7.49-1.09c-4.104-.597-7.906 2.243-8.502 6.342s2.243 7.905 6.342 8.502l7.494 1.09c5.233.759 9.334 4.215 10.97 9.245 1.637 5.034.351 10.246-3.437 13.94l-16.166 15.745c-6.74 6.578-9.811 16.044-8.214 25.315l3.81 22.228c.894 5.222-1.13 10.197-5.413 13.308-4.279 3.108-9.629 3.493-14.316 1.028l-19.958-10.484c-8.337-4.399-18.292-4.4-26.618-.006l-19.974 10.492c-4.687 2.464-10.041 2.079-14.322-1.033-4.281-3.11-6.301-8.082-5.405-13.302l3.809-22.224c1.599-9.283-1.477-18.751-8.227-25.325l-16.148-15.738c-3.791-3.697-5.077-8.91-3.44-13.943 1.636-5.03 5.737-8.486 10.974-9.246l22.33-3.25c9.32-1.356 17.368-7.206 21.525-15.641l9.994-20.238c2.335-4.742 6.889-7.573 12.182-7.573s9.852 2.833 12.195 7.581l9.989 20.228c1.023 2.073 2.29 4.011 3.765 5.759 2.671 3.166 7.403 3.565 10.569.894s3.566-7.403.894-10.569c-.692-.82-1.29-1.735-1.777-2.723l-9.99-20.229c-4.854-9.833-14.68-15.94-25.645-15.94-10.972 0-20.796 6.111-25.635 15.939l-9.993 20.235c-1.976 4.01-5.801 6.789-10.233 7.434l-22.326 3.25c-10.848 1.574-19.692 9.027-23.082 19.451-3.391 10.428-.62 21.663 7.234 29.323z"/><path d="m141.436 48.337 19.628 9.605c2.945 1.441 6.082 2.126 9.181 2.126 7.301 0 14.392-3.805 18.254-10.494l1.007-1.745c5.501-9.528 2.659-21.803-6.471-27.943l-18.131-12.195c-4.814-3.237-10.816-4.344-16.468-3.036-5.652 1.309-10.557 4.94-13.458 9.965l-2.502 4.334c-2.9 5.024-3.594 11.087-1.901 16.636 1.692 5.551 5.65 10.196 10.861 12.747zm4.03-21.882 2.502-4.334c.842-1.459 2.21-2.472 3.852-2.852.458-.106.918-.158 1.375-.158 1.179 0 2.33.349 3.337 1.027l18.133 12.195c2.612 1.757 3.426 5.27 1.852 7.997l-1.007 1.745c-1.575 2.727-5.023 3.779-7.851 2.395l-19.628-9.605c-1.513-.741-2.617-2.036-3.108-3.647s-.3-3.304.543-4.763z"/><path d="m455.693 170.898-19.628-9.605c-9.883-4.834-21.933-1.16-27.434 8.367l-1.007 1.744s0 .001-.001.001c-5.5 9.528-2.658 21.802 6.471 27.942l18.132 12.196c3.488 2.346 7.601 3.573 11.751 3.573 1.578 0 3.161-.177 4.717-.538 5.652-1.309 10.557-4.941 13.458-9.965l2.502-4.334c2.901-5.024 3.594-11.088 1.901-16.637-1.692-5.549-5.651-10.194-10.862-12.744zm-4.03 21.881-2.502 4.334c-.842 1.459-2.21 2.472-3.851 2.852-1.64.379-3.314.071-4.713-.869l-18.132-12.196c-2.612-1.757-3.426-5.269-1.853-7.996l1.008-1.745c1.575-2.727 5.023-3.779 7.851-2.395l19.628 9.605c1.513.74 2.617 2.035 3.108 3.646.492 1.614.299 3.305-.544 4.764z"/><path d="m115.525 127.478c3.893 3.635 9.058 5.654 14.356 5.654.473 0 .949-.016 1.423-.049l21.8-1.496c10.978-.752 19.576-9.961 19.576-20.964v-2.014c0-11.002-8.599-20.211-19.576-20.964l-21.801-1.495c-5.791-.403-11.54 1.646-15.78 5.605s-6.672 9.557-6.672 15.358v5.005c.002 5.803 2.434 11.401 6.674 15.36zm8.328-20.364c0-1.685.678-3.245 1.909-4.395 1.127-1.052 2.566-1.619 4.091-1.619.141 0 .283.005.425.015l21.801 1.495c3.141.215 5.602 2.851 5.602 6v2.014c0 3.148-2.46 5.784-5.602 5.999l-21.801 1.496c-1.687.114-3.285-.455-4.516-1.604-1.231-1.15-1.909-2.71-1.909-4.395z"/><path d="m465.826 86.151-21.801 1.495c-10.977.753-19.575 9.962-19.575 20.964v2.014c0 11.003 8.599 20.211 19.575 20.964l21.801 1.496c.475.033.95.049 1.423.049 5.298 0 10.463-2.02 14.356-5.654 4.24-3.959 6.672-9.557 6.672-15.358v-5.005c0-5.801-2.432-11.399-6.672-15.358-4.24-3.961-9.988-6.005-15.779-5.607zm5.542 16.568c1.231 1.15 1.909 2.71 1.909 4.395v5.005c0 1.685-.678 3.245-1.909 4.395s-2.831 1.723-4.516 1.604l-21.802-1.496c-3.141-.215-5.601-2.851-5.601-5.999v-2.014c0-3.149 2.46-5.784 5.602-6l21.801-1.495c.143-.01.284-.015.425-.015 1.525.002 2.964.568 4.091 1.62z"/><path d="m161.065 161.292-19.628 9.605c-5.21 2.55-9.169 7.195-10.862 12.744-1.692 5.549-1 11.613 1.901 16.637l2.503 4.335c2.901 5.024 7.806 8.656 13.458 9.965 1.557.36 3.14.538 4.717.538 4.151 0 8.263-1.227 11.75-3.573l18.133-12.196c9.13-6.14 11.972-18.414 6.47-27.944l-1.007-1.744v.001c-5.502-9.528-17.551-13.203-27.435-8.368zm13.6 25.609-18.133 12.196c-1.398.939-3.072 1.247-4.712.869-1.642-.38-3.009-1.393-3.851-2.851l-2.503-4.335c-.842-1.459-1.035-3.15-.544-4.761.492-1.611 1.595-2.906 3.108-3.646l19.628-9.605c.842-.413 1.74-.608 2.626-.608 2.09 0 4.119 1.089 5.224 3.003v.001l1.007 1.743c1.576 2.724.762 6.237-1.85 7.994z"/><path d="m408.63 49.574c3.862 6.69 10.952 10.495 18.254 10.494 3.099 0 6.236-.686 9.181-2.126l19.628-9.606c5.211-2.55 9.17-7.195 10.862-12.745 1.692-5.549.999-11.612-1.901-16.636l-2.503-4.335c-2.901-5.024-7.806-8.656-13.458-9.965-5.653-1.308-11.654-.203-16.468 3.035l-18.133 12.196c-9.129 6.141-11.971 18.415-6.47 27.943zm13.835-17.241 18.133-12.196c1.007-.678 2.158-1.027 3.337-1.027.457 0 .917.052 1.375.158 1.641.38 3.009 1.393 3.851 2.851l2.503 4.335c.842 1.459 1.035 3.149.544 4.761s-1.595 2.907-3.108 3.647l-19.627 9.605c-2.826 1.385-6.276.333-7.852-2.395l-1.007-1.744c-1.575-2.725-.762-6.238 1.851-7.995z"/></g></svg>