<svg height="512" viewBox="0 0 128 128" width="512" xmlns="http://www.w3.org/2000/svg"><g id="Layer_2" data-name="Layer 2"><rect fill="#57a4ff" height="8.899" rx="1.998" width="85.667" x="21.167" y="1.75"/><rect fill="#57a4ff" height="8.899" rx="1.998" width="85.667" x="21.167" y="117.351"/><path d="m98.414 10.649h-68.828v27.99a9.971 9.971 0 0 0 3.514 7.6l20.889 17.761-20.889 17.765a9.971 9.971 0 0 0 -3.514 7.6v27.99h68.828v-27.993a9.971 9.971 0 0 0 -3.514-7.6l-20.892-17.762 20.892-17.765a9.971 9.971 0 0 0 3.514-7.6z" fill="#fff5cc"/><path d="m88.414 38.638v-4a6 6 0 0 0 -6-6h-36.829a6 6 0 0 0 -6 6v4l21.415 18.209v38.507h-15.414a6 6 0 0 0 -6 6v6.017h48.828v-6.028a5.988 5.988 0 0 0 -5.988-5.989h-15.426v-38.505z" fill="#ffe477"/><g fill="#231f20"><path d="m42.838 3.5h4.995a1.75 1.75 0 0 0 0-3.5h-4.995a1.75 1.75 0 0 0 0 3.5z"/><path d="m100.164 38.639v-26.239h4.671a3.752 3.752 0 0 0 3.748-3.748v-4.9a3.753 3.753 0 0 0 -3.748-3.752h-46.335a1.75 1.75 0 0 0 0 3.5h46.335a.248.248 0 0 1 .248.248v4.9a.248.248 0 0 1 -.248.248h-81.67a.248.248 0 0 1 -.248-.248v-4.9a.248.248 0 0 1 .248-.248h9.006a1.75 1.75 0 0 0 0-3.5h-9.006a3.753 3.753 0 0 0 -3.748 3.748v4.9a3.752 3.752 0 0 0 3.748 3.752h4.671v26.24a11.7 11.7 0 0 0 4.13 8.929l19.322 16.431-19.322 16.432a11.7 11.7 0 0 0 -4.13 8.929v26.239h-4.671a3.752 3.752 0 0 0 -3.748 3.748v4.9a3.753 3.753 0 0 0 3.748 3.752h81.67a3.753 3.753 0 0 0 3.748-3.748v-4.9a3.752 3.752 0 0 0 -3.748-3.748h-4.671v-21.229a1.75 1.75 0 0 0 -3.5 0v21.225h-65.328v-26.239a8.211 8.211 0 0 1 2.9-6.263l20.89-17.765a1.75 1.75 0 0 0 0-2.666l-20.893-17.767a8.211 8.211 0 0 1 -2.9-6.263v-26.237h65.331v26.24a8.212 8.212 0 0 1 -2.9 6.263l-20.89 17.764a1.75 1.75 0 0 0 0 2.666l20.892 17.767a1.75 1.75 0 0 0 2.267-2.666l-19.324-16.434 19.324-16.432a11.7 11.7 0 0 0 4.131-8.929zm-1.75 80.461h6.421a.248.248 0 0 1 .248.248v4.9a.248.248 0 0 1 -.248.248h-81.67a.248.248 0 0 1 -.248-.248v-4.9a.248.248 0 0 1 .248-.248z"/><path d="m45.586 93.6a7.759 7.759 0 0 0 -7.75 7.75v6.017a1.749 1.749 0 0 0 1.75 1.75h48.828a1.749 1.749 0 0 0 1.75-1.75v-6.028a7.748 7.748 0 0 0 -7.738-7.739h-13.679v-35.942l20.8-17.687a1.752 1.752 0 0 0 .616-1.333v-4a7.759 7.759 0 0 0 -7.75-7.75h-36.828a7.759 7.759 0 0 0 -7.75 7.75v4a1.752 1.752 0 0 0 .616 1.333l20.8 17.684v35.945zm16.545-38.085-20.796-17.685v-3.193a4.256 4.256 0 0 1 4.25-4.251h36.829a4.254 4.254 0 0 1 4.25 4.25v3.193l-20.8 17.688a1.751 1.751 0 0 0 -.616 1.333v38.5a1.749 1.749 0 0 0 1.752 1.75h15.426a4.243 4.243 0 0 1 4.238 4.239v4.278h-45.328v-4.267a4.255 4.255 0 0 1 4.25-4.25h15.414a1.749 1.749 0 0 0 1.75-1.75v-38.502a1.751 1.751 0 0 0 -.619-1.333z"/></g></g></svg>