<svg id="Capa_1" enable-background="new 0 0 512 512" height="512" viewBox="0 0 512 512" width="512" xmlns="http://www.w3.org/2000/svg"><g><g><path d="m211.828 52.764 15.716 8.595 8.594 15.714c2.195 4.013 6.4 6.507 10.974 6.507s8.779-2.493 10.974-6.506l8.595-15.715 15.715-8.595c4.013-2.195 6.506-6.4 6.506-10.974s-2.493-8.779-6.506-10.974l-15.715-8.595-8.595-15.715c-2.195-4.013-6.4-6.506-10.974-6.506s-8.779 2.493-10.974 6.507l-8.594 15.714-15.715 8.595c-4.013 2.195-6.507 6.4-6.507 10.974s2.493 8.779 6.506 10.974zm23.558-17.725c2.103-1.149 3.823-2.869 4.974-4.973l6.751-12.344 6.752 12.346c1.151 2.103 2.87 3.822 4.971 4.97l12.345 6.752-12.343 6.751c-2.102 1.149-3.822 2.868-4.973 4.972l-6.752 12.345-6.752-12.346c-1.151-2.103-2.87-3.822-4.971-4.97l-12.345-6.752z"/><path d="m499.141 209.734-11.2-6.126-6.126-11.201s0 0 0-.001c-1.844-3.371-5.377-5.464-9.219-5.464s-7.374 2.095-9.217 5.465l-6.126 11.201-11.201 6.126c-3.371 1.843-5.465 5.375-5.466 9.217 0 3.842 2.094 7.375 5.465 9.219l11.202 6.126 6.125 11.2c1.844 3.371 5.376 5.465 9.217 5.466h.001c3.842 0 7.374-2.094 9.218-5.465l6.126-11.201 11.202-6.126c3.371-1.844 5.464-5.376 5.464-9.219 0-3.842-2.094-7.374-5.465-9.217zm-19.561 12.027c-1.765.965-3.21 2.41-4.175 4.176l-2.808 5.134-2.809-5.135c-.965-1.765-2.41-3.209-4.176-4.176l-5.134-2.808 5.135-2.809c1.766-.966 3.21-2.41 4.176-4.177l2.808-5.134 2.808 5.135c.966 1.766 2.41 3.21 4.176 4.176l5.134 2.809z"/><path d="m321.739 48.572c6.048 0 10.95-4.903 10.95-10.95 0-6.048-4.903-10.95-10.95-10.95s-10.95 4.903-10.95 10.95 4.902 10.95 10.95 10.95z"/><path d="m147.338 127.477c6.048 0 10.95-4.903 10.95-10.95s-4.903-10.95-10.95-10.95c-6.048 0-10.95 4.903-10.95 10.95s4.902 10.95 10.95 10.95z"/><path d="m93.828 105.577c6.048 0 10.95-4.903 10.95-10.95 0-6.048-4.903-10.95-10.95-10.95-6.048 0-10.95 4.903-10.95 10.95s4.903 10.95 10.95 10.95z"/><path d="m281.642 306.746c3.334-3.19 5.423-7.671 5.423-12.638v-68.074l44.085-19.465c4.482 7.584 14.164 10.611 22.097 7.044l108.937-48.1c5.502-2.429 9.728-6.855 11.9-12.463 2.173-5.608 2.032-11.726-.398-17.227l-3.812-8.635c-1.673-3.792-6.106-5.508-9.896-3.834-3.791 1.674-5.508 6.105-3.834 9.896l3.812 8.635c.81 1.834.857 3.873.132 5.742-.724 1.869-2.133 3.344-3.967 4.155l-72.166 31.864-40.681-92.135 72.166-31.864c3.787-1.673 8.226.049 9.897 3.834l16.955 38.4c1.674 3.792 6.105 5.509 9.896 3.834 3.791-1.674 5.508-6.105 3.834-9.896l-16.955-38.4c-5.014-11.356-18.334-16.515-29.69-11.502l-108.935 48.099c-4.279 1.889-7.566 5.332-9.256 9.693-1.428 3.688-1.556 7.656-.424 11.381l-26.682 11.781c-3.792 1.674-5.508 6.105-3.834 9.896 1.676 3.83 6.196 5.495 9.896 3.834l26.55-11.723 28.265 64.016-68.192 30.109c-4.473-7.521-11.274-13.305-19.562-16.516-9.803-3.797-20.496-3.551-30.11.696-18.357 8.105-27.439 28.624-21.77 47.364l-12.093 5.34c-.827.364-1.554.184-1.915.044s-1.021-.497-1.385-1.322l-26.244-59.439c-.364-.824-.184-1.553-.044-1.914s.497-1.02 1.322-1.385l93.566-41.313c3.792-1.674 5.508-6.105 3.834-9.896-1.674-3.792-6.105-5.508-9.896-3.834l-93.566 41.313c-4.279 1.889-7.566 5.332-9.256 9.693-1.69 4.362-1.58 9.12.31 13.399l1.509 3.418-30.52 13.476c-2.801-5.271-9.252-7.578-14.797-5.128l-3.038 1.341-18.454-41.793 1.55-.684c3.792-1.674 5.508-6.105 3.834-9.896-1.673-3.792-6.105-5.508-9.896-3.834l-48.276 21.315c-3.792 1.674-5.508 6.105-3.834 9.896 1.239 2.806 3.987 4.476 6.869 4.476 1.012 0 4.303-1.205 4.303-1.205l18.453 41.794-7.445 3.287c-4.232 1.868-6.924 6.064-6.858 10.69s2.875 8.744 7.159 10.492l81.523 33.26c4.313 1.77 9.3.768 12.599-2.635 3.287-3.381 4.18-8.354 2.275-12.668l-2.703-6.121 30.481-13.458 1.509 3.417c2.888 6.54 9.316 10.438 16.044 10.438 2.359 0 4.755-.479 7.048-1.492l13.037-5.756c4.279 5.333 9.896 9.478 16.443 12.014.674.261 1.354.497 2.036.72v13.512c0 4.968 2.089 9.448 5.423 12.638l-59.83 140.574c-1.623 3.813.152 8.221 3.966 9.844 3.72 1.611 8.22-.114 9.844-3.966l24.85-58.386h46.37v88.292c0 4.145 3.36 7.505 7.505 7.505s7.505-3.36 7.505-7.505v-88.292h46.37l47.932 112.62c1.624 3.853 6.124 5.577 9.844 3.966 3.814-1.623 5.59-6.031 3.966-9.844zm23.583-195.701c-.364-.824-.184-1.553-.044-1.914s.497-1.02 1.322-1.385l23.05-10.177 40.681 92.135-23.049 10.177c-1.261.558-2.742-.016-3.299-1.278zm-272.287 79.507 17.989-7.943 18.454 41.793-17.989 7.943zm10.884 61.544 45.185-19.951 20.672 46.82zm74.326 8.887-11.101-25.143 30.481-13.458 11.101 25.143zm96.046 4.897c-6.063-2.349-10.848-6.918-13.474-12.866-5.421-12.278.157-26.678 12.436-32.1 3.149-1.39 6.483-2.087 9.824-2.087 2.972 0 5.948.551 8.801 1.657 6.063 2.349 10.848 6.917 13.474 12.866 2.626 5.948 2.779 12.562.43 18.625s-6.918 10.848-12.866 13.474c-5.947 2.627-12.561 2.78-18.625.431zm27.237 113.922h-39.982l29.019-68.183h10.963zm-13.112-83.192c-1.379 0-2.502-1.122-2.502-2.502v-11.668c4.451-.324 8.862-1.403 13.065-3.259 9.616-4.245 17.002-11.981 20.799-21.783 2.536-6.546 3.258-13.489 2.2-20.244l10.174-4.492v61.447c0 1.379-1.122 2.502-2.502 2.502h-41.234zm28.122 83.192v-68.183h10.963l29.019 68.183z"/><path d="m233.994 243.458c0-6.048-4.903-10.95-10.95-10.95s-10.95 4.902-10.95 10.95 4.903 10.95 10.95 10.95 10.95-4.903 10.95-10.95z"/></g><path d="m153.123 474.185c-3.814-1.626-8.221.152-9.844 3.966l-9.96 23.403c-1.623 3.813.152 8.221 3.966 9.844 3.72 1.611 8.22-.114 9.844-3.966l9.96-23.403c1.623-3.813-.152-8.221-3.966-9.844z"/></g></svg>