<svg width="78" height="80" viewBox="0 0 78 80" fill="none" xmlns="http://www.w3.org/2000/svg">
<path d="M32.0983 8.24437L34.554 9.58734L35.8968 12.0427C36.2397 12.6697 36.8968 13.0594 37.6115 13.0594C38.3261 13.0594 38.9832 12.6698 39.3261 12.0428L40.6691 9.58734L43.1246 8.24437C43.7516 7.90141 44.1411 7.24438 44.1411 6.52969C44.1411 5.815 43.7516 5.15797 43.1246 4.815L40.6691 3.47203L39.3261 1.01656C38.9832 0.389531 38.3261 0 37.6115 0C36.8968 0 36.2397 0.389531 35.8968 1.01672L34.554 3.47203L32.0985 4.815C31.4715 5.15797 31.0818 5.815 31.0818 6.52969C31.0818 7.24438 31.4713 7.90141 32.0983 8.24437V8.24437ZM35.7793 5.47484C36.1079 5.29531 36.3766 5.02656 36.5565 4.69781L37.6113 2.76906L38.6663 4.69813C38.8461 5.02672 39.1147 5.29531 39.443 5.47469L41.3719 6.52969L39.4433 7.58453C39.1149 7.76406 38.8461 8.03266 38.6663 8.36141L37.6113 10.2903L36.5563 8.36125C36.3765 8.03266 36.1079 7.76406 35.7796 7.58469L33.8507 6.52969L35.7793 5.47484Z" fill="white"/>
<path d="M76.991 32.7709L75.241 31.8137L74.2838 30.0636C74.2838 30.0636 74.2838 30.0636 74.2838 30.0634C73.9957 29.5367 73.4437 29.2097 72.8434 29.2097C72.2431 29.2097 71.6912 29.537 71.4032 30.0636L70.446 31.8137L68.6959 32.7709C68.1691 33.0589 67.842 33.6107 67.8418 34.2111C67.8418 34.8114 68.169 35.3634 68.6957 35.6515L70.446 36.6087L71.403 38.3587C71.6912 38.8854 72.243 39.2126 72.8432 39.2128H72.8434C73.4437 39.2128 73.9955 38.8856 74.2837 38.3589L75.2409 36.6087L76.9912 35.6515C77.5179 35.3634 77.8449 34.8115 77.8449 34.2111C77.8449 33.6107 77.5177 33.0589 76.991 32.7709ZM73.9346 34.6501C73.6588 34.8009 73.433 35.0267 73.2823 35.3026L72.8435 36.1048L72.4046 35.3025C72.2538 35.0267 72.028 34.8011 71.7521 34.65L70.9499 34.2112L71.7523 33.7723C72.0282 33.6214 72.2538 33.3957 72.4048 33.1197L72.8435 32.3175L73.2823 33.1198C73.4332 33.3957 73.6588 33.6214 73.9348 33.7723L74.737 34.2112L73.9346 34.6501Z" fill="white"/>
<path d="M49.272 7.58942C50.217 7.58942 50.9829 6.82332 50.9829 5.87848C50.9829 4.93348 50.2168 4.16754 49.272 4.16754C48.3271 4.16754 47.561 4.93364 47.561 5.87848C47.561 6.82332 48.327 7.58942 49.272 7.58942Z" fill="white"/>
<path d="M22.0217 19.9182C22.9667 19.9182 23.7327 19.1521 23.7327 18.2073C23.7327 17.2624 22.9666 16.4963 22.0217 16.4963C21.0767 16.4963 20.3108 17.2624 20.3108 18.2073C20.3108 19.1521 21.0767 19.9182 22.0217 19.9182Z" fill="white"/>
<path d="M13.6609 16.4964C14.6059 16.4964 15.3718 15.7303 15.3718 14.7855C15.3718 13.8405 14.6057 13.0746 13.6609 13.0746C12.7159 13.0746 11.95 13.8406 11.95 14.7855C11.95 15.7303 12.716 16.4964 13.6609 16.4964Z" fill="white"/>
<path d="M43.0067 47.9291C43.5277 47.4306 43.8541 46.7305 43.8541 45.9544V35.3178L50.7424 32.2764C51.4427 33.4614 52.9555 33.9344 54.195 33.377L71.2164 25.8614C72.0761 25.4819 72.7364 24.7903 73.0758 23.9141C73.4153 23.0378 73.3933 22.0819 73.0136 21.2223L72.418 19.8731C72.1566 19.2806 71.4639 19.0125 70.8717 19.2741C70.2794 19.5356 70.0111 20.228 70.2727 20.8203L70.8683 22.1695C70.9949 22.4561 71.0022 22.7747 70.8889 23.0667C70.7758 23.3587 70.5557 23.5892 70.2691 23.7159L58.9931 28.6947L52.6367 14.2986L63.9127 9.31983C64.5044 9.05843 65.198 9.32749 65.4591 9.9189L68.1083 15.9189C68.3699 16.5114 69.0622 16.7797 69.6546 16.518C70.2469 16.2564 70.5152 15.5641 70.2536 14.9717L67.6044 8.97171C66.821 7.19733 64.7397 6.39124 62.9653 7.17452L45.9442 14.69C45.2756 14.9851 44.7621 15.5231 44.498 16.2045C44.2749 16.7808 44.2549 17.4008 44.4317 17.9828L40.2627 19.8236C39.6702 20.0851 39.402 20.7775 39.6636 21.3698C39.9255 21.9683 40.6317 22.2284 41.2099 21.9689L45.3583 20.1372L49.7747 30.1397L39.1197 34.8442C38.4208 33.6691 37.3581 32.7653 36.0631 32.2636C34.5314 31.6703 32.8606 31.7087 31.3585 32.3723C28.4902 33.6387 27.0711 36.8448 27.9569 39.773L26.0674 40.6073C25.9381 40.6642 25.8245 40.6361 25.7681 40.6142C25.7117 40.5923 25.6086 40.5366 25.5517 40.4076L21.4511 31.1203C21.3942 30.9916 21.4224 30.8776 21.4442 30.8212C21.4661 30.7648 21.5219 30.6619 21.6508 30.6048L36.2705 24.1497C36.863 23.8881 37.1311 23.1958 36.8695 22.6034C36.608 22.0109 35.9156 21.7428 35.3233 22.0044L20.7036 28.4595C20.035 28.7547 19.5214 29.2926 19.2574 29.9741C18.9933 30.6556 19.0105 31.3991 19.3058 32.0676L19.5416 32.6017L14.7728 34.7073C14.3352 33.8837 13.3272 33.5233 12.4608 33.9061L11.9861 34.1156L9.10267 27.5855L9.34486 27.4786C9.93736 27.217 10.2055 26.5247 9.94392 25.9323C9.68251 25.3398 8.99001 25.0717 8.39767 25.3333L0.854543 28.6637C0.262043 28.9253 -0.00608238 29.6176 0.25548 30.21C0.449074 30.6484 0.878449 30.9094 1.32876 30.9094C1.48689 30.9094 2.00111 30.7211 2.00111 30.7211L4.88439 37.2514L3.72111 37.765C3.05986 38.0569 2.63923 38.7125 2.64954 39.4353C2.65986 40.1581 3.09876 40.8015 3.76814 41.0747L16.5061 46.2716C17.18 46.5481 17.9592 46.3915 18.4747 45.8598C18.9883 45.3315 19.1278 44.5545 18.8302 43.8805L18.4078 42.924L23.1705 40.8212L23.4063 41.3551C23.8575 42.377 24.8619 42.9861 25.9131 42.9861C26.2817 42.9861 26.6561 42.9112 27.0144 42.753L29.0514 41.8536C29.72 42.6869 30.5977 43.3345 31.6206 43.7308C31.726 43.7716 31.8322 43.8084 31.9388 43.8433V45.9545C31.9388 46.7308 32.2652 47.4308 32.7861 47.9292L23.4377 69.8939C23.1841 70.4897 23.4614 71.1784 24.0574 71.432C24.6386 71.6837 25.3417 71.4142 25.5955 70.8123L29.4783 61.6895H36.7236V75.4851C36.7236 76.1328 37.2486 76.6578 37.8963 76.6578C38.5439 76.6578 39.0689 76.1328 39.0689 75.4851V61.6895H46.3142L53.8036 79.2864C54.0574 79.8884 54.7605 80.1578 55.3417 79.9061C55.9377 79.6525 56.2152 78.9637 55.9614 78.368L43.0067 47.9291ZM46.6916 17.3508C46.6347 17.222 46.6628 17.1081 46.6847 17.0517C46.7066 16.9953 46.7624 16.8923 46.8913 16.8353L50.4928 15.2451L56.8492 29.6412L53.2478 31.2314C53.0508 31.3186 52.8194 31.2289 52.7324 31.0317L46.6916 17.3508ZM4.14673 29.7737L6.95751 28.5326L9.84095 35.0628L7.03017 36.3039L4.14673 29.7737ZM5.84736 39.39L12.9075 36.2726L16.1375 43.5883L5.84736 39.39ZM17.4608 40.7786L15.7263 36.85L20.4889 34.7472L22.2235 38.6758L17.4608 40.7786ZM32.468 41.5437C31.5206 41.1767 30.773 40.4628 30.3627 39.5334C29.5156 37.615 30.3872 35.365 32.3058 34.5178C32.7978 34.3006 33.3188 34.1917 33.8408 34.1917C34.3052 34.1917 34.7702 34.2778 35.216 34.4506C36.1633 34.8176 36.911 35.5314 37.3213 36.4609C37.7316 37.3903 37.7555 38.4237 37.3885 39.3711C37.0214 40.3184 36.3075 41.0661 35.3781 41.4764C34.4489 41.8869 33.4155 41.9108 32.468 41.5437V41.5437ZM36.7238 59.3441H30.4766L35.0108 48.6905H36.7238V59.3441ZM34.675 46.3453C34.4595 46.3453 34.2841 46.17 34.2841 45.9544V44.1312C34.9795 44.0806 35.6688 43.912 36.3255 43.622C37.828 42.9587 38.982 41.75 39.5753 40.2184C39.9716 39.1956 40.0844 38.1108 39.9191 37.0553L41.5088 36.3534V45.9545C41.5088 46.17 41.3335 46.3455 41.1178 46.3455H34.675V46.3453ZM39.0691 59.3441V48.6905H40.7821L45.3163 59.3441H39.0691Z" fill="white"/>
<path d="M35.5615 38.0402C35.5615 37.0952 34.7954 36.3293 33.8506 36.3293C32.9057 36.3293 32.1396 37.0952 32.1396 38.0402C32.1396 38.9852 32.9057 39.7512 33.8506 39.7512C34.7954 39.7512 35.5615 38.9851 35.5615 38.0402Z" fill="white"/>
<path d="M22.9256 74.0914C22.3297 73.8374 21.6411 74.1152 21.3875 74.7111L19.8313 78.3678C19.5777 78.9636 19.855 79.6523 20.451 79.9059C21.0322 80.1577 21.7353 79.8881 21.9891 79.2863L23.5453 75.6295C23.7989 75.0338 23.5216 74.345 22.9256 74.0914Z" fill="white"/>
</svg>
