<svg width="65" height="79" viewBox="0 0 65 79" fill="none" xmlns="http://www.w3.org/2000/svg">
<path d="M58.6267 66.1411C50.6913 71.1504 41.5044 73.7978 32.0606 73.7978C28.9532 73.7978 25.8435 73.5111 22.8175 72.9444C21.6234 72.7196 20.4717 73.5088 20.2469 74.704C20.0232 75.8992 20.8113 77.0498 22.0065 77.2734C25.2998 77.8906 28.6825 78.2026 32.0606 78.2026C42.3383 78.2026 52.3373 75.32 60.977 69.8657C62.9454 68.6234 64.12 66.4875 64.12 64.151C64.12 55.5801 60.7866 47.5288 54.7324 41.4814C51.0675 37.8166 46.6719 35.1485 41.876 33.6126C46.9381 30.3664 50.3036 24.6929 50.3036 18.2453C50.3036 8.18548 42.1192 0 32.0606 0C22.0019 0 13.8176 8.18548 13.8176 18.2453C13.8176 24.6987 17.1877 30.3767 22.2577 33.6206C9.36008 37.773 0 49.8883 0 64.151C0 66.4875 1.1746 68.6234 3.14297 69.8657C6.0267 71.6861 9.09626 73.2392 12.2645 74.4803C13.3978 74.9242 14.6745 74.3656 15.1184 73.2335C15.5623 72.1013 15.0037 70.8235 13.8715 70.3796C10.9614 69.2394 8.1419 67.8136 5.49331 66.1411C4.81195 65.711 4.40474 64.9665 4.40474 64.151C4.40474 48.8984 16.8103 36.4906 32.0594 36.4906C39.4454 36.4906 46.3909 39.3685 51.6181 44.5969C56.8396 49.8126 59.7153 56.7581 59.7153 64.151C59.7153 64.9665 59.3092 65.711 58.6267 66.1411ZM18.2223 18.2453C18.2223 10.6138 24.4303 4.40474 32.0606 4.40474C39.6909 4.40474 45.8988 10.6138 45.8988 18.2453C45.8988 25.8767 39.6909 32.0858 32.0606 32.0858C24.4303 32.0858 18.2223 25.8767 18.2223 18.2453Z" fill="white"/>
</svg>
