<svg id="Capa_1" enable-background="new 0 0 512 512" height="512" viewBox="0 0 512 512" width="512" xmlns="http://www.w3.org/2000/svg"><path d="m421.331 70.564v-8.361c0-.709.108-1.414.319-2.09l15.064-48.184c2.758-5.933 11.209-5.884 13.899.08l14.584 48.131c.2.659.301 1.343.301 2.032v8.393h-44.167z" fill="#fceed9"/><path d="m444.883 7.614c2.366.379 4.577 1.839 5.729 4.394l14.584 48.131c.2.659.301 1.343.301 2.032v8.393h-20.614z" fill="#fae2c0"/><path d="m426.701 43.955 10.013-32.028c2.758-5.933 11.209-5.884 13.899.08l9.68 31.947h-33.592z" fill="#695e66"/><path d="m444.883 7.614c2.366.379 4.577 1.84 5.729 4.394l9.68 31.947h-15.409z" fill="#554e57"/><path d="m360.871 427.651h-274.722c-7.661 0-13.871-6.21-13.871-13.871v-363.823c0-7.661 6.21-13.871 13.871-13.871h274.723c7.661 0 13.871 6.21 13.871 13.871v363.823c-.001 7.661-6.211 13.871-13.872 13.871z" fill="#2bb080"/><path d="m360.023 36.086h-37.693v276.657c0 35.344-28.652 63.995-63.995 63.995h-186.057v36.193c0 8.129 6.59 14.72 14.72 14.72h273.025c8.129 0 14.72-6.59 14.72-14.72v-362.125c-.001-8.13-6.591-14.72-14.72-14.72z" fill="#09a66d"/><path d="m471.418 410.34-88.808 88.808c-7.135 7.135-18.704 7.135-25.839 0l-150.168-150.167c-7.135-7.135-7.135-18.704 0-25.839l88.808-88.808c7.135-7.135 18.704-7.135 25.839 0l150.168 150.168c7.135 7.135 7.135 18.703 0 25.838z" fill="#695e66"/><path d="m471.407 384.49-150.146-150.146c-7.141-7.141-18.72-7.141-25.861 0l-9.405 9.405 97.913 97.913c30.794 30.794 30.794 80.722 0 111.517l-36.554 36.554 9.405 9.405c7.141 7.141 18.72 7.141 25.861 0l88.786-88.786c7.143-7.142 7.143-18.72.001-25.862z" fill="#554e57"/><path d="m311.995 297.883-45.039 12.068c-3.966 1.063-5.294 6.02-2.391 8.923l32.971 32.971c2.903 2.903 7.86 1.575 8.923-2.391l12.068-45.039c1.063-3.966-2.566-7.595-6.532-6.532z" fill="#c8c1c9"/><path d="m311.988 297.885-11.54 3.092c1.234 1.271 1.853 3.141 1.329 5.097l-10.568 39.442 6.323 6.323c2.906 2.906 7.867 1.576 8.93-2.393l12.064-45.024c1.063-3.969-2.569-7.601-6.538-6.537z" fill="#a698a6"/><path d="m421.331 70.473v194.06c0 12.196 9.887 22.083 22.083 22.083s22.083-9.887 22.083-22.083v-194.06z" fill="#304ec7"/><path d="m444.807 70.473v174.103c0 12.196-9.887 22.083-22.083 22.083-.435 0-.86-.04-1.289-.065 1.041 11.229 10.479 20.022 21.979 20.022 12.196 0 22.083-9.887 22.083-22.083v-194.06z" fill="#2740ad"/><path d="m119.063 420.145h-32.903c-3.516 0-6.376-2.86-6.376-6.376v-45.387h12.573c4.146 0 7.506-3.361 7.506-7.506 0-4.146-3.361-7.506-7.506-7.506h-12.573v-31.746h12.573c4.146 0 7.506-3.361 7.506-7.506 0-.009-.001-.017-.001-.025s.001-.017.001-.025c0-4.146-3.361-7.506-7.506-7.506h-12.573v-31.694h12.573c4.146 0 7.506-3.361 7.506-7.506 0-.009-.001-.017-.001-.026s.001-.017.001-.026c0-4.146-3.361-7.506-7.506-7.506h-12.573v-31.695h12.573c4.146 0 7.506-3.361 7.506-7.506 0-.009-.001-.017-.001-.025 0-.009.001-.017.001-.025 0-4.146-3.361-7.506-7.506-7.506h-12.573v-31.695h12.573c4.146 0 7.506-3.361 7.506-7.506 0-.009-.001-.017-.001-.025 0-.009.001-.017.001-.025 0-4.146-3.361-7.506-7.506-7.506h-12.573v-31.7h12.573c4.146 0 7.506-3.361 7.506-7.506 0-.009-.001-.017-.001-.025s.001-.017.001-.025c0-4.146-3.361-7.506-7.506-7.506h-12.573v-31.747h12.573c4.146 0 7.506-3.361 7.506-7.506s-3.361-7.506-7.506-7.506h-33.716c-17.044 0-30.911 13.867-30.911 30.911 0 9.333 4.164 17.706 10.724 23.379-6.56 5.672-10.724 14.046-10.724 23.379s4.164 17.707 10.724 23.379c-6.56 5.672-10.724 14.046-10.724 23.379s4.164 17.707 10.724 23.379c-6.56 5.672-10.724 14.046-10.724 23.379s4.163 17.707 10.724 23.379c-6.56 5.673-10.724 14.046-10.724 23.379s4.164 17.706 10.724 23.379c-6.56 5.673-10.724 14.046-10.724 23.379 0 17.044 13.867 30.911 30.911 30.911h6.13v45.387c0 11.794 9.595 21.389 21.389 21.389h32.903c4.146 0 7.506-3.361 7.506-7.506 0-4.146-3.361-7.506-7.506-7.506zm-76.32-316.466c0-8.766 7.132-15.898 15.898-15.898h6.13v31.746h-6.13c-.224 0-.445.012-.668.017-8.455-.354-15.23-7.324-15.23-15.865zm0 46.758c0-8.541 6.775-15.51 15.23-15.864.223.005.444.017.668.017h6.13v31.695h-6.13c-.224 0-.445.012-.668.017-8.455-.354-15.23-7.323-15.23-15.865zm0 46.759c0-8.541 6.775-15.51 15.23-15.864.223.005.444.017.668.017h6.13v31.695h-6.13c-.224 0-.445.012-.668.017-8.455-.355-15.23-7.324-15.23-15.865zm0 46.758c0-8.541 6.775-15.51 15.23-15.864.223.005.444.017.668.017h6.13v31.695h-6.13c-.226 0-.45.012-.675.017-8.451-.358-15.223-7.326-15.223-15.865zm0 46.759c0-8.539 6.771-15.507 15.223-15.864.225.005.448.017.675.017h6.13v31.694h-6.13c-.224 0-.445.012-.668.017-8.455-.354-15.23-7.324-15.23-15.864zm15.898 62.656c-8.766 0-15.898-7.132-15.898-15.898 0-8.541 6.775-15.511 15.23-15.865.223.005.444.017.668.017h6.13v31.746z"/><path d="m484.269 397.421c0-6.89-2.683-13.367-7.554-18.238l-94.467-94.467v-234.747c0-11.794-9.595-21.389-21.389-21.389h-274.699c-8.813 0-16.845 5.53-19.987 13.762-1.478 3.873.462 8.211 4.336 9.69 3.871 1.478 8.211-.462 9.69-4.336.937-2.454 3.333-4.103 5.962-4.103h274.699c3.516 0 6.376 2.86 6.376 6.376v219.735l-40.667-40.667c-10.055-10.056-26.42-10.056-36.477 0l-88.786 88.787c-4.872 4.871-7.555 11.348-7.555 18.238s2.683 13.367 7.555 18.238l65.845 65.846h-114.06c-4.146 0-7.506 3.361-7.506 7.506 0 4.146 3.361 7.506 7.506 7.506h129.072l69.288 69.288c4.872 4.871 11.349 7.554 18.239 7.554 6.891 0 13.368-2.683 18.239-7.555l88.786-88.786h-.001c4.872-4.871 7.555-11.348 7.555-18.238zm-18.169 7.622c0 .001-.001.001 0 0l-88.787 88.787c-2.036 2.036-4.742 3.157-7.623 3.157-2.879 0-5.586-1.122-7.622-3.157l-150.146-150.146c-4.203-4.203-4.203-11.042 0-15.245l88.786-88.786c2.102-2.102 4.862-3.153 7.624-3.153 2.76 0 5.521 1.051 7.623 3.152l150.145 150.147c2.036 2.036 3.157 4.743 3.157 7.622 0 2.88-1.121 5.586-3.157 7.622z"/><path d="m377.496 357.385c2.583.558 5.138-.297 6.879-2.038.991-.991 1.713-2.265 2.024-3.737.864-4.063-1.72-8.047-5.775-8.903-4.062-.864-8.046 1.719-8.903 5.775-.87 4.055 1.72 8.047 5.775 8.903z"/><path d="m398.126 368.602.014.014c2.93 2.93 7.678 2.937 10.616 0 2.93-2.93 2.93-7.686 0-10.616-.028-.028-.049-.049-.077-.064-.021-.035-.057-.071-.085-.099-2.944-2.915-7.692-2.895-10.616.043-2.922 2.951-2.902 7.7.043 10.615.034.036.069.072.105.107z"/><path d="m354.206 359.133c1.026-.389 1.932-.983 2.661-1.713 2.017-2.017 2.788-5.11 1.719-7.962-1.458-3.878-5.789-5.845-9.674-4.38-3.878 1.458-5.839 5.782-4.374 9.667 1.451 3.885 5.782 5.839 9.668 4.388z"/><path d="m334.022 362.686c-3.319-2.484-8.025-1.798-10.502 1.529-2.477 3.326-1.797 8.025 1.536 10.509 3.022 2.258 7.19 1.883 9.788-.701.255-.255.488-.53.715-.828 2.476-3.326 1.79-8.032-1.537-10.509z"/><path d="m349.025 434.362c-3.645-1.989-8.202-.644-10.183 3.007-1.982 3.638-.637 8.195 3 10.177 3 1.628 6.603 1.012 8.895-1.281.503-.503.935-1.076 1.289-1.727 1.982-3.637.637-8.195-3.001-10.176z"/><path d="m371.849 439.266c-4.14.304-7.24 3.9-6.943 8.032.297 4.133 3.892 7.247 8.025 6.95 1.869-.142 3.539-.949 4.77-2.18 1.487-1.487 2.343-3.588 2.173-5.852-.297-4.133-3.892-7.247-8.025-6.95z"/><path d="m393.695 431.092c-3.305 2.498-3.977 7.204-1.486 10.516s7.204 3.978 10.516 1.486c.29-.219.552-.453.799-.7 2.605-2.605 2.966-6.787.687-9.816-2.49-3.312-7.203-3.978-10.516-1.486z"/><path d="m417.333 407.978c-3.885-1.451-8.209.538-9.653 4.417-1.437 3.885.538 8.209 4.43 9.652 2.838 1.055 5.909.276 7.919-1.733.736-.736 1.338-1.649 1.727-2.689 1.444-3.893-.538-8.21-4.423-9.647z"/><path d="m415.075 380.173c-4.055.87-6.624 4.869-5.747 8.917.885 4.055 4.876 6.631 8.931 5.747 1.458-.311 2.725-1.04 3.709-2.025 1.741-1.741 2.597-4.31 2.031-6.9-.877-4.048-4.869-6.624-8.924-5.739z"/><path d="m322.281 414.921c-3.63 1.989-4.954 6.553-2.958 10.191 1.989 3.63 6.554 4.953 10.191 2.958.637-.354 1.204-.779 1.691-1.267 2.3-2.3 2.916-5.93 1.267-8.924-1.988-3.63-6.56-4.961-10.191-2.958z"/><path d="m325.29 399.868c1.238-1.238 2.052-2.916 2.186-4.791.276-4.14-2.845-7.714-6.985-8.004-4.133-.283-7.714 2.845-7.997 6.978s2.838 7.72 6.978 7.996c2.251.156 4.339-.7 5.818-2.179z"/><path d="m379.627 377.42c-2.916 2.944-2.895 7.693.042 10.616.049.049.099.099.156.141 2.937 2.838 7.607 2.796 10.502-.098 2.937-2.937 2.937-7.679 0-10.615-.007-.007-.014-.014-.022-.021-.021-.021-.043-.043-.064-.064-2.936-2.924-7.685-2.903-10.614.041z"/><path d="m352.536 382.148c1.897 3.694 6.419 5.145 10.113 3.248.707-.368 1.337-.828 1.875-1.366 2.243-2.243 2.894-5.767 1.366-8.74-1.904-3.687-6.426-5.138-10.113-3.248-3.687 1.903-5.138 6.426-3.241 10.106z"/><path d="m371.226 425.664c1.09-1.09 1.854-2.519 2.109-4.147.63-4.097-2.165-7.94-6.27-8.577-4.09-.638-7.926 2.165-8.57 6.263-.63 4.097 2.172 7.933 6.263 8.57 2.463.382 4.833-.475 6.468-2.109z"/><path d="m346.265 394.561c-4.097.658-6.879 4.501-6.22 8.599.651 4.09 4.501 6.879 8.591 6.228 1.628-.255 3.043-1.019 4.119-2.095 1.648-1.648 2.505-4.033 2.116-6.504-.658-4.098-4.508-6.887-8.606-6.228z"/><path d="m395.811 411.907c1.876-3.702.404-8.217-3.29-10.099-3.695-1.883-8.217-.403-10.099 3.291-1.876 3.702-.403 8.216 3.29 10.099 2.972 1.5 6.476.856 8.711-1.38.546-.546 1.021-1.19 1.388-1.911z"/><path d="m325.775 306.365c1.202-4.485-.041-9.123-3.324-12.407-3.286-3.284-7.925-4.526-12.407-3.323l-45.022 12.064c-4.485 1.202-7.881 4.597-9.083 9.082s.04 9.123 3.323 12.407l32.96 32.96c2.46 2.46 5.679 3.774 9.024 3.774 1.121 0 2.257-.148 3.383-.449 4.485-1.202 7.881-4.598 9.082-9.083zm-25.593 37.51-27.648-27.648 37.768-10.12z"/><path d="m444.31 294.109c16.093-.478 28.693-14.105 28.693-30.205v-193.341-.09l.083-9.333c-.146-1.145-.377-2.274-.692-3.388l-14.598-47.921c-.094-.31-.207-.613-.341-.908-2.465-5.469-7.724-8.888-13.724-8.923-.03 0-.061 0-.091 0-6.009 0-11.302 3.405-13.794 8.893-.117.257-.213.525-.297.795l-15.3 49.213c-.2 1.142-.317 2.294-.353 3.456l-.072 8.117v.09 49.053c0 4.11 3.168 7.695 7.276 7.817 4.251.127 7.736-3.281 7.736-7.503v-41.861h29.153v186.041c0 7.84-6.013 14.595-13.843 14.981-8.37.412-15.31-6.278-15.31-14.559v-109.777c0-4.11-3.168-7.695-7.276-7.817-4.251-.127-7.736 3.281-7.736 7.503v110.091c.001 16.614 13.763 30.073 30.486 29.576zm-15.473-231.142v-.689l3.382-10.817h22.505l3.267 10.783v.722h-29.154zm14.848-47.936 6.49 21.418h-13.262l6.7-21.432c.023 0 .047.004.072.014z"/></svg>