<svg width="76" height="74" viewBox="0 0 76 74" fill="none" xmlns="http://www.w3.org/2000/svg">
<path d="M37.7052 51.8679C46.3161 51.8679 53.3215 45.0418 53.3215 36.6529C53.3215 31.715 50.8465 27.065 46.7012 24.215C45.8154 23.6058 44.6042 23.8298 43.9951 24.7157C43.386 25.6015 43.61 26.8126 44.4958 27.4218C47.585 29.5461 49.4296 32.9971 49.4296 36.6529C49.4296 42.8962 44.1704 47.976 37.7052 47.976C31.2399 47.976 25.9808 42.8962 25.9808 36.6529C25.9808 30.4096 31.2399 25.3298 37.7052 25.3298C38.7805 25.3298 39.6512 24.4592 39.6512 23.3839C39.6512 22.3096 38.7805 21.4379 37.7052 21.4379C29.0943 21.4379 22.0889 28.264 22.0889 36.6529C22.0889 45.0418 29.0943 51.8679 37.7052 51.8679Z" fill="white"/>
<path d="M5.51153 27.2809C2.4213 27.4958 0 30.0428 0 33.0803V40.2003C0 43.2358 2.42029 45.7828 5.50849 45.9986L8.07067 46.178C8.54702 47.5777 9.1298 48.9449 9.8119 50.2656L8.17101 52.1051C6.11153 54.4119 6.23923 57.9085 8.46087 60.0643L13.6481 65.0994C15.8261 67.2126 19.3542 67.3373 21.6812 65.3822L23.6343 63.7413C25.0208 64.4234 26.4569 65.0042 27.9286 65.4765L28.108 67.912C28.3309 70.9373 30.9296 73.3059 34.0239 73.3059H41.3598C44.452 73.3059 47.0507 70.9383 47.2747 67.915L47.4551 65.4846C48.9348 65.0113 50.3791 64.4285 51.7737 63.7423L53.7288 65.3842C56.0558 67.3373 59.5829 67.2126 61.7599 65.1005L66.9471 60.0653C69.1698 57.9085 69.2975 54.4119 67.237 52.1041L65.5961 50.2676C66.2792 48.947 66.862 47.5797 67.3383 46.1811L69.9035 46.0007C72.9907 45.7838 75.41 43.2358 75.41 40.2013V33.0813C75.41 30.0428 72.9877 27.4958 69.8965 27.2819L67.3312 27.1046C66.8539 25.7049 66.2701 24.3387 65.586 23.0181L67.2238 21.1806C69.2792 18.8738 69.1505 15.3792 66.9309 13.2244L61.7427 8.18925C59.5636 6.07403 56.0335 5.95139 53.7075 7.90951L51.7524 9.55345C50.3659 8.87236 48.9287 8.29364 47.4571 7.82337L47.2757 5.3899C47.0507 2.36758 44.452 0 41.3608 0H34.0249C30.9296 0 28.3309 2.37062 28.109 5.39598L27.9306 7.82945C26.4671 8.29972 25.038 8.8754 23.6596 9.55345L21.7025 7.90749C19.3755 5.95139 15.8464 6.07504 13.6673 8.18925L8.48013 13.2234C6.25951 15.3792 6.13079 18.8748 8.18824 21.1816L9.82507 23.0171C9.13993 24.3367 8.55614 25.7039 8.07979 27.1026L5.51153 27.2809ZM11.4062 29.4924C11.9859 27.4897 12.817 25.5478 13.8751 23.7225C14.2967 22.9948 14.2035 22.0795 13.644 21.4512L11.093 18.591C10.417 17.8329 10.4595 16.7261 11.1913 16.0157L16.3785 10.9815C17.1417 10.2406 18.3802 10.1991 19.1981 10.8862L22.1485 13.3673C22.7617 13.8832 23.6292 13.9694 24.3326 13.5862C26.2137 12.5606 28.2164 11.7538 30.285 11.1903C31.0806 10.9734 31.6533 10.2781 31.7131 9.45513L31.9908 5.6818C32.0637 4.67841 32.9577 3.89192 34.0249 3.89192H41.3608C42.426 3.89192 43.3199 4.6774 43.3949 5.67977L43.6767 9.45209C43.7375 10.2751 44.3111 10.9693 45.1057 11.1852C47.1824 11.7497 49.1922 12.5585 51.0804 13.5873C51.7838 13.9714 52.6514 13.8842 53.2646 13.3683L56.2119 10.8872C57.0298 10.2001 58.2683 10.2416 59.0325 10.9825L64.2197 16.0177C64.9515 16.7271 64.993 17.8339 64.318 18.591L61.767 21.4552C61.2075 22.0826 61.1143 22.9978 61.5359 23.7255C62.593 25.5488 63.4241 27.4907 64.0049 29.4955C64.2319 30.2799 64.9241 30.8394 65.739 30.8951L69.6269 31.1647H69.6279C70.687 31.2377 71.5171 32.0789 71.5171 33.0813V40.2013C71.5171 41.2016 70.688 42.0429 69.6299 42.1179L65.743 42.3915C64.9282 42.4483 64.2359 43.0077 64.0099 43.7922C63.4312 45.7969 62.6021 47.7388 61.5461 49.5642C61.1244 50.2919 61.2187 51.2081 61.7782 51.8355L64.3343 54.6967C65.0113 55.4548 64.9687 56.5615 64.237 57.272L59.0498 62.3072C58.2866 63.0471 57.0491 63.0896 56.2312 62.4035L53.2818 59.9264C52.6676 59.4116 51.8 59.3254 51.0977 59.7095C49.2034 60.7443 47.1865 61.5552 45.1037 62.1217C44.3081 62.3376 43.7344 63.0329 43.6736 63.8559L43.3939 67.6262C43.3189 68.6285 42.426 69.414 41.3598 69.414H34.0239C32.9567 69.414 32.0637 68.6285 31.9898 67.6251L31.711 63.8498C31.6502 63.0268 31.0776 62.3325 30.282 62.1156C28.2073 61.5491 26.1975 60.7393 24.3103 59.7085C24.0174 59.5484 23.6971 59.4704 23.3769 59.4704C22.9289 59.4704 22.4839 59.6244 22.1252 59.9254L19.1778 62.4025C18.3599 63.0886 17.1224 63.0471 16.3592 62.3062L11.172 57.272C10.4403 56.5615 10.3977 55.4538 11.0737 54.6957L13.6308 51.8325C14.1903 51.2051 14.2835 50.2899 13.8629 49.5622C12.8068 47.7368 11.9778 45.7949 11.3991 43.7902C11.1731 43.0057 10.4798 42.4452 9.66494 42.3885L5.78011 42.1169C4.72199 42.0429 3.89192 41.2006 3.89192 40.2003V33.0803C3.89192 32.0789 4.72199 31.2367 5.78112 31.1637L9.67102 30.8931C10.4859 30.8364 11.1781 30.2769 11.4062 29.4924Z" fill="white"/>
</svg>
