<svg width="66" height="80" viewBox="0 0 66 80" fill="none" xmlns="http://www.w3.org/2000/svg">
<path d="M59.3688 66.9784C51.3329 72.051 42.0298 74.732 32.4664 74.732C29.3197 74.732 26.1706 74.4416 23.1063 73.8677C21.8971 73.6401 20.7309 74.4392 20.5032 75.6496C20.2767 76.86 21.0747 78.0251 22.2851 78.2516C25.62 78.8765 29.0455 79.1925 32.4664 79.1925C42.8742 79.1925 52.9998 76.2734 61.7489 70.75C63.7422 69.492 64.9316 67.3292 64.9316 64.963C64.9316 56.2836 61.5561 48.1304 55.4252 42.0065C51.7139 38.2953 47.2627 35.5934 42.4061 34.038C47.5322 30.7507 50.9403 25.0055 50.9403 18.4762C50.9403 8.2891 42.6524 0 32.4664 0C22.2804 0 13.9925 8.2891 13.9925 18.4762C13.9925 25.0113 17.4052 30.7612 22.5395 34.0462C9.47856 38.2511 0 50.5198 0 64.963C0 67.3292 1.18947 69.492 3.18275 70.75C6.10299 72.5935 9.2114 74.1663 12.4197 75.4231C13.5674 75.8726 14.8602 75.3069 15.3097 74.1605C15.7593 73.014 15.1936 71.72 14.0471 71.2704C11.1001 70.1158 8.24496 68.672 5.56285 66.9784C4.87286 66.5428 4.4605 65.7889 4.4605 64.963C4.4605 49.5174 17.0231 36.9525 32.4652 36.9525C39.9447 36.9525 46.9781 39.8669 52.2715 45.1614C57.559 50.4431 60.4711 57.4766 60.4711 64.963C60.4711 65.7889 60.0599 66.5428 59.3688 66.9784V66.9784ZM18.453 18.4762C18.453 10.7482 24.7395 4.4605 32.4664 4.4605C40.1933 4.4605 46.4798 10.7482 46.4798 18.4762C46.4798 26.2043 40.1933 32.492 32.4664 32.492C24.7395 32.492 18.453 26.2043 18.453 18.4762Z" fill="white"/>
</svg>
