<svg width="80" height="80" viewBox="0 0 80 80" fill="none" xmlns="http://www.w3.org/2000/svg">
<path d="M26.4705 30.4C28.8236 30.4 30.7372 28.4864 30.7372 26.1333C30.7372 23.7803 28.8236 21.8667 26.4705 21.8667C24.1175 21.8667 22.2039 23.7803 22.2039 26.1333C22.2039 28.4864 24.1172 30.4 26.4705 30.4ZM26.4705 24C27.6465 24 28.6039 24.9573 28.6039 26.1333C28.6039 27.3093 27.6465 28.2667 26.4705 28.2667C25.2945 28.2667 24.3372 27.3093 24.3372 26.1333C24.3372 24.9573 25.2943 24 26.4705 24ZM30.0625 16C30.0625 15.3328 30.6033 14.792 31.2703 14.792C31.9372 14.792 32.478 15.3328 32.478 16C32.478 16.6669 31.9372 17.2077 31.2703 17.2077C30.6033 17.2077 30.0625 16.6669 30.0625 16ZM13.2783 32C13.2783 32.6669 12.7375 33.2077 12.0705 33.2077C11.4036 33.2077 10.8628 32.6669 10.8628 32C10.8628 31.3328 11.4036 30.792 12.0705 30.792C12.7375 30.792 13.2783 31.3328 13.2783 32ZM68.0705 13.3333H54.0121C47.0601 13.3333 41.4039 18.9896 41.4039 25.9416V38.9333H28.4121C21.4601 38.9333 15.8039 44.5896 15.8039 51.5416V65.6C15.8039 66.1896 16.2809 66.6667 16.8705 66.6667H30.9289C37.8809 66.6667 43.5372 61.0104 43.5372 54.0584V41.0667H56.5289C63.4809 41.0667 69.1372 35.4104 69.1372 28.4584V14.4C69.1372 13.8104 68.6601 13.3333 68.0705 13.3333V13.3333ZM41.4039 54.0584C41.4039 59.8344 36.7049 64.5333 30.9289 64.5333H17.9372V51.5416C17.9372 45.7656 22.6361 41.0667 28.4121 41.0667H41.4039V54.0584Z" fill="url(#paint0_linear)"/>
<defs>
<linearGradient id="paint0_linear" x1="11.1737" y1="61.4123" x2="63.8825" y2="8.7032" gradientUnits="userSpaceOnUse">
<stop stop-color="#107EFF"/>
<stop offset="1" stop-color="#8F16FF"/>
</linearGradient>
</defs>
</svg>
