<svg id="Capa_1" enable-background="new 0 0 512 512" height="512" viewBox="0 0 512 512" width="512" xmlns="http://www.w3.org/2000/svg"><path d="m417.006 115.377-73.397-29.954c-3.833-1.562-8.205.275-9.767 4.106s.275 8.204 4.106 9.767l73.397 29.954c3.768 1.537 6.479 4.951 7.076 8.908 3.031 20.095 8.111 73.266-10.128 132.841-22.499 73.489-71.815 131.618-146.577 172.771-3.524 1.939-7.904 1.939-11.428 0-74.763-41.153-124.079-99.281-146.578-172.771-18.241-59.574-13.161-112.745-10.13-132.841.597-3.958 3.308-7.371 7.077-8.908l150.826-61.553c2.87-1.172 6.166-1.173 9.037 0l45.298 18.487c3.832 1.562 8.205-.276 9.767-4.106 1.563-3.831-.275-8.204-4.106-9.767l-45.299-18.487c-6.565-2.679-13.794-2.677-20.359 0l-150.826 61.553c-8.631 3.522-14.851 11.396-16.231 20.547-3.183 21.107-8.521 76.949 10.618 139.461 10.647 34.777 27.33 66.781 49.586 95.122 26.699 33.999 61.721 63.064 104.094 86.388 3.991 2.197 8.464 3.295 12.939 3.295 4.474-.001 8.949-1.098 12.939-3.295 42.374-23.323 77.396-52.389 104.094-86.388 22.255-28.341 38.938-60.346 49.585-95.122 19.139-62.513 13.801-118.355 10.617-139.461-1.38-9.152-7.599-17.025-16.23-20.547z"/><path d="m241.069 346.855h29.863c10.69 0 19.388-8.656 19.388-19.296v-33.116c0-2.378 1.975-4.313 4.404-4.313h33.376c10.691 0 19.388-8.656 19.388-19.295v-29.63c0-10.64-8.697-19.296-19.388-19.296h-33.376c-2.429 0-4.404-1.934-4.404-4.312v-33.117c0-10.639-8.697-19.295-19.388-19.295h-29.863c-10.69 0-19.388 8.655-19.388 19.295v33.117c0 2.377-1.976 4.312-4.404 4.312h-33.377c-10.69 0-19.388 8.656-19.388 19.296v29.63c0 9.656 7.248 17.881 16.859 19.132 4.105.54 7.861-2.36 8.396-6.462.534-4.103-2.36-7.861-6.462-8.396-2.171-.283-3.809-2.12-3.809-4.273v-29.63c0-2.378 1.976-4.313 4.404-4.313h33.377c10.69 0 19.388-8.656 19.388-19.295v-33.117c0-2.377 1.976-4.312 4.404-4.312h29.863c2.429 0 4.404 1.934 4.404 4.312v33.117c0 10.639 8.697 19.295 19.387 19.295h33.376c2.429 0 4.405 1.934 4.405 4.313v29.63c0 2.377-1.976 4.312-4.405 4.312h-33.376c-10.69 0-19.387 8.656-19.387 19.296v33.116c0 2.378-1.975 4.313-4.404 4.313h-29.863c-2.428 0-4.404-1.934-4.404-4.313v-33.116c0-10.639-8.697-19.296-19.388-19.296-4.138 0-7.492 3.354-7.492 7.492s3.354 7.492 7.492 7.492c2.428 0 4.404 1.934 4.404 4.313v33.116c.001 10.638 8.698 19.294 19.388 19.294z"/></svg>