<svg width="73" height="80" viewBox="0 0 73 80" fill="none" xmlns="http://www.w3.org/2000/svg">
<g clip-path="url(#clip0)">
<path d="M67.8966 12.5718L53.5182 6.7039C52.7673 6.39791 51.9108 6.75777 51.6049 7.50826C51.2989 8.25875 51.6587 9.11541 52.4092 9.4216L66.7876 15.2896C67.5257 15.5906 68.0568 16.2594 68.1738 17.0346C68.7675 20.9712 69.7627 31.3873 66.1897 43.058C61.7822 57.4544 52.1212 68.8418 37.4755 76.9036C36.7851 77.2834 35.9271 77.2834 35.2367 76.9036C20.5908 68.8418 10.9298 57.4546 6.5223 43.058C2.94892 31.3875 3.94408 20.9714 4.53785 17.0346C4.6548 16.2592 5.18588 15.5906 5.92423 15.2896L35.4708 3.2314C36.0331 3.00181 36.6787 3.00161 37.2412 3.2314L46.115 6.85298C46.8657 7.15897 47.7223 6.79891 48.0283 6.04862C48.3345 5.29813 47.9745 4.44147 47.224 4.13528L38.35 0.513702C37.0639 -0.0111108 35.6477 -0.0107189 34.3617 0.513702L4.81505 12.5718C3.12425 13.2618 1.90576 14.8043 1.63542 16.597C1.01187 20.7318 -0.0338352 31.6712 3.71547 43.9172C5.8012 50.73 9.06938 56.9995 13.4293 62.5515C18.6596 69.2118 25.5204 74.9056 33.8212 79.4748C34.603 79.9051 35.4793 80.1202 36.3559 80.1202C37.2324 80.12 38.109 79.9051 38.8906 79.4748C47.1916 74.9058 54.0524 69.2118 59.2825 62.5515C63.6422 56.9995 66.9104 50.7298 68.9961 43.9172C72.7454 31.671 71.6997 20.7316 71.076 16.597C70.8057 14.8041 69.5874 13.2618 67.8966 12.5718Z" fill="white"/>
<path d="M33.3339 57.7451H39.1665C41.2544 57.7451 42.9532 56.0545 42.9532 53.9764V47.5084C42.9532 47.0439 43.339 46.666 43.8134 46.666H50.3321C52.4202 46.666 54.1189 44.9754 54.1189 42.8975V37.1104C54.1189 35.0322 52.4202 33.3416 50.3321 33.3416H43.8134C43.339 33.3416 42.9532 32.9639 42.9532 32.4994V26.0312C42.9532 23.9533 41.2546 22.2627 39.1665 22.2627H33.3339C31.246 22.2627 29.5472 23.9531 29.5472 26.0312V32.4994C29.5472 32.9637 29.1612 33.3416 28.687 33.3416H22.1681C20.0802 33.3416 18.3813 35.0322 18.3813 37.1104V42.8975C18.3813 44.7834 19.797 46.3898 21.6741 46.6342C22.4759 46.7396 23.2095 46.1732 23.314 45.3721C23.4183 44.5707 22.853 43.8367 22.0519 43.7322C21.6278 43.677 21.3079 43.3182 21.3079 42.8977V37.1105C21.3079 36.6461 21.6938 36.2682 22.1681 36.2682H28.687C30.7749 36.2682 32.4737 34.5775 32.4737 32.4996V26.0314C32.4737 25.5672 32.8597 25.1893 33.3339 25.1893H39.1665C39.6409 25.1893 40.0267 25.567 40.0267 26.0314V32.4996C40.0267 34.5775 41.7253 36.2682 43.8132 36.2682H50.3319C50.8063 36.2682 51.1923 36.6459 51.1923 37.1105V42.8977C51.1923 43.3619 50.8063 43.7398 50.3319 43.7398H43.8132C41.7253 43.7398 40.0267 45.4305 40.0267 47.5086V53.9766C40.0267 54.441 39.6409 54.8189 39.1665 54.8189H33.3339C32.8597 54.8189 32.4737 54.4412 32.4737 53.9766V47.5086C32.4737 45.4307 30.7751 43.7398 28.687 43.7398C27.8788 43.7398 27.2237 44.3949 27.2237 45.2031C27.2237 46.0113 27.8788 46.6664 28.687 46.6664C29.1612 46.6664 29.5472 47.0441 29.5472 47.5088V53.9768C29.5474 56.0545 31.246 57.7451 33.3339 57.7451V57.7451Z" fill="white"/>
</g>
<defs>
<clipPath id="clip0">
<rect width="72.5" height="80" fill="white"/>
</clipPath>
</defs>
</svg>
