<svg viewBox="0 0 512 512" xmlns="http://www.w3.org/2000/svg" fill="#6F5AF1"><path d="m436.949219 74.980469c-48.34375-48.351563-112.621094-74.980469-180.988281-74.980469-68.371094 0-132.648438 26.628906-180.992188 74.980469-48.34375 48.351562-74.96875 112.640625-74.96875 181.019531s26.625 132.667969 74.96875 181.019531c48.34375 48.351563 112.621094 74.980469 180.992188 74.980469 48.921874 0 96.476562-13.851562 137.523437-40.054688 3.492187-2.230468 4.515625-6.867187 2.289063-10.355468-2.230469-3.492188-6.867188-4.519532-10.359376-2.289063-38.632812 24.664063-83.398437 37.699219-129.453124 37.699219-64.363282 0-124.875-25.066406-170.386719-70.585938-45.511719-45.519531-70.574219-106.039062-70.574219-170.414062s25.0625-124.894531 70.574219-170.414062c45.511719-45.519532 106.023437-70.585938 170.386719-70.585938 64.359374 0 124.871093 25.066406 170.382812 70.585938 45.511719 45.519531 70.574219 106.042968 70.574219 170.414062 0 69.605469-30.09375 135.800781-82.5625 181.617188-3.121094 2.726562-3.441407 7.460937-.71875 10.582031 2.726562 3.121093 7.464843 3.441406 10.582031.71875 55.734375-48.664063 87.699219-118.980469 87.699219-192.917969 0-68.378906-26.625-132.667969-74.96875-181.019531zm0 0"/><path d="m244.660156 146.03125h-93.574218c-17.382813 0-31.523438 14.140625-31.523438 31.523438v134.414062c0 17.382812 14.140625 31.523438 31.523438 31.523438h51.988281c1.574219 0 3.054687.613281 4.164062 1.726562l36.699219 36.707031c3.980469 3.980469 9.269531 6.171875 14.898438 6.171875 5.625 0 10.914062-2.191406 14.890624-6.171875l36.703126-36.707031c1.097656-1.097656 2.613281-1.726562 4.160156-1.726562h46.242187c17.382813 0 31.523438-14.140626 31.523438-31.523438v-134.414062c0-17.382813-14.140625-31.523438-31.523438-31.523438h-77.558593c-4.144532 0-7.5 3.355469-7.5 7.5 0 4.140625 3.355468 7.5 7.5 7.5h77.558593c9.109375 0 16.523438 7.410156 16.523438 16.523438v134.414062c0 9.109375-7.414063 16.523438-16.523438 16.523438h-46.242187c-5.578125 0-10.824219 2.175781-14.769532 6.121093l-36.699218 36.707031c-1.148438 1.144532-2.667969 1.777344-4.285156 1.777344-1.621094 0-3.144532-.632812-4.289063-1.777344l-36.699219-36.707031c-3.945312-3.945312-9.191406-6.117187-14.773437-6.117187h-51.988281c-9.109376 0-16.523438-7.414063-16.523438-16.527344v-134.414062c0-9.113282 7.414062-16.523438 16.523438-16.523438h93.574218c4.144532 0 7.5-3.359375 7.5-7.5 0-4.144531-3.355468-7.5-7.5-7.5zm0 0"/><path d="m344.871094 231.375c0-4.140625-3.355469-7.5-7.5-7.5h-103.808594c-4.140625 0-7.5 3.359375-7.5 7.5 0 4.144531 3.359375 7.5 7.5 7.5h103.808594c4.144531 0 7.5-3.355469 7.5-7.5zm0 0"/><path d="m233.5625 259.058594c-4.140625 0-7.5 3.359375-7.5 7.5 0 4.144531 3.359375 7.5 7.5 7.5h53.84375c4.144531 0 7.5-3.355469 7.5-7.5 0-4.140625-3.355469-7.5-7.5-7.5zm0 0"/><path d="m191.113281 213.976562c-3.488281-2.234374-8.128906-1.21875-10.359375 2.269532l-14.496094 22.621094c-2.140624 3.347656-3.273437 7.210937-3.273437 11.183593v13.664063c0 7.488281 6.09375 13.585937 13.585937 13.585937h12.703126c7.492187 0 13.585937-6.097656 13.585937-13.585937v-11.449219c0-7.492187-6.09375-13.589844-13.585937-13.589844h-5.074219l9.1875-14.335937c2.230469-3.492188 1.214843-8.128906-2.273438-10.363282zm-3.253906 39.699219v8.625h-9.875v-8.625zm0 0"/></svg>