<svg id="Capa_1" enable-background="new 0 0 512 512" height="512" viewBox="0 0 512 512" width="512" xmlns="http://www.w3.org/2000/svg" xmlns:x="http://ns.adobe.com/Extensibility/1.0/" xmlns:i="http://ns.adobe.com/AdobeIllustrator/10.0/" xmlns:graph="http://ns.adobe.com/Graphs/1.0/"><g><path d="m417.77 226.651v241.667c0 19.982-16.199 36.181-36.181 36.181h-297.235c-19.982 0-36.181-16.199-36.181-36.181v-378.578c0-19.988 16.203-36.181 36.181-36.181h160.32z" fill="#bed8fb"/><path d="m130.413 458.44c-19.982 0-36.181-16.199-36.181-36.181v-378.578c0-19.988 16.203-36.181 36.181-36.181h160.32c27.563 0 173.095 145.531 173.095 173.091v241.667c0 19.982-16.199 36.181-36.181 36.181h-297.234z" fill="#ddeafb"/><path d="m463.829 180.595v15.305c0-32.222-26.129-58.352-58.352-58.352h-35.515c-19.978 0-36.181-16.203-36.181-36.181v-35.515c0-32.222-26.129-58.352-58.352-58.352h15.305c27.559 0 53.997 10.95 73.483 30.436l69.176 69.176c19.486 19.486 30.436 45.925 30.436 73.483z" fill="#bed8fb"/><path d="m315.052 269.253v-105.782c0-4.563-3.699-8.262-8.262-8.262h-55.518c-4.563 0-8.262 3.699-8.262 8.262v105.782h-23.603c-7.361 0-11.047 8.9-5.842 14.105l52.74 52.74c7.029 7.029 18.426 7.029 25.455 0l52.739-52.74c5.205-5.205 1.519-14.105-5.842-14.105z" fill="#78d0b1"/><path d="m343.415 365.127h-128.769c-8.892 0-16.101 7.209-16.101 16.101v.442c0 8.892 7.209 16.101 16.101 16.101h128.769c8.892 0 16.101-7.209 16.101-16.101v-.442c0-8.892-7.208-16.101-16.101-16.101z" fill="#78d0b1"/><path d="m471.329 180.59c-.001-29.761-11.591-57.739-32.633-78.781l-69.176-69.176c-21.044-21.044-49.024-32.633-78.787-32.633h-15.305-145.014c-24.086 0-43.682 19.595-43.682 43.681v2.381h-2.382c-24.084 0-43.679 19.594-43.679 43.679v378.58c0 24.085 19.595 43.679 43.679 43.679h297.241c24.084 0 43.679-19.594 43.679-43.679v-2.382h2.378c24.086 0 43.681-19.595 43.681-43.681v-226.358-15.305-.004s0 0 0-.001zm-112.415-137.351 69.176 69.177c10.262 10.262 17.926 22.429 22.661 35.706-11.81-11.196-27.754-18.074-45.273-18.074h-35.515c-15.815 0-28.681-12.866-28.681-28.681v-35.515c0-17.519-6.877-33.463-18.074-45.273 13.276 4.735 25.443 12.398 35.706 22.66zm97.415 379.019c0 15.815-12.866 28.681-28.681 28.681h-80.713c-4.142 0-7.5 3.358-7.5 7.5s3.358 7.5 7.5 7.5h63.335v2.382c0 15.813-12.865 28.679-28.679 28.679h-297.241c-15.813 0-28.679-12.865-28.679-28.679v-378.58c0-15.814 12.865-28.679 28.679-28.679h2.382v361.196c0 24.086 19.596 43.681 43.682 43.681h186.521c4.142 0 7.5-3.358 7.5-7.5s-3.358-7.5-7.5-7.5h-186.521c-15.815 0-28.682-12.866-28.682-28.681v-378.577c0-15.815 12.867-28.681 28.682-28.681h145.015c28.04 0 50.852 22.812 50.852 50.852v35.515c0 24.086 19.595 43.681 43.681 43.681h35.515c28.04 0 50.852 22.812 50.852 50.852z"/><path d="m261 341.401c4.816 4.816 11.22 7.468 18.031 7.468 6.812 0 13.215-2.652 18.031-7.469l52.74-52.74c4.524-4.524 5.865-11.267 3.417-17.178s-8.165-9.73-14.563-9.73h-16.103v-98.282c0-8.691-7.071-15.762-15.763-15.762h-55.519c-8.691 0-15.762 7.071-15.762 15.762v38.817c0 4.142 3.358 7.5 7.5 7.5s7.5-3.358 7.5-7.5v-38.817c0-.42.342-.762.762-.762h55.519c.42 0 .763.342.763.762v105.782c0 4.142 3.358 7.5 7.5 7.5h23.603c.19 0 .509 0 .704.471s-.03.696-.165.831l-52.74 52.74c-1.983 1.983-4.62 3.075-7.424 3.075s-5.441-1.092-7.424-3.075l-52.739-52.74c-.135-.135-.36-.36-.165-.831s.514-.471.704-.471h23.603c4.142 0 7.5-3.358 7.5-7.5v-36.965c0-4.142-3.358-7.5-7.5-7.5s-7.5 3.358-7.5 7.5v29.465h-16.103c-6.398 0-12.114 3.819-14.563 9.73-2.448 5.911-1.107 12.654 3.417 17.178z"/><path d="m343.415 357.627h-128.77c-13.014 0-23.601 10.587-23.601 23.601v.442c0 13.014 10.587 23.601 23.601 23.601h128.77c13.014 0 23.601-10.587 23.601-23.601v-.442c0-13.013-10.587-23.601-23.601-23.601zm8.601 24.044c0 4.743-3.858 8.601-8.601 8.601h-128.77c-4.743 0-8.601-3.858-8.601-8.601v-.442c0-4.743 3.858-8.601 8.601-8.601h128.77c4.743 0 8.601 3.858 8.601 8.601z"/></g></svg>