<?xml version="1.0" encoding="iso-8859-1"?>
<!-- Generator: Adobe Illustrator 19.0.0, SVG Export Plug-In . SVG Version: 6.00 Build 0)  -->
<svg version="1.1" id="Capa_1" xmlns="http://www.w3.org/2000/svg" xmlns:xlink="http://www.w3.org/1999/xlink" x="0px" y="0px"
	 viewBox="0 0 449.306 449.306" style="enable-background:new 0 0 449.306 449.306;" xml:space="preserve">
<g>
	<path style="fill:#00EFD1;" d="M437.29,255.478v129.567c0,23.083-18.713,41.796-41.796,41.796H53.812
		c-23.083,0-41.796-18.713-41.796-41.796V255.478h75.755c22.912-0.202,43.795,13.106,53.29,33.959
		c4.647,10.064,12.08,18.585,21.42,24.555c9.452,6.233,20.548,9.507,31.869,9.404h60.604c22.912,0.202,43.795-13.106,53.29-33.959
		c4.647-10.064,12.08-18.586,21.42-24.555c9.452-6.233,20.548-9.507,31.869-9.404H437.29z"/>
	<g>
		<path style="fill:#083863;" d="M447.739,250.775l-58.514-125.91c-2.014-3.521-5.884-5.557-9.927-5.224h-50.155
			c-5.771,0-10.449,4.678-10.449,10.449c0,5.771,4.678,10.449,10.449,10.449h43.363l48.588,104.49h-59.559
			c-13.336-0.057-26.402,3.754-37.616,10.971c-11.112,7.008-19.851,17.204-25.078,29.257c-8.062,16.923-25.141,27.698-43.886,27.69
			h-60.604c-9.21-0.019-18.241-2.548-26.122-7.314c-7.623-5.097-13.753-12.129-17.763-20.376
			c-11.131-24.604-35.69-40.362-62.694-40.229H29.257l57.469-104.49h33.437c5.771,0,10.449-4.678,10.449-10.449
			s-4.678-10.449-10.449-10.449H80.457c-3.776-0.358-7.425,1.467-9.404,4.702L2.09,250.775c-1.209,1.072-1.958,2.569-2.09,4.18
			v130.09c0.832,29.282,24.524,52.744,53.812,53.29h341.682c29.289-0.546,52.98-24.008,53.812-53.29v-130.09
			C449.108,253.461,448.572,252.032,447.739,250.775z M395.494,417.437H53.812c-17.754-0.528-32.102-14.648-32.914-32.392V265.927
			h66.873c18.745-0.008,35.823,10.767,43.886,27.69c5.248,12.199,14.205,22.436,25.6,29.257
			c10.987,7.289,23.91,11.112,37.094,10.971h60.604c27.004,0.133,51.563-15.625,62.694-40.229
			c4.01-8.246,10.141-15.278,17.763-20.376c7.881-4.767,16.912-7.295,26.122-7.314h66.873v119.118
			C427.596,402.788,413.248,416.909,395.494,417.437z"/>
		<path style="fill:#083863;" d="M303.02,166.661c-3.706-4.04-9.986-4.31-14.025-0.603c-0.21,0.192-0.411,0.394-0.603,0.603
			l-53.29,53.29V21.42c0-5.771-4.678-10.449-10.449-10.449c-5.771,0-10.449,4.678-10.449,10.449v198.531l-53.29-53.29
			c-4.617-3.462-11.166-2.527-14.629,2.09c-2.786,3.715-2.786,8.824,0,12.539l71.053,71.576c3.706,4.04,9.986,4.31,14.025,0.603
			c0.21-0.192,0.411-0.394,0.603-0.603l71.053-71.576c4.04-3.706,4.31-9.986,0.603-14.025
			C303.431,167.055,303.23,166.854,303.02,166.661z"/>
	</g>
</g>
<g>
</g>
<g>
</g>
<g>
</g>
<g>
</g>
<g>
</g>
<g>
</g>
<g>
</g>
<g>
</g>
<g>
</g>
<g>
</g>
<g>
</g>
<g>
</g>
<g>
</g>
<g>
</g>
<g>
</g>
</svg>
