<?xml version="1.0"?>
<svg xmlns="http://www.w3.org/2000/svg" xmlns:xlink="http://www.w3.org/1999/xlink" viewBox="0 0 512 512" width="512" height="512"><linearGradient id="a" gradientUnits="userSpaceOnUse" x1="256" x2="256" y1="30" y2="438.078"><stop offset="0" stop-color="#00efd1"/><stop offset="1" stop-color="#00acea"/></linearGradient><g fill="url(#a)"><path d="m419.42 155.879a10.033 10.033 0 0 0 -9.1-5.879h-50.047a10 10 0 0 0 0 20h43.627l48.974 107h-60.485a68.653 68.653 0 0 0 -62.048 39.875 48.544 48.544 0 0 1 -43.893 28.125h-60.9a48.412 48.412 0 0 1 -26.023-7.554 49.19 49.19 0 0 1 -17.87-20.625 68.682 68.682 0 0 0 -62.044-39.821h-59.336l57.8-107h33.654a10 10 0 0 0 0-20h-39.629a10.03 10.03 0 0 0 -8.8 5.29l-68.2 126.71a9.978 9.978 0 0 0 -1.1 4.763v129.817a51.354 51.354 0 0 0 51.514 51.42h340.972a51.354 51.354 0 0 0 51.514-51.42v-129.819a9.991 9.991 0 0 0 -.806-4.173zm38.58 260.701a31.332 31.332 0 0 1 -31.514 31.42h-340.972a31.332 31.332 0 0 1 -31.514-31.42v-119.58h65.611a48.647 48.647 0 0 1 43.9 28.244 68.336 68.336 0 0 0 62.041 39.756h60.9a68.533 68.533 0 0 0 62.039-39.645 49.148 49.148 0 0 1 17.833-20.616 48.6 48.6 0 0 1 26.065-7.739h65.611z"/><path d="m248.9 284.421a10 10 0 0 0 14.194 0l70.906-71.427a10 10 0 0 0 -14.193-14.09l-53.807 54.204v-199.398a10 10 0 1 0 -20 0v199.4l-53.809-54.2a10 10 0 0 0 -14.191 14.084z"/></g></svg>
