<svg viewBox="0 0 512 512" xmlns="http://www.w3.org/2000/svg"><path d="m436.949219 74.980469c-48.34375-48.351563-112.621094-74.980469-180.988281-74.980469-68.371094 0-132.648438 26.628906-180.992188 74.980469-48.34375 48.351562-74.96875 112.640625-74.96875 181.019531s26.625 132.667969 74.96875 181.019531c48.34375 48.351563 112.621094 74.980469 180.992188 74.980469 65.859374 0 128.425781-24.964844 176.179687-70.292969 3.003906-2.851562 3.125-7.597656.273437-10.605469-2.851562-3.003906-7.597656-3.125-10.601562-.273437-44.953125 42.671875-103.851562 66.171875-165.851562 66.171875-64.363282 0-124.875-25.066406-170.386719-70.585938-45.511719-45.519531-70.574219-106.039062-70.574219-170.414062s25.0625-124.894531 70.574219-170.414062c45.511719-45.515626 106.023437-70.585938 170.386719-70.585938 64.359374 0 124.871093 25.066406 170.382812 70.585938 45.511719 45.519531 70.574219 106.039062 70.574219 170.414062 0 55.222656-18.167969 107.175781-52.539063 150.238281-2.585937 3.238281-2.054687 7.957031 1.183594 10.539063 3.238281 2.585937 7.957031 2.054687 10.539062-1.183594 17.714844-22.191406 31.511719-46.945312 41.007813-73.578125 9.828125-27.554687 14.808594-56.496094 14.808594-86.015625 0-68.378906-26.625-132.667969-74.96875-181.019531zm0 0"/><path d="m167.089844 166.738281c-3.480469-2.246093-8.125-1.234375-10.363282 2.246094-12.242187 19.011719-18.710937 41.070313-18.710937 63.78125 0 35.859375 14.964844 73.488281 44.484375 111.835937 28.78125 37.390626 59.074219 59.496094 62.433594 61.890626 3.304687 2.359374 7.1875 3.539062 11.070312 3.539062 3.847656 0 7.695313-1.160156 10.988282-3.480469 28.828124-20.324219 104.222656-90.390625 106.84375-169.488281 1.078124-32.476562-10.660157-63.140625-33.046876-86.34375-22.265624-23.074219-52.277343-35.832031-84.511718-35.917969-.105469 0-.210938 0-.316406 0-25.804688 0-50.304688 8.179688-70.867188 23.660157-3.3125 2.492187-3.972656 7.195312-1.480469 10.503906 2.488281 3.308594 7.191407 3.972656 10.5 1.480468 17.945313-13.507812 39.324219-20.644531 61.847657-20.644531h.277343c28.140625.074219 54.332031 11.203125 73.757813 31.332031 19.542968 20.257813 29.789062 47.046876 28.847656 75.429688-1.046875 31.652344-15.710938 66.457031-42.402344 100.648438-22.089844 28.304687-46.910156 49.195312-58.09375 57.078124-1.410156.996094-3.300781.992188-4.699218-.007812-11.515626-8.21875-36.960938-29.855469-59.261719-58.828125-18.875-24.519531-41.371094-62.242187-41.371094-102.6875 0-19.828125 5.644531-39.074219 16.320313-55.664063 2.242187-3.480468 1.238281-8.121093-2.246094-10.363281zm0 0"/><path d="m311.71875 232.765625c0-30.75-25.015625-55.765625-55.757812-55.765625-30.746094 0-55.761719 25.015625-55.761719 55.765625s25.015625 55.769531 55.761719 55.769531c30.742187 0 55.757812-25.019531 55.757812-55.769531zm-96.519531 0c0-22.476563 18.285156-40.765625 40.761719-40.765625 22.472656 0 40.757812 18.289062 40.757812 40.765625 0 22.480469-18.285156 40.765625-40.757812 40.765625-22.476563 0-40.761719-18.285156-40.761719-40.765625zm0 0"/></svg>