<?xml version="1.0" encoding="UTF-8" standalone="no"?>
<!-- Created with Inkscape (http://www.inkscape.org/) -->

<svg
   xmlns:dc="http://purl.org/dc/elements/1.1/"
   xmlns:cc="http://creativecommons.org/ns#"
   xmlns:rdf="http://www.w3.org/1999/02/22-rdf-syntax-ns#"
   xmlns:svg="http://www.w3.org/2000/svg"
   xmlns="http://www.w3.org/2000/svg"
   xmlns:sodipodi="http://sodipodi.sourceforge.net/DTD/sodipodi-0.dtd"
   xmlns:inkscape="http://www.inkscape.org/namespaces/inkscape"
   width="209mm"
   height="262mm"
   viewBox="0 0 209 262"
   version="1.1"
   id="svg8"
   inkscape:version="0.92.4 (5da689c313, 2019-01-14)"
   sodipodi:docname="gps_small.svg">
  <defs
     id="defs2" />
  <sodipodi:namedview
     id="base"
     pagecolor="#ffffff"
     bordercolor="#666666"
     borderopacity="1.0"
     inkscape:pageopacity="0.0"
     inkscape:pageshadow="2"
     inkscape:zoom="0.35"
     inkscape:cx="400"
     inkscape:cy="560"
     inkscape:document-units="mm"
     inkscape:current-layer="layer1"
     showgrid="false"
     inkscape:window-width="1366"
     inkscape:window-height="745"
     inkscape:window-x="-8"
     inkscape:window-y="-8"
     inkscape:window-maximized="1" />
  <metadata
     id="metadata5">
    <rdf:RDF>
      <cc:Work
         rdf:about="">
        <dc:format>image/svg+xml</dc:format>
        <dc:type
           rdf:resource="http://purl.org/dc/dcmitype/StillImage" />
        <dc:title></dc:title>
      </cc:Work>
    </rdf:RDF>
  </metadata>
  <g
     inkscape:label="Layer 1"
     inkscape:groupmode="layer"
     id="layer1"
     transform="translate(0,-35)">
    <g
       id="g3727"
       transform="matrix(0.88143317,0,0,0.88143317,-120.71658,-65.046062)">
      <path
         id="path3715"
         d="m 167.0898,166.7383 c -3.4804,-2.2461 -8.125,-1.2344 -10.3632,2.246 -12.2422,19.0118 -18.711,41.0704 -18.711,63.7813 0,35.8594 14.9649,73.4883 44.4844,111.836 28.7813,37.3906 59.0742,59.496 62.4336,61.8906 3.3047,2.3594 7.1875,3.539 11.0703,3.539 3.8477,0 7.6953,-1.1601 10.9883,-3.4804 28.8281,-20.3242 104.2226,-90.3906 106.8437,-169.4883 1.0782,-32.4766 -10.6601,-63.1406 -33.0468,-86.3438 -22.2657,-23.0742 -52.2774,-35.832 -84.5118,-35.918 h -0.3164 c -25.8047,0 -50.3047,8.1798 -70.8672,23.6602 -3.3125,2.4922 -3.9726,7.1953 -1.4804,10.504 2.4883,3.3085 7.1914,3.9726 10.5,1.4804 17.9453,-13.5078 39.3242,-20.6445 61.8476,-20.6445 h 0.2774 c 28.1406,0.0742 54.332,11.2031 73.7578,31.332 19.543,20.2578 29.789,47.0469 28.8476,75.4297 -1.0468,31.6523 -15.7109,66.457 -42.4023,100.6484 -22.0898,28.3047 -46.9101,49.1953 -58.0937,57.0782 -1.4102,0.996 -3.3008,0.9921 -4.6993,-0.008 -11.5156,-8.2187 -36.9609,-29.8554 -59.2617,-58.828 -18.875,-24.5196 -41.371,-62.2423 -41.371,-102.6876 0,-19.8281 5.6445,-39.0742 16.3202,-55.664 2.2422,-3.4805 1.2383,-8.1211 -2.246,-10.3633 z m 0,0"
         inkscape:connector-curvature="0" />
      <path
         id="path3717"
         d="m 311.7188,232.7656 c 0,-30.75 -25.0157,-55.7656 -55.7579,-55.7656 -30.746,0 -55.7617,25.0156 -55.7617,55.7656 0,30.75 25.0156,55.7696 55.7617,55.7696 30.7422,0 55.7578,-25.0196 55.7578,-55.7696 z m -96.5196,0 c 0,-22.4765 18.2852,-40.7656 40.7617,-40.7656 22.4727,0 40.7578,18.289 40.7578,40.7656 0,22.4805 -18.2851,40.7656 -40.7578,40.7656 -22.4765,0 -40.7617,-18.2851 -40.7617,-40.7656 z m 0,0"
         inkscape:connector-curvature="0" />
    </g>
  </g>
</svg>
