<svg viewBox="0 0 512 512" xmlns="http://www.w3.org/2000/svg"><path d="m436.949219 74.980469c-48.34375-48.351563-112.621094-74.980469-180.988281-74.980469-68.371094 0-132.648438 26.628906-180.992188 74.980469-48.34375 48.351562-74.96875 112.640625-74.96875 181.019531 0 66.4375 25.335938 129.410156 71.335938 177.3125 2.867187 2.988281 7.617187 3.082031 10.601562.214844 2.988281-2.867188 3.085938-7.617188.214844-10.605469-43.304688-45.09375-67.152344-104.375-67.152344-166.921875 0-64.375 25.0625-124.894531 70.574219-170.414062 45.515625-45.515626 106.023437-70.585938 170.386719-70.585938 64.359374 0 124.871093 25.066406 170.382812 70.585938 45.511719 45.519531 70.574219 106.039062 70.574219 170.414062s-25.0625 124.894531-70.574219 170.414062c-45.515625 45.515626-106.023438 70.585938-170.382812 70.585938-55.351563 0-107.394532-18.25-150.5-52.777344-3.234376-2.589844-7.953126-2.066406-10.542969 1.164063-2.589844 3.234375-2.066407 7.953125 1.164062 10.542969 22.214844 17.792968 47.003907 31.648437 73.6875 41.191406 27.605469 9.871094 56.605469 14.878906 86.191407 14.878906 68.367187 0 132.644531-26.628906 180.988281-74.980469 48.34375-48.351562 74.96875-112.640625 74.96875-181.019531s-26.625-132.667969-74.96875-181.019531zm0 0"/><path d="m255.960938 113.777344c4.140624 0 7.5-3.355469 7.5-7.5 0-4.140625-3.359376-7.5-7.5-7.5-86.679688 0-157.199219 70.53125-157.199219 157.222656 0 17.789062 2.949219 35.238281 8.761719 51.859375 2.753906 7.890625 6.191406 15.652344 10.21875 23.082031.953124 1.757813 1.945312 3.503906 2.976562 5.234375 3.082031 5.191407 6.488281 10.234375 10.160156 15.054688.003906 0 .003906.003906.003906.003906 30.023438 39.394531 75.609376 61.988281 125.074219 61.988281 86.679688 0 157.199219-70.53125 157.199219-157.222656 0-35.84375-12.378906-70.910156-34.859375-98.738281-22.144531-27.414063-53.160156-46.796875-87.332031-54.570313-4.039063-.914062-8.058594 1.609375-8.976563 5.648438-.917969 4.039062 1.609375 8.058594 5.648438 8.980468 30.898437 7.027344 58.953125 24.5625 78.992187 49.367188 20.332032 25.167969 31.523438 56.886719 31.523438 89.3125 0 78.421875-63.789063 142.222656-142.195313 142.222656-42.507812 0-81.84375-18.457031-108.957031-50.863281l50.789062-48.472656 14.265626 15.378906c7 7.554687 16.925781 12 27.242187 12.203125 10.308594.1875 20.402344-3.882812 27.652344-11.132812l47.804687-47.25 12.867188 12.863281c3.617187 3.621093 9.007812 4.691406 13.730468 2.734375 4.726563-1.957032 7.78125-6.527344 7.78125-11.644532v-65.730468c0-8.347656-6.792968-15.140625-15.140624-15.140625h-65.71875c-5.117188 0-9.683594 3.054687-11.644532 7.777343-1.957031 4.726563-.886718 10.117188 2.730469 13.734376l12.796875 12.800781-31.507812 31.046875-13.929688-15.035156c-6.996094-7.550782-16.515625-11.878907-26.800781-12.1875-10.300781-.328126-20.0625 3.421874-27.5 10.523437l-54.183594 51.71875c-2.972656-11.546875-4.476563-23.457031-4.476563-35.546875.003907-78.421875 63.792969-142.222656 142.203126-142.222656zm-73.179688 136.902344c4.507812-4.308594 10.425781-6.558594 16.683594-6.382813 6.242187.1875 12.015625 2.8125 16.257812 7.390625l19.183594 20.710938c1.378906 1.488281 3.304688 2.351562 5.332031 2.398437 2.019531.027344 3.988281-.730469 5.4375-2.15625l38.734375-38.167969c2.410156-2.375 3.742188-5.546875 3.753906-8.933594.015626-3.382812-1.296874-6.5625-3.6875-8.957031l-10.414062-10.414062h59.933594c.078125 0 .140625.0625.140625.140625v59.941406l-10.457031-10.460938c-4.882813-4.882812-12.855469-4.90625-17.769532-.050781l-49.535156 48.960938c-4.417969 4.417969-10.550781 6.871093-16.792969 6.769531-6.253906-.121094-12.277343-2.816406-16.527343-7.398438l-19.4375-20.960937c-1.363282-1.472656-3.265626-2.335937-5.269532-2.394531-2-.066406-3.957031.683594-5.410156 2.066406l-55.007812 52.5c-5.875-8.726562-10.765626-18.0625-14.582032-27.871094zm0 0"/></svg>