<svg width="858" height="80" viewBox="0 0 858 80" fill="none" xmlns="http://www.w3.org/2000/svg">
<path d="M26.4708 30.3999C28.8238 30.3999 30.7374 28.4863 30.7374 26.1333C30.7374 23.7802 28.8238 21.8666 26.4708 21.8666C24.1177 21.8666 22.2041 23.7802 22.2041 26.1333C22.2041 28.4863 24.1174 30.3999 26.4708 30.3999ZM26.4708 23.9999C27.6468 23.9999 28.6041 24.9573 28.6041 26.1333C28.6041 27.3093 27.6468 28.2666 26.4708 28.2666C25.2948 28.2666 24.3374 27.3093 24.3374 26.1333C24.3374 24.9573 25.2945 23.9999 26.4708 23.9999ZM30.0628 15.9999C30.0628 15.3327 30.6036 14.7919 31.2705 14.7919C31.9374 14.7919 32.4782 15.3327 32.4782 15.9999C32.4782 16.6669 31.9374 17.2077 31.2705 17.2077C30.6036 17.2077 30.0628 16.6669 30.0628 15.9999ZM13.2785 31.9999C13.2785 32.6669 12.7377 33.2077 12.0708 33.2077C11.4038 33.2077 10.863 32.6669 10.863 31.9999C10.863 31.3327 11.4038 30.7919 12.0708 30.7919C12.7377 30.7919 13.2785 31.3327 13.2785 31.9999ZM68.0708 13.3333H54.0124C47.0604 13.3333 41.4041 18.9895 41.4041 25.9415V38.9333H28.4124C21.4604 38.9333 15.8041 44.5895 15.8041 51.5415V65.5999C15.8041 66.1895 16.2812 66.6666 16.8708 66.6666H30.9292C37.8812 66.6666 43.5374 61.0103 43.5374 54.0583V41.0666H56.5292C63.4812 41.0666 69.1374 35.4103 69.1374 28.4583V14.3999C69.1374 13.8103 68.6604 13.3333 68.0708 13.3333ZM41.4041 54.0583C41.4041 59.8343 36.7052 64.5332 30.9292 64.5332H17.9374V51.5415C17.9374 45.7655 22.6364 41.0666 28.4124 41.0666H41.4041V54.0583Z" fill="url(#paint0_linear)"/>
<path d="M90.088 17.6C92.792 17.6 94.8027 18.4147 96.12 20.044C97.472 21.6387 98.148 23.84 98.148 26.648V44.952C98.148 47.76 97.472 49.9787 96.12 51.608C94.8027 53.2027 92.792 54 90.088 54H82.08V17.6H90.088ZM90.036 51.816C91.9773 51.816 93.416 51.2267 94.352 50.048C95.288 48.8347 95.756 47.1707 95.756 45.056V26.544C95.756 24.464 95.288 22.8173 94.352 21.604C93.416 20.3907 91.9773 19.784 90.036 19.784H84.472V51.816H90.036ZM104.48 54H102.088V17.6H104.48V54ZM116.231 17.288C118.865 17.288 120.807 18.12 122.055 19.784C123.337 21.4133 123.979 23.6147 123.979 26.388V27.168H121.691V26.232C121.691 24.152 121.257 22.5053 120.391 21.292C119.524 20.0787 118.155 19.472 116.283 19.472C114.411 19.472 113.041 20.0787 112.175 21.292C111.308 22.5053 110.875 24.1347 110.875 26.18C110.875 27.4973 111.152 28.676 111.707 29.716C112.261 30.7213 112.937 31.6053 113.735 32.368C114.567 33.096 115.693 33.98 117.115 35.02C118.605 36.0947 119.819 37.048 120.755 37.88C121.691 38.712 122.471 39.7347 123.095 40.948C123.719 42.1613 124.031 43.5827 124.031 45.212C124.031 47.9853 123.389 50.204 122.107 51.868C120.824 53.4973 118.848 54.312 116.179 54.312C113.509 54.312 111.533 53.4973 110.251 51.868C108.968 50.204 108.327 47.9853 108.327 45.212V43.34H110.615V45.368C110.615 47.448 111.048 49.0947 111.915 50.308C112.816 51.4867 114.22 52.076 116.127 52.076C118.033 52.076 119.42 51.4867 120.287 50.308C121.188 49.0947 121.639 47.448 121.639 45.368C121.639 44.0507 121.361 42.8893 120.807 41.884C120.252 40.8787 119.559 40.012 118.727 39.284C117.929 38.5213 116.837 37.6373 115.451 36.632C113.96 35.5573 112.747 34.604 111.811 33.772C110.875 32.9053 110.077 31.8653 109.419 30.652C108.795 29.404 108.483 27.9653 108.483 26.336C108.483 23.528 109.124 21.3267 110.407 19.732C111.689 18.1373 113.631 17.3227 116.231 17.288ZM135.581 17.288C138.25 17.288 140.226 18.1373 141.509 19.836C142.791 21.5 143.433 23.7187 143.433 26.492V29.508H141.145V26.336C141.145 24.256 140.694 22.592 139.793 21.344C138.926 20.096 137.539 19.472 135.633 19.472C133.726 19.472 132.322 20.096 131.421 21.344C130.554 22.592 130.121 24.256 130.121 26.336V45.264C130.121 47.344 130.554 49.008 131.421 50.256C132.322 51.4693 133.726 52.076 135.633 52.076C137.539 52.076 138.926 51.4693 139.793 50.256C140.694 49.008 141.145 47.344 141.145 45.264V40.948H143.433V45.108C143.433 47.8813 142.791 50.1173 141.509 51.816C140.226 53.48 138.25 54.312 135.581 54.312C132.911 54.312 130.935 53.48 129.653 51.816C128.37 50.1173 127.729 47.8813 127.729 45.108V26.492C127.729 23.7187 128.37 21.5 129.653 19.836C130.935 18.1373 132.911 17.288 135.581 17.288ZM154.926 17.6C160.126 17.6 162.726 20.3387 162.726 25.816V28.988C162.726 31.1373 162.293 32.836 161.426 34.084C160.594 35.2973 159.277 36.112 157.474 36.528C160.975 37.2907 162.726 39.7693 162.726 43.964V49.632C162.726 51.6427 163.021 53.0987 163.61 54H161.114C160.802 53.48 160.594 52.8907 160.49 52.232C160.386 51.5387 160.334 50.672 160.334 49.632V43.912C160.334 41.624 159.762 40.0293 158.618 39.128C157.474 38.192 155.775 37.724 153.522 37.724H149.726V54H147.334V17.6H154.926ZM153.574 35.54C155.862 35.54 157.561 35.1067 158.67 34.24C159.779 33.3733 160.334 31.7787 160.334 29.456V26.024C160.334 23.9787 159.901 22.436 159.034 21.396C158.167 20.3213 156.781 19.784 154.874 19.784H149.726V35.54H153.574ZM169.785 54H167.393V17.6H169.785V54ZM183.771 53.948L176.075 21.76V54H173.943V17.6H177.375L185.019 49.788L192.611 17.6H196.043V54H193.755V21.656L186.163 53.948H183.771ZM202.589 54H200.197V17.6H202.589V54ZM206.748 54V17.6H209.868L220.788 48.332V17.6H222.972V54H220.32L208.932 21.552V54H206.748ZM228.724 54H226.54L234.496 17.548H237.98L246.092 54H243.7L241.88 45.94H230.544L228.724 54ZM241.516 43.86L236.16 20.304L230.908 43.86H241.516ZM256.001 19.784H248.565V17.6H265.777V19.784H258.393V54H256.001V19.784ZM268.748 26.492C268.748 23.7187 269.407 21.5 270.724 19.836C272.076 18.1373 274.07 17.288 276.704 17.288C279.408 17.288 281.419 18.12 282.736 19.784C284.088 21.448 284.764 23.684 284.764 26.492V45.108C284.764 47.916 284.088 50.152 282.736 51.816C281.419 53.48 279.408 54.312 276.704 54.312C274.07 54.312 272.076 53.48 270.724 51.816C269.407 50.1173 268.748 47.8813 268.748 45.108V26.492ZM271.14 45.264C271.14 47.3787 271.591 49.06 272.492 50.308C273.394 51.5213 274.798 52.128 276.704 52.128C278.646 52.128 280.067 51.5213 280.968 50.308C281.904 49.06 282.372 47.3787 282.372 45.264V26.336C282.372 24.2213 281.904 22.5573 280.968 21.344C280.067 20.096 278.646 19.472 276.704 19.472C274.798 19.472 273.394 20.096 272.492 21.344C271.591 22.5573 271.14 24.2213 271.14 26.336V45.264ZM296.301 17.6C301.501 17.6 304.101 20.3387 304.101 25.816V28.988C304.101 31.1373 303.668 32.836 302.801 34.084C301.969 35.2973 300.652 36.112 298.849 36.528C302.35 37.2907 304.101 39.7693 304.101 43.964V49.632C304.101 51.6427 304.396 53.0987 304.985 54H302.489C302.177 53.48 301.969 52.8907 301.865 52.232C301.761 51.5387 301.709 50.672 301.709 49.632V43.912C301.709 41.624 301.137 40.0293 299.993 39.128C298.849 38.192 297.15 37.724 294.897 37.724H291.101V54H288.709V17.6H296.301ZM294.949 35.54C297.237 35.54 298.936 35.1067 300.045 34.24C301.154 33.3733 301.709 31.7787 301.709 29.456V26.024C301.709 23.9787 301.276 22.436 300.409 21.396C299.542 20.3213 298.156 19.784 296.249 19.784H291.101V35.54H294.949ZM307.584 17.6H310.08L317.048 36.736L324.016 17.6H326.356L318.14 40.012V54H315.748V40.012L307.584 17.6Z" fill="url(#paint1_linear)"/>
<path d="M349.372 18.784H341.936V16.6H359.148V18.784H351.764V53H349.372V18.784ZM362.119 25.492C362.119 22.7187 362.778 20.5 364.095 18.836C365.447 17.1373 367.441 16.288 370.075 16.288C372.779 16.288 374.79 17.12 376.107 18.784C377.459 20.448 378.135 22.684 378.135 25.492V44.108C378.135 46.916 377.459 49.152 376.107 50.816C374.79 52.48 372.779 53.312 370.075 53.312C367.441 53.312 365.447 52.48 364.095 50.816C362.778 49.1173 362.119 46.8813 362.119 44.108V25.492ZM364.511 44.264C364.511 46.3787 364.962 48.06 365.863 49.308C366.765 50.5213 368.169 51.128 370.075 51.128C372.017 51.128 373.438 50.5213 374.339 49.308C375.275 48.06 375.743 46.3787 375.743 44.264V25.336C375.743 23.2213 375.275 21.5573 374.339 20.344C373.438 19.096 372.017 18.472 370.075 18.472C368.169 18.472 366.765 19.096 365.863 20.344C364.962 21.5573 364.511 23.2213 364.511 25.336V44.264ZM389.776 16.288C392.445 16.288 394.421 17.1373 395.704 18.836C396.987 20.5 397.628 22.7187 397.628 25.492V28.196H395.34V25.336C395.34 23.256 394.889 21.592 393.988 20.344C393.121 19.096 391.735 18.472 389.828 18.472C387.921 18.472 386.517 19.096 385.616 20.344C384.749 21.592 384.316 23.256 384.316 25.336V44.264C384.316 46.344 384.749 48.008 385.616 49.256C386.517 50.4693 387.921 51.076 389.828 51.076C391.735 51.076 393.121 50.4693 393.988 49.256C394.889 48.008 395.34 46.344 395.34 44.264V36.412H390.504V34.228H397.628V44.108C397.628 46.8813 396.987 49.1173 395.704 50.816C394.421 52.48 392.445 53.312 389.776 53.312C387.107 53.312 385.131 52.48 383.848 50.816C382.565 49.1173 381.924 46.8813 381.924 44.108V25.492C381.924 22.7187 382.565 20.5 383.848 18.836C385.131 17.1373 387.107 16.288 389.776 16.288ZM413.955 35.632H404.023V50.816H415.983V53H401.631V16.6H415.983V18.784H404.023V33.448H413.955V35.632ZM426.153 18.784H418.717V16.6H435.929V18.784H428.545V53H426.153V18.784ZM441.449 53H439.057V16.6H441.449V33.708H452.785V16.6H455.229V53H452.785V35.892H441.449V53ZM471.693 35.632H461.761V50.816H473.721V53H459.369V16.6H473.721V18.784H461.761V33.448H471.693V35.632ZM485.192 16.6C490.392 16.6 492.992 19.3387 492.992 24.816V27.988C492.992 30.1373 492.558 31.836 491.692 33.084C490.86 34.2973 489.542 35.112 487.74 35.528C491.241 36.2907 492.992 38.7693 492.992 42.964V48.632C492.992 50.6427 493.286 52.0987 493.876 53H491.38C491.068 52.48 490.86 51.8907 490.756 51.232C490.652 50.5387 490.6 49.672 490.6 48.632V42.912C490.6 40.624 490.028 39.0293 488.884 38.128C487.74 37.192 486.041 36.724 483.788 36.724H479.992V53H477.6V16.6H485.192ZM483.84 34.54C486.128 34.54 487.826 34.1067 488.936 33.24C490.045 32.3733 490.6 30.7787 490.6 28.456V25.024C490.6 22.9787 490.166 21.436 489.3 20.396C488.433 19.3213 487.046 18.784 485.14 18.784H479.992V34.54H483.84ZM512.024 18.784H504.588V16.6H521.8V18.784H514.416V53H512.024V18.784ZM524.772 25.492C524.772 22.7187 525.43 20.5 526.748 18.836C528.1 17.1373 530.093 16.288 532.728 16.288C535.432 16.288 537.442 17.12 538.76 18.784C540.112 20.448 540.788 22.684 540.788 25.492V44.108C540.788 46.916 540.112 49.152 538.76 50.816C537.442 52.48 535.432 53.312 532.728 53.312C530.093 53.312 528.1 52.48 526.748 50.816C525.43 49.1173 524.772 46.8813 524.772 44.108V25.492ZM527.164 44.264C527.164 46.3787 527.614 48.06 528.516 49.308C529.417 50.5213 530.821 51.128 532.728 51.128C534.669 51.128 536.09 50.5213 536.992 49.308C537.928 48.06 538.396 46.3787 538.396 44.264V25.336C538.396 23.2213 537.928 21.5573 536.992 20.344C536.09 19.096 534.669 18.472 532.728 18.472C530.821 18.472 529.417 19.096 528.516 20.344C527.614 21.5573 527.164 23.2213 527.164 25.336V44.264ZM565.131 35.632H555.199V50.816H567.159V53H552.807V16.6H567.159V18.784H555.199V33.448H565.131V35.632ZM571.037 53V16.6H574.157L585.077 47.332V16.6H587.261V53H584.609L573.221 20.552V53H571.037ZM599.358 16.6C602.062 16.6 604.072 17.4147 605.39 19.044C606.742 20.6387 607.418 22.84 607.418 25.648V43.952C607.418 46.76 606.742 48.9787 605.39 50.608C604.072 52.2027 602.062 53 599.358 53H591.35V16.6H599.358ZM599.306 50.816C601.247 50.816 602.686 50.2267 603.622 49.048C604.558 47.8347 605.026 46.1707 605.026 44.056V25.544C605.026 23.464 604.558 21.8173 603.622 20.604C602.686 19.3907 601.247 18.784 599.306 18.784H593.742V50.816H599.306ZM627.44 16.6C630.144 16.6 632.154 17.4147 633.472 19.044C634.824 20.6387 635.5 22.84 635.5 25.648V43.952C635.5 46.76 634.824 48.9787 633.472 50.608C632.154 52.2027 630.144 53 627.44 53H619.432V16.6H627.44ZM627.388 50.816C629.329 50.816 630.768 50.2267 631.704 49.048C632.64 47.8347 633.108 46.1707 633.108 44.056V25.544C633.108 23.464 632.64 21.8173 631.704 20.604C630.768 19.3907 629.329 18.784 627.388 18.784H621.824V50.816H627.388ZM641.831 53H639.439V16.6H641.831V53ZM653.582 16.288C656.217 16.288 658.158 17.12 659.406 18.784C660.689 20.4133 661.33 22.6147 661.33 25.388V26.168H659.042V25.232C659.042 23.152 658.609 21.5053 657.742 20.292C656.875 19.0787 655.506 18.472 653.634 18.472C651.762 18.472 650.393 19.0787 649.526 20.292C648.659 21.5053 648.226 23.1347 648.226 25.18C648.226 26.4973 648.503 27.676 649.058 28.716C649.613 29.7213 650.289 30.6053 651.086 31.368C651.918 32.096 653.045 32.98 654.466 34.02C655.957 35.0947 657.17 36.048 658.106 36.88C659.042 37.712 659.822 38.7347 660.446 39.948C661.07 41.1613 661.382 42.5827 661.382 44.212C661.382 46.9853 660.741 49.204 659.458 50.868C658.175 52.4973 656.199 53.312 653.53 53.312C650.861 53.312 648.885 52.4973 647.602 50.868C646.319 49.204 645.678 46.9853 645.678 44.212V42.34H647.966V44.368C647.966 46.448 648.399 48.0947 649.266 49.308C650.167 50.4867 651.571 51.076 653.478 51.076C655.385 51.076 656.771 50.4867 657.638 49.308C658.539 48.0947 658.99 46.448 658.99 44.368C658.99 43.0507 658.713 41.8893 658.158 40.884C657.603 39.8787 656.91 39.012 656.078 38.284C655.281 37.5213 654.189 36.6373 652.802 35.632C651.311 34.5573 650.098 33.604 649.162 32.772C648.226 31.9053 647.429 30.8653 646.77 29.652C646.146 28.404 645.834 26.9653 645.834 25.336C645.834 22.528 646.475 20.3267 647.758 18.732C649.041 17.1373 650.982 16.3227 653.582 16.288ZM672.932 16.288C675.602 16.288 677.578 17.1373 678.86 18.836C680.143 20.5 680.784 22.7187 680.784 25.492V28.508H678.496V25.336C678.496 23.256 678.046 21.592 677.144 20.344C676.278 19.096 674.891 18.472 672.984 18.472C671.078 18.472 669.674 19.096 668.772 20.344C667.906 21.592 667.472 23.256 667.472 25.336V44.264C667.472 46.344 667.906 48.008 668.772 49.256C669.674 50.4693 671.078 51.076 672.984 51.076C674.891 51.076 676.278 50.4693 677.144 49.256C678.046 48.008 678.496 46.344 678.496 44.264V39.948H680.784V44.108C680.784 46.8813 680.143 49.1173 678.86 50.816C677.578 52.48 675.602 53.312 672.932 53.312C670.263 53.312 668.287 52.48 667.004 50.816C665.722 49.1173 665.08 46.8813 665.08 44.108V25.492C665.08 22.7187 665.722 20.5 667.004 18.836C668.287 17.1373 670.263 16.288 672.932 16.288ZM692.277 16.6C697.477 16.6 700.077 19.3387 700.077 24.816V27.988C700.077 30.1373 699.644 31.836 698.777 33.084C697.945 34.2973 696.628 35.112 694.825 35.528C698.327 36.2907 700.077 38.7693 700.077 42.964V48.632C700.077 50.6427 700.372 52.0987 700.961 53H698.465C698.153 52.48 697.945 51.8907 697.841 51.232C697.737 50.5387 697.685 49.672 697.685 48.632V42.912C697.685 40.624 697.113 39.0293 695.969 38.128C694.825 37.192 693.127 36.724 690.873 36.724H687.077V53H684.685V16.6H692.277ZM690.925 34.54C693.213 34.54 694.912 34.1067 696.021 33.24C697.131 32.3733 697.685 30.7787 697.685 28.456V25.024C697.685 22.9787 697.252 21.436 696.385 20.396C695.519 19.3213 694.132 18.784 692.225 18.784H687.077V34.54H690.925ZM707.136 53H704.744V16.6H707.136V53ZM721.123 52.948L713.427 20.76V53H711.295V16.6H714.727L722.371 48.788L729.963 16.6H733.395V53H731.107V20.656L723.515 52.948H721.123ZM739.941 53H737.549V16.6H739.941V53ZM744.1 53V16.6H747.22L758.14 47.332V16.6H760.324V53H757.672L746.284 20.552V53H744.1ZM766.076 53H763.892L771.848 16.548H775.332L783.444 53H781.052L779.232 44.94H767.896L766.076 53ZM778.868 42.86L773.512 19.304L768.26 42.86H778.868ZM793.352 18.784H785.916V16.6H803.128V18.784H795.744V53H793.352V18.784ZM808.648 53H806.256V16.6H808.648V53ZM812.651 25.492C812.651 22.7187 813.309 20.5 814.627 18.836C815.979 17.1373 817.972 16.288 820.607 16.288C823.311 16.288 825.321 17.12 826.639 18.784C827.991 20.448 828.667 22.684 828.667 25.492V44.108C828.667 46.916 827.991 49.152 826.639 50.816C825.321 52.48 823.311 53.312 820.607 53.312C817.972 53.312 815.979 52.48 814.627 50.816C813.309 49.1173 812.651 46.8813 812.651 44.108V25.492ZM815.043 44.264C815.043 46.3787 815.493 48.06 816.395 49.308C817.296 50.5213 818.7 51.128 820.607 51.128C822.548 51.128 823.969 50.5213 824.871 49.308C825.807 48.06 826.275 46.3787 826.275 44.264V25.336C826.275 23.2213 825.807 21.5573 824.871 20.344C823.969 19.096 822.548 18.472 820.607 18.472C818.7 18.472 817.296 19.096 816.395 20.344C815.493 21.5573 815.043 23.2213 815.043 25.336V44.264ZM832.611 53V16.6H835.731L846.651 47.332V16.6H848.835V53H846.183L834.795 20.552V53H832.611ZM855.264 53H852.924V48.424H855.264V53Z" fill="black"/>
<defs>
<linearGradient id="paint0_linear" x1="11.174" y1="61.4122" x2="63.8828" y2="8.70311" gradientUnits="userSpaceOnUse">
<stop stop-color="#107EFF"/>
<stop offset="1" stop-color="#8F16FF"/>
</linearGradient>
<linearGradient id="paint1_linear" x1="275.789" y1="15.0001" x2="76.4333" y2="63.1936" gradientUnits="userSpaceOnUse">
<stop stop-color="#A430FF"/>
<stop offset="1" stop-color="#3076FF"/>
</linearGradient>
</defs>
</svg>
