<svg width="858" height="80" viewBox="0 0 858 80" fill="none" xmlns="http://www.w3.org/2000/svg">
<path d="M556.471 30.3999C558.824 30.3999 560.737 28.4863 560.737 26.1333C560.737 23.7802 558.824 21.8666 556.471 21.8666C554.117 21.8666 552.204 23.7802 552.204 26.1333C552.204 28.4863 554.117 30.3999 556.471 30.3999ZM556.471 23.9999C557.647 23.9999 558.604 24.9573 558.604 26.1333C558.604 27.3093 557.647 28.2666 556.471 28.2666C555.295 28.2666 554.337 27.3093 554.337 26.1333C554.337 24.9573 555.294 23.9999 556.471 23.9999ZM560.063 15.9999C560.063 15.3327 560.603 14.7919 561.27 14.7919C561.937 14.7919 562.478 15.3327 562.478 15.9999C562.478 16.6669 561.937 17.2077 561.27 17.2077C560.603 17.2077 560.063 16.6669 560.063 15.9999ZM543.278 31.9999C543.278 32.6669 542.737 33.2077 542.071 33.2077C541.404 33.2077 540.863 32.6669 540.863 31.9999C540.863 31.3327 541.404 30.7919 542.071 30.7919C542.737 30.7919 543.278 31.3327 543.278 31.9999ZM598.071 13.3333H584.012C577.06 13.3333 571.404 18.9895 571.404 25.9415V38.9333H558.412C551.46 38.9333 545.804 44.5895 545.804 51.5415V65.5999C545.804 66.1895 546.281 66.6666 546.871 66.6666H560.929C567.881 66.6666 573.537 61.0103 573.537 54.0583V41.0666H586.529C593.481 41.0666 599.137 35.4103 599.137 28.4583V14.3999C599.137 13.8103 598.66 13.3333 598.071 13.3333ZM571.404 54.0583C571.404 59.8343 566.705 64.5332 560.929 64.5332H547.937V51.5415C547.937 45.7655 552.636 41.0666 558.412 41.0666H571.404V54.0583Z" fill="url(#paint0_linear)"/>
<path d="M620.088 17.6C622.792 17.6 624.803 18.4147 626.12 20.044C627.472 21.6387 628.148 23.84 628.148 26.648V44.952C628.148 47.76 627.472 49.9787 626.12 51.608C624.803 53.2027 622.792 54 620.088 54H612.08V17.6H620.088ZM620.036 51.816C621.977 51.816 623.416 51.2267 624.352 50.048C625.288 48.8347 625.756 47.1707 625.756 45.056V26.544C625.756 24.464 625.288 22.8173 624.352 21.604C623.416 20.3907 621.977 19.784 620.036 19.784H614.472V51.816H620.036ZM634.48 54H632.088V17.6H634.48V54ZM646.231 17.288C648.865 17.288 650.807 18.12 652.055 19.784C653.337 21.4133 653.979 23.6147 653.979 26.388V27.168H651.691V26.232C651.691 24.152 651.257 22.5053 650.391 21.292C649.524 20.0787 648.155 19.472 646.283 19.472C644.411 19.472 643.041 20.0787 642.175 21.292C641.308 22.5053 640.875 24.1347 640.875 26.18C640.875 27.4973 641.152 28.676 641.707 29.716C642.261 30.7213 642.937 31.6053 643.735 32.368C644.567 33.096 645.693 33.98 647.115 35.02C648.605 36.0947 649.819 37.048 650.755 37.88C651.691 38.712 652.471 39.7347 653.095 40.948C653.719 42.1613 654.031 43.5827 654.031 45.212C654.031 47.9853 653.389 50.204 652.107 51.868C650.824 53.4973 648.848 54.312 646.179 54.312C643.509 54.312 641.533 53.4973 640.251 51.868C638.968 50.204 638.327 47.9853 638.327 45.212V43.34H640.615V45.368C640.615 47.448 641.048 49.0947 641.915 50.308C642.816 51.4867 644.22 52.076 646.127 52.076C648.033 52.076 649.42 51.4867 650.287 50.308C651.188 49.0947 651.639 47.448 651.639 45.368C651.639 44.0507 651.361 42.8893 650.807 41.884C650.252 40.8787 649.559 40.012 648.727 39.284C647.929 38.5213 646.837 37.6373 645.451 36.632C643.96 35.5573 642.747 34.604 641.811 33.772C640.875 32.9053 640.077 31.8653 639.419 30.652C638.795 29.404 638.483 27.9653 638.483 26.336C638.483 23.528 639.124 21.3267 640.407 19.732C641.689 18.1373 643.631 17.3227 646.231 17.288ZM665.581 17.288C668.25 17.288 670.226 18.1373 671.509 19.836C672.791 21.5 673.433 23.7187 673.433 26.492V29.508H671.145V26.336C671.145 24.256 670.694 22.592 669.793 21.344C668.926 20.096 667.539 19.472 665.633 19.472C663.726 19.472 662.322 20.096 661.421 21.344C660.554 22.592 660.121 24.256 660.121 26.336V45.264C660.121 47.344 660.554 49.008 661.421 50.256C662.322 51.4693 663.726 52.076 665.633 52.076C667.539 52.076 668.926 51.4693 669.793 50.256C670.694 49.008 671.145 47.344 671.145 45.264V40.948H673.433V45.108C673.433 47.8813 672.791 50.1173 671.509 51.816C670.226 53.48 668.25 54.312 665.581 54.312C662.911 54.312 660.935 53.48 659.653 51.816C658.37 50.1173 657.729 47.8813 657.729 45.108V26.492C657.729 23.7187 658.37 21.5 659.653 19.836C660.935 18.1373 662.911 17.288 665.581 17.288ZM684.926 17.6C690.126 17.6 692.726 20.3387 692.726 25.816V28.988C692.726 31.1373 692.293 32.836 691.426 34.084C690.594 35.2973 689.277 36.112 687.474 36.528C690.975 37.2907 692.726 39.7693 692.726 43.964V49.632C692.726 51.6427 693.021 53.0987 693.61 54H691.114C690.802 53.48 690.594 52.8907 690.49 52.232C690.386 51.5387 690.334 50.672 690.334 49.632V43.912C690.334 41.624 689.762 40.0293 688.618 39.128C687.474 38.192 685.775 37.724 683.522 37.724H679.726V54H677.334V17.6H684.926ZM683.574 35.54C685.862 35.54 687.561 35.1067 688.67 34.24C689.779 33.3733 690.334 31.7787 690.334 29.456V26.024C690.334 23.9787 689.901 22.436 689.034 21.396C688.167 20.3213 686.781 19.784 684.874 19.784H679.726V35.54H683.574ZM699.785 54H697.393V17.6H699.785V54ZM713.771 53.948L706.075 21.76V54H703.943V17.6H707.375L715.019 49.788L722.611 17.6H726.043V54H723.755V21.656L716.163 53.948H713.771ZM732.589 54H730.197V17.6H732.589V54ZM736.748 54V17.6H739.868L750.788 48.332V17.6H752.972V54H750.32L738.932 21.552V54H736.748ZM758.724 54H756.54L764.496 17.548H767.98L776.092 54H773.7L771.88 45.94H760.544L758.724 54ZM771.516 43.86L766.16 20.304L760.908 43.86H771.516ZM786.001 19.784H778.565V17.6H795.777V19.784H788.393V54H786.001V19.784ZM798.748 26.492C798.748 23.7187 799.407 21.5 800.724 19.836C802.076 18.1373 804.07 17.288 806.704 17.288C809.408 17.288 811.419 18.12 812.736 19.784C814.088 21.448 814.764 23.684 814.764 26.492V45.108C814.764 47.916 814.088 50.152 812.736 51.816C811.419 53.48 809.408 54.312 806.704 54.312C804.07 54.312 802.076 53.48 800.724 51.816C799.407 50.1173 798.748 47.8813 798.748 45.108V26.492ZM801.14 45.264C801.14 47.3787 801.591 49.06 802.492 50.308C803.394 51.5213 804.798 52.128 806.704 52.128C808.646 52.128 810.067 51.5213 810.968 50.308C811.904 49.06 812.372 47.3787 812.372 45.264V26.336C812.372 24.2213 811.904 22.5573 810.968 21.344C810.067 20.096 808.646 19.472 806.704 19.472C804.798 19.472 803.394 20.096 802.492 21.344C801.591 22.5573 801.14 24.2213 801.14 26.336V45.264ZM826.301 17.6C831.501 17.6 834.101 20.3387 834.101 25.816V28.988C834.101 31.1373 833.668 32.836 832.801 34.084C831.969 35.2973 830.652 36.112 828.849 36.528C832.35 37.2907 834.101 39.7693 834.101 43.964V49.632C834.101 51.6427 834.396 53.0987 834.985 54H832.489C832.177 53.48 831.969 52.8907 831.865 52.232C831.761 51.5387 831.709 50.672 831.709 49.632V43.912C831.709 41.624 831.137 40.0293 829.993 39.128C828.849 38.192 827.15 37.724 824.897 37.724H821.101V54H818.709V17.6H826.301ZM824.949 35.54C827.237 35.54 828.936 35.1067 830.045 34.24C831.154 33.3733 831.709 31.7787 831.709 29.456V26.024C831.709 23.9787 831.276 22.436 830.409 21.396C829.542 20.3213 828.156 19.784 826.249 19.784H821.101V35.54H824.949ZM837.584 17.6H840.08L847.048 36.736L854.016 17.6H856.356L848.14 40.012V54H845.748V40.012L837.584 17.6Z" fill="url(#paint1_linear)"/>
<path d="M29.744 46.268H32.604V51H29.744V46.268ZM56.4314 51H50.8674V51.936C50.8674 55.9573 50.1567 58.956 48.7354 60.932C47.3487 62.9427 45.1994 63.948 42.2874 63.948C41.802 63.948 40.5194 63.8613 38.4394 63.688V61.348C40.45 61.4867 41.7674 61.556 42.3914 61.556C44.298 61.556 45.7194 60.776 46.6554 59.216C47.626 57.6907 48.1114 55.576 48.1114 52.872V25.052H50.8674V48.608H56.4314V51ZM47.9554 16.836H50.8154V20.164H47.9554V16.836ZM74.618 48.608V51H56.418V48.608H64.166V25H66.87V48.608H74.618ZM60.89 55.16H64.218V58.592H60.89V55.16ZM66.766 55.16H70.094V58.592H66.766V55.16ZM92.7977 48.608V51H74.5977V48.608H82.3457V25H85.0497V48.608H92.7977ZM79.0697 55.16H82.3977V58.592H79.0697V55.16ZM84.9457 55.16H88.2737V58.592H84.9457V55.16ZM127.877 48.608V51H126.733C126.075 51 125.312 50.844 124.445 50.532C123.613 50.22 122.799 49.7867 122.001 49.232V51H92.7773V48.608H101.565C101.08 45.5573 100.837 42.16 100.837 38.416C100.837 35.8507 100.941 33.424 101.149 31.136C101.392 28.8133 101.669 27.0107 101.981 25.728C102.779 25.416 103.905 25.1387 105.361 24.896C106.852 24.6187 108.377 24.48 109.937 24.48C113.785 24.48 116.749 25.4853 118.829 27.496C120.944 29.5067 122.001 33.008 122.001 38V46.84C122.66 47.36 123.353 47.7933 124.081 48.14C124.809 48.452 125.693 48.608 126.733 48.608H127.877ZM103.645 38.416C103.645 40.3573 103.715 42.264 103.853 44.136C104.027 46.008 104.2 47.4987 104.373 48.608H119.245V38C119.245 33.944 118.379 31.084 116.645 29.42C114.947 27.7213 112.503 26.872 109.313 26.872C107.684 26.872 106.072 27.0627 104.477 27.444C103.923 30.8413 103.645 34.4987 103.645 38.416ZM146.067 48.608V51H127.867V48.608H135.615V25H138.319V48.608H146.067ZM132.443 16.732H135.771V20.164H132.443V16.732ZM138.319 16.732H141.647V20.164H138.319V16.732ZM155.147 13.248V51H146.047V48.608H152.443V13.248H155.147ZM164.951 13.248H167.706V51H164.951V13.248ZM230.264 51H223.348L223.4 52.248C223.4 54.3627 223.001 56.304 222.204 58.072C221.407 59.84 220.159 61.244 218.46 62.284C216.796 63.3587 214.716 63.896 212.22 63.896H198.908C196.273 63.896 193.968 63.428 191.992 62.492C190.051 61.556 188.543 60.2733 187.468 58.644C186.428 57.0493 185.908 55.2987 185.908 53.392C185.908 52.456 186.029 50.8787 186.272 48.66C186.549 46.4413 186.879 44.032 187.26 41.432L189.86 41.848C189.028 47.568 188.612 51.1387 188.612 52.56C188.612 54.3627 189.08 55.94 190.016 57.292C190.952 58.644 192.183 59.684 193.708 60.412C195.268 61.14 196.915 61.504 198.648 61.504L212.064 61.556C213.901 61.556 215.479 61.1227 216.796 60.256C218.113 59.3893 219.101 58.2627 219.76 56.876C220.419 55.4893 220.748 54.0333 220.748 52.508C220.748 52.1267 220.713 51.624 220.644 51H218.928C216.397 51 214.508 50.6187 213.26 49.856L214.352 47.984C214.837 48.2613 215.444 48.4347 216.172 48.504C216.935 48.5733 217.957 48.608 219.24 48.608H230.264V51ZM246.466 48.608V51H230.242V48.608H236.638V13.248H239.342V48.608H246.466ZM273.377 48.608V51H246.441V48.608H257.205C256.061 47.4293 255.073 45.7653 254.241 43.616C253.444 41.432 253.045 39.0573 253.045 36.492C253.045 33.06 253.808 30.2173 255.333 27.964C256.893 25.676 259.58 24.532 263.393 24.532C264.78 24.532 266.219 24.7053 267.709 25.052C269.2 25.3987 270.569 25.9187 271.817 26.612L271.765 28.848C271.592 28.6747 271.055 28.432 270.153 28.12C269.252 27.808 268.212 27.5307 267.033 27.288C265.855 27.0453 264.763 26.924 263.757 26.924C261.019 26.924 258.991 27.8427 257.673 29.68C256.391 31.4827 255.749 33.8227 255.749 36.7C255.749 39.2307 256.217 41.5533 257.153 43.668C258.089 45.748 259.251 47.3947 260.637 48.608H273.377ZM312.043 45.904L289.579 51L288.851 48.452L294.155 47.1C292.907 45.8867 291.971 44.5173 291.347 42.992C290.723 41.432 290.411 39.8547 290.411 38.26C290.411 36.3187 290.862 34.4813 291.763 32.748C292.699 31.0147 294.017 29.628 295.715 28.588C297.414 27.5133 299.373 26.976 301.591 26.976C303.741 26.976 305.977 27.444 308.299 28.38L307.727 31.032C306.029 30.3387 304.399 29.992 302.839 29.992C301.071 29.992 299.511 30.408 298.159 31.24C296.807 32.072 295.767 33.1813 295.039 34.568C294.311 35.92 293.947 37.376 293.947 38.936C293.947 41.9173 295.143 44.3613 297.535 46.268L311.315 42.784L312.043 45.904ZM326.916 48.608V51H319.376V13.248H322.132V48.608H326.916ZM369.258 48.608V51H326.93V48.608H334.834V25H337.538V33.32C339.098 31.3787 340.502 29.8013 341.75 28.588C343.032 27.3747 344.523 26.3867 346.222 25.624C347.92 24.8613 349.879 24.48 352.098 24.48C356.466 24.48 359.551 25.832 361.354 28.536C363.191 31.2053 364.11 34.3427 364.11 37.948V48.608H369.258ZM352.202 26.872C350.156 26.872 348.267 27.34 346.534 28.276C344.835 29.212 343.414 30.2693 342.27 31.448C341.126 32.592 339.912 33.944 338.63 35.504C338.075 36.1973 337.711 36.6307 337.538 36.804V48.608H361.406V38.156C361.406 34.932 360.626 32.2453 359.066 30.096C357.54 27.9467 355.252 26.872 352.202 26.872ZM347.834 16.836H350.694V20.164H347.834V16.836ZM399.701 48.608V51H369.281V48.608H377.549C376.856 47.4987 376.388 46.216 376.145 44.76C375.937 43.304 375.833 41.432 375.833 39.144C375.833 35.3653 376.145 32.488 376.769 30.512C377.428 28.5013 378.572 27.0973 380.201 26.3C381.865 25.468 384.275 25.052 387.429 25.052C389.96 25.052 392.3 25.1733 394.449 25.416L395.333 25.52V48.608H399.701ZM378.433 38.416C378.433 43.7547 379.161 47.152 380.617 48.608H392.629V27.6C390.237 27.392 388.365 27.288 387.013 27.288C384.691 27.288 382.905 27.6867 381.657 28.484C380.444 29.2467 379.595 30.4253 379.109 32.02C378.659 33.58 378.433 35.712 378.433 38.416ZM380.253 16.732H383.581V20.164H380.253V16.732ZM386.129 16.732H389.457V20.164H386.129V16.732ZM415.923 48.608V51H399.699V48.608H406.095V13.248H408.799V48.608H415.923ZM424.998 13.248V51H415.898V48.608H422.294V13.248H424.998ZM453.768 48.608V51H446.228V13.248H448.984V48.608H453.768ZM484.461 48.608V51H479.573C477.875 51 476.107 50.792 474.269 50.376C472.432 49.9253 470.785 49.3187 469.329 48.556C467.908 49.284 466.313 49.8733 464.545 50.324C462.812 50.7747 461.061 51 459.293 51H453.781V48.608H459.137C461.703 48.608 464.233 48.088 466.729 47.048C464.719 45.592 463.003 43.876 461.581 41.9C460.195 39.924 459.137 37.9653 458.409 36.024C457.681 34.0827 457.283 32.436 457.213 31.084L457.057 27.756C459.519 26.5427 461.685 25.7107 463.557 25.26C465.429 24.7747 467.353 24.532 469.329 24.532C471.271 24.532 473.177 24.7747 475.049 25.26C476.956 25.7107 479.157 26.5427 481.653 27.756L481.497 31.084C481.428 32.4707 481.029 34.1173 480.301 36.024C479.573 37.9307 478.499 39.872 477.077 41.848C475.691 43.824 473.992 45.5227 471.981 46.944C474.408 48.0533 476.921 48.608 479.521 48.608H484.461ZM459.969 29.108C459.969 32.6093 460.853 35.764 462.621 38.572C464.389 41.3453 466.643 43.6333 469.381 45.436C472.016 43.7027 474.235 41.4147 476.037 38.572C477.875 35.6947 478.793 32.54 478.793 29.108C476.956 28.4147 475.275 27.8773 473.749 27.496C472.259 27.1147 470.803 26.924 469.381 26.924C467.925 26.924 466.452 27.1147 464.961 27.496C463.505 27.8773 461.841 28.4147 459.969 29.108ZM501.613 24.48C505.461 24.48 508.425 25.4853 510.505 27.496C512.62 29.5067 513.677 33.008 513.677 38V51H484.453V48.608H493.241C492.756 45.5573 492.513 42.16 492.513 38.416C492.513 35.8507 492.617 33.424 492.825 31.136C493.068 28.8133 493.345 27.0107 493.657 25.728C494.454 25.416 495.581 25.1387 497.037 24.896C498.528 24.6187 500.053 24.48 501.613 24.48ZM495.321 38.416C495.321 40.3573 495.39 42.264 495.529 44.136C495.702 46.008 495.876 47.4987 496.049 48.608H510.921V38C510.921 33.944 510.054 31.084 508.321 29.42C506.622 27.7213 504.178 26.872 500.989 26.872C499.36 26.872 497.748 27.0627 496.153 27.444C495.598 30.8413 495.321 34.4987 495.321 38.416Z" fill="black"/>
<defs>
<linearGradient id="paint0_linear" x1="541.174" y1="61.4122" x2="593.883" y2="8.70311" gradientUnits="userSpaceOnUse">
<stop stop-color="#107EFF"/>
<stop offset="1" stop-color="#8F16FF"/>
</linearGradient>
<linearGradient id="paint1_linear" x1="805.789" y1="15.0001" x2="606.433" y2="63.1936" gradientUnits="userSpaceOnUse">
<stop stop-color="#A430FF"/>
<stop offset="1" stop-color="#3076FF"/>
</linearGradient>
</defs>
</svg>
