<svg width="38" height="38" viewBox="0 0 38 38" fill="none" xmlns="http://www.w3.org/2000/svg">
<g clip-path="url(#clip0)">
<path d="M37.75 18.9678C37.75 29.3318 29.3625 37.7178 19 37.7178C8.63601 37.7178 0.25 29.3303 0.25 18.9678C0.25 18.1587 0.905811 17.5029 1.71484 17.5029C2.52388 17.5029 3.17969 18.1587 3.17969 18.9678C3.17969 27.7123 10.2565 34.7881 19 34.7881C27.7445 34.7881 34.8203 27.7113 34.8203 18.9678C34.8203 10.2232 27.7435 3.14746 19 3.14746C18.191 3.14746 17.5352 2.49165 17.5352 1.68262C17.5352 0.873584 18.191 0.217773 19 0.217773C29.364 0.217773 37.75 8.60525 37.75 18.9678ZM11.9985 4.74414L13.8932 3.95928C14.6406 3.64961 14.9956 2.79275 14.6859 2.04531C14.3762 1.29788 13.5194 0.942725 12.7719 1.25261L10.8772 2.03748C10.1299 2.34714 9.77485 3.204 10.0845 3.95144C10.3932 4.69639 11.2486 5.05454 11.9985 4.74414ZM7.08833 8.50623L8.53845 7.0561C9.11055 6.48401 9.11055 5.55647 8.53845 4.98445C7.96636 4.41243 7.03882 4.41235 6.4668 4.98445L5.01667 6.43457C4.44458 7.00666 4.44458 7.9342 5.01667 8.50623C5.58862 9.07817 6.51624 9.07832 7.08833 8.50623ZM2.07754 14.6537C2.82659 14.964 3.68257 14.6067 3.9915 13.861L4.77637 11.9663C5.08604 11.2188 4.73103 10.362 3.98367 10.0523C3.23608 9.7427 2.37937 10.0976 2.0697 10.845L1.28484 12.7397C0.975171 13.4872 1.33018 14.3441 2.07754 14.6537ZM19 11.6436C18.191 11.6436 17.5352 12.2994 17.5352 13.1084V17.5029H13.1406C12.3316 17.5029 11.6758 18.1587 11.6758 18.9678C11.6758 19.7768 12.3316 20.4326 13.1406 20.4326H17.5352V24.8271C17.5352 25.6362 18.191 26.292 19 26.292C19.809 26.292 20.4648 25.6362 20.4648 24.8271V20.4326H24.8594C25.6684 20.4326 26.3242 19.7768 26.3242 18.9678C26.3242 18.1587 25.6684 17.5029 24.8594 17.5029H20.4648V13.1084C20.4648 12.2994 19.809 11.6436 19 11.6436Z" fill="white"/>
</g>
<defs>
<clipPath id="clip0">
<rect width="37.5" height="37.5" fill="white" transform="translate(0.25 0.217773)"/>
</clipPath>
</defs>
</svg>
