<svg width="328" height="80" viewBox="0 0 328 80" fill="none" xmlns="http://www.w3.org/2000/svg">
<path d="M26.4708 30.4C28.8238 30.4 30.7374 28.4864 30.7374 26.1334C30.7374 23.7803 28.8238 21.8667 26.4708 21.8667C24.1177 21.8667 22.2041 23.7803 22.2041 26.1334C22.2041 28.4864 24.1174 30.4 26.4708 30.4ZM26.4708 24C27.6468 24 28.6041 24.9574 28.6041 26.1334C28.6041 27.3094 27.6468 28.2667 26.4708 28.2667C25.2948 28.2667 24.3374 27.3094 24.3374 26.1334C24.3374 24.9574 25.2945 24 26.4708 24ZM30.0628 16C30.0628 15.3328 30.6036 14.792 31.2705 14.792C31.9374 14.792 32.4782 15.3328 32.4782 16C32.4782 16.667 31.9374 17.2078 31.2705 17.2078C30.6036 17.2078 30.0628 16.667 30.0628 16ZM13.2785 32C13.2785 32.667 12.7377 33.2078 12.0708 33.2078C11.4038 33.2078 10.863 32.667 10.863 32C10.863 31.3328 11.4038 30.792 12.0708 30.792C12.7377 30.792 13.2785 31.3328 13.2785 32ZM68.0708 13.3334H54.0124C47.0604 13.3334 41.4041 18.9896 41.4041 25.9416V38.9334H28.4124C21.4604 38.9334 15.8041 44.5896 15.8041 51.5416V65.6C15.8041 66.1896 16.2812 66.6667 16.8708 66.6667H30.9292C37.8812 66.6667 43.5374 61.0104 43.5374 54.0584V41.0667H56.5291C63.4811 41.0667 69.1374 35.4104 69.1374 28.4584V14.4C69.1374 13.8104 68.6604 13.3334 68.0708 13.3334ZM41.4041 54.0584C41.4041 59.8344 36.7052 64.5334 30.9292 64.5334H17.9374V51.5416C17.9374 45.7656 22.6364 41.0667 28.4124 41.0667H41.4041V54.0584Z" fill="url(#paint0_linear)"/>
<path d="M90.088 17.6C92.792 17.6 94.8027 18.4147 96.12 20.044C97.472 21.6387 98.148 23.84 98.148 26.648V44.952C98.148 47.76 97.472 49.9787 96.12 51.608C94.8027 53.2027 92.792 54 90.088 54H82.08V17.6H90.088ZM90.036 51.816C91.9773 51.816 93.416 51.2267 94.352 50.048C95.288 48.8347 95.756 47.1707 95.756 45.056V26.544C95.756 24.464 95.288 22.8173 94.352 21.604C93.416 20.3907 91.9773 19.784 90.036 19.784H84.472V51.816H90.036ZM104.48 54H102.088V17.6H104.48V54ZM116.231 17.288C118.865 17.288 120.807 18.12 122.055 19.784C123.337 21.4133 123.979 23.6147 123.979 26.388V27.168H121.691V26.232C121.691 24.152 121.257 22.5053 120.391 21.292C119.524 20.0787 118.155 19.472 116.283 19.472C114.411 19.472 113.041 20.0787 112.175 21.292C111.308 22.5053 110.875 24.1347 110.875 26.18C110.875 27.4973 111.152 28.676 111.707 29.716C112.261 30.7213 112.937 31.6053 113.735 32.368C114.567 33.096 115.693 33.98 117.115 35.02C118.605 36.0947 119.819 37.048 120.755 37.88C121.691 38.712 122.471 39.7347 123.095 40.948C123.719 42.1613 124.031 43.5827 124.031 45.212C124.031 47.9853 123.389 50.204 122.107 51.868C120.824 53.4973 118.848 54.312 116.179 54.312C113.509 54.312 111.533 53.4973 110.251 51.868C108.968 50.204 108.327 47.9853 108.327 45.212V43.34H110.615V45.368C110.615 47.448 111.048 49.0947 111.915 50.308C112.816 51.4867 114.22 52.076 116.127 52.076C118.033 52.076 119.42 51.4867 120.287 50.308C121.188 49.0947 121.639 47.448 121.639 45.368C121.639 44.0507 121.361 42.8893 120.807 41.884C120.252 40.8787 119.559 40.012 118.727 39.284C117.929 38.5213 116.837 37.6373 115.451 36.632C113.96 35.5573 112.747 34.604 111.811 33.772C110.875 32.9053 110.077 31.8653 109.419 30.652C108.795 29.404 108.483 27.9653 108.483 26.336C108.483 23.528 109.124 21.3267 110.407 19.732C111.689 18.1373 113.631 17.3227 116.231 17.288ZM135.581 17.288C138.25 17.288 140.226 18.1373 141.509 19.836C142.791 21.5 143.433 23.7187 143.433 26.492V29.508H141.145V26.336C141.145 24.256 140.694 22.592 139.793 21.344C138.926 20.096 137.539 19.472 135.633 19.472C133.726 19.472 132.322 20.096 131.421 21.344C130.554 22.592 130.121 24.256 130.121 26.336V45.264C130.121 47.344 130.554 49.008 131.421 50.256C132.322 51.4693 133.726 52.076 135.633 52.076C137.539 52.076 138.926 51.4693 139.793 50.256C140.694 49.008 141.145 47.344 141.145 45.264V40.948H143.433V45.108C143.433 47.8813 142.791 50.1173 141.509 51.816C140.226 53.48 138.25 54.312 135.581 54.312C132.911 54.312 130.935 53.48 129.653 51.816C128.37 50.1173 127.729 47.8813 127.729 45.108V26.492C127.729 23.7187 128.37 21.5 129.653 19.836C130.935 18.1373 132.911 17.288 135.581 17.288ZM154.926 17.6C160.126 17.6 162.726 20.3387 162.726 25.816V28.988C162.726 31.1373 162.293 32.836 161.426 34.084C160.594 35.2973 159.277 36.112 157.474 36.528C160.975 37.2907 162.726 39.7693 162.726 43.964V49.632C162.726 51.6427 163.021 53.0987 163.61 54H161.114C160.802 53.48 160.594 52.8907 160.49 52.232C160.386 51.5387 160.334 50.672 160.334 49.632V43.912C160.334 41.624 159.762 40.0293 158.618 39.128C157.474 38.192 155.775 37.724 153.522 37.724H149.726V54H147.334V17.6H154.926ZM153.574 35.54C155.862 35.54 157.561 35.1067 158.67 34.24C159.779 33.3733 160.334 31.7787 160.334 29.456V26.024C160.334 23.9787 159.901 22.436 159.034 21.396C158.167 20.3213 156.781 19.784 154.874 19.784H149.726V35.54H153.574ZM169.785 54H167.393V17.6H169.785V54ZM183.771 53.948L176.075 21.76V54H173.943V17.6H177.375L185.019 49.788L192.611 17.6H196.043V54H193.755V21.656L186.163 53.948H183.771ZM202.589 54H200.197V17.6H202.589V54ZM206.748 54V17.6H209.868L220.788 48.332V17.6H222.972V54H220.32L208.932 21.552V54H206.748ZM228.724 54H226.54L234.496 17.548H237.98L246.092 54H243.7L241.88 45.94H230.544L228.724 54ZM241.516 43.86L236.16 20.304L230.908 43.86H241.516ZM256.001 19.784H248.565V17.6H265.777V19.784H258.393V54H256.001V19.784ZM268.748 26.492C268.748 23.7187 269.407 21.5 270.724 19.836C272.076 18.1373 274.07 17.288 276.704 17.288C279.408 17.288 281.419 18.12 282.736 19.784C284.088 21.448 284.764 23.684 284.764 26.492V45.108C284.764 47.916 284.088 50.152 282.736 51.816C281.419 53.48 279.408 54.312 276.704 54.312C274.07 54.312 272.076 53.48 270.724 51.816C269.407 50.1173 268.748 47.8813 268.748 45.108V26.492ZM271.14 45.264C271.14 47.3787 271.591 49.06 272.492 50.308C273.394 51.5213 274.798 52.128 276.704 52.128C278.646 52.128 280.067 51.5213 280.968 50.308C281.904 49.06 282.372 47.3787 282.372 45.264V26.336C282.372 24.2213 281.904 22.5573 280.968 21.344C280.067 20.096 278.646 19.472 276.704 19.472C274.798 19.472 273.394 20.096 272.492 21.344C271.591 22.5573 271.14 24.2213 271.14 26.336V45.264ZM296.301 17.6C301.501 17.6 304.101 20.3387 304.101 25.816V28.988C304.101 31.1373 303.668 32.836 302.801 34.084C301.969 35.2973 300.652 36.112 298.849 36.528C302.35 37.2907 304.101 39.7693 304.101 43.964V49.632C304.101 51.6427 304.396 53.0987 304.985 54H302.489C302.177 53.48 301.969 52.8907 301.865 52.232C301.761 51.5387 301.709 50.672 301.709 49.632V43.912C301.709 41.624 301.137 40.0293 299.993 39.128C298.849 38.192 297.15 37.724 294.897 37.724H291.101V54H288.709V17.6H296.301ZM294.949 35.54C297.237 35.54 298.936 35.1067 300.045 34.24C301.154 33.3733 301.709 31.7787 301.709 29.456V26.024C301.709 23.9787 301.276 22.436 300.409 21.396C299.542 20.3213 298.156 19.784 296.249 19.784H291.101V35.54H294.949ZM307.584 17.6H310.08L317.048 36.736L324.016 17.6H326.356L318.14 40.012V54H315.748V40.012L307.584 17.6Z" fill="url(#paint1_linear)"/>
<defs>
<linearGradient id="paint0_linear" x1="11.174" y1="61.4123" x2="63.8827" y2="8.70323" gradientUnits="userSpaceOnUse">
<stop stop-color="#107EFF"/>
<stop offset="1" stop-color="#8F16FF"/>
</linearGradient>
<linearGradient id="paint1_linear" x1="275.789" y1="15.0001" x2="76.4333" y2="63.1936" gradientUnits="userSpaceOnUse">
<stop stop-color="#A430FF"/>
<stop offset="1" stop-color="#3076FF"/>
</linearGradient>
</defs>
</svg>
